<mxfile host="app.diagrams.net" modified="2023-05-12T13:16:18.089Z" agent="Mozilla/5.0 (Macintosh; Intel Mac OS X 10_15_7) AppleWebKit/537.36 (KHTML, like Gecko) Chrome/113.0.0.0 Safari/537.36 Edg/113.0.1774.42" etag="mv6-ZwJx9rvGvvY5JYOU" version="21.2.9" type="github">
  <diagram name="Page-1" id="nUz4HW9Af1WdEQXtFVVk">
    <mxGraphModel dx="1756" dy="1011" grid="0" gridSize="10" guides="1" tooltips="1" connect="1" arrows="1" fold="1" page="1" pageScale="1" pageWidth="850" pageHeight="1100" math="0" shadow="0">
      <root>
        <mxCell id="0" />
        <mxCell id="1" parent="0" />
        <mxCell id="6u9O3axTfM24tShvITcC-1" style="edgeStyle=orthogonalEdgeStyle;rounded=0;orthogonalLoop=1;jettySize=auto;html=1;exitX=1;exitY=0.25;exitDx=0;exitDy=0;entryX=0;entryY=0.25;entryDx=0;entryDy=0;fillColor=#dae8fc;strokeColor=#6c8ebf;dashed=1;" edge="1" parent="1" source="6u9O3axTfM24tShvITcC-2" target="6u9O3axTfM24tShvITcC-8">
          <mxGeometry relative="1" as="geometry" />
        </mxCell>
        <mxCell id="6u9O3axTfM24tShvITcC-31" value="callback" style="edgeLabel;html=1;align=center;verticalAlign=middle;resizable=0;points=[];" vertex="1" connectable="0" parent="6u9O3axTfM24tShvITcC-1">
          <mxGeometry x="-0.0222" y="2" relative="1" as="geometry">
            <mxPoint as="offset" />
          </mxGeometry>
        </mxCell>
        <mxCell id="6u9O3axTfM24tShvITcC-2" value="PersonLoader" style="rounded=0;whiteSpace=wrap;html=1;fillColor=#dae8fc;strokeColor=#6c8ebf;" vertex="1" parent="1">
          <mxGeometry x="93" y="127" width="120" height="40" as="geometry" />
        </mxCell>
        <mxCell id="6u9O3axTfM24tShvITcC-5" value="Model" style="text;html=1;align=center;verticalAlign=middle;resizable=0;points=[];autosize=1;strokeColor=none;fillColor=none;" vertex="1" parent="1">
          <mxGeometry x="123" y="97" width="60" height="30" as="geometry" />
        </mxCell>
        <mxCell id="6u9O3axTfM24tShvITcC-6" style="edgeStyle=orthogonalEdgeStyle;rounded=0;orthogonalLoop=1;jettySize=auto;html=1;exitX=0;exitY=0.75;exitDx=0;exitDy=0;entryX=1;entryY=0.75;entryDx=0;entryDy=0;fillColor=#d5e8d4;strokeColor=#82b366;" edge="1" parent="1" source="6u9O3axTfM24tShvITcC-8" target="6u9O3axTfM24tShvITcC-2">
          <mxGeometry relative="1" as="geometry" />
        </mxCell>
        <mxCell id="6u9O3axTfM24tShvITcC-32" value="manage" style="edgeLabel;html=1;align=center;verticalAlign=middle;resizable=0;points=[];" vertex="1" connectable="0" parent="6u9O3axTfM24tShvITcC-6">
          <mxGeometry x="0.0917" y="-1" relative="1" as="geometry">
            <mxPoint as="offset" />
          </mxGeometry>
        </mxCell>
        <mxCell id="6u9O3axTfM24tShvITcC-7" style="edgeStyle=orthogonalEdgeStyle;rounded=0;orthogonalLoop=1;jettySize=auto;html=1;exitX=1;exitY=0.75;exitDx=0;exitDy=0;entryX=0;entryY=0.75;entryDx=0;entryDy=0;fillColor=#d5e8d4;strokeColor=#82b366;" edge="1" parent="1" source="6u9O3axTfM24tShvITcC-8" target="6u9O3axTfM24tShvITcC-11">
          <mxGeometry relative="1" as="geometry" />
        </mxCell>
        <mxCell id="6u9O3axTfM24tShvITcC-34" value="update" style="edgeLabel;html=1;align=center;verticalAlign=middle;resizable=0;points=[];" vertex="1" connectable="0" parent="6u9O3axTfM24tShvITcC-7">
          <mxGeometry x="-0.3556" y="1" relative="1" as="geometry">
            <mxPoint as="offset" />
          </mxGeometry>
        </mxCell>
        <mxCell id="6u9O3axTfM24tShvITcC-8" value="PersonViewController" style="rounded=0;whiteSpace=wrap;html=1;fillColor=#d5e8d4;strokeColor=#82b366;" vertex="1" parent="1">
          <mxGeometry x="333" y="127" width="160" height="40" as="geometry" />
        </mxCell>
        <mxCell id="6u9O3axTfM24tShvITcC-9" value="Controller" style="text;html=1;align=center;verticalAlign=middle;resizable=0;points=[];autosize=1;strokeColor=none;fillColor=none;" vertex="1" parent="1">
          <mxGeometry x="373" y="97" width="80" height="30" as="geometry" />
        </mxCell>
        <mxCell id="6u9O3axTfM24tShvITcC-10" style="edgeStyle=orthogonalEdgeStyle;rounded=0;orthogonalLoop=1;jettySize=auto;html=1;exitX=0;exitY=0.25;exitDx=0;exitDy=0;entryX=1;entryY=0.25;entryDx=0;entryDy=0;fillColor=#fff2cc;strokeColor=#d6b656;dashed=1;" edge="1" parent="1" source="6u9O3axTfM24tShvITcC-11" target="6u9O3axTfM24tShvITcC-8">
          <mxGeometry relative="1" as="geometry" />
        </mxCell>
        <mxCell id="6u9O3axTfM24tShvITcC-35" value="action" style="edgeLabel;html=1;align=center;verticalAlign=middle;resizable=0;points=[];" vertex="1" connectable="0" parent="6u9O3axTfM24tShvITcC-10">
          <mxGeometry x="0.1194" y="-1" relative="1" as="geometry">
            <mxPoint as="offset" />
          </mxGeometry>
        </mxCell>
        <mxCell id="6u9O3axTfM24tShvITcC-11" value="UITableView" style="rounded=0;whiteSpace=wrap;html=1;fillColor=#fff2cc;strokeColor=#d6b656;" vertex="1" parent="1">
          <mxGeometry x="613" y="127" width="160" height="40" as="geometry" />
        </mxCell>
        <mxCell id="6u9O3axTfM24tShvITcC-12" value="View" style="text;html=1;align=center;verticalAlign=middle;resizable=0;points=[];autosize=1;strokeColor=none;fillColor=none;" vertex="1" parent="1">
          <mxGeometry x="668" y="97" width="50" height="30" as="geometry" />
        </mxCell>
        <mxCell id="6u9O3axTfM24tShvITcC-13" value="" style="shape=image;verticalLabelPosition=bottom;labelBackgroundColor=default;verticalAlign=top;aspect=fixed;imageAspect=0;image=data:image/png,iVBORw0KGgoAAAANSUhEUgAABSYAAALvCAYAAAB4Ehu5AAABWWlDQ1BJQ0MgUHJvZmlsZQAAKJF1kL9LQlEUx7+WYoRQQ0ND0AsaGrREI2oKc4ggQayg2p7PlwZPvTyfiNAYzT1wamixrTGoxmh2Cwr6MfcHBDakvL5Xq6dF53Lu+fDlew/nHmBgSBXC8ALIFywztbqibO/sKv5X+BDgWUJI1Uoilkyu04Lv2h/Ne3hkvQvJXu8LjfOph8RFxZirVVonk3/9fTGc0Usaa4sZ1oRpAZ4gOVmxhOQD8pjJocjHkrNdPpOc7vJ1x7OZipMb5FEtp2bIz+RgukfP9nDeKGtfM8jpA3pha0P2YU4ggX0ovIsokCxW8x//fMcfp0OgCpPuLHJ8oSBGRcCATl5jHw2zCJIjCDOjcs+/9+dqRf5vsQkM2q6WrgFXR8D4o6tNnwIjh8DlrVBN9Wernqa3tBeNdDmwDPheHOdtBvDbQNt2nI+647Tr7P8E3FQ/AXJmZeb5vkBQAAAAVmVYSWZNTQAqAAAACAABh2kABAAAAAEAAAAaAAAAAAADkoYABwAAABIAAABEoAIABAAAAAEAAAUmoAMABAAAAAEAAALvAAAAAEFTQ0lJAAAAU2NyZWVuc2hvdCQC3E4AAAHXaVRYdFhNTDpjb20uYWRvYmUueG1wAAAAAAA8eDp4bXBtZXRhIHhtbG5zOng9ImFkb2JlOm5zOm1ldGEvIiB4OnhtcHRrPSJYTVAgQ29yZSA2LjAuMCI+CiAgIDxyZGY6UkRGIHhtbG5zOnJkZj0iaHR0cDovL3d3dy53My5vcmcvMTk5OS8wMi8yMi1yZGYtc3ludGF4LW5zIyI+CiAgICAgIDxyZGY6RGVzY3JpcHRpb24gcmRmOmFib3V0PSIiCiAgICAgICAgICAgIHhtbG5zOmV4aWY9Imh0dHA6Ly9ucy5hZG9iZS5jb20vZXhpZi8xLjAvIj4KICAgICAgICAgPGV4aWY6UGl4ZWxZRGltZW5zaW9uPjc1MTwvZXhpZjpQaXhlbFlEaW1lbnNpb24+CiAgICAgICAgIDxleGlmOlBpeGVsWERpbWVuc2lvbj4xMzE4PC9leGlmOlBpeGVsWERpbWVuc2lvbj4KICAgICAgICAgPGV4aWY6VXNlckNvbW1lbnQ+U2NyZWVuc2hvdDwvZXhpZjpVc2VyQ29tbWVudD4KICAgICAgPC9yZGY6RGVzY3JpcHRpb24+CiAgIDwvcmRmOlJERj4KPC94OnhtcG1ldGE+Cj+LtjYAAEAASURBVHgB7J0HfBTFF8dfKiWhN1FUil2x917A3lHsBRARsaKioKJSBRsWRETFBtjFRlFB7F3/dlTAhiC9pFDS/u83yRxzm727vcuFhOT38snt7uy0/e7s7MzbNzMpbdp2KJESUUnRf7ODgw1inCOc2+CLeyRAAiRAAiRAAiRAAiRAAiRAAiRAAiRAAiRAAiQQmEBqYJ/0SAIkQAIkQAIkQAIkQAIkQAIkQAIkQAIkQAIkQAJJIkDFZJJAMhoSIAESIAESIAESIAESIAESIAESIAESIAESIIHgBKiYDM6KPkmABEiABEiABEiABEiABEiABEiABEiABEiABJJEgIrJJIFkNCRAAiRAAiRAAiRAAiRAAiRAAiRAAiRAAiRAAsEJUDEZnBV9kgAJkAAJkAAJkAAJkAAJkAAJkAAJkAAJkAAJJIkAFZNJAsloSIAESIAESIAESIAESIAESIAESIAESIAESIAEghOgYjI4K/okARIgARIgARIgARIgARIgARIgARIgARIgARJIEgEqJpMEktGQAAmQAAmQAAmQAAmQAAmQAAmQAAmQAAmQAAkEJ0DFZHBW9EkCJEACJEACJEACJEACJEACJEACJEACJEACJJAkAlRMJgkkoyEBEiABEiABEiABEiABEiABEiABEiABEiABEghOgIrJ4KzokwRIgARIgARIgARIgARIgARIgARIgARIgARIIEkEqJhMEkhGE05gl513kuv7XiOtW28WfoJHJEACJEACJEACJEACJEACJEACJEACJEACJKAEUtq07VAiJWCRov9mBwcbxDhHOLfBV1L36tSpI3vvtWcozl9mz5bly1eEjmvTzrbbbiM33nBd6JIHDRkmf//9T+i4Ou5ccN65MmzoIJO1gsJC2W2PfSQnJ6c6ZrXa5Mlb5n/97XdZunRpoPw1adJYdtpxx5Bf+7w0atRIoCC28ueff8m/CxbYw6jb9u3ahSmVf/zpZ1m1apW0bNlStt2mQ8SwuN9z5syptc9rRDA8QQIkQAIkQAIkQAIkQAIkQAIkQAIkUI5AejmXauDQ5fRTZcTwoaGcDB0+Qh4ZOy50XJGd0087RQ479FATxR9//imj7n+wItFVeth99t5Ljjm6cyidN96cUqWKybS0NLn37pGh/Dz08Bj5/fc5oWPsXHDBuaHjjPR0OfigA2XqtOkht+q4E+S6KjPf3jIPJeIhhx8VKMkJTz8pHTvuEvI7fMRd8vCYsXLh+edKP0epvWDhQtnvgENC/qLtTHnzNcnKqh/y0qv3FTJl6jS556475fDDSp+f0EmfneLiYvn6m2/ltjsGyw8//Ojjg04kQAIkQAIkQAIkQAIkQAIkQAIkQAK1nUCtG8rd9cwzBMpJ/F/Zp3dtv/9xX39mZmaIXynHU8vF8eVXX4fcoKCaMfO90HF13QlyXRsz723bbi3HHXtMzCT32WfvMKWkG2DsuMelUC0YrWzeurXsumtHexhxe8rJJ4UpJXPz8oxSMmIAnxOpqakCpfpbr78qnTod6eODTiRAAiRAAiRAAiRAAiRAAiRAAiRAArWdQK1TTNb2G74xrv/mW24TWLm+NWWqdDrmeFm/fv3GSLbGpWGHw0e7sPvvvSviaXB/b9YHYedvGXBT2LHfQd9rrwpzfuGFl8KO4zlISUmRJ8aNlSOPODyeYPRLAiRAAiRAAiRAAiRAAiRAAiRAAiRQCwhUy6HciXKvV6+erFu3TmClV5mCIa55efkRk8jOzpbc3NyI56OdiBV3tLDJOJes9OMdel8RZrjudB0yjuHYuP8bW2BtCUm2ArZ5s2bSvdtF8sT4p3wv6aQTT5Att9zS95x1HKYK4s6OxeL+++0r0VjDUhPzS1opKSmRu+65zx6W2553wcWyUueehKSplWT79u3UUnJv6XpmF8nIyDDuUE4OGXSbHHjILHPMHxIgARIgARIgARIgARIgARIgARIgARIAgU3OYvLpJx+X77750vy/8tLz0rRpE3nhuQny84//k99++UH+nPur/Pjd10ah497i/jfeYMLsu+8+IWcolGxcH86aEXL3poETUBB9+/Xn8vcfv8vkl18M+cUOFKKjHxwlX372sfwxZ7b8onn5a95v8sP/vpJBtw8Uq7gKC1R2gCGvI+8cJt98+amJe/ZP38svP30nr7z4XNRhtzvvtGMo77gGd5ETNx3Ea6/xphuvd0+F9i/r1VPef+8dmfvbz4L0kfevv/jEWLphYRUr33z1mXz+yYf20Gx7XXpJKP6ePboZNwyRt2kiHvDxSiLMvPFCiXrP3SME+Zr3+y8y59ef5Nefvzf3wptetOOg1+XGcXTnTjJ96huGF7jhH+m/Pe1NM4TZ9VuRfSx8hDLiJ0MH3+HnHOY2Z+5cwXyVVqAkvOG6a+1hue2tN/cPc/v8iy+jKtl//Okn+f77H8z/t//7Tl5+ZbLcNOAWVUIeLgUFBaG4tthii4jXEfLEHRIgARIgARIgARIgARIgARIgARIggVpFwF/jUY0RbNOhvVFGQiG51557yKcfvS8H7L+fNFArRQgUL1iN+I7bbpW7Rw4PXUmHsnBYjMUVxIP/Nm22CDm7aUABeOUVl5v4YMGG+F058YTjVAn3hZx80omy2WatjOUezkOZ1LhxY+l28YVGUYl4vLLF5psbRd85Z3eVFi1ahOLOzsoSzB34xuSXBRZuftKgQYMQB+S/nWPl5vpHvPYa3ZWb4WfLLdvIB++9Kzf3v9FYyVkFKvKO1Zc7dz5KFZSfCuYchLRo3lxcRSXcwNPGD2s7CLbWDfFk6fW4kigzb7wz3pkmXc/oYvJl70v9+vXNvZj57nRfhaibD7sf9LrgH8rQSROelsfHPWJWwsaxFaysveMOOwgU5hi+nAzB9birsts4oRD23gt7zrt94MHRYU5du54RdmwPYHV6hGfINSwuE5H//lsks5xh5ChThx5ycCJRMQwJkAAJkAAJkAAJkAAJkAAJkAAJkEANJbDJKSbd+wBlBxQ3keSsrmfKVVf2iXQ6kDvi73d93zC/JVJijrE68ZjRD8ZUgEHh99qrLxllnxvRSy9OMspM183dx/WdduoprlPS9jGcd8bbU1Wh2TZqnBiOO3zY4Kh+4jlZUWZuWlDsRpJtt+kgz096NtLphN2xWjVWGY8lUOoOHRLbojFWPDjfs2ePsDKGIevXXXt1xKDeqQxefPkVyc/fMPUAFN8YBu6V3pddahTN1n3x4sUCK8hEpU7dOmFBXQvKsBM8IAESIAESIAESIAESIAESIAESIAESqJUENmnFJO4YlDAPjxkru++5rxzZ+Vj59dffwm7kxRddYI6HDLtTLu7eU2bP/jV0vkBXLIYb/s+/sFvI3W8Hfsc9/oQcf9KpcuzxJxtF0aOPhFui/fHHnyaunTruIb37XClLli4NRQVrunemvWXmQYTjBeedK210eKsrUCDhGvY94GAZPeaRSp0r89mnx4cpu9asWSMDbh4ou+25j2DewK+/+dZkDcqpgw89wuxfcFF36dX7CjfLZrVmy/DhMY+GnfMeYPh2RZh548PxuzNmymFHdJY99t5fXnn1tTAvu++2a9g1hp10DoJe1w2qoHbnX7RlD8OWcd8mPfeCYE5GKxeef55cdOH59jCu7SeffhbyD6vU4UM3KIcH3jIg7Lo+/uTTkF/sQKHtFS8b7wI38I/pClzBqt6Jyh677xamwAWXTz/7PNHoGI4ESIAESIAESIAESIAESIAESIAESKAGEggf17wJXuD1/frLiy+9bHK+bPlyOeb4k+Sn7781Q27h2KxpU3MO8+zhv+cl3c0xfkpUqTlj5nuh40g7UNrts//BsqpskQ/4u/WW/mHKIShdup59XiiKN9+aqkq76fL+zHfM0GacwPDmC84/V5586hnp0+eykF/sQCn4zISJIbc7R9wtH374sTw38ZmQW7J2oDTCMHgruXl5sve+B4QW9Pngw48E/5100ZQPPvgotKjLrPc/CLtmhJ+nytggDOG3oswQhytQSnbrcWnI6eprr5Ott94qdG0Y3t2x4y7yhc6TGE2CXtflalFoBYq2o487MUwR3u+mATL97XfkySfGWW/G2vapp+O33Hxv1vum3GzeurWJ67RTT5bBQ4bJOl1p+8ILNpSzlStXynPPvygHHXhAKE2/nZF33yPnnXt2aLqAbTp0kK222lL+/vsf4x1TBmCqAiuwbnzs8fH2MOK25yU9wp4L5Hd3LV8oY67888/8SlW0u2lxnwRIgARIgARIgARIgARIgARIgARIYNMgUN60atPIt8lloVoxWqWkzXZRUZF89fXX9tDXeix0MuDONX1vCFO+INi+uvKwFeSjW4+e9jC0hUXdeRdeHDrGDoaXQ1rq3I9WFi1aHKaUtO6whPvp51/sYdK2xx93bFhcfa/rF1JKuifefXdmSCnpuie6X1Fm3nS9cyfivLc8bOnMHeoNH88xFhfCHIxWXnjxpTClpHWHkvbLL7+yh9KwYcMwK8vQiQA7199wU8gXrCAfGHWv3DVieFg+bhkYbLj4ihUryw3LhuWllQE6z6gr06a/E0iReMXll5k5SjFPKf4xp6pXKYnn4+zzSi2X3TS4TwIkQAIkQAIkQAIkQAIkQAIkQAIkULsJbNKKyfVqPeYnCxcu9HNOyA2WcdOmv10uLKzNrPz9zz++ij2ch0VaTm6u9SqtWmExmPqCuRutfPf993a33Pbzz78o51ZRh/2cBXVwfVOnTa9olIHCV4SZXwL/zP+3nLO7AnW5kxVw6KyrcLvy/IulVrqum92Hpawru+7a0T0MvP/hRx+HTT1w6KEHCxYOsvLP/Pny2utv2MOY26GehWyOPPIIo+TEIjoY9u7KUJ36IBmCuS0x/B8WkxQSIAESIAESIAESIAESIAESIAESIAEScAlsMAFzXbkfIoBh3LB89IqrWFy3bp33dNhxYUFh2HFWVukK4tZx7dq1drfcNl/TT7Y0bNggFCUsTDeWVITZxspjpHSaNyudEsCeX716td0tt83N26CIxsnU1JRyfoI6XHH1tfLu9Cm+3mHJG49gSDvmPcUq5BDMXXl5716C4dd2VXO4Y57WfxcswG5Cgg8Gi5cskZnvzZKBtw2SjVnGEsowA5EACZAACZAACZAACZAACZAACZAACVQJASomE8QOSzAM04W03XrriLFgwZfGjRuFzv/++xzBgjKwVLTKoB132CF03rvjtWTznrfHzTyKM7g3arQhXesP2wULFkqH9u2NE4Ynb7vtNoJ8VbZUhFll5y1W/L/PmRvm5bhjj/Edyg1Phx5ySJjfGTNnhR3HcwAlIRbCOfCA/cOC/fjTzzHnzgwLUHYwfvxT0u+G60KnenS7WOcNrRs6xs49990fdhztAIslLV++IpoXniMBEiABEiABEiABEiABEiABEiABEiABXwKb9FBu3yuKw9EqBuMIEvL6zbf/C+1D+Xjrzf1Dx+7OmNEPhBSQcLcrE2PBGStQDHrn5cO51q03i7ioCRb6ceXIIw53D83+OWd3LecGh1cnvx7m/tijY8KO7UEkxaY9j216Wpp7GHW/osyiRp7kk97rev2NN8NW3MbcirjvXmnTpo2ccPyGOTxhcesumuT1H+QYi/pAke3KlVdd6x4G3h8zdpxghXkrWJDJvQ5MO7CxhvbbPHBLAiRAAiRAAiRAAiRAAiRAAiRAAiRQOwnUOsVkfl5+6E5jaDHm/4PVIFYpjkeGDR8Zpiy6tGcPGT50cCgKxPnEuLFylM7jZwVDvu1Kx5NfC1cOvvTCJHGVi7CixBDeSMrTuXPn2WjN9vDDDpVTTzk55Ia5CG90LONCJ3QHC8S4yrL27drJtClvhFlY9uzRTb7/9kvjnpmZGQqO1ZpdsdcH5SquOZpUlFm0uCt6LtZ1wSrwq682LKpUp04d+fyTD2XnnXYMJY2VsWe8PSVswaWJk54PnU9057//FglWebfy/gcfypy54Rac9lysLRaimRllJfpJSchvrDzwPAmQAAmQAAmQAAmQAAmQAAmQAAmQAAmAQK1TTE5/592wO//ma6/I3N9+lrfeeDXMPdbBL7NnS/+bbw3zdv5558jff/wuv/78vcz7/Rfp3PmosPNXXXOd5JYthDP8zrvCLNeg/Htq/GMmL3N+/UnenvZmaKh4WCRlB5j3cvbsX0OnoMB88P57Tdq//fKDjBn9YFRF4YmnnB6WPhRsP373tfzy03fy17zfZOCtNxsFG9w/+/h9scpJKLbcobtQSM6bM1tmvjNNel92aSg/fjsVZeYXZ7LcglzX2eddKEt07kQrWDQGCl2UH9zv5yY+I/Xr17enzTyNtw8aEjquyE6/mwYI8oj7frWWo4rIoCHDfIMj7ntHBR/G7RsJHUmABEiABEiABEiABEiABEiABEiABEggIIFap5jEkFwoeKxAoZeammoUSmd1PdM6B9pOmPicPDru8TC/iA/KKdfSEcNw73/gIZkydVrIb05OjlxwYbcwq0uchAIQ1nhW5v3xh90tt+152eXiDgmHB6Rth+Z6rQDdCLB6dfcel5ZLPzsrK8ziD2Ew/NxlNv3td9yozCIqcLike7cwd7+DijDziy+ZbrGuC4u6dD7mBMFcma7gnrkL++DcAl0ZvssZZ7veKrQPhfb4p5421q7eYfzxRoyV4ufOC7e4RRyf6QrweY5Fcbzx0j8JkAAJkAAJkAAJkAAJkAAJkAAJkAAJxEOgWiomCzyrWMdzQbH8Ys6/4088VbB1BXPrzZ8/33UKtD946HC5qNslvqsYQyH5xx9/ypGdjpW77x1VLr6PP/lUjjvhZIGiyCtQfg0dPkLGPvqY91ToGMrFffc/WLD1ChbYOfyoo73OYcez3v9A9jvwELOIincOQxwvXbZMLu7eU/pceU3YyuSw3vMORUfEX3/9jYm/qKj8KuZuwhVh5saT7P1Y14X0oBTcc5/95eVXJocpa21eMFz/4TFjZb8DDvEtE9afdxukzA8aPEyu71d+LtNYq8J708LxfaMeLOc8ZNid5dy8Dq6C2nuOxyRAAiRAAiRAAiRAAiRAAiRAAiRAAiQQD4GUNm07lIhZVyNFw4UvsGEiMs4RzsWTUjXzCyvJ/ffb18wR+JUq1L7933cVzmF2drbsu8/e0q5tW/nm22/jirNBgwZyyMEHSYsWzeWtKdNk6dKlceWnZcuWcsThhwmUVLD88ypeY0UGHrvpfJu77LKL/PXXXwKlaVFRUdRgSLNzpyNNWlByukO8owZ0TlaEmRNNUnfjuS4MZd9rzz0E1qkz35slK1asTGpeGBkJkAAJkAAJkAAJkAAJkAAJkAAJkAAJ1FQCtVYxWVNvKK+LBEiABEiABEiABEiABEiABEiABEiABEiABDYFAtVyKPemAI55JAESIAESIAESIAESIAESIAESIAESIAESIAESSJwAFZOJs2NIEiABEiABEiABEiABEiABEiABEiABEiABEiCBBAlQMZkgOAYjARIgARIgARIgARIgARIgARIgARIgARIgARJInAAVk4mzY0gSIAESIAESIAESIAESIAESIAESIAESIAESIIEECVAxmSA4BiMBEiABEiABEiABEiABEiABEiABEiABEiABEkicABWTibNjSBIgARIgARIgARIgARIgARIgARIgARIgARIggQQJUDGZIDgGIwESIAESIAESIAESIAESIAESIAESIAESIAESSJwAFZOJs2NIEiABEiABEiABEiABEiABEiABEiABEiABEiCBBAlQMZkgOAYjARIgARIgARIgARIgARIgARIgARIgARIgARJInAAVk4mzY0gSIAESIAESIAESIAESIAESIAESIAESIAESIIEECVAxmSA4BiMBEiABEiABEiABEiABEiABEiABEiABEiABEkicABWTibNjSBIgARIgARIgARIgARIgARIgARIgARIgARIggQQJUDGZIDgGIwESIAESIAESIAESIAESIAESIAESIAESIAESSJwAFZOJs2NIEiABEiABEiABEiABEiABEiABEiABEiABEiCBBAlQMZkgOAYjARIgARIgARIgARIgARIgARIgARIgARIgARJInAAVk4mzY0gSIAESIAESIAESIAESIAESIAESIAESIAESIIEECVAxmSA4BiMBEiABEiABEiABEiABEiABEiABEiABEiABEkicABWTibNjSBIgARIgARIgARIgARIgARIgARIgARIgARIggQQJUDGZIDgGIwESIAESIAESIAESIAESIAESIAESIAESIAESSJwAFZOJs2NIEiABEiABEiABEiABEiABEiABEiABEiABEiCBBAlQMZkgOAYjARIgARIgARIgARIgARIgARIgARIgARIgARJInAAVk4mzY0gSIAESIAESIAESIAESIAESIAESIAESIAESIIEECVAxmSC46hzs4IMOlC222LxCWUT4224dIJf27CGNGjWsUFzVMXAijPbea0/Zbrttk3Y5u+7aUY479pikxceIqj+BFi2ayyEHHyR169aNmtkTjj9WOnbcJaof92SiZdMN55bHoPl088D96AQyMjLkgvPOEbCtSeKWm+p+XampqXLaqSfLsCF3yL777B1XdnH/8Oy2atkyrnCbgufNNttMdtl5p00hq8xjHAQq89lMVn2G5+mC888VPJs1+RmL47YF8oq26JZt2gTy6/W07TYd4q7/vHEkcuze60TCV6cwW2+1lRyw/35JyVJF3kuJZCArK0v23GN3yczMTCR4lYdx26dVXWe4ealyMJ4M1KTnzXNpPKzBBKqlYvLN116W92e+HbUDt/nmrY2fNya/bG7PvXfdKR+8907MF8W4sQ8bf9tvv52ccvJJZh/h3P+Z70yVp8c/JjvusEOFbn2H9u3lvntGynbbblOheOINjE7XVVdcHm+wkP/GjRrJpGefkiOPOFzOP/fsSlOeJXKfQ5ms4E4ijEYMHyK3DLjJN+VEyt+wwbdL/xuvl7S0NN84K9Oxsst+ZeY9UtxQ8t49cnik09XC/bRTT5Ghet+33nqriPmpX7++3HjDdTL49lsj+vGeiFY2vX7dYzecWx6D5NONJ959+7ycqnVwNJn61mumboYfW2YjPYM2nku6X2zCXNHnMkEdM2vG9KiKYHQK3p3+lqDehySSN5t2tO0Jxx0rPS/pLldf2Seat03unFtukpn5ynieR945VK69+ko56MADZNAdAyNm1y/tzVu3Ns/uWV3PiBiuIids+b5H2zLR5P777jblGx8v8NEQbZcXn58QLYi0a9fW+HvqiXEhf3jvoC6a8fYUeWHSM/LwQ/ebNtULzz0rUFxsLLmyT2/fZ8LvHmysPMVKJ5G2i61XYikzktlGraxnE3ySVZ/1u6Gv9OzRTY44/DCp7Gcs2W3yjf3MQgny5OOPmnfaY9qXmfDMePPeGv3gKIGyKajc2O96uVPbs8mSoFzde52stCPVH8mKP1I8vS7tIWg/JUOCvpcqmhY+jE6b8rpMfXOyjLr3LtPumfLGq3LcMUdXNOqI4SujHnfbp5VdZ7gX5nctbl5cv9VhvzKetyDXhfejq1PBPnQ6KHt9r7kqSBTVzg/6lmhzUSqfQLVUTKKjmJKSIjf3vzEiAZyDHyuPPPqY2e3dq6d1KrfFS317/cq4ZMlS+fXX31QhVHr5v/0+R96b9YH5/+LLr2TFipXStu3WMvqhUYKvYokKlA977bmH7LTjjolGUSXhzj3nLJPuDTcOkFNO7yrPPf9ipeQjkftcKRlJQqSJlL9RD4yWp5+ZIEVFRUnIQXxRVHbZjy83yfF9wP77GiuAqlD0JucKSmPJz8+XZydOkgceGpPMaGPGtTHLY4rW8ZBevS6JmK/zzjlbslRJa+WNN9+SgoIC/WByWFRl/umnnSLFxcXyxPin5Y03pxhLHHR8I8mpp5xkLAfe//Aj4yWRvEWK23WfMm26vPPuDHl8/FOu8ya/X1nlpjKeZ1iJ/Pfff3JEp2PlrHPOj8i+MtKOmFjZCVsnw4q5devNfL2jPbLH7ruFzq1atVrmzJ1rrDijfUi1Hypt2YOF5OSXXzAWoCtXrpLX3nhTnn52osY1TzZr1Uoee3RMpXZWQxegO3ieO3c60nUy+1VxD8plIoJDIm2XRNoItkwk2katrGcTWJJVnz085lGZOv1t+fiTTyPQTp5zstvk9v5sjGf20EMOlucnPSvt27czzyme18mvvyF4fjvusrO89soLAoONqpCgXCvjXkeqP6qCQ6JpBn0vJRo/6qtHHn7AfBhFrxn93XGPPSHffPs/wYfw/jfdELW/nWi6CFed6/F4r2tTu5bKeN6CMEN5KywsDOlV3v/gQ6NzydRRJ2hvDxl0W5BoqpUfjLCBsRal8gmkV34SiaeAyhpDFf6ZPz8sEnydw4vYFTTcFi78zygUMQz5338XuKfNfp/el5ktXuiuvKYvd3RgXYFVRJ/eveS2gQOk+yWl4dzz3n0oQ+JVMOHhRQe6ohI0nqB53GyzViZLX3/zbcRrCppmEH/x3Gc/VkHSCOLHxh2PXxsmkfL37oyZNni5bSJ5KBdJAIdEy75f/vzc3CzEKn+xwrtxJbofNI2g/hLNR6xwj457IqKXyspbtPIYMTPOiUTyBcXjeWqVPWHic05MYpSJF114Xpgb6koo9o5Xy8Ozu54pEyaFh4HnIw4/VLKzs+Wrr74WKHjHP/WMoC4/8YTj5MHR/ore8889R0pKSuSh0Y+EpRdP3sICRjhYv369DB56p+/ZWM+GX6BEePvF43ULGq/1F63cWD/eNCrzOBrL9PR0bU/8a967UOptDImXAT64wiq4z5XXlMvegP43lHN7ZOxjxlIcFsJ+YWBJBWVmTk6OfFCmfB+lIzlgbTn5tdfl3lEPhuJ87PHxZqj7ZZdeYjqtoRNJ2ImXQ5Akg8YZ1F+QNF0/8bRdEmkj2LQSfU9HejajPSM2Te/WGyZafYawQZnPnTdPht95lze5csdB4wvqr1wCZQ7e64zkz3Wv7Ge2QYMGcvttt0iq1g13DB4mM2a+F0r+3vsekEE6umKHHbbXjy6LQu7VcSfovY6U90TuDeIKUiaS5SdS3qPFn8h7KVp83jzccN21xkDm9zlzzTti7dq1xsszEyaZ6akeHHWPfPrZ595g5jhR5r6RRXH0u55kpO0Xr182gvrzC5uIW9D0/Pz5ufnlIdLzlgjXoGnafOTl5cttdwy2h2aLtshzE54WfGRp166t/PHHn8bd/fFLx8/NDYP9WNcUJA5vnPEcxxN/PH7jyUNN8VutFZOAfPOAfnLZ5eGmvwP69/Pl/8STT5mvPrAOuLH/LWF+UGgPPfRgQYWMRl4sef6Fl+Scs7vGtJjsd31fY3WARj6+EPzzz3y5/8HRctJJJ8hh+vBBrryit/S+7FJ54cWXzJfO7hdfKFtu2UbwMkJne/avv8p1N/SXvLw8Mzfk4+MekQn6wjj00EOkg34dRd6XL18u115/o/z551+hrGOexBuuv1Yw9BpK0fmqjL35lvAvEc2aNTPDhXfV+eowrx0ak99//4OMvGeUsRwJRVa2M/GZJ8UqJqe8Mdm4XnvdDfLzL7ONNRqGmDZr1tS86PPXrJGXXnpFHnviyVA0GFL222+/y3fffa8KgTOlefNmctiRsYcJxHOfkRi+XsTKC/wFYQR/qDCH6RB4zLOFOUvACYrZAcozqMI53vKHYSDt1DK36zkXIAtGYOZ+zNGdpV69ulKIe6qd6Bv69ZdFixcLygWUJWefd6H1bjqX+IqOL1Ju4x5WY716XiIj7rpHZr43K+Q/yI637J/Z5XS5RC3OrrjqGul77dWmTIJN/5sH6n578/ULFj6obPNUGfSCPjtQCEGClL9jju4kV1zeWxo2bGDCrFixQoaPuFs+/+JLc2zTv3PkXXK5fixo2aKFUSShnF117fXmmY5WbmPdW3zIAFt0ynfUxv3+++1rLPNO7VJqOWwy4flJ9F7YaMANQ7VbqXUSBJZKV17d1yjTcPzSCxPNF8abb70dh2Zai6GDbpdtdIgl6g3UY+AzaMhwk1fjSX8wNcDhhx2q5aee8QNlnPeji/Xr3fqVR68fDP+BZdbYcY/JK6++Zk5HK7Pe8H7HF+r8YpOeeyHsI80lPS72HX49Zuw4M7XE2Wf5KyZ7dL/YJPFAmRISz/Fnn3+p9cABRqE5Zeq0sCxgHk/UUbNn/yrLli0LO4eDePJWLrDHAdZujz4yWsY9/oS89PKrZo6ny/W9AAsY3NPc3FyBIuGhh8ea+scT3NRRV115uWnUWUtSKJvGPTbeWM54/eMYcyJCyYV3j7WWs/4wLOWqK/qopdwE+eyzLwSKLbwnUP9B/lu0SG4ZeIepz3EcqW73lptu+n47+cTjpWnTpmZUA6xccV14piEVfZ5NJJ4f5BlzIu+z916m7OO9OnfeH6oIHm7emSdpflDHQDCKYfqUN+SX2bPlmr7lFX2R6hI0tCGYlwvWJ9ttt52k492s9RXqaHT6rMSqF62/SFt8eG3XLrzhjjnl/KwizSiPlSvNuwttgZWrVoVF20vniUbdjDIHgaIellVoB7hKSRvo1cmvC/4jyRldTtOht921zXKjKTPbbbttqPxCaWLrbYSPVhaaNGkikyY8JfW0XQLBPVm7bq2cctqZEukeoB1SkfrclmHUCxjOjzbRGm3H3HPf/fL2OzNMPuL9iaftEm8bIVpevO9pP7/eZzNSexWWU34CxWukOqq1Wt269RnYztX3WJMmjXVk0nbm2Z//77/S54prpKuWuVNPPtF8NEI7GeXLfihCXd7togvlwot7lMsCnqNE6yVvZLcNvNm3TY56MVb94Y3L77gyn1lMuYC65uFHHg1TStp8DLw9XAFg3WNt0d7F+wFtfihXodi84uprzagyhO177VVqzXyUHHfCKWFR2XfHler3HB1h5dfX8b5vEIF7r9Mz0k27K1ZfJ1IbcuxjTwimtfCrP5BWkDr4MO1jReuPIR6UjTuHDZbdd9vV7OOdO236OzgVSC684Dw568wuAuUyPoAuW7bc9BHRZo/nvYTEotWnkTKDdsfxxx1j2uaXXtanXH8G7ehjjj85LHiQ56Ei7/FVq1dHbHMHSTsssz4Hse59Im3+SO8kmzzSjNamh79Y+bJM/fpasd57Nh/u1n3e0IfEu/uM008LjchAWcToLNuWd8NiH/mNVf96w0Q7ho4D+pGBt/SXo448wvS57DvZT2cQq28R7f2Ed3wQZjb9SG2CWM9orP7rsCGDZJsO7WTI8JGqs+greG/efe/94u2LRONW285Vy6HcuAmrteJC5xvDoN05GvEixfxHUIpBCeLK9LffNe777btPuU4tXg54sU/TISNBBR0qKAUjCR4aWOLgRfXyK5Pl2/99ZxSOmJcRlf3ff/9jgi5YuFB++PFH+VXdDj/sEFMpfPTxJ/LEk0+bMLjGB/SLFaRhg4ZSX5UKmIsMSisogNCBQicPc8vYhWjwUEOR1qihzjGlVhBTpk6XJo0by/jHx5p47M/9991llHg//fyLyeMfqtjcWztvYOQnyGeOdpAhP/70k8n3kqVLTYMCcyyg0Yn03poyTQrWFwi4ukPu0YjAHEpX6LxR4BKpwrNpJ3KfUdkGyUtQRlACvvLiJGNVAgUF7iXuFa7j2aciW67Za7DbeMtfa52zDLysYM4gmLlDCT35tTfkk08+la1UgY3OG+77IlUUoEPpzv917tlnmfLSScuDK5i7r27dOvoV9DPXOfC+W/aRJhhhHiM8i599/oW5r1DqPPHYI6pcaykffvSxsb5ZrVZIaDyhAwSJVf6wuBLKT0ZmhkzVoa74r1evvtw1YphRqiAOm/7tA2+RunXqGkXrYn3JwkJgwtPj4cWUU79yG+Te2mcOVkKdjjpSYNnitao2iTg/Fb0XeEFhCM3MWe8bS2/cU9xnK3jerdIS00o8P/EZc70//vSzYY8OBBrV12nHwcrWW21plNqwCEP9AmUXvpTjxRpEvOXRGwbKGDQE8GXdPtexyqw3Du8x6jYoUbt3uyh0Cg1TWERC3A8xOIaV2w8//GieByiQXQGnrbbc0ljYu+EeHP2w8XbxReWH7l5xeS9z7qEx4fUmHOPNm4koyg/uN8pjY62n8V65W+cShFLygw8/ljffmmreZ5izrHnzDXWCGx2US+gkLl60WKCUeFE/CqWnZ5jOo1snuGE++fQz82ydqR0jr1ykdTfqCLw70FCHVd0PP/4kTz39rKAuwweAMTrvoJVIdbu33KDTik4u3hGYqmLx4iVGmXxpz+4mqoo8zzYv7hbl5ZUXnzMK20WaFsom3sXbdGgvj+uQZHw0wfOCdxsECmDsR1LGRHoH2jTxPG27zTbyrSpzwAvvXcwLaBfFCVIv2rj8tih3EPe9ao5v6mfc7XlzUPYDxT6Y9+59qets9o89prP5yGXrNDuf2M0Dby/nN4gD6iaUY3ykaN+unSpKZhmlHhS2I3UOz65nnB6KJlpZKC4ukh+VHz78Faki2dwTbe9AIt2DitbnKMNQ1mM+Q9QRGD6cofmGcgZ1fzySSNsl3jZCrPy472k/v+6zGa296hc2Vh3l1mcID7YHHrC/PncdTBvh73/+MSOeXnnpOTNXOTp+M/Qj6Trdnqll5JqrrjDJ4rnBffVbiKMi9ZL3miK1yYPUH964vMf2maysZxb9Hrz7kjmtUpq+T9DvgILwdZ3KAe06KChh0bTTjjuYS8S0DvYjmHvNTfWjAu4ZRidE4ur6t/vuvbbtrlh9nUhtSLyvItUfQevgWP0x5BvtMnzwWrJkqWmXo28ABU+QxdOwxgDmvC4uLjHvw1nvf6jv/0YyWOc3Rv8knvcS8hKtPsV5P7FhHtKPtUGMLII+DxV5j9t7721zB03b7zqtW5B7Hyl9G4ffNtI7yfqN1aYPki/L1NvXCvLes/lwt+7zhrY7jLYaafmDsQIMVqC46+G0vd2w2A9S/3rDxDqGchJidRmR2pWx+hax3k9BmcVqE0R7RoP0X9u02cL05TBKBbzffuddbZ/6fwiMxa62nK+2FpP6YclYgsDacIA2yC/uUdrgvkktgiAPa0cSlZpXXn/9TaNEw8M22ulsdimbd+yRRx/3BvE9xsqdeKj9hoTbAHvuubvZ7alfoezDhi/wsNZAI2yRdiBv16+0L788OWTRgo4izruCBxCWUHjQrEA5dfqZ54T84qs1FHInnnC8GfYIS0l8fbuoW0/56++/TbB7Rz0gz0182swRZePBxMBoQF97XWmnBu6oECINY4NVC4aFwOqq3003mxcZHlywhmVBV52Xy4a96577dC6qh1UZ0skoK6xlHhQi993/YFSrC5u/eO9zPHkJyuiO227VRlY904l2rT9hkYmXOuaVsNdm8x1pm2j5QzqwiEGjp2evDQsXYe6ie+8eIdf3vUYmTnreWIB2PfMMGTp8hMkCOlMoT3ihwzoUCimUI8z589dff+s9WxspqxHdI5X9devWa5k8O2Shh4Wn0Bm+7PIrjTLPRoiGLb7QwqouWvnDnK/n6dd2PCsnnHRaqNEEK55pb71mlG5QeFrBPiy4rEBRD8UO4vErt/CHjnKse4spICAotxd171lOGWZOen4qei++1KHG16uVlZVHxzxkFI9+U1fcM/JOkzc8j+g8WEFjGfFYQX1wwUU9jGIObogLk+OffNKJga0mbVzuFgqxsZo/zM+LIWSwioIEKbO33jbIjarcPuLCQlvnaN02Xj/UoOGMyexxL2AJhrIMhaMrsIZEnYk6yeWBcBDvMHjc33nz/jBlBYueYX5hCOqSHbbfXpYuXWasx4yj85NI3pzgUXdhmYsPZbjG2wcNCfmNVjfjQ0/nY04IPScIhA8YuMddTj9V7hxZ+nErFJnugOcHH3ykddhhRiFjnydYUWCeQXSoYaGMj01HHX18WNyYi/GiC883nTJbzoLU7WepBbjbAUKdisWFjjriiLB7k8jz7F6b3YelJLih0w6LIitoiEN5NvqBUabewjVgEnbUse6zZ/3bbaS6BMwgq1fnyKlduoausdtFF5iPMVBY4lqHDb4jZr1o36E2TXcLJfVWmhY+AkFBACtBWOu0a9fWvMvfeXdmOcvJF158WS7Vj5md9X0wQsuBbWOUfqDCx5z3Q/mFohZlKVoe3PxE2i8qKpbTzjgrZOUNS4hXVQmFxvoLqjSHxCoLuA8Ig/eXe08i3YNk1Oew2Dv3gm6hESPgjDk18d6LNPTZj0G8bRcbR6JtBBvebiO9p+157zZae9XrF8ex6qhGDRv5BTMjQKz1ObiCL5Q6XbqeY/yjTseCS4frtBujHnjINw7rmMx6Ccp7vzY55jsLUn/YPPltK/OZRfsG9e7vv//ul3TCbmi74b14idPetHUmlNiue7REInGNFsY9F6uvE60NiTrfr/4IWgdjahVbV9o8uf0x9BvxgQ4fsVzregxFjTVP3tGdjzLW+RhO26Nn71A6KGsv6CgnWI0de8LJ8mW/YO8l5C9WfWqvwd1CIQbBvJJBJOj71MaVyHu8ebPmJjjKtdvmTsazGOTe27x707fufttI7yTrN1abPp58eftaQd57sfqo6NNDxmgb6fU33rLZNpa8oQPPTtD61xMs4iFGSVx7zZXm/HvaJrHibVcG6Vvg43y0NnQ8zKK1CTA9jl/bMZ7+K+pa1CFuG8deO7flCaSWd6o+Li++/Iqs0CFKUD7sumtH00GCRQwaPe6D5eYYHQO8aNAZtwKFTUO1LIQVBeYd8wrmGBv9wH3m/+knHzer3GHlThTW/rcM9HoPHeNrHeR5VQaiMY4vyLDyhKIlkqCAGqWppocXIL6cwdILnX93tUZ0JNwXpp1PDcPQ8HDDqhLXY5WSSA/+71OljitoEOLacV3oOCGdeDsksLhAuHE61NUNi/T6XnejSQ6KKCvwE20omPVnt/Hc56B5iYfRbrvuaixKvvr6G1POUNbwbydjP1GVhkElkfKHuI/XFaUh+HJt08d2fUGBKVNoMMJaLl+Vw9ZSDIpzVI5gjWHfXcusolCpo5y98dYUE2e0n3jKPjr9sNCAgC8aWFBe1NWy6OYZyneUl8MPO8x0SCKVPyhVkU/431ktAmwcsIREuYZlDhT9VjAfjitvTplqDvF8R5J47i2UXK6lXaQ44V7RewHFpiuvqoIJcvDB4dcCzrjHP/zwY5gSDn6tsgj7ECjg3Pl4sY9nEXVmogKrCliDQSmJTrtVSiK+IGU2VroLFiw09x+KCSgW8ZXzRK2nULdgGK6fwEID5Q7vBbtICMKhboQ1HIZIeQVDwCFXlSkvsd9HrctQ/jCUxU8SyZtfPH5uv6hlNq4RymUMR8PzDXHrV79w+ICFxjs6/LB2gcU+nn1YwUeS0WMeMae6d7sw5KXXpT3M/mhdeMLKUUceLlgRGnFja5+9eOv2BtnZclO/6wTK9jGjHzD7GF5spwix6SXyPNuw7nafvfc2991VSuI8GoIYcQALVLybkyXoiLmK1+dVKQiBBU/QejFWXh548GHjBYsSQPCRDOI39BruKEuYfxUNfHfV8PPPL1UG2TIAv3jW0PGpqGB6ALc9BWUnLDFg+WY/JgQtC0Hzkoz6HFPeoP6wAgt51Btt9WNevBJP28XGnUgbIZ73tE3Hu423vZpIHYV3jlVKIv3pb79jsmHf1TjAs4NpFmBpHESSVS9FSitZ9UdlPbOw7oKszsmNdAkJu9/mfBRDJKgz/9QP2ni3biyJ1tdBHuLtw8RTB8fqjx1WpszxzpUHhQ2GxkYTjH6AXNu3n6mfrV+849GXQtoYARGPJFKf1tM2ND5ao28aROJ9HiryHve2ueNN23s98dx7hPWm740vnuNobfp48+X2tZCHeN57kfJsP0rDUh1KcVhnQvDejiZB6l+/8FlZ9UN6FViAYqVuLNAFK2z0+VDXWPHqDIL0LWK9n+JhlkibIN7+K6aFowQjUG0tJm32775nlGB+lf79rpe09DTj7GcZYv1DKYihhpg/CEOWpurQbSgNIfii7ycYitqiZYvSU1qBYy4pzPs47M67jDWJXxi4jbz7Pn3hlAiUZRi+DesvWKBgfku/DiY6ei8+N8EodKD0xNxUmGvSdgAxBwnmfIBAAeUK4sPLBQqfHdTqB/LHH3+arfvz3fc/uIdyae8+MnzoYNl5px3NsE4oXNEQGDLszjB/0Q5sen6TI6PDCeaYC9NKrBe29edug97noHmx/oIwwnBGNBLscHo3X9hvVbYYkNfd7ziR8od4YL0EwdBbP0GHE4J7cNQRhxuFDOZAhTyrC4egIYkvoygfUCSgowprqlgST9n/+edfQtHZxaeQ74fuvzfk7u500Hk1opU/WIhC8CXPfs1zw2N/2223CTnll83xZh1gYg+xbKy7u43n3s7zeZ7cuLz7FbkX3mkoMDQc4r0WKDsgUITGkgKtU7yCDnfTpk28zoGPhw0dJBi2hfL0oGdxmKBlNlZiqGffmPySnHzyiWaYM76CYv4VvzrUxjX+yWfMSpIYmoK5TjHnHco+pmHwE8x7h49cu+jcfVCo5+bmmTKH59UOS/cLl0je/OLxuqFz3rvP1TJ40ECj0MJ9xr3CdUHZ4Sd43nv36mlO4d2RltrSXA941cms4xfEuKFjBytBKJdhJbpSOeyv01TAUuX7svcFhpxBsYt3DCxIN1erOhxDYHFsJVbdjmcaCkncC7zD1uiHQAwz9xummcjzbPPhbqGUhnLJT37S5wbXgY85sSwK/ML7uXk7eFDO4flI1fsQtF70i9d1w5QWPbpfZOa4xhyRGFKFDw+4Bgwj9BN0Zo7VNg9GVsCKCdaWsPaBIh9lwMo//8w3FvX2ONEtLDm9Yoe0HqF1+seZnwUuC954Ih0noz7HM+8VlFUMs0pEgrZdbNyJtBHieU/bdLzbeNuridRR3hEasFCErNJ2oisYxRNEklUvRUsrWfVHZT2zsLjDxyfU38kU1PV+I8Lmq3IZSnr70S+ZafrFFa2vA//R2pB+8QWtg4P0x1pqvxDs/doi+HAJ44BIsoUqfvCse+f8hX+0HdF2wYioSEY23njjebe6Yb/65ptS4x7tH/xP5/6PJUGfBxtPRd7j3jZ3vGnbPNht0HuPdyLEm76NJ5FttDZ90HwVFRaZpN2+Fhziee9FyjsMGTDK8YrLLzPTlkCxhnnEYTUMwwc/CVr/+oVFX2ZH1TtYKSwoMPUNDAEwzY8r3nZlkL5FrPdTPMwSaRPE03+FQY9fGi4D7m8gUO0Vk9Dy4ysshiVCYNHkTq6+4VI27GFSbSgmL9YhVt/rXFJ4ySKOSNZQmPg86AIRG1IptVIYefe9OpHpKDO329k6wTfmixz78ENhC5TYMJhkGZ3icY89Ie5XJgyF9s5NY8P4ba3y0a/h0KFD+7AgeKFefsXVxmIEEzCfftqpgiEGeFCwMEoQwfyUmM8OE+97GzLocOLfKlSDxOfnJ+h9DpqXeBhBIYDOd19dXMhP4r22eMsf0oSFICzjBg0ZroqBDZ1Imx9r4TJRlZBQTHY9o4scoRaJi5csMRYKUMhAuXFM5046dGpbs5gK7nEsiafso/NtBda6EJSHSOUIz1u08gelCK4FHw+m6jx3foIX9JE6H1iiEuTeZmdnm+jd6wuSXrLvhV+athy3a9fW73Slu0EpiWcOHzZg4X3m2ecZJQwSDlpmY2USX2xff/MtXRzhJDPkGB9t7tGVRqMJysw1+pEFc+Wi/oGVMDoQT+r8iJEEw76g2MM/yi0aTpNfj668TyRvkdL3ukOJc0bXc82Xayyyc7Q+u5i6BFwxxNsrPXt0M1+3z73g4rCO0muvvqirtUYf/IDhOxjWjHke586Za4bATFIeECgOobxD4xSLSaHBZwVDn+ORATeWWvjhneMq0zEBOBYgqgxBx7Z582a+Ubdr19a4//rbb2Zb2T9B68Ug+Rimk6XjnmHVekisj4moa2EV11E7oJj/DO0fyEMPP2K29gdlq127ttJXh1RFssC0fqNtMV2I92Oltc7+d8ECqYyyUJn1ebRrjXYuaNvFjSPeNkI872k3HXcf77d42qsIG62OyqkECz43v8msl9x4vfvJrD8q65n9u8yK0Tt9i/da4jnGx3j0R7xKt5ZlyjbMDQzlJQQW5651dLpaXW8sidaG9Gt7Bq2Dg/THYNgA5SOszL3t6UjvHMsFC1diFBDaJ16lhF3EDNMtBZVE69O3db5o9BcwtdV5OoVFLAn6PFhlW6z4op33trmDpo2RI34S9N5j7l2IN32/OJPhFjRfmDoH4s1XkPdekHxCz4F/TA1zgbY5UZ9gRXbvND6Iq6L1L57bk07tEiRb5fwE7VtEez8li1m5zJU5fB+w/xopPN0jE4jem4kcbqOeGTJ0RCg9dyhhyNGzgy9Z8+b9Yb74YSVbyONPPGW2yfzBnFOwDEElgq+lmCsDX4K9Q9ZSUlNMsrCOhGCxA1ewgnI8ggYCLGb21U659ys/hie6YodUIQxWSj7/otIX0276wgwq06a9bbxidS5cryuYQxPy3vsfuM4J7Qe5z0HzEg8jmIRDSQGrFHxRdP/RwYJSOx5JpPzNKuMHpbGbPvaRB2uJgpVfoSw5/rhjTaMSE+lCMLQECp2rr77CXMurk1+LJ8tx+0UeUNYxHOCvv/8Jy/NsncMPQ7XwpTha+bOroB64//5h4e01Y+sqSYJm0i2jyb63bh42xr3AsDiwhqIB5dMV+1XRdUv2PhTevftcZRZDgeIc87ZYCVpmrf9o2/sfGB1qvOOjjbcT4BcW0x7gucVwYXxY+MgzxNYbBvPw4RnB8CnM04pO19gAcw4nkjdv2t5jlFE7ZyHqC4wCsEMBDznkIK93M9cmrnWBWs25HUkoobAScyzBsBlYSJqPGvoBDRyweA4Ei1VA0Hh2nzfMnRivNFHrXMTtKiXxjrLz28UbH/y7z7Nf+F/Ucg8K9OPKpsOwftChxAdKWHF5P6hZP7G2sdL2hg9aL3rD+R3jns2ZO9ecQv2PhXZiiV2NHiMj8DEB9QfqUVewWi7KEIYa2uGG7vnttt3GzGuMDnU0wYdYV8AKi7fhufrii68knrIAJUkkce9BZdbnkdIP4h6k7eLGk0gbwQ2fyH7Q9qqNG9zjqaNsuGRtk1kvefNk2+RwT2b9UVnP7LA7R5p+BkaP2YVp3GvChzk73YPrHmvfO0IHxg5QSKBth3cBnjcI5oB2BfWqn7hc/c4n4hatDWnjc+uPoHVwkP6YnXPWXWQQaYKRNZaxefBuZ5VNKYNFG13Bc2UX3Xt3xnvuqaj78dSnbkQYTYApTZBf5MWtT+EPI/Xu1alb2rVrq0fJfR5MhGU/3nTdc3a/os9i0Htv00t0G+Ra3Lgrmq9kvPfscHLkC22C6264yUwHhWvBVFpeqcz615uW9zhI3wL5jvZ+SgYzb77ceqay+q/eNGvjcbW3mMRNQaMcHR18dcKwhiDyyKOPmU40hrhCc44hUMkUfEHECtjoQL/51lTN309qsba7mc9xyZJSizerTMLCBFiJFcoavNCxytxzOnErOnDHHt3ZLHoSb95g/YMFcV7W1aSfVIXjqpWrzAII7pckzFk5YvgQY66NryRoDNsVeuOxIIGCCaurYgXu11550czJhq/lp558olmwA0PMJqglX0UlyH2OJy9BGCHPQ9UyZZKuvIdG2vbbbWde4u3btdVOW+nQUkw47TU1j3Wt8ZY/DOfAvKgYcogVqadNf8d0tmFNC5NxKC4wvBXy0SefmmkKsI8JgK3Aug6WTyhXCF/ZAutO5BXsnnlmoizUebvwJQ6NZMybikUYopU/LBiFIYcYoooFPHC/sKDCQQfubxbywRyf8czLgWEZGBLe/8brtWEVuZmvAABAAElEQVSdI4+qZXKQe+vHadiQO8yqvhf36BVmKeD1uzHuxU0DbpUHdbj8M7pC/Msvv2o6C1BeQcmEVV7tQkjevCXjeFrZHGFIY8cdtzcK0gvOO8dYfMdTZmPlBZ0grAZ9rlqHYRGcIAIFC1Z3RScBAiukaII03pkx0zw7jRplmOccZTCWBM1b0DKD9Pqp9QI+LkDZhM5PiU4JYucD/PLLr8tlCXnAUHQM54N1PeZG2m23jnLi8ceZaSjKBfBxwBxIV+gcmxjei3Jjv8q/rx81MJchnkNYhsDS+UB9BjHBf7wCC2e846AsxjuntU6DcdJJJ5g5keONy+95dq12bHxYPOh5XUwAzz0saPGRBmUCcy2i8RpprlIb3m/rl7afPz+3WPXiqaeXTsHhF9brhriwyFeQD7IIi4WdMDzLfsSY4JnLFn4wFL17z15m9V10uM884zSjSFytH0BgdY86HHKELk6CchJJ0NF54bln9d3/vPGCVd4xnzA6FXhPBy0LeLdipAmGoDds2CC0QJLfPUi0Po90DX7uqFNwLZgiIogyGHEEabt404q3jeANH89xkPaqN7546yhv+IoeJ7Nesnnxtsm/0uGNya4/KuOZhXJp4O2DzfzCqFth3f61frjAPG777r23+QCMdh/6Akv1Y8TEZ540H9RjLbaAFeoxXBNDK9u02ULwbkfn+777HzLIUIfDsvA8dW/evLlp42GKLFu/ROMa9Nmxcfhtg/Rh/OqPIHXwBx98FLM/hgVjruxzuXlXow+Hhcc6dGhv6ip8gHEVFd78v6RttaP1IyhGCmC0yauvvW5WOAdLzK+K9jwsw4JK0PrULz4ooSY8PV6wCN7ee+0hH+scf7AG3bXjLuadifc+piPDsN5kPw9+9bhfHuGWjLSD3Htv+liQK8gzE8+1eNNIJF82jiDvvVh91Ee03sCUIDAi+lTv/+abb65zV3Y0HxJnl32AsOlhWxn1rxt/tP0gfYtdO+4ctQ2N+gd902T169Fu2kUVuGd2OV3WrV9npmCoSP8VH4DvuWuELhT4sjzz7MRoOGrduWqpmESF7xVMPlxYNv+C95zfMTpusArAUIVIc4j5peMXl58bOkiwcMHQODRk8Y/4YL5/88DbTRAo7L5XZRHM+WF9gq9WmKAecztAqQjBvBSYIxAvhSBi8wwlDhSgt958UyiuNTqkDUoMa9WEIVt4wDHnIIYBQjDcEY0azJ0WSYqcIbvWDyZsxxxa6Dz06d3LOCMvGMrlrpRs/QfZ2mtx/Qa5z0HzEoQR0saqtBddfInhdrJ2omH1AUFFhJXd3Qq/WPkFkSDlTwtMWFS9el8hdw4bbBbCQAcbAuUBvszYSeThNlE7gmgcQtHsWk/BIgyKSVgsQpERTfzYR/Pvdw7lC/cekyn3urRHyAssswbeMUQwv1us8odFSTA34um6Iqr9eo+8oSGOld2jCRriEHutsBLtolMV4PlCHHg+sGhUrHuLRXa80nGXXUzdgSkMYA0dSeK9F7b8lPg8Y5HSwAsWneSb+/cLW9gCdQ2UcxBcr407UjyR3EPhnPJolVZuPnv1vlJe0Q8hl2hdgroMc8wFLbPetP3K3zMTJsWcpsONB88nnrMDD9jfzKFoPwi5frz7Y3SxF3wMQofigYce9p42x4nmLVaZKS7ZMBXC2HFPGAsGfKm2Q6JQf0/WzgsUa36CVUGxSBs+VuAf+YRfhE9Li/0qf0mtX3tdeomxMsV8hFbwLsOHj+uvu8YoJ+GO9wTmZMazHVOccgMF2qOPjDbWerDYg8DifM6cuUapHS2uoM+zNw7Ugd16XKpWHyNMxwudLwjerfiwgTJixe/e2nPu1q8umfVB6agA9z66Yex+rHrR+vNu/fIGJfGll/Uxdb3Xf6RjM/+qKmnxIRedYz/Bs9JVP7jdMuBG876xQ7CRB7zvbr1tUGj1er/wcMPHCsyTZq2JEHaGfgAerMpUSNCy8MjYx4yFJtpEKAMzZswyH6D97kGi9bnJUJQf1He2rkNnDQrWXTt2jKiY9LtXQdoubhaCtBH80nHjiLlf9mwGaa9644pVR22//XbeIAkdu9do3zt4xipcL/nkxtsmh2Lm2uv6Ba4/vFG6ebfnKuuZRV2PKTLwYcouFIg08cxgupWbBpTObY8+D0ZtwfoRChfbPrL5wxb5Rji0sVDHo90IQb2P9+KMmaWWfLC4RhsPI6PwwRmC4bZQquHDmpVIXO15u/XjZc95t/CLujRWG9Kv/ghSB2M6mL333jNqfwyGJ1hN/pGHHzDtDLQ1kC9MmYGPL1DsRpPeer/w8R58rUUrGGP0mvsBNgiXoPWpX37wXJ1/UXe5+so+ZsE89B+swHDn3lEPhOb9i+d9auNwt0He47As9pOgadt6AnW23bfv5SD33pt2dnZWzGcGYfzeSbb9bN8f3rjtcSL5smHj6aPaMNi65QofaG+9ub8xaIBRAwQjLzFqCG0Fr1Sk/nXT9cYb9DhW3wK6B1gBR2tDx+r7RcsLypV7TyeqEQ0+0mC6JViUo16qSP91yy23NH1MGCNRMRl+J1LatO1QIkY/gqE04YoS49U4RzgXHletPcKQMQw3wFA4vwcc1ht4mdvhZLDiwCIMCxcuDJuUPhGAiAtDO1DBQFEVSZAHDKnzDuuK5D+SO9LbRr8YYpgXFBP2pRDJf2W6B81LUEbIK/zCYmTevNKhyJWZ/2hxo9GPSaXjHUYeLc7KPAeLDJTD71XpHekZiFX+MDS5ebOmFSpXaIhDUYNh1l5ruHjuLRTw6ChjTp7qdA8wnLrt1lubDjMUc9VJNrUym2x2iZQZlFcoQmANCQuGIIIFbLZU6xY8a8muf9u1a2vmn8TzUxHBwgL4uvzTzz+bodSJxhXtefaLE51yzLH7u37YQMexIhJv2n5pxaoX/cJUhVuH9u2lvlpf4WNSrDKFxQTxIbWnKkxhoQnLya232tLUSX5KkCBlAZywYB2s/t04ot2DeOrzeJjCegiWye50BPGEr+5+Y7VXvflPpI7yxlHR43btklMv2Xx42+TWPZn1h42zMra4J+iQo4MMRahXsAourvHo40o/snvPe4/Rf8lITzftJu85HCO9nfRDE+Y/hxIykkTiGsl/PO7R+jCR6g/EH6sORj0SpD+Geg6LfHqnPAlyDegv7bDD9hHvV5A4rJ8g9an1G2lr25Gob/3a6zZcsp6HaPW4Tcu7TUbase69m2bQZyaRa3HTwX48+fKGreh7D2mjjzRn7jwz1Ys3fr/jdu2SW//6pRHNLVrfAvcjVhu6osxs3vDctFDLcb+F/xLpv+I+IC63zWPTqs1bKiZr893ntZMACfgSmPzy82bqBQyBoZBAEAIsM0Eo0c+mTsCrmNzUr4f5J4GaRAArG09763UZ9cBDauH1ek26NF4LCVQKAT4zlYKVkZJAQgRij/9KKFoGIgESIIFNl8A1OrzLWjhvulfBnG9MAiwzG5M206oqApjIH0O13GFOVZUXpksCJBBOAIt99ex1uZkOJ/wMj0iABPwI8Jnxo0I3EqgaArSYrBruTJUESIAESIAESIAESIAESIAESIAESIAESIAEajWB1Fp99bx4EiABEiABEiABEiABEiABEiABEiABEiABEiCBKiFAxWSVYGeiJEACJEACJEACJEACJEACJEACJEACJEACJFC7CVAxWbvvP6+eBEiABEiABEiABEiABEiABEiABEiABEiABKqEABWTVYKdiZIACZAACZAACZAACZAACZAACZAACZAACZBA7SZAxWTtvv+8ehIgARIgARIgARIgARIgARIgARIgARIgARKoEgJUTFYJdiZKAiRAAiRAAiRAAiRAAiRAAiRAAiRAAiRAArWbABWTtfv+8+pJgARIgARIgARIgARIgARIgARIgARIgARIoEoIUDFZJdiZKAmQAAmQAAmQAAmQAAmQAAmQAAmQAAmQAAnUbgJUTNbu+8+rJwESIAESIAESIAESIAESIAESIAESIAESIIEqIUDFZJVgZ6IkQAIkQAIkQAIkQAIkQAIkQAIkQAIkQAIkULsJUDFZu+8/r54ESIAESIAESIAESIAESIAESIAESIAESIAEqoQAFZNVgp2JkgAJkAAJkAAJkAAJkAAJkAAJkAAJkAAJkEDtJkDFZO2+/7x6EiABEiABEiABEiABEiABEiABEiABEiABEqgSAlRMVgl2JkoCJEACJEACJEACJEACJEACJEACJEACJEACtZsAFZO1+/7z6kmABEiABEiABEiABEiABEiABEiABEiABEigSghQMVkl2JkoCZAACZAACZAACZAACZAACZAACZAACZAACdRuAlRM1u77z6snARIgARIgARIgARIgARIgARIgARIgARIggSohQMVklWBnoiRAAiRAAiRAAiRAAiRAAiRAAiRAAiRAAiRQuwlQMVm77z+vngRIgARIgARIgARIgARIgARIgARIgARIgASqhAAVk1WCnYmSAAmQAAmQAAmQAAmQAAmQAAmQAAmQAAmQQO0mQMVk7b7/vHoSIAESIAESIAESIAESIAESIAESIAESIAESqBICVExWCXYmSgIkQAIkQAIkQAIkQAIkQAIkQAIkQAIkQAK1mwAVk7X7/vPqSYAESIAESIAESIAESIAESIAESIAESIAESKBKCFAxWSXYmSgJkAAJkAAJkAAJkAAJkAAJkAAJkAAJkAAJ1G4CVEzW7vvPqycBEiABEiABEiABEiABEiABEiABEiABEiCBKiFAxWSVYGeiJEACJEACJEACJEACJEACJEACJEACJEACJFC7CVAxWbvvP6+eBEiABEiABEiABEiABEiABEiABEiABEiABKqEABWTVYKdiZIACZAACZAACZAACZAACZAACZAACZAACZBA7SZAxWTtvv+8ehIgARIgARIgARIgARIgARIgARIgARIgARKoEgLpVZIqEyUBEiABEqixBNwvXsVlV+m6wcm6Y98957q756y76xfnIfYc9u156+Y9dv1g3/pz3V03uFNIgARIgARIgARIgARIgARIgAQqh4Dts1VO7IyVBEiABEig1hDACyW9pMQo+6xyD274v3vZYjlo7ZqQItC6YwuBf/wjPMSed93hZuOFH3vOxuF1c/OCfevPxmG3CHdmbo70WL0yLA9wp5AACZAACZAACZAACZAACZAACVQeAdtPq7wUGDMJkAAJkECtIVCYkhK61pDiUJWCB69ZI3XKlI7WHR7dfRwjvFVAuopDv3jhHwJ/CON9oblhsO/G5+4j3Ol5OfpbKml2h1sSIAESIAESIAESIAESIAESIIFKJcCh3JWKl5GTAAmQQM0nYBWCUPbtun6dnJW7WpoWFcvndevKkw0aSbEqBf9NT5e91q2V/dVqcovCQpnYoKF8WLeesZA8X/0ftiZfVqSlyePq/6fMOgba8fl5clJerqxJTZFXsxoY/+0KC2TvtWslq6RY2mg8BRr3m/WzwsJkFRfLi9kNpJPG2UUtIRF+Sv1sebdefWlSXCQn5OXJOg13wLo10q9pC2mvcTbSMC9pGEiR+eUPCZAACZAACZAACZAACZAACZBAZROw/cnKTofxkwAJkAAJ1FACqWoJCaXkdgXr5bHF/4WUkv1WLpcb9R/noPi7KGeV5KSmSl1VKo5d8p+0UbezVXF4+aqVqkhsaOiM1/AYdg2l4u3Llxrl5vLUNLlz2RKBUhJyrw4LR9yLVJF5siour9DwEIQbunyJNFblI/IyTMPMzsyUv9IzzD6UppDbV6yUASuXmX1YUh6oylLEtULTMcO/1Y1CAiRAAiRAAiRAAiRAAiRAAiRQ+QRoMVn5jJkCCZAACdRYAvi6BYtICBSPi9LTpHeLVuZ4rboPXLFMHm3YyByPbdhY7m/UxOxPWThfuqj/uqpMbFqcInMyMuTtei3kcFUSQvqq4vEnVSrC4rKFKjC76FDrK1etkOFNmhvl5gC1dJyclS1L0tLlthVLzTDuPcsUj09rmFFLF8tSVTaO1jQhXVUB2l/zcrnmLSe1WIY1bmasKnEO1prvqzUlBMO4C80ef0iABEiABEiABEiABEiABEiABCqbABWTlU2Y8ZMACZBADSdg52s0w7fr1DNXC4XlDzokG0OmG6tiMU+HU9sh2jj3bZ06srVaQPZt1lJaFRXK5P/+ldyUVBmnSkwM8W5eVDqg+qVFC0x883Uo+DeZdaWdWkL+qRaQ32l4yLs6jBuKSSysAwXjZ5o+0kTcsNIcp5aZUH4uT0uV/9WpK1mSIgX6/5UOM4fACnNrHRL+rg4Vh3AYt8HAHxIgARIgARIgARIgARIgARLYKASomNwomJkICZAACdR8ApjLEfNHQqCshMIPslKHb6fpYttQKopaJuJc+4ICmadWkjurleODakUJBSXmlMQQ7z8yMiVXw8CKcUTjpmbRnNPUYnKeuueVWWdmqLIRkqvH76m/7rqiNtIb1qSZcccP5rhEvFCEdtV5LJeqdSUGc2NeyvqqtIRgvkoM456v6WEYt7tgjvHAHxIgARIgARIgARIgARIgARIggUojgP4ahQRIgARIgAQSIgD1HhR6ECww03nNOjOv5CFqwXi3zgX5sloiYu7G1moVeePK1XKqzgmJOSJ3UCXlKB1Ofa4qDJ//b4FRUGaWxfO3WkdO0oVoztZz++qCOWfqMGwMCbeCuKxiEm4Y7o05KbNV2YgFbiAvaPhjVdEJd2wRHucLpUS2KpurEv6Q/syyMFyNG0QoJEACJEACJEACJEACJEACJLDxCKQ1bNz09tLkIkz2b5wjnNt4+WRKJEACJEAC1ZWAWiDiLTFXLSD/1jkmj1uTJ4etzZc3VCl5l1o8Yg5KDKf+om4doyRsqgrC4WrZ+KPOIfmbDr3eQhWF56rycff1a2WkKis/VEXhNzrsGmEuWb3KLGTzhA7xfksVn9nqVqKpfVQvS/I1Xnxd+08tIZvrgjfP6wI6WOymdKh4XVmv57vrPJZ7abxPqfISK4HX0/BY0XuGxoU5MFvpkPHX9dxq3S/Bf3VlzHyRAAmQAAmQAAmQAAmQAAmQQA0kkNKmbQf08lTQrfTpkhnnCOdqIBBeEgmQAAmQQPwEoAwsHRxdGtY9dvfdmF33OqowxBBrNw74df24YSOdg3+Ijcd7XHq29NeN2913/XCfBEiABEigcgmkaN0PKdH3AIUESIAESIAESKD2EeAck7XvnvOKSYAESCDpBKAIdJWArmLQew6JW0Wg3WLBGq87jt143GPvvps2zsU6dsPbPMCNQgIkQAIkUJ6AV3noPUYIuFnlYrTz7jk3TFiqWjGnlGyIL+wcD0iABEiABEiABGoUASoma9Tt5MWQAAmQQNUR8FMiWje79SoM4W7dvDl3z9nwXj/usevH7nvjxrE9Z8N6j607tyRAAiRQ2wkYxWGKDq4qLrNm1ErUKgytghGMwhSM6sfPv1Faes7BX3F2kRTXK5GMpRmlis2yitoM6XLSqy33wjKvLdfL66xiAmwEVfENYPIkQAIgQMUkywEJkAAJkEBSCURr4/qdi+Zmz5X1UyPm0/rzeoC7N6z32BuGxyRAAiRAAo6y0R1hjUq11MDdKBGtctJaSparcNV/2ZxRpUjdyrpsP//gXMk9dpVs1ner0lmlPH7CwteCG2NYusxrwTXzEkmABEiABGo3ASoma/f959WTAAmQQKUSgBIwVecNwwI4bl/TruTtumNhm7XqH271dT9Xt3ArUDfMP4kwrn9k3C8euHvTxTHixII5yAeOIW6eSl2q9td28qs2F0ydBEggKIGQQi5ogE3Fn1aS1upx3Y5rJK/TaknNSZOsdxpKxr+ZRpGYviBD6n5f31wR/BRsvV6ypzWSwhaFknvCSiluUCT1329g/MAqcs2e+ZK+JF3W7JdnwmS/1VjSclJlzV55UtiqQHKPXmXCr9tPFZUH5kpqfqpkT28kGX/WKf+FaVPhyHySAAmQAAmQAAnEJEDFZExE9EACJEACJJAIASgNC6EI1H+IPbZbuBkFom6hIHxwyX8yplETWZKWJsOWLZELWraW/iuWyi8ZdeRZXVEb8Vj/JmxZ/GZff3AO8SB++EXacINsrSt/91uxXEY2aSp/pGcYt+qmlExNTVNDJKwMTlMZc4P4QwKbAIGSkqJNIJfxZdEMJS6rh/IPyJWVl6yQel/UMcrDpbcskJY3bilrd8uXwmMLZLNrtjKR552zWorziqX+R9my9OYFkqYKSCgwl133nzR/uKWk/1JPVvRerMrGTKnzY4as26VAitsXSYOxTSStTppIVmke8w7NkdXnLJN6n2dLUZNCWTR0vrTqt6WJK1TJx3c5m47vspcYFLsruy+R1KxUKVpX88rXpnNDanZOzXO3RKTx+OaSmqvPoG1E1ezL5tWRAAlUUwJUTFbTG8NskYAlACULhQRiEfBaEsbyX9nn0b6FYhACq0dYP1pFoXXHStzuoje7r18nzYuKJE/97rOuULSZLNsXFMifZYpEGw/idON343GVnnalb/hvUFwsu2r82EJcBWZ1UVAWF7MDam4Of0iABKqUQInOKYlKEgrKnNNXSMa8NGkytqWpeOdPmGvcGj3fVBYNn2+sI1PUrH3N1nnSYtDmkneUKigbpEiLga0kbXWaUT6uOGe5NB+6uVFKNng9Wxq81kRgYblkyAJpsqyF1J2aJetarDHWkisvXipFLYvCLDOrFMZGTLwkrURSivXjVFaRrD0oX19cmnhd/WdvbSPehVqSlBYvSOqcTClJL+1n2PJXeoa/JEACJLBxCfBVt3F5MzUSiIuAq3yJKyA910oC1eVjt1UOblewXq5duUI2KyqUPzIyZHCTZrJCrQKPz8+TC3JWSV1VTMJ9eJPmsiQ11Zxbrx1hDNtenlraUF6i/g9cu0baqsUjFIvPZzUstZ7UO3xmbo6cnpdj4vk5M1PubtzUxNFEFXzXr1wuO61fLys13lubt5LlqtyEEjRHjyFDly+R3zMy5ckGjaqNkcBRHc+SFg22lDXrc6SwCAPYKSRAAtWJQHpahnk2sc1M1+HFKlO/fUpy162qTtlMWl4KGxUIlBVFasG3fNAiE2/6wlKLcwyvTluZJmt1GHaKDrnGsOvMuXVl9RkrjL/lVy4yQ7lxkPFXphQ3LJSU9UVS97vSod8p69U+PFct6usWS0mG2olnqhJTh3s3mtDMWGYuGvmPUWxiaHjGwkwTp1l0pwZblKcUlU3eqVebukSZ5ejQ+HcaSfp/uihQneryCc3cCv5swgRS1qXqtAvrJO/oHElbvuFC3PK3wZV7JEACJLBxCFAxuXE4MxUSiItAqeqk1Kqr05p8tSIrlLUp1jWuqOi5hhPIUOVemnbUptfPMkq5qlZOWqUkrBvHL/5PflPF42gdno2h2cOKl8rAZi3k7mWL5T51e79efXl20UK5JmWZ3Ny0hcDCEYJr0m6YwH6wbkmx4Bm4QcMtTkuX4apQ/EvjnJ+eLnfoMO+Rqoz8sk5deXbxQlmtSswRenzv0sWynVpa3qRh+q9YJmMWL1ClaHNZ5SglO+fny1OtGpn0qvIHw7etpeQZ+14lHbduZbKTpVYyRdoPTeNjX5W3h2mTQBgB+0yuWS+Sv6701IezXzOKSTP8uawOCwu0CR+kFKr1Xr1iqfu/+tL4qeZS1KBY1hyYI6krSrsP9T9oIHmHl849iaHXEAw/rqtDuBs92Fyt/9SSUueVLKlfLClrUwUKESg6raQUqpJTLQQhqTklZjhpQdt10vClJmqh2ULW7rpGVly/2JyHlWVxusZTsEF5Z07U0J+SdP04pe+BrFkNxMyxWUOvk5dVNQTW7poveV1yzEcBmwNaTFoS3JIACVQFASomq4I60ySBOAhcvWq57L6urAcURzh6rV0Efs6sIyvU4qSqBTko1P9OahUJy8W+zbcwCtOFLTfT4dlrZY1aLV6lFox/q2IRCshcVRY2RW9fxQ7rNgf6g7hgVfm0zi/5XHZD47y7xnGaWkn2V0VmrxabqWVlqvGXr4r7hpoe0oQi89xWm8uHdevJouYtZTd9fqD0LNK0oQhFuidsvqWx0qxqRW6JKl6t5K5dKctzW8kfi/6SFXml1kn2HLckQALVh0Cd9LrStuUuJkP2w0L1yV3ycoJ55+r8XE/W7q7zSb5ZKEXNCiXn5Fxp9FRjkwgUkzndVork6Dx1TzY3bpmf1JVVOkdk1o5ZkjZPLSh1H/5S81KNJWRJZtmwUd0Wt1ANr1rHQ9lYuFOBrO+w1iyyg/SaD9lcMv9WS0nVz0GhWStF8RSrYhgCq1JatNXKUpD8i9YiVZy1oe2R/AQYIwmQAAnET4CKyfiZMQQJVAkBDEHFMFgoVSgkAAKwKsScjJDqNjshFpuBsjRHFYZQCv6k+/hvoXM8dtEh2BiW/b0e49ya1MgWMGtVmWjnmMR1ztYwbdUasqGGOzdnteylisqv1WLSyuaFhbJUF8+BP1hvztMh3L/pkO12mp8OOrTcSms9XqJ+qlpSlI+7eEZTNTp6fOYL8tpXY81Q0fWF68w8b1WdT6ZPArWdAFbfxvBtPJM7bLGP3NZlgtRJ18VJnI8LNYYRdBZlX22wMMbKbksFi95AQZj1bpbU/7TUOhKL22RPLLU8xz4EQ68x7BjzSmKb+VtdwerbsJ6s/0m2pOq8kxBs671XuuJN3R/qSf3PsiX/kFxp8EpTKWpcJEt06DisKLPfaCTZb5emkVqo9aX+1UYxSkllCMtcCgkkSsDMH5toYIYjARIggUokQMVkJcJl1CSQDAK5ZUO4J6rF2DCdo6+ZKnYKa2nDPBk8a0IcWbpy83/aOTlAlXLjFy9R5V6BmZexOl3bIlUOQhGILigsIU/Ny1WLyTVmOPb+ut2jTVuT3TFLylsGYo7JAr1Gq2zd0VEowmLyM7WE7LVqhS6Ms14O3GIrs6jOpEUL1BozVRaoJSaUtVbxeIjOT3lsfq5Mq58tC3UoeJ8WreSS1SvlMR1mvm+brc0iOFVtNeneN4w2t/NLQgECgUKEQgIkUPUECothD14qUErWaClTTsJqsumDrVRZqHNE6tBus3qvXrgdum4tJQ2LssoUw66zZjRUa78SSdfVua0gHgjCQpHZ7L7N7ClpqovllOh8kxjy3XxEa7OoDk7a8Da9UIBasoO5OF3h+8Clwf24CYQXp7iDMwAJkAAJVBaBDa2FykqB8ZIACVSIQOk08zqaSRvy6CdgkRBK7SaAZRZQFqD8q25ilYmvZjWQK1etlAk69+ObOv/l4OVLzeI0WHAGisOLdfGbVro9UZWGf6tVYxtVuGfrf6Yq4TB8u7XOqwppoPud1MLyL/UDK8zd1NLyBh3C3UmHc29VWCLn566WNmolebAqIBHf6EaNNb1seUrTHda4mQxYuUze07ksMeQb6cLiGPNZXpgzV+7VuS77NtOVZquRKALBwhoQWGdBEaJLRNRaK6FqdGuYlVpMwD6D9TOyzXySGam6mFZhsbGYrNFYypSTeOGkrXS6DNoMKSkO/2BiFIdwK1NOQoGZmltGp8zNsvIq16zSEUpJG94qJE0Yn/RsXNySAAmQAAmQAAls+gScVsamfzG8AhKoDQQwPLVYlZSU2kugvpaBXC0DUOBVNynUfKGMwkryrNZtpLcqBo/R+SZvbdo8tAL2ILX8PUUtKGepwrDLZlvofo5srtaP9zZuInN0YZsVatkIP5Bn1VJ4sioadyxYJ02g0GzZWuarknGSukMR6cZztiopW6hbb7WKvFFX5caK3Zib8i5dEKeRzj35sCot8zVuCOagxGrfGEqOvHr6zcZPVf8UaZ5r8vx1Vc2X6ZNAvATWF601QQqKdeLDAAKFG8SriAsQtPp4scrJshyZlbFdpSQqT5WQolL9G0VjivN+QhwQb0Vbdmz4lMUTMmMvDVH6a8O7btwnARIgARIgARKoMQSomKwxt5IXUpsIsI1em+52+Wu1XWJrnVjeR9W6QDmJPiYUiLBOdAVld1zDxubfun9RNkek3cIdfiCTs0rnMjMHZT+IG8pErMDtihveew7zsz7ZoHSeMihOsTAO/q1U9jNV1v+2yQXapmmei5yho4EC0RMJkEDVEyhTsoWUdVWfo4rlwKkgy83x6JyziRhFo6OXtO5G6Rg60B03bKR91z/3SYAESIAESIAEaiSBsqZTjbw2XhQJkAAJkEAVEUAfEy8YKAGxtS8bu++3df1iHwJ/rjuObdw2Du95vzCum1Wc2jSQTmWLm+fKTovxkwAJVBEBWynhgdd/WA4WttBpKeCuYi0oS4/4SwIkQAIkQAIkQAIkAAK0mKxG5aCs3eqbI7RxvRLJv+0Au/79wuO8G0eqKgIwRNjPL/zhvFci+ff64zEJkEDtI4C6xDvtgF/9Ysm4fu2+Xxzw78Zj/dp4zHmty7zi+osUrzdMMo5Rf5r0yiKDQhR5gVtJTVzRNxnQGAcJVHMC3sVvzGq3TsW0vsNaWX3GCqkzu65gMRiI8VO+KVXNr5TZq2wCZui7vhdK0kp09fLy767KTp/xkwAJkAAJkEBVE6BisqrvgJO+0551XCPvRvMf7Zwbo+vP7bS7fmwnGlZGfmLPu3H5+aMbCZAACdRGAqgbMf/lUp3f8l2dV9PWpcZiM00tqqrrmPzaeLN4zSQQkIBd/CYtpewTb1kjaN2OayT/0BzJOyFHUpdkSuMnGpgYzYrT61NL51/0+dBrPLlfi735iNbISiBcuXkgA6a3scOFfUH35hHHkbhEY5JgODO/ZgL3LlY4Mzzev4ntd8V0IwESIAESIIEaR4CKyRp3S0utICO109zLRZvN68/rho6z24luosd1NNw6/V+tikrM8+aet/tuOtwnARKofAJ2IRysOm0F+i5rmWfd7BbPOqygsa63qxezx5Ge5YqEQ97ctJCXIOlFCmdXqkc8XkE+EwmHOs/myY0TbtHS8wuHMBDUk6t1vsjxZoXybBnfsJFgPkzDuEjrVE0TfigkQAKbDgFYTKZrKzp/XY7JNCwkc49fJfn761LUmFpXnRs91Vjs6tJmxWl1hhLKWsjZqw0dextl1kOEbYXDbXhdREjB46wVq5k3M0q4UJ7coBUIV66h6sar+37pGTd3gR5PGBwmEs7v3oWijnLv/MKF0nfCWWvJlDz79gjFXrN3UD4yiyVFFfeR7ndJRmmhSylKMZalAJJSwPdmzS4YvDoSIIHaRICKyWpwt/U1bN7DLYqL5Y6sDYsx2KyNWV8gPxQVhz4aow0Tye+wvDWyUju4t9WrIy004vySFMnTTu8ta9aZjq9Ny247pqVK78wMk1R9XUHx7cJimbhe50NSsUpJpHV63Uw5Mj1N2uhiFlaW64qxX2un+h019/lY84dOto3X+uGWBEhg4xDIKXs2gyi47HMKpWXp074hj97jDWc2fPRINJxf3oKkFy2cvRa/fMYbDnGgHvPLk3XzSy9SOBsG56fUzzLWkifm58pha/Pl/br1ZWKDhmYBHr98IgyFBEigehPIW1ssDXZoIv/s/7vkH5grJa1VebJM86z/qfmZUlK/WNbtlyuFdVQZWaZEqftDPUnNdRRPWqkYZZ9u1+6SL0WNiyR9XYoUobIpkzRt+GV+kxWKwziXhYMl5vrd8sPScMPV+VIXENPwIUVYWbji7CIp2HlNWDoIBwVQ2so0qft9fRONGw7xFDUsknUazisIByVsnV/qmbRwPrTatobDXJuwJrUcbHiEy/g3QzLn1t2QR5zE9Wu4gi3Wy/oO63zDZc6to2Ezw8LZ/Ba0XSfrt1pfjiXSQx6RV+s3lBdtL0PBXLBFgW+4uv+rL2mr00Lh3PC4Nlyj994h7njuOe71+s0KpCQ9ivbXZrgGbA1DVSJbxb3L1F4e3MSu+qeOVoFrz3NLAiRAAiSw6ROgYrIa3cPNMtLlJFUAeuW7oiKjmIS7nQfyAFUm+vmdoErM+aokPFCViFtpfFaeKyhUJaK2dlSctq50Un8mHlU+iio2Pi0sbWxapeRBqrgcmV1vQ1xl/kS3W+m53eukSg/N3+PrCuR2/UcKZW1JkxZ/ajcBt6yVlr7yPIL4KR8qsouNL1J6kUImGi5SfBvbvU1hoSzRocL1tGPlyjJ9rt3nEteJYzzjsID2k0K16FmlFn5ehkHCYfVrryAcrAIbRkhvjXY6ctHx8EhFwmVrWl4WNnpr7W2P3W2i4Zrohxrt5rpRhfZtemMaNZFOa/KlgdafUFB21g9GM5pvJs+mFhkFZWHROlTDlCQTSEtNF6xwDinS+1RcUlSqMElyOpUVnemUa+RGyaNb73Flpct4IxPISM2QvPVrZezOI+TLTjNU86R+l+i9WajWXFAo6XNcXH+9rOy7NDwS/Q7cqlsbo5j0KmBgMbay+1IpPEg1MAs1GOKE4NuxWl+2vnBrVRhqu66sErfzERY1KJally+Wku00Xc1DKByGt8wX2eJiVWjqvIV2fktjmbY2VYqa6zuj3yKR5upvlRNOR56nf54hm12zlTpqudOP1vpKKLVo03BQ+C2/Q8MhX46ySHQazfpTs6XOwHqlYUzgDeGguFsxYrG5FpwKCcI9nS1NH6xbGg7VqFb+9vrW7p0nq25ZHs4EgTVcg3sbS6NJzUy4FK1/8YzY/OYdniO5ffTCXJZl4Rrf2lyypzUKhYOzfb4wL+jaM/LLh1MuzXu1ljRV2No07Bbh885ZLfnHqbWsN71E7vlaRIhYwU/h12AB96LGhVKsCvm0pelhSnv7jIT8ZBVL2qq0kNI2fVVG6L7VYES8NBIgARKoFQQ2aK5qxeVW74tcqy/nAlXyWVmjxw11nNA2ZT1VdNLRDoQVzp6qFISsUWUEpJ526uEfW8jTqqC8Rf2s0Q5wPY3jUFVAWsUkziMuxLCbzm8GJWOBhl1ZUCBvrV2vJ1KN1RCsKcfXr2PCI19IW3tE2rPTPJalY9x1v0f90hY0lJMUEqhKArZsx5OH0qcpnhDVw6+rAvw/e/cBIFV1Nnz82TKzs32XBZYOoohGwQJiiwVLbKjRJGo0MZqiqRrzmuSNppiY6GtiiqaqSfQzibH3btTYsIENFRBFqdLZ3mf3e54zc4bLsAsLsrt3d/5HmXLvueee+7uzM3OfOeX/1q7eqDtwkf5dvxeJyHlDhslq/Zv2P2r4+9HxNrl6zUoZpD9YBFvs2XaztZvxdwcPdcFC/yOFv/9Ya4v8bo1eXKYlC8xZq8AfDRqSen/x58LupzU3SXodm/S9Y7jW4+aiErmibJArMXnN7a+95ZiGerlo/VqpC0Ts/HZXaaDvhuLS1Hb2wPZl6dM6puP51evlQw3W+m7uttyO77LyCrm7sCi1D79PW/8N3cbGg0zfzgKr/1sxxAUQff7g/YVV6+RYrWtngdlvq+Ub0Tx5Rf/dX1DkgpLWwrW4vVWOXb1EDtLH1oJyZP570tI62apB2g4CFpC0FG9vc/98kdkapIzo66KlzQYl2f7JyrcgyfYKgGYlxzDs0ICqpfTn2/8IKLE7ArnZURm2+BTZcclt8v6OC6R9SIt01GvLrxYNkFkwSd+Mct/Wb07+jdAXupnup7kfaqBllvaQ0RaV1rLPb+taGSYnRXHjFVqkMJmy9GtX/qJCaW5o3GS7aI1FJ9OSdoV1SesRWRCV9lVxyWrUd7PkG1pHfrtYPTZJye2y67ULux2XJX9sem/bZS1Llp1Ym7hNbmctCXNe07+NZttRMul27aW6XANSPvnjsy67lrLXa7DqjahkV+sx+zddXe6203VdpZz1OW67HI1ppiw1s9Uzouu6SpHFUWl5o01yNMjbEUueg+R2vrWnr2OwDDt2q+dG2/lD3YZz3lY5sL9Pu6CjBb31NdBwSK1Uf2mdFN1ZKmU3WKTc3uc2BNOtle6qy5e65YOurnQBfGvxO+y8sYmWtMnXRWoby2mvzWSy5ZZ88Dm52O0jfXlXef023COAAAII9IxA15/oPbM/St2CwEZfBZMfpHtpYLGoo9kFCXzYckoyoGiBSPfVRe+DJ3OWBhtq9AK8xC7m9X6/ZCDTPqctwGBdMXfMzpLJtl6fR3Jy5IXWuCy158k8l+Vp6yvdtwU/83X5ag1IXqndvBdp2RW6/dHWwjOa64KaFqz8krb29N26k98RXFncZJ6AP/+B74VdIqTn8dt2ucFmVvht08vczCbB6xyXzZexuW3CuG5M26YXMYP0QraTy1JX/QJ9X9izufPAzBQNInaVSnW7CRqc7Cx9rGXDch8A9fkq9D2iszra+nH6o0hXaYgGLi14ucnglLqBtRLtKtm6wbpP+5eerMyuktWlq+3sGIIpeIx27F1tZ2aWrJv4BxosthTtyJFafbFZ60l7bC0oX577rrSNcqu5+YgCFpS0gKSlaK4ObVI80j2ubtAgd3O1tGggPZjHrdxON+1a9vZM6eWlP9+e+6Ks7gm06o8KNsbkmfFd5emrS2TIsKFSe3xVojt3uQZb9C0tuyoq5f8uF+tKHS/R12IysJiT7MadCpIkP7Cym3Nk0B+HSod9CKWlLM2T3ZAIpvntstuyNTyp3a5rcqXsl4O73M4H03ygxm8X+TAqQ34+osvtUlXw9UvuL7JY/55+nPh7SuVJPrB6uuTv9Ynfn3VFH6pdqDtL2RrMdUm3s2Oy5IN/BS8VinWh7ix1tp0/zqJHSqXgyZLONpNsC8RaCuwvsUCk5K5yKXqgTFuZal3SzoXfzp8Dvy/btvRfFVLyb613J9t155y77bS1bba2Sm3ZoVnW/O+HLsBtge6BmMzQWhdba97I+4lvKg0HNUrpzRrgVgNrjepfA23a2jY+Ne5a5EaWaPDXWlbqcAM+eO189Fy51476++fu3s6H7ssFHO18JtenApDJFsGW15a5VrC+DFcANwgggAACvSEQjGX1xv7YRzcF7DK9zQKGetE6Rj80d9AWjzbOpF3YWsuk8RpItGT5gslaTVp6Xcd9fFPzH6CBRQsa7qWBSRsr0lpOWVDS0q76eIiWY60lbT/PBi66j9Wg4555ea4Fpw9KntrQLAsCg4nfq/tYpdtZa0nX0lPLO0O7mD+n3RNJmSvgW9bZ6+1n2opvckuztmorketKyhyK/57vv/dZq7ZT6mrlxVhMLtWWbNbizJexNYp+m89oWWfXVss3hlTK+7mRTQKPwTL9d9QdNKj3x9Ur5Uatp7Xe82UF84bxcTD88TO1ez8S1SBX4j3A7q2V4erk37v/u/f3izTv2UOHp/L747Pt1ur7gg9N+vz+/s1oVM7VVpjpybZbbu83yeTz++fP6WzU3xpcKS3J+vjltt3CZLDOL7N7//p4SM+HdVHvbLu3tS4++fz++a1FxfKmtlDsbLtZWhdL6dvYsj+Xlskj2vKzs+3sGIIpeIyXq/8IDYamb2f552k9LNnrzFpjWsrr0MCGniprOXlTUaHcoK0/z9/xBNl/o1+nXFZutlLABxyL8kplxpSvyP4TjpHRFWPdRCVra2pk3vLZcs/sa2Xespe1g4AOWbCdA4m2//xIoTS01m1z2f4Y7P6bR13pBK5++AL9ETEqF33yelm4+i258alfbKUM2bengM3KbU34WvVtL/JBnnZFrpSiB0tTE+C0f6xFGvZskLwXixJdsLewcwuebDT2ZDfyu0CKfi/rze3si2dOa9ctDl2d9Fh8SgWFtnU7DVLl+A8kX2jgPn1/tsqWyTZs57bdxu225hz46nd1zrN1HMtMSD6waOOZ5r2YL82HNErzzk2p8U3Nx1L9NO3Xrr3rozNj7rU++Irhm/IkP9BTrwf/AZ/8oufKSr4sU3mslPRl6c833RNLEEAAAQR6QGDDVWQPFE6R2yigX6isC/ZCDRTupo+t1eKknMQEOFbiFL0Ydy0h9fFbeiFsQcpI2sW+BTCf0MDhARH9ZLYy9J+NS2nBRJ8O0mCnddu2oKS1hnw62Y3b1ltrSGtp6crVPP/QdRaUtO6MNjOtzXZr3T+vamySIzWvjTdp+ffQex/U8UEfvz/uM0PAvk5bOyULxezX3OhakX2lplrutgCTvpaCyYKXZ9TWuBZxkUYdOL88ETT3ZdhryYI/1jLNkr2u05OVaOttMAEd3UnGa/BnkgZDrSVaMPl8tszKtLW+xZvltW122kzLvWBZYXxsATzf4jm9fsG/RXfcmsHGdPxPWqAtfTt77hX9dhY4ti7bW0rp29m5t+7TW0p+O8tn9bZjWrqZ7YLH5su2Ze9o4NX+dZWC2wX3aV2u7V9XqbPtbHubZbvL5qnJwk6or0u14GzOisgtOn7vDdrNO/iDT9qfSFfVYHkXAj6gV5w/VP7nuN/JjKnTZLGOPPDG4pdkxfoPZMdhe8jxU6fLnuMOkV/f/1WZtfAJ16LSunX7LtipFlvaHdu3urTddbbeV8Py+X0fvceZ8rmD/nej8tuSrTctvxsLT6+GfUA0WK5f58u1sTF3GbGPxCI2oUi2RHNisvf4adpaLzF8is/XWRm+fMvj11v38uws7SYc2L8vg/utE7AWk5Yi2qXbJ5vAxcZKLL6vTGpOWi/1n6iVAm3tZ8FJ605sgRjXCiz5mea3S90nikw93ehB8I0qucIHbtyb5UaZA0+62M4FZ6y1WFdpG7dzE/mklWn13NL+utpus8em+9mW7bb1HPT0dm5cTev2bd34MyHpa8z9Xegxx97UwOSMRmncvy4VmDQC68bdtKf2xliqw6fOTnz3WHvBCm1BnC3l1w1NfEnRcmySqfrj6qVJJ0vKaom7VrbFdw5ykxzVH1wrtSevl5JbBknB8/q3qK9HW1bz2bVurNHie8rdMhs/de23V7plNgapvWYtpf7O3DNuEEAAAQR6QoDAZE+obqcy5+kH7SANBo7RKM3OgYCMjf1oAUXrYm2zYk+0KI4ma2EZTBaYPE8DLi6IqfktEGmBSfuuaRM8WBdxCyZaWS9oF20f1LDgowUYfarR/dxmrSCTV8y2vQUnLYcFKWbU1IkOrS6+nWR7IJ8vg/vMFGjV14Ul64q7T1PjJgEtW+a66Wqe4BiCbiO98YHIYMs0e93Za9Df22Nbb0FJSzb+oCUfgvfBR5/Prezixl7X/TUVWPdkvUDe8JebOBJ33GkHZcsspedNLE3c+jydLdve23W2L9uvX97V/my9z7M19exqO1/G1u7PtutqG1tn+xul77U2DqUla5n7V21BbC16dSBCt8zf2FsyadsELPjmA4knTfuKC0o+9tob8odHLpRl6xemCj1ury/Kd0+4SM469Ccy/8M3pbZxVSo4mcoUeOAvToOBvsDq1EMLItr+c3MissuobGlu3dDMq7NtXaBGP287W2fdz/2xtLRtKMd2ZjNBNweW2XF3VkaqYvoguD7ekejiHlzP460XsBaTFpyMdyT+aN15sE8efWotKCt+O0yaHtfZsnVSj5h9tlgXF32j2GyQY1v//rdhO1ePjd9+uoXQ29t1+ibfnZpuxsT/+NBpMX24nf0wkakpNqtQat5ZL43TmrVbvP6AkhzywLpxt+/UIrEHC1yQ0Wahb9KWyBaY9BM51R1dnZhoaq2Ot6pd/9tG6PvkWbU6C3yTVH53tNvOJpVqXFTnApNm3HBQrcT3jEt9Y61YYNJSk81ur/my7kx8otOt27FwgwACCPSKAIHJXmHe+p1Yb77lesGyVK9Sx+jjXTVQaAFDa6XoJqzRZav1C+U7usxPeJMbCKpY3gX65cp157ZAoZZjM3WnytDHE+1zV/PZumA3bps5V+dU1JWJVKUPlyeDjT5w47+3WREWnFzvM3OPQEBAh/F3k4hY8PF4bS1mLe38a8ey2TJrOVab3e4mJbHZoC3Z69yGLDhR11tXcEvP5+XLHdo917b3rXJtuU2qMl1nOi7R/Ddpq8GGwN+BrffBTZuY5MAm7Quk6TmdaMTq4te5hQPwJmjd2eHZevsb7uy+s/zpy7ZlO7+NlRV8nF52+vNg3uDj9Hzpz4N5g4/T86U/D+YNPk7P55/7PJ3dW55P6fAC1kL1R9qd3f8IZPY+2XakjybgL+p3GLqbHDnps7Jgebtcpd2fV1Qtci0GrXQL0D3w6t9l99H7y5F7TJeJw3d3rSatxWRF8Qg5bLdPy4jy8dLc0iALVr0uT751eyqoZ+VOHX+4PDPvHjdm5YE7z9CxKltk7tKX5YV3H3ST6Uwdf5hM0X9LdDLmY/c6W/IiMW2t+ZycOPVcWbZugSxd9558csq5ruzH59ziDnj/CcfJHmMOlNLCIfJh9QfyzNy75f1Vb3ULw4KbdkzDysbKQbucKBWFw6ShrV5eevdR11XdF2L7GFRUKU+9fYfr3m7L73zp967O3Qls+nK471qgwwKU+hHmAs7WElGfWhdVSx3Z+tw+3vhDdx7cIOAF3Bik+vcRWRaVvLfzpenoBmndrdG1MrY8rhu3/t3ka0tHS+06sZQFJW0SJRuL0lpUVn1+jeS8lyNDfzAqNWxCtbaGrP1OldQfXuNaQNrERC3aTdxNhKTltI3SVpg6wVG8ok1atZWl7b91ii57x/5uE2Oh+pnh3Y65QQABBBDoUQECkz3Ku+2FW5BxpQYIF2trmgO0mAk6Uc0Qfb5Ul7sJa3TZAr0YsYlo9FvwJjuywKaFcxLdufU067ZjtIzdNSBps3NP03uxcSo1KJnejds6MeYFylyn+7Hv0sGLaH3qkl/uu9rawoEe7EkcObdbErDXn00GYsGY9zoicogGBf04p7atPbZlz+jYksX6+vyYBiBzk60FdtbJVf6iYz7aJCs2Bp9NDmJjR55cXytf0XERrRuyJRuf0rdCs+dnardwm03ZUrIhsQtw/knL+ri2zrQgqI3tZ/msXt/RbrQWWB9oyf4uu5t83vT7zW3v81oe/9jfd2e7YN7g46629Xn8fXC/XW0TzNNX2/n9WiD9Dp093GYRt+TfS209QSFHsl1vxlfuLruOislfH7vVBSV94RbA860Ur33iYnnw1Z1k6fp33WoLOv745H/IhBElGtCskVi0SM6cfoo8+tqJctndZ7sA3uQxH5fzjz1PDvnYp2TM4JGinQncuJVfPvxzcvWDu8rNM6+Uw3f/rEzbaYqsr2t3gc+m1noNEM6W0w74H2nTIGZdY7XsN7FSbniyQCww+cXpl+i/z8k6bfJt418es9d0DVyeLX987GK33tc9/d5eN5as9ZoFQy/65LUyqFhkydomGV4ekzMPPlt+/9Cv5J5Z17h8J0/7ukwcOVEO1bofscdEeWH+Srl/9nXuuHxA12Xk5iMLbNSi0P/y498MPnLpFIDAwBKwvxc/CY4FH5uObXDBSBv+wIKOjVPrJWeeNqxITpzkJ1jqyEv8UTVrEFPGixRcXewmgrIgY+5aHedXW07WflglLQdoi3Ptlp3/Up7Un66tJLUFc7tORmX3kbc1GDmhRVrHJAKTDTtqi8r3NowJ68fAHFjiHA0CCCAQTgF/fRTO2mVwrWxsx1UalHxXgzeWhujkEJU6lqMFKMuSrRdf127cG3fw2hTMApM2O7cLXmog8mALSGrys3Tb4xe0HGvBsy0vBv+d24KR/p+VSUIgKHBnYbEb8/FAbdno06HagtHGdrxH11kPNws+NiYDjpetW+OCkt+tGCIfG72D7DZ6tOv+asHFH6zXpkiajtCyLCg5R8cDPHzEaNlhzHi5smxQqmu478pteWw7W7fzmDGyq+azrrS2vQUoSQj0tIC9N/r3WP+eSZxi+6q7loM6fqKlorzERFtL1iWCjhbEc63ZdJ1dBFve9XWrZM6Sme7euk2fc9ilskNlifzktovl7L/sLV+5Zh+55bn7XXfw0w680JVb11wldfqhW1E0XP7x9NVy2tW7yc9uP0feW9GkLSLPkaElo+SKe78iNz13vYwenC2X332xXPXQt6Uov0xWVS/RCXhiEY4RsgAAQABJREFUsrp2qXz9uvPlb0/8RCflOc4FJZ95+w05+88Hu/1e+I9ztJt2u3x5+qWuBae15MxJ/tjiKpF2Y608zz/2aqlvaZJv/f1M+fwfdpdv/t1ai66Ur33iu2IBV0trapdrd3X9sah4uFz4j4vll/edI40aNLVk406SekiAP/QegqXYgSTgA4A2+3r2u1EXjLTjs27cHeN0DHFdnrs68aNzVlvih2lrMWkpPlS/QWrLx9oZVbL0H+/JqsuWyrK/vS+rf7xcmz6KtJQket3kWetlHQ42Pr5JWiboMn1celOFZtD/JzaJjS8pI3QYhtnJMWO1eBtTlIQAAggg0DsCiXf13tkXe9kGAeuKbbNqW5qo3bn30cCin+jGZunuKiWHMnKTKrgyLKMGgawbuLVU293GkLSApSbfjdsmtLFUr/2NmpOP7fkgvahzk5DYk0CyF09nNeBFFUDK4Ie+W3ZMX0v/1W7T1lrxRG3x6NOxDXWuNeRT+fk65qmO1aUtGa0lpM1cvK8GEu8vKHIzZFt+69p98SDt5qgX6Ic26q/jmmx7Sxa8tElOLPhjLdL8hC4NGmy3sVQt+PhsLN+ts9er7cPKWqzj+1lXcUtcljsGbnpQwL9fdvae2YO7zZiibWIY11JNj7hCg286bLK2QlyZOn6/zhYEH9vzicOnyP4TJ8tdL92faqVY11ztgodzl+pQEbt+yrK5VKLXto/NuUlue+Fq19rQJs95c/HzUl6ULYWxUpensbnWDclcXa9Xy8lUkl/uWjNe9dAF8vyCB8TKP2qPM1yg89onfiRrNXBoycq7eeavteVmtk7Qc1By667vrOv5jsNicsNTl7pAq+W02cZvfPoyHetSZN+djnEb50cL3fNrH/+RO0brKu7HsEz36HpvrEEAAQR6QMA+GPVDMkdnI4+9FpWOMdrwYnKDm9XeLjR8N+4u96wBSBs2ofTWQYnJbO4vk5I7y6X0j4OkWO8tRd/VTPqW3KDjU9pYkrlLtAeNtsKMLI1K8y6N0qCT7oh+Rc3TSXgsWTdu3hsdBTcIIIBArwgkfn7qlV2xk20ReKe1TVZrAHGItnbcK9lS0pWjwcrXW1plZ5s9u4vkZ85OdefWfNYN/HP5eVKiwRm7clqs5Qdn47airGvrOv2GMCRZ7hDNuqte4VggtEADPTaGny/bApY/jEVlnAY8LX2grS9/1mxh0UR3RS7CHUVG3vhu2RZ0tBmZn4lFXCtFGzvSkrVYtOCjvd4KtXWwBS4t7ZicGfs5DSZasteYJQs8vqUz0h/U1OqCl3s2N8sa/bt4V4OSlqxcK+s1nR3ZyrY0XruCWxqjfS7/rN25Y8lJCpo0iDFGA6CWLHjpx051C7hBoAcEeC/sAdQuimxornOtAwtiXc8Cb60kywqGyKqapTK0bLRE9e3nzaXPuxITE8/EXfBwxfpFMqx8rJscx1bqx64sWjPX5SvKK3V5rLt2sjOCW56jk1DZ736RnMR7mHUhz82NytI178j6+pWpbcsLK+XDdTU69mSiZaef1XvhyjkusDqkeLTL29mNlWnJxsNs0IY+h+x6shw08UQ3W7dNjGOtRCu0a/fYwRNTm6+ubpd3VrzqntsxWmtMEgIIIBAGAT+eY8FTxdJwpP5wfXyVGwcy9/VEADG9jr4rd84qffPW97q8eTosUHISG8vrWsZ/YbVkr09cJ1mLS+u6bRPnWDfuwv8WS5bOBp73Vr7UHVUtcb3oicyPurEm0/fFcwQQQACBnhegcVvPG2/zHmzIdAvoLEu2bLTJaw7XGSAt2diTts5PfOMWpt0kLltEHmhqSXTn1vXWDfxr2p8rEZIReV2DjX4iBgvO+CDQqzZ4luZt1aBNvs7e/TW7atPkx/bzgZxDNTD6pYKYHJ6n3Wn1nwUo7QLctw5yG3GTsQIWbNQfnV2yLtuWpmhA0f5Zuq8wETiwSZl8Kkq+3v0s3TbjdnBWbsvnW/f6Wb9tWasGG9OTtda0ZPmH6IW8jWVZpuUP08l4LCh6jc6MbMMh+PJcZm4QQKDfCVigzo+7uLp2iav/2MG7po7DAnG23u4tHTnpDLnqrCfc+IwNTYlAps8c17KCs/bmaqCxs9QS73wwlbiOJakfnxultjYdx6zd3rESP+JFInlal5jUNG6YOi64z4027saT/EiRFGqg1JLdm8fNzz4ps97/z0Zbtydn5G7T2cNJCCCAQFgEfHdua8WY+25EmvdulPhIndFeu3FbANFm4/bJTXyT7MptgcWsd7Kk+rR1rpWlXYDEy7RRx/eWS903qqW9fMN7Xez1AlemFGoLyuSYlflztSWlPm8f0uKClDahjpVhk/KQEEAAAQR6T6Dr5na9Vwf21IVAkY4naWmefhbvqfc2eY3+BugChq9bP7UtJGthZh+rFnh8WVtYHq4Bxojeu67gus6adDysLSYt+dm6/cfwzbr8tLxEMNK6kh8fydFu4RG5ToOcPjh5oHYH/6m2lrRybBzLEt3Pdc2J8mwynPRgktsRNxklYN2z9dXljtm6bFs6Q2cn9ulpnYDGknXV1o4z7vFam5RJ09hki0bfOteW7aytKVfq6kXaDbte/x7G6FhDBdoKsjlLhziw1pB677ez/FXJ6MBjBQWu+7a9vv1XW5vNu0Rft/Z3ktijbUFCAIH+KuCDfgtXvulm5J6u3ZwffPV6NwFOSzJwaa0ELUB5zF5fcONArtXu3hU6W7WNbhLL1atTTTm63vJZENPGZGxqqfvIrQutxaQlP55jdcNa7cZdJaMqJkg0J+bKz83O1Vm+44kWnPrtrLZxndumsxsfhLV19nvl3/57ievC7Vtx2v2+Ox8tZkFCAAEEQi9gX870vcyCkPkv68Q1B1VpKwyd1OaZTVu+xzXYaDNzW7DSun+X/W2IrD9/laz5+YeSuzAitt7Gpiy4sUiK79Ou3FquffmzIGataLmaou8lvpvmztfApA23q8NNRu2xJmu9mWrB4ZZwgwACCCDQ0wL2Vk0Kk4AL0GiFki29rGpuAhwNoFhqTC5/XYOF6aktsI1f52fLflQH07cAooWJfBmLtbXk89YvTZMvzQczbebum7VLdkSDRD7/dzQIeXdxofxJu4LfUBCV6wvyZIxezbmgpAY9H9eg0XO6nSUrh5TZAjbGpM2obWM9WrJu1jb+o3Wz9t24Lchta5v0vja73T1+U7trWzpDx4a0btaJoKWNKVnvul+/qLN427IX8/LduJSf1tm6LVn5Nj7l0ZrPWmpaQNPGnrTu3ifpWJI2tmri1alDGugM4HesWJYKkvrXv9VjoCbr1mRdRe2ehMBAFPAtDm38xBcWPOhm5v7qEZfLmIrx7nCtFaEF7L511K91/MaRct+sJ8XyWnByic6p9YnJZ7j1vouztaq0WbpfW/R0iqsmMcRt6rk9aG7RsdDSekXbR2trfENmm43b9u/HLLPH7614XcYOzZbDJ53myvPB0BP2PkeWa0zytQ/+65bHtYV3i3bP9slm97btLb307mOuG/pRWndLNnalpVMOuEAuPfUXMqx0nHve2FLvZgV3T7hBAIE+E/CfxX1WgX6w48L/lErZjwbLoCsrJfp+IliY1ZL4Lmn3FogsvXGw+GWFTxfL0O+NlKI7SyVakyd5b+dL+Y+GSvl12j9bv/i5QKMed947MSm/Upfrv8iHie+aOTW5MujqSin7zWCJzUn8gO5bb/YDKqqIAAIIDBgBWkyG7VRacDEtcGCT11iXamvp6E6YBlhmJQOAwernpm1n63yrxce0peMl2gLSdf22fBosmqmBR+sObh/1Pl+wvB82NrtWmgfk6Ye3BkKtDhO1q/ZEP0OoPrdlJRqUtLEqL6jTizANDrnyggXxOCMFbIxJm3V7UCCI/qB2n/bjPz6iE+JYsuD5cL3wHqz5SvVi2wKMNoO2zab9zLJFcod2AR+pQwvM0MluLMj4F+1+bekGnejmBA04/nj9WjlAJ8tZr+ssKGn7tG+ivhv3T8sHy+/XrJSntKy7tOt4vu7vM8lg5p+1DEuFusxSYlttMaWPt9wm2W3SL26s5Zd13fSTXVhrKx/Y6BcHQCUR6IaAvab9OI03PnOZmwRnxtRpMnnMo/LG4pfEgnO7jJgie44vkaffWiT/7+mfu1ItOHnTs3+RC0/4qvzfGffKm4uek9LCIXLkHtM1cNkktzz/W5fPZvsePXjTilje4HIb47JIr2+/8Ykr5e5Z1+hkMzfLyIrKjYKLVsrds6+RfSccLRcc912t11SdsXuZ7L3DdNl7/Ej56+P/lGXrF7pWmzZxjm9xadsNL4/JivWJbtsvvvew3PPSk/L5Q2ZoEHKMLFj5hkyonCxH7z1ZHn7lDZmd7Mo9WGfvtu1ICCDQdwIWlLQfJ+I6pIK9V1nyn8t9V6sQ7dm+vulFhI0HWfRw4j3OaufcdAgrf2+ByFTS/DZ7dvS9mPuXWu4f2HpthWnbinbTDm7ryyt4fkOrTL/Mb849AggggEDvCBCY7B3n7u8lGTS01o0+2QQ4H+oH8hjtTh3R5dZCcaFNEKLBBZeSLdKsm3Z6Sn7GuwDkTF1v40BaGVb+M22J/MGusra938ZapZ1Z3yQ/0CDo6ToupY01mZ6srMd1vMAf1jW5gBJByXShzHvuX4WN+vqxcRw/iCSHBFAKm537/sbEF0Dftdta1z6oyy1g6MeJtNm11+rr+4va7fv0uhrXQtJaW15eXuFaQdpYqDZEwecqh8sPNDC5r3bLtterBR5fi8bcjN3rtLu3pbt1mY1X+R0NdFqrS0tW1m81+PlGNNGVZ7UGNW3m7jeTz/0xuMz9+MZf+PgWYNZybF2ddiHVVlXuy3cyINuPD5GqI7CRgF3kW+B9fd0q+fmdZ8rshWfJxyeeIBM18JenfZ5XVq+U3z5wh9w3+zqXx4L29vdx2wu/08BlrRy9x5nyiT1OkeqGGnns9Sfl389d7rqC205sUpp7XnpJVlUt2Wifby55XpcXSn1TorXizAX3yz+emix7jj1YA5yDpVEnx3l8zv2676Wp7exvc0XVIvnZnZ+XU/b7tuw+Zn8p1PeuJWsXyRV3/0ruf+VvqbzPzL9XoslxLm1cS6vXojXz3XoLxv7xkQvlw+pvutnDJ46Y7Or++4f+KbfO/K07Nss4+/0nZY3O/N3amta0M7UXHiCAQE8LWFDSWm2XFlS4Hx5sf/ZeYK29+bEwqe8vQpJPLejoW5r7e9cCwtZbXv3XkW2NOpLPbbkluyCxZHk02bbue09W4odot53/DpTMG9xXYituEUAAAQR6SyBr1Lgdk72f7B09+WYd3Ltb3MW6YD4ef2QBG+dx58DUnks1+Gitx+zzckcdTy+mgRdLTZrvPQ1U2metdXXdIbDN+xps9N1jk5/Fbnt7bF1Zx+hkNYl5ikXe0bwWzOkqmBhcPkq3PVi7cu+s+QuT9bAu5tZy07p9Wwrmdwu42WYBs7RksrevXC77aovAP2iw7goNpllQrj92le/s9bGlZbZ+hL7OqvQ158c29Tbex+7ttW2BUJ/HlllKL9/yWbKWwpZ8WYmlbtEm2ySWhuvWjwm7m3ZJv2fFStel/fARo13Q1h2Tvm/YeHu+JcaIsh3k8wdfJNX1q+XaJ3/kLoBoNRmOcxoMEP/qjAdk/4kT5Vf3/kru0ZZ2PmgWjpr2r1oEX9/22GbAjuRENDC/IhWs83n8vR2hG1eyaIROSrMu1S06eI62pBDMu6XzF8xbXjRUA6f5srpmWervNlivrvYbzOMDHm78ymSX7uD6rspgefcF/DndZeQ+8pNP/csFu79y3cGyVoO+wfPZ/RLJmSkC/vVhgchvHnWlO2xr2W0/oliy5Vn6I2mb/njQOq5ZVv10mXREO2ToD0cmWgKmf6FxWw3cG/OylApGBg61y3X+S53m7SrI2Nm2nS0L7G5gPUy+jhr2r5N1P10puW9HZMglIySnSgPkEQ3eautSEgIIINAXAps2geuLWrBPFwyxIOGcZJDPkSSDkhY0WaCByPTAsX22WCBmo230efp3F9vellkwZnWw/E7yarZU8tvZvbVOu2kzE+6k7zNVCA8QSArY6yg9dbXMv578a89vZ8st2XJ77PP5QKOtCyafz5bZ42C+YFnp2wSf97vH+r7hW15YC8lj9/yyHKKTgBTGsuXif5/p1tnFtXXttqAFqW8FLIDcoS04/Dnr29oMnL2bpw/K2WMLHAWTX2fLgnmt9eTyqvdTWYP5Ugs38yDVKkd/QPItlbvKbnl9+T444fP65f55V/fBultLaD/GpOXvbhldlc3y7gnkZCU+TbJ18jX7WyYh0JVAtn7vth8Mn9NW0Fd+/lrXqvrJuXfIw6/+P1lVoy2qdZ1LBIc6DUh6186ClW6dfdFLJj/msH/u7zvbtrNlPj/3CCCAAAK9I0Bgsnect7gX/1nqgyV+g80t72ydLfPLfRl2b8vSy/bL7b6rlL5dsOxgecHlXZXF8swT8K+R4OujO8vSX3deLliOf+zL83n8vV/vy0rP59f7/H59+nK/vr/cW6BiZPl4OX7vDQFJnadKbp95q8xZMtMdxpYCJv3lWAdiPZONeQfiofX6MdnfgrWEyUoGjnwFOjp0IixdF0xd5U3P11mwz+/D5/UBRyvf9uWf+8fp+7Uygym9fn69L9+eB8vqrO7pZaTXMbg/Hm+bgA0NYKmhOTEBm2+hvm2lsVUmCcxa+ITc9dL9ctK0GVJRcrYcOemz8ticf8ujr/8zNXREJnlwrAgggAACCBCYDNlroKugSFfLrfqbWxc8vO7mC26TXr4P3qQvT9+G5wh09Rrp7HXY3WWdqXa2bXq+7ZUnvdywPa/QCS4+M+2broVkeVG2dhFr13Hv7F+ipodPOlXHtyqTtriOUUsKnUBRrExsNmfS9hOwoGBHx8ZByK5K705eHxwMltHZdun50p8Ht9/cOsuXvj79ueXprA623Kctrff5uO++QHNbu+vKfcxeX9DgZF33NyRnxgs0tSXGu16nMW17Hdn4sqcfmAhQ3jvrWnm28V5ZJdaCMuOpAEAAAQQQyBABApMZcqK312HyHWl7SVIOAttHoCUrrmNMiux9yEVy4tRzZOzQbFmxTrut1zRJbnLCDNvTJ/c9RUoKTtEgx/bZL6Vsf4Ela9q1i/32L5cSEUBg+wpEsjdM6vaNo86TwFDf23dHlDYgBaxlfE2DuB8P7QAtOFlf0+IClBfMOE8Oe/9UOT53WOddnQakCAeFAAIIIJDpAgQmM/0VwPEjgMCAEFi88n65eWatHLbbKbJD5VgpzY251pL+4OYsmq+zA9dJ8ILar+M+HALDysZpRUrCURlqgQACXQq0tm9o2vz8/De6zMcKBDoTsNdPaf5gGVo6Wn+ManE/IpYWxFzW5+bOl1can5SsNh1/WCe/ISGAAAIIIJAJAgQmM+Esc4wIIDBgBaIdOdKsky4sXvC2zMyeJ0/Pu0uO2P00OeRjn5Ixg0emjvtZHWzfz/ScWsiD0AjYZERXfPZemTCCwGRoTgoVQaAbAlc9fIEbF9AmFSMh0B0BG+f5M/udJ1867DxpaIpJrl6Nvb9ykTw7/x73Od1YpF29T+xOSeRBAAEEEEBgYAgQmBwY55GjQACBDBbI62iV8kiuLI23a9ewVXLbC1fLf9682QUop+14lOw/caJ8cuq58sRbd0lt4ypm683g1wqHjgAC21egua3RFcikYtvXdSCXVl40VE7W8aBtCIAlaxMBSfvMts9vS+2FjOkxkM8/x4YAAgggsKkAgclNTViCAAII9DuB5iad4SYSFd9qJxigPHiXk1xg8qRpX5Ebn/qFO7ac7FzRaUFE5yzud8c6UCrs/e2+swlNBspxchwIDGSBSHIsX95TE2fZv68Fz/nmlvn3P5tt3j6P7LlP/rnd5yRnr7fW5f5zq7NybVtfhs/ny+ure19Pu7f3+lP3/bbrwv3b+38jMxfcnwpI5kbypK21WT/LNxj0VZ3Z78AUyOpI/I3lEPsemCeYo0KgHwsQmOzHJ4+qI4AAAukCbdpFzL5vWoAyrhdAFqC0Ltwvv/uojB3yMZ2Vu1TqmqtpNZkO10fPs7L0IkFnjiYhgED/EsjL1RlMNMU7Elf4cQ2YkbZNwIKSW/pxxvtaXv942/bWt1vZZ/CCVa/LbS/9QdbWLneVsaC2pba4BiXTkh9nsiOqr7O4/pCYw+dFGhFPt0LAXj1ZTdnSZrMmkhBAAIEQCRCYDNHJoCoIdEdAe/5ocwC+UHTHaqDmsflg7fLFvRa6OEjfrdBf8Cyvel/sn13UWdrSRWAXxW52cXqLIbt4tP3l6kWXBUmDF5OW11rABJcHt7d11jImWM/OtrEK+X1Yfp/8dn6b9LJ8y9L05X773rrPysrWP+d4p7szGxICCIRTwGZS9sFJq2Gm/sjg37ftPdcMsnXMY99i0d77Ldl7WfA93b9n2+fUsLKx8skp58ojc/4l7696K/Wjmm1n21gee78eOWgnqWpY7X5s89v7cv3niO0/khN1+7PtLQU/dxJL+va2QSehe3zOLa4SZmcpVcdErNst8zfZNYnPbAsmudRKLwdvw/22C+RUbe4b5LaXy5YIIIDAtgoQmNxWObZDoJcFmvQLt6Xm5H0v757dhUigLlmX2uxOrmLS6mkXPHaxZhdA9tgH7NKybZenqYurZGl+ny3JAJtdTNr+7d7y+vz2vENbHfnntrl/vLltrKz0ffgDse2sG19wP5a3XYOAFgz0gVvL78vw24blPhG4TQR3zYeEAAJ9I2DvGT353tk3R7V99pr+Xh3v2PADkX/vtz2l5/PrbIzOPcYdIrPe/48LTAbfm/02tux7x18rf3vyRzKr7gn3Y5fP5/P493G/3B+d/wzxz/v63r+O/OfRllrMN09qlPaSuHTQvbuvT92A2X+WBrebd9OxcXUEoGDKsha5JAQQQKCPBAhM9hE8u0VgawUObWxwmxS3E6DYWruBmL9Vg42V8Q0XgJHNtKK1Cx+7WOzpFj0VxSOkqn6VlBUOlZL88lTrl4nDp7jH1oXckl2YjakYL0NLx8l7q95Mja/lty8pGCSjyneS+R/OTgUQbZsdhu4mFUWVqW3sgtMuSq1r3KjBO8s7H77iLlhtH/7idETZDlJSOFjmLXs5dWFsLRR3GbmPblcsbyx+zuUN28WrHYNvMekvZG0ZCQEEel+gq1bNvV+T8O3xRJ1Ybb6+99p7rE3qYmMaP//OA1IYK5WPjdzXVXifHY+Qt5a+IHe89Ef3/m8tIE878EIpLxgiH6yeK3VNVdLcmoiS7D/hODlqjzPcD1hPzb3TtS60fexQWSmf0glj3l89z3WBPnzSqXLQxBNl8dp35K6X/5T6HDlury/KxyfO0NaVa+XWF37nPnt80DIsevZZ7AOqm61TVKTqK2s2m4WVCGyTQMumW3XoMAFZ7QQnN5VhCQII9IYAgcneUGYfCHwEgYJkIHJqc5PYPxICnQl0p1POllpmdFbulpb5Cz67//L0n8qI8vEa6GuSYeVjZdZ7/5FhpWNc0LCtrUV+ctun9SJyoXxx+iUyfbdPS11jtRTll8oNT13qLj4/9/Hvyfihk9wuBxVXyrralXLJHZ91F5xfPfwyOXDXE9w2sUi+/PO5K9w2k0YfIN857g9um5rG9ZKTkys3/PenMmvhE6n92L5t3e8eOs9dpFpZ+0442m3T1NooVz38bXdR7Y9lS8fcW+utxaSfNKG39sl+EECgcwH7W4zmxNwPGZFsG1CDZD/ofFKDhnfrOMYWmCzOK5Kj9zhTFq6cI0PLRstPT71IHnxltry78g357AHnSXH+IPn7k5fIRZ+8XsYO3kUeeeMml7+ytFKHGvlApo4/TH5w0lVy98v/lIbmOvnGkb+QhqY6WVW9VO81SKfBxuaWevnMfue5Wa3v1HEa9x53qFx26l3yzesPkUN3+5QGPL8jt7/we9llxFS57LS75IIbj5QVVYtC1TK+O5/FWW0R6WjR6JH9Fr3lzhG8GBHYOgF7XbVuvAktJjf24BkCCPSuAIHJ3vVmbwhstcCreXmu+7bvyr3VBbDBgBewS+TudOvuSQhr/VFWUOFaSn7r+umy785Hy6Wn/kKuuPtX8tDtn5WrvvCEBgNnyLq6/yf7jD9SfnnPOTJnyUz5/gnXyQl7n+OCjLFIobaiHC0X3XyStGjA8M9feVT23mG6vPL+k66r3y/uOttd/P7slFvkiN1Olf++dYece+Tl8tqip+UPj1woM/b+knz3hO+6ljcWsDxy0umuLBu3zLY5Zb9vyz2zr5Vjp5wiP7v9HBe8PP+Y38kBOx/nyu1Jn+6WvU776duF/pGTT5ecLD6iu+tGPgR6S8Ban/u/TRtnMke7eWdysh93gsl+mGptT0Q8Fixvlz89+j0XGKyuX+Pe2+YufVkmatDQ3uftvXmRtpj8+lFXSGE0JmvrVso1j10mD7z6d9cS/sSp5+ikbbvKzTOvlOqGS+XBV6+XxtZ6OUGX3zzz125it5nz75ffn/2oTNvxKA127uqqMuu9x+S+V/7qfgBrjadFX4KVDdljP2NyZHGeVP7P8A21oxXbBgsebR+B7ORY9frayqlLjmOanLF7++yAUhBAAIGtE+CqZ+u8yI1ArwgEO2tfPGhIr+yTnQwMgeBrpzePyFrOWHpy7h1u1u9VVUvkvRVN8uz8+1wLow9Wv+1aU1p3bmuhuOfYQ2Sv8dO1VcsUWVP7ods2P1ooLyx40F2s2oL5y+bLkOLRrsXknx79rttm2k6fkAnD9pLXPnhKuwlOk1INht7+wtWuW9xDr93gWt/kRWKy07C9XZn77nSMtsI5XKyF0zidldzSW4vfkG984kp5Zv698pz+e/WDp91yG3+yL1NRrEwGFYkU5JVol/SSvqwK+0YAgc0IaDxSZ1BOZPDvfZvJPuBXtSWDf/HAB1Ast1CWrl2gP0atcMdvrSgtiLnrqH00APlh6n3+vZWvy4r1i6QgVuGG47AfkD697zfd50JhLFvf2zf0ObX39pHlY/R9PyaH7XaK+2eB0OqGGt2+SG6d+VsdJmRnF6i0ZdaSc339Srd/PyFPmE9GqiWlOuZUcYkW5nM1EOuWev0NxIPjmBBAIPQCfOqF/hRRQQQQQKD/CLS02nzhInYBaV2oIzkbujw2tzSIjSP5/eOv0RY0H8h/3rpFFq2ZpzPbxlIHaHl8aos3S2NLrQwtGSXfO/FaWbrmHbfNBzouZZO2mvGpNb7hwtW6eUdy8jW4VyRNLXVu+1IdY3KujlfZ2Fzryvjl/V9146Dtt9NRrlXlY3Nuct0LbTbZ4MQNvvyevA+OH3nj05e5i+ue3B9lI4DA9hWoa6xyBXJRL1KsPxTZMBzNrYn3cfuxxaeiWLnY+/PKqsXuByUbG9h+qBpUPFwsn23zraN+7X5AuvBfM9w4kn/+0nN+c8nNjWr+WqnVLt5tOrzyzTN/I88veMB9pnx84vHaffxNNw6xtdC02buPnHSGfOuYi3SbKtci32YI9xPupAoN8QMbh5KEQG8I8N7VG8rsAwEEtiRAYHJLQqxHAAEEEOiWQG5OnkQjeam8sWiRDo2V6OZorSGr61fLnuMOkoqSEjn3r591LSlt8gK7mLVkLY/yogWp7a08S5PGHuhayHz+5pPd86Mnn+nGrrQxySztr12x79GWMXYhOnpIiaxvWKUBz7k6McIJbrnlOe2AC3WMsahOejNFuwGeKz+/80y3zrpyWz4b98xa1FgdgsFC27a3kl1kkxBAoP8J9PTEYmEUsWO290prDX/MXl/QScnmyBcO+oEGBxM/NDW11et7d6Wb5Oaldx+VMw++SOYtny2PzfmXaxH5jaOulH8/d7mcrpPg2MQ28XiiS7i1gLTJ0w7TcYh3HVWp24x340PaD12H6sQ61z35Y3lz6WwdY/Lr8s6KV92PS6fs91X5+t8flhOmfEVb4e+j7++fl8X6o9fqmiY3RmUY/bZUJ4JFWxJiPQIIIIDAQBIgMDmQzibHggACCPShgLVw9C0mrRrWYrHdjdwv2nIx0cLxtQ+ekbU1NfKLU++Uem0tU15Y6VrP2JiQ9U01OrHBxi0mrRzbplpnPvjVGQ+4baLawtIm1xlSMlL+9Mj35ZzDLxVr/VigLXBWV7e72bYfn3OLWADTWtysrF4kk8dMkz8+drGbhftL0y+V35z5qCzRFpjWvfv2FxOT52RJN2dKtUr1QLKZakkIINC/BKzFdiYGkbJ0bE2brdxmvj7nsEvla0f8nyzU4OQ/n5qn7/d1Yl25FyyvkeGl4+SbGoS09+Frn7jY/SB1xX3nuvz/M+M6t82tz/9TWuJxue35q+QCnczsxyf/Q15c8LD88ZGr3eQ2JQWD3IRnJ+3zdfejlI1RfOHxf5afn3KblqefDfed78axvPGZy+T8o38nPz/1dtdt/LE5/3atKu0V1abjIJMQQAABBBBAIJwCWaPG7ZgcdsW6DCQHwg3W1S3uYl0wH48RQAABBDJOINhSaEzFeKlvaXJd8Kyb3pDSUbJs3bvuQnSkztYd14tYmx11h6G7iY39+O6KV9z4jjZpwYrqD9zFrLXAWVWz1DlaPptNe23t8tQ2b+mEOfO1W/aUHY5wLSM9uO86aJPcXPXgeW5iG6uDTcJj41TOnH+nmxHc8tvywyedJtbF++0lz7u8tjx4LPachAACCCDQtUCwhXmOdpW2SdB8+uL0S2RXbb343X8dt1FL9GA+353bb+Pv7UealrbEsCDB/H69vw9uH6xLedFQ/aGrOlUG7+1ejHsEEEAAAQTCKUBgMpznhVohgAAC/VYg/UIyeMEYfNzVAaZfRKaXF9zuD198yrV8tNlaj93rbBmsY1hefMvJqQvSYF7bd2etIm1/ljKx1VPQh8cIIIDA1goE35/tcY6+z1pQ8TP7nedaO/7w1lNcwNLWWbLgZfo2W1pu64OfHba9tarww274QKYtt0nM/Ht5ej4rh4QAAggggAAC4RMgMBm+c0KNEEAAgX4pYBeHcW3xaBeedhFpkw34bo7BdfbYJ8tvF7LBe9/qZkvb2MWvtaq0WVzLdJzKRavnyd2zbWKdRW7/FoS0sn3ydbGL1eBy6+LnL3B9Xu4RQAABBLon4H/0saCgdfG291Ob6Cymw258qF24fQq+z/pt/Pu9z5O+3N6vfR5b58vw+Ww7v94ed7Xc1pEQQAABBBBAIJwCBCbDeV6oFQIIIIDAFgSCF6nBVpbB5VsogtUIIIAAAttZgPfg7QxKcQgggAACCAxwgcR0qQP8IDk8BBBAAIGBJ2AtZ6w1jSXrumfBSXvuW9QMvCPmiBBAAIHwC9h7sAUn/ftz+GtMDRFAAAEEEECgLwWYlbsv9dk3AggggMBHErAufHYBbN22bcyxYJe+j1QwGyOAAAIIbLMAPxBtMx0bIoAAAgggkHECBCYz7pRzwAgggMDAEuACeGCdT44GAQQQQAABBBBAAAEEMkeArtyZc645UgQQQAABBBBAAAEEEEAAAQQQQAABBEIjQGAyNKeCiiCAAAIIIIAAAggggAACCCCAAAIIIJA5AgQmM+dcc6QIIIAAAggggAACCCCAAAIIIIAAAgiERoDAZGhOBRVBAAEEEEAAAQQQQAABBBBAAAEEEEAgcwQITGbOueZIEUAAAQQQQAABBBBAAAEEEEAAAQQQCI0AgcnQnAoqggACCCCAAAIIIIAAAggggAACCCCAQOYIEJjMnHPNkSKAAAIIIIAAAggggAACCCCAAAIIIBAaAQKToTkVVAQBBBBAAAEEEEAAAQQQQAABBBBAAIHMESAwmTnnmiNFAAEEEEAAAQQQQAABBBBAAAEEEEAgNAIEJkNzKqgIAggggAACCCCAAAIIIIAAAggggAACmSNAYDJzzjVHigACCCCAAAIIIIAAAggggAACCCCAQGgECEyG5lRQEQQQQAABBBBAAAEEEEAAAQQQQAABBDJHgMBk5pxrjhQBBBBAAAEEEEAAAQQQQAABBBBAAIHQCBCYDM2poCIIIIAAAggggAACCCCAAAIIIIAAAghkjgCBycw51xwpAggggAACCCCAAAIIIIAAAggggAACoREgMBmaU0FFEEAAAQQQQAABBBBAAAEEEEAAAQQQyBwBApOZc645UgQQQAABBBBAAAEEEEAAAQQQQAABBEIjQGAyNKeCiiCAAAIIIIAAAggggAACCCCAAAIIIJA5AgQmM+dcc6QIIIAAAggggAACCCCAAAIIIIAAAgiERoDAZGhOBRVBAAEEEEAAAQQQQAABBBBAAAEEEEAgcwQITGbOueZIEUAAAQQQQAABBBBAAAEEEEAAAQQQCI0AgcnQnAoqggACCCCAAAIIIIAAAggggAACCCCAQOYIEJjMnHPNkSKAAAIIIIAAAggggAACCCCAAAIIIBAaAQKToTkVVAQBBBBAAAEEEEAAAQQQQAABBBBAAIHMESAwmTnnmiNFAAEEEEAAAQQQQAABBBBAAAEEEEAgNAIEJkNzKqgIAggggAACCCCAAAIIIIAAAggggAACmSNAYDJzzjVHigACCCCAAAIIIIAAAggggAACCCCAQGgECEyG5lRQEQQQQAABBBBAAAEEEEAAAQQQQAABBDJHgMBk5pxrjhQBBBBAAAEEEEAAAQQQQAABBBBAAIHQCBCYDM2poCIIIIAAAggggAACCCCAAAIIIIAAAghkjgCBycw51xwpAggggAACCCCAAAIIIIAAAggggAACoREgMBmaU0FFEEAAAQQQQAABBBBAAAEEEEAAAQQQyBwBApOZc645UgQQQAABBBBAAAEEEEAAAQQQQAABBEIjQGAyNKeCiiCAAAIIIIAAAggggAACCCCAAAIIIJA5AgQmM+dcc6QIIIAAAggggAACCCCAAAIIIIAAAgiERoDAZGhOBRVBAAEEEEAAAQQQQAABBBBAAAEEEEAgcwQITGbOueZIEUAAAQQQQAABBBBAAAEEEEAAAQQQCI0AgcnQnAoqggACCCCAAAIIIIAAAggggAACCCCAQOYIEJjMnHPNkSKAAAIIIIAAAggggAACCCCAAAIIIBAaAQKToTkVVAQBBBBAAAEEEEAAAQQQQAABBBBAAIHMESAwmTnnmiNFAAEEEEAAAQQQQAABBBBAAAEEEEAgNAIEJkNzKqgIAggggAACCCCAAAIIIIAAAggggAACmSNAYDJzzjVHigACCCCAAAIIIIAAAggggAACCCCAQGgECEyG5lRQEQQQQAABBBBAAAEEEEAAAQQQQAABBDJHgMBk5pxrjhQBBBBAAAEEEEAAAQQQQAABBBBAAIHQCBCYDM2poCIIIIAAAggggAACCCCAAAIIIIAAAghkjgCBycw51xwpAggggAACCCCAAAIIIIAAAggggAACoREgMBmaU0FFEEAAAQQQQAABBBBAAAEEEEAAAQQQyBwBApOZc645UgQQQAABBBBAAAEEEEAAAQQQQAABBEIjQGAyNKeCiiCAAAIIIIAAAggggAACCCCAAAIIIJA5AgQmM+dcc6QIIIAAAggggAACCCCAAAIIIIAAAgiERoDAZGhOBRVBAAEEEEAAAQQQQAABBBBAAAEEEEAgcwQITGbOueZIEUAAAQQQQAABBBBAAAEEEEAAAQQQCI0AgcnQnAoqggACCCCAAAIIIIAAAggggAACCCCAQOYIEJjMnHPNkSKAAAIIIIAAAggggAACCCCAAAIIIBAaAQKToTkVVAQBBBBAAAEEEEAAAQQQQAABBBBAAIHMESAwmTnnmiNFAAEEEEAAAQQQQAABBBBAAAEEEEAgNAIEJkNzKqgIAggggAACCCCAAAIIIIAAAggggAACmSNAYDJzzjVHigACCCCAAAIIIIAAAggggAACCCCAQGgECEyG5lRQEQQQQAABBBBAAAEEEEAAAQQQQAABBDJHgMBk5pxrjhQBBBBAAAEEEEAAAQQQQAABBBBAAIHQCBCYDM2poCIIIIAAAggggAACCCCAAAIIIIAAAghkjgCBycw51xwpAggggAACCCCAAAIIIIAAAggggAACoREgMBmaU0FFEEAAAQQQQAABBBBAAAEEEEAAAQQQyBwBApOZc645UgQQQAABBBBAAAEEEEAAAQQQQAABBEIjQGAyNKeCiiCAAAIIIIAAAggggAACCCCAAAIIIJA5AgQmM+dcc6QIIIAAAggggAACCCCAAAIIIIAAAgiERoDAZGhOBRVBAAEEEEAAAQQQQAABBBBAAAEEEEAgcwQITGbOueZIEUAAAQQQQAABBBBAAAEEEEAAAQQQCI0AgcnQnAoqggACCCCAAAIIIIAAAggggAACCCCAQOYIEJjMnHPNkSKAAAIIIIAAAggggAACCCCAAAIIIBAaAQKToTkVVAQBBBBAAAEEEEAAAQQQQAABBBBAAIHMESAwmTnnmiNFAAEEEEAAAQQQQAABBBBAAAEEEEAgNAIEJkNzKqgIAggggAACCCCAAAIIIIAAAggggAACmSNAYDJzzjVHigACCCCAAAIIIIAAAggggAACCCCAQGgECEyG5lRQEQQQQAABBBBAAAEEEEAAAQQQQAABBDJHgMBk5pxrjhQBBBBAAAEEEEAAAQQQQAABBBBAAIHQCBCYDM2poCIIIIAAAggggAACCCCAAAIIIIAAAghkjgCBycw51xwpAggggAACCCCAAAIIIIAAAggggAACoREgMBmaU0FFEEAAAQQQQAABBBBAAAEEEEAAAQQQyBwBApOZc645UgQQQAABBBBAAAEEEEAAAQQQQAABBEIjQGAyNKeCiiCAAAIIIIAAAggggAACCCCAAAIIIJA5AgQmM+dcc6QIIIAAAggggAACCCCAAAIIIIAAAgiERoDAZGhOBRVBAAEEEEAAAQQQQAABBBBAAAEEEEAgcwQITGbOueZIEUAAAQQQQAABBBBAAAEEEEAAAQQQCI0AgcnQnAoqggACCCCAAAIIIIAAAggggAACCCCAQOYIEJjMnHPNkSKAAAIIIIAAAggggAACCCCAAAIIIBAaAQKToTkVVAQBBBBAAAEEEEAAAQQQQAABBBBAAIHMESAwmTnnmiNFAAEEEEAAAQQQQAABBBBAAAEEEEAgNAIEJkNzKqgIAggggAACCCCAAAIIIIAAAggggAACmSNAYDJzzjVHigACCCCAAAIIIIAAAggggAACCCCAQGgECEyG5lRQEQQQQAABBBBAAAEEEEAAAQQQQAABBDJHgMBk5pxrjhQBBBBAAAEEEEAAAQQQQAABBBBAAIHQCBCYDM2poCIIIIAAAggggAACCCCAAAIIIIAAAghkjgCBycw51xwpAggggAACCCCAAAIIIIAAAggggAACoREgMBmaU0FFEEAAAQQQQAABBBBAAAEEEEAAAQQQyBwBApOZc645UgQQQAABBBBAAAEEEEAAAQQQQAABBEIjQGAyNKeCiiCAAAIIIIAAAggggAACCCCAAAIIIJA5AgQmM+dcc6QIIIAAAggggAACCCCAAAIIIIAAAgiERoDAZGhOBRVBAAEEEEAAAQQQQAABBBBAAAEEEEAgcwQITGbOueZIEUAAAQQQQAABBBBAAAEEEEAAAQQQCI0AgcnQnAoqggACCCCAAAIIIIAAAggggAACCCCAQOYI5GbOoXKkCCCAAAIIIIAAAv1VIDs7p79WnXojMCAF2tvjA/K4OCgEEEAAgd4VIDDZu97sDQEEEEAAAQQQQGAbBAiCbAMamyCAAAIIIIAAAiEXoCt3yE8Q1UMAAQQQQAABBBBAAAEEEEAAAQQQQGAgCtBiciCeVY4JAQQQQAABBBAYAAJZWVnS0dEh1o37lP0ukLL8QdLS3jIAjoxDQKD/ChTHyuSD1XPlnlnXiP2NWrK/UxICCCCAAALbIkBgclvU2AYBBBBAAAEEEECgxwWysrI14BGXLP3vuL3PktEVMcnVoSZj0R7fNTtAAIFOBOoaRaIRkefmTkgGJhMd8OzvlIQAAggggMC2CBCY3BY1tkEAAQQQQAABBBDocYGOjvbUPqob1kphdKS8sfglWbz2HYlmE51M4fAAgV4QsNbKEyony17jJ0t9c3Vqj8G/09RCHiCAAAIIINBNAQKT3YQiGwIIIIAAAggggEDfCgwqFnlm/j3y+JxbJCc7V+LtbX1bIfaOQIYI+GEVTjvgQjlyz8kbHbVv2bzRQp4ggAACCCDQTQEmv+kmFNkQQAABBBBAAAEEEEAAgUwUYAzJTDzrHDMCCCDQOwK0mOwdZ/aCAAIIIIAAAgggsB0FcnRCnA79j4QAAj0vkKstlFvamnt+R+wBAQQQQCDjBAhMZtwp54ARQAABBBBAAIGBIdDezoQbA+NMchRhF7ApqEgIIIAAAgj0hABduXtClTIRQAABBBBAAAEEEEAAAQQQQAABBBBAYLMCBCY3y8NKBBBAAAEEEEAAAQQQQAABBBBAAAEEEOgJAQKTPaFKmQgggAACCCCAAAIIIIAAAggggAACCCCwWQECk5vlYSUCCCCAAAIIIIAAAggggAACCCCAAAII9IQAgcmeUKVMBBBAAAEEEEAAAQQQQAABBBBAAAEEENisAIHJzfKwEgEEEEAAAQQQQAABBBBAAAEEEEAAAQR6QiC3JwqlTAQQQAABBBBAAAEEEOifAjnZuZKTndNp5ePtcYm3t6XW+bxtuqxd132UlK37zNV9p+/jo5TJtggggAACCCAQbgECk+E+P9QOAQQQQAABBBBAAIFeFbDAYzD4mL5zC0ba+qysLHfv81pgcVuDk37blmRw08ru6OhI3zXPEUAAAQQQQGCACRCYHGAnlMNBAAEEEEAAAQQQQOCjCAwrGytlhUOloWmtKyYnJ1/i8UZpicdlVc1SF4z0gcSivFIZUjpKVlcvlbrmahes3NqAYrCsUYN3lpXVi2R93aqPcghsiwACCCCAAAL9RIDAZD85UVQTAQQQQAABBBBAAIGeEvDBQSv/1P0vkGP2mqHBwXYpL8qWFu25HdWrBnu+YMWrctNzV8q8ZS+7qhyz1xfk+588T771t/Pl+QUPSCQnqvmbU9W0ci1triWldd+2lpK7jJwiP/70tXLNY5fJA6/+PVWGPfDldHS0b9KSMti60ufb3P42KpgnCCCAAAIIINCnAgQm+5SfnSOAAAIIIIAAAgggEC6Bcm0tWRQTufX5m6S2cZ3k5xW7Cu46fIocvOsUGT3oGvnOP492rRrX1a+U5+Yukrqm9S6PjQ9pybp7d+h/PkCYHjC0YGJ2Vk6yK/iGsSlL8kVycyKuDLtJ386W+a7k9tiSb6GZvjyxllsEEEAAAQQQCLMAgckwnx3qhgACCCCAAAIIIIBALws0ttTLujqRu17+0yZdqi/59E1yxORpsvcO0+XxObek/vkq+vEm/X00N8+t8q0oLSBpyYKJ8Y7EJDo20Y7lr2uulaZWkba43miyoGQwsFkQKXLdxX3ZwfWW35bb/qI5MZfPlpEQQAABBBBAINwCBCbDfX6oHQIIIIAAAggggAACvS5gXbfzcrX5oqZgAHDF+g90yTRb7NLhk06Vk/b5una//oHMWTJTvjj9EplQOVn+89YtctDEE2XiiKnS1FInry16Wv782PdT3bwtgHjagRfKtB0/IRVFw+W1D56SRWvmu27jvmwLSlYUj5AvT/+p7DJiiuTmRmVd7Uq5eeZvXLdxW29jXP5Eg6Vzls6UtTUfyucO+l956q3b5S+PX7RJy0pfLvcIIIAAAgggEB4BApPhORfUBAEEEEAAAQQQQACB0AjkR4tcXcoLK7VL91qZPOZAOXDXE2TB8hoNJD7j1g0pHi0H7jJS/vVMuXteHCuTfSZMlr3GT5b3V66UFxY8qEHFfeTUA2dIbVOV/P3JS1y+rx15hXz+kBny8oJEnj3HHqzlTHdjWboMemNBySvPuF92qCyR/771kqyvXyX7TThWLj/9KvnVvZVuHMqS/EEyrHys7Fg5UQOXIvVN7VKl3c8tWVdyEgIIIIAAAgiEW4DAZLjPD7VDAAEEEEAAAQQQQKDXBXJ1zpofn/wPiSWDk1YBmwjHll9+96Wytna5q1NjS61U12+oXnNLgxRo7+17XnpS/vjIha5L9Q5Dd5PLTrtL9hl/pAtMThp9gHxm/xny4Cuz5Zf3nOPylBcNlYtOvF72nzgxVdjnPv49F5S89M6LXZdxW/FvnXjn12c+LDP2/pILTDa21UtdY7UML49pq82r5bYXrk5t77uBpxbwAAEEEEAAAQRCJ0BgMnSnhAohgAACCCCAAAIIIND3AvOWz96oEmUFFTJu6O5y1iE/klVVS1zXbeuSbcFKn/KiBdKgk3I/+Or1LuBoE9K8v+otqapfLbFIomv4gTvPcNnvnXWNy2PdsdfXrZL/vn2HBiYvkiYNNlqyVpTvr6yReUtfljEV492y+pYmeXPx8zpr+HSxgOfq6qVSlF+qrThXbhSUdJm5QQABBBBAAIHQCxCYDP0pooIIIIAAAggggAACCPSuQJtOlP3XJ3+Sahnp9/6Z/c6T8489T07X8SF/cPPJqTEj/Xq7r9G4Yl1zdXBRaqIbW1haOERn8RZZW7dyozwrqz9wk9/YQmtBaWNKFkZjcuXnH94onz2xSXIqiipl2bp3JTc7KiurF6Xy2AQ7fqbu1EIeIIAAAggggEAoBQhMhvK0UCkEEEAAAQQQQAABBPpWoCS/3AUmrUWjJQs23qOtHA/b7VQZNXjn7Va5SET7fmsrS0u52Yl7f1vdUCO3v/gHbZUZcYtsxm5rURnLLZT3Vr3pZuC2FTZBj08EJb0E9wgggAACCIRfgMBk+M8RNUQAAQQQQAABBBBAoFcFWtpEqhpWu30GWz9OHD5FKksrtYXihtaO1rpya9KH2jKypEBkfOXurpu3deO2tNOwvVPdwm1ZW1uLW/7Aq3939/7GZgIfPWgnneimOhWYZDxJr8M9AggggAAC/Usg7TfJ/lV5aosAAggggAACCCCAAALbXyCqzRcOmDBDpo4/TCwQuP+E4+TEqefKd477gwwbJPLw6ze6ndoYk91J8bhGOpPpmbl3u3EoPz3tPNll5D6utaOVf9zeZ7ku2tYa0tIz8++VSeNK5Pxjfue6dlvLzeP2+qJ27f6F7DHukE67kSd3wR0CCCCAAAII9BMBWkz2kxNFNRFAAAEEEEAAAQQQ6A2B/GihVJaJnHvkRVKi89W0tW/oYr1kbZNccfev5L5X/uqqkqPjO5Ym4ojueSxSKIOKN62ldQsvLSgRPxmOzaB97pHnyS/P+LdUNzS5sSSXrF0koyvGprpt3zrztzrpzc5uBu+pOx7hWlBOGFEiL8xfKb+87xy3k4K8YimMZUtebiy1U8aYTFHwAAEEEEAAgdALEJgM/SmigggggAACCCCAAAII9KxAsCv0zc//VlsrjpeGprqNdtoab5Sl696TFVUbJpp5Zu6dsrp2ibyz4lWX957Z18rT2iLSZsu21N6R6Of9x0cvlEhOvnTof5Zue+Fq7cb9phw48QSdrbvQbWNl7DxsL1m8Zq7LY13IL7v7bK3LJ2X3Ufu7fHfPmiXPzr8vNSmPdTe//K7zdTKd9W4bu2GMyRQFDxBAAAEEEAi9AIHJ0J8iKogAAggggAACCCCAQO8JzFv2sti/zSWbbMaCmcvWL3T/LK8tC24XbLk4a+ETqeL8trYsuNwyPF+7fKN8LW3N8vicW9y/1Ap9YGVnZWW77tzPL3gguIrHCCCAAAIIINCPBAhM9qOTRVURQAABBBBAAAEEEOhpAQscdpU0HOhaPfoWlj5A2NHR7gKVfltbH2y5GFxu64LPbV/+uT22smzbzvLZeusOHm9v0zyJ1ph+W18ny0NCAAEEEEAAgf4hQGCyf5wnaokAAggggAACCCCAQD4af7gAAEAASURBVK8IbE2AzwKIPkBoletq2/Tl/vmWgorp+SxoaUHJYPJ5gst4jAACCCCAAAL9Q4DAZP84T9QSAQQQQAABBBBAAIEBJ9DdoGJ38w04IA4IAQQQQACBAS6QPcCPj8NDAAEEEEAAAQQQQAABBBBAAAEEEEAAgRAKEJgM4UmhSggggAACCCCAAAIIIIAAAggggAACCAx0AQKTA/0Mc3wIIIAAAggggAACCCCAAAIIIIAAAgiEUIDAZAhPClVCAAEEEEAAAQQQQAABBBBAAAEEEEBgoAsQmBzoZ5jjQwABBBBAAAEEEEAAAQQQQAABBBBAIIQCBCZDeFKoEgIIIIAAAggggAACCCCAAAIIIIAAAgNdgMDkQD/DHB8CCCCAAAIIIIAAAggggAACCCCAAAIhFMgNYZ2oEgIIIIAAAggggAACGwnkZG38tTWaE5N4e3yjPDxBAIGeEcjJztG/t7aeKZxSEUAAAQQyWmDjb3gZTcHBI4AAAggggAACCIRVIN6xcVCkrrk6rFWlXggMOAEflIy3twy4Y+OAEEAAAQT6VoDAZN/6s3cEEEAAAQQQQACBbgq0tYsMKqyUorxSGVI6SppbGiQrK6ubW5MNAQS2VSBHBwBbV7dWKgqHScvGvxFsa5FshwACCCCAgBMgMMkLAQEEEEAAAQQQQCD0AtaVu6FZ5ISp58ixe54V+vpSQQQGokBublRqGkSytWs3CQEEEEAAge0hQGByeyhSBgIIIIAAAggggECvCBRGY5JbEOuVfbGT7SvQlmxpl8sVyPaF7cXS/DmMZEd6ca/sCgEEEEBgIAvwtWAgn12ODQEEEEAAAQQQ6McCHR0drvbtHXG56uFvC8GQ/nkyW9tbZcehk+RzB/2vtOkYhTc8dqksW7eQ89k/T6ertR/jtZ0JqPrxWaTqCCCAQDgECEyG4zxQCwQQQAABBBBAAIEuBCxAOW/Zy12sZXF/EGhoWit5uRdJm86dMm/py7Js/cL+UG3qiAACCCCAAAI9LEBgsoeBKR4BBBBAAAEEEEDgowvYmHZZ+h+p/wh0SIfkZufqZCnNUhCrkGabvUhTNJKfuM/N0xaUbZxXp9G/buzc0lqyf50zaosAAgiEVYDAZFjPDPVCAAEEEEAAAQQQSAkQBElR9KsH8UAwOS9Xp3Zui6bqH9duwJzXFAcPEEAAAQQQyEgB/XZAQgABBBBAAAEEEEAAAQR6TqAor1hs0hsLTlYUVbod5TCzc8+BUzICCCCAAAL9RIDAZD85UVQTAQQQQAABBBBAAAEEEEAAAQQQQACBgSRAV+6BdDY5FgQQQAABBBBAICCQo+P7kRDoSwFrFRnXcSQjOYlxJYN1iebEdF08uIjHCPSogL0WSQgggAAC4RLg22q4zge1QQABBBBAAAEEtpsAF+HbjZKCtlHAvwZb442pEppbm9zjuubq1DIeIIAAAggggEBmChCYzMzzzlEjgAACCCCAwAAXsFmsSwsqBvhRcnhhF8jOypXaxrVSWjgkVdWiWLlEdUbu4vwKae+gBVsKhgc9LlDdsJYJl3pcmR0ggAACWyeQNWrcjh3SYRtl6T/3YOMS3OIu1m2ck2cIIIAAAggggAACfSxgAUmb6bgor1QuPul6KSuslJa2RAu1Pq4au89ggWhuTF+LieBkVf1qXpMZ/Froi0O319/q2qXyy3vOEWupm5WVJR0dnVz79kXl2CcCCCCQ4QK0mMzwFwCHjwACCCCAAAIDSyDL/dgsEonkybCycTJ8UIk7wFhEpK19YB0rR9N/BNoCQ0mW66zcuTn9p+7UtP8K6CTw0tQq7vUWW50vWdl5/fdgqDkCCCAwQAUITA7QE8thIYAAAggggAACTa2N2jKtRG5/8Xp5e8nznU5AglLvCxTEiiSWW9j7O+7DPebmRCQ/Wuxq0NhSK21xjRZleGpqq5eGproMV+jZw7exTSePPVg+uc/npF5fdx3tzT27Q0pHAAEEENhqAQKTW03GBggggAACCCCAQP8RiOq3PQtKzlr4RP+p9ACvqXWztxatpMwWaG1tdt2KM1uh54/eZoQ/Zf/PSY6Od0pCAAEEEAifAO/O4Tsn1AgBBBBAAAEEENiuAnZhbskmHGmNt+j4atq/kdRnAnnRQm0xGeuz/W/vHcc74pKt/9m4fcFkyy3lZHW/3/a2bBPcZ3963KSBsobWOh3rsJ2/yR44cbnZudpinBaSPUBLkQgggMB2FSAwuV05KQwBBBBAAAEEEAivQFwnxbEJHzqSAaPw1nRg18zPRO0Dev35aC0YmR8tkhYdNsAne42163/RnERAsi3esUnQMjjxiA9o2jK/TUt802BncBu/r/54bzYWrLXXgU1UZYm/yR44kxqYJCGAAAIIhF+An8vDf46oIQIIIIAAAggggMAAFLBWhv01WTCxOd4sxQUVcs5hl8qYwbtKdcNadzi5OVlS11glR0w+U06adp5OutTqWuraSmuxm2i1m2hd6YOSFqStaVzn8tt2rToGpa2zvE3JWeV93v5qRr0RQAABBBBAYFMBfkba1IQlCCCAAAIIIIAAAgj0uIC1nOvPwUlr8VeUVyzjhu6+kVVtc50bQ3Nl1WKpzVuXWmfdliPZUcnOznFdmAsiRWIByea2RsnLzZfG1noZVjpGYpFC15rQ8ufrJEF2weK3jeREXavfVKE8QAABBBBAAIF+LUBgsl+fPiqPAAIIIIAAAggggEDfCGTrGInNrU1SVb9apu10pBy1xxku6PjQqzfKnMXPakvHelex3OyIHLHH6dLYXCvjh06SwliJPDX3Tnnl/SfFgpNH7H6a7D3uUJn74Wwp0ImBVlQvFpsYZt+dj5ajtfWkpdma9+m373CBTOsGPVC6dbuD4wYBBBBAAIEMFui//Ucy+KRx6AgggEDYBezDJewfMGGvX9jPMfVDAAEEvEBZ4RDZc+zBsnD1W5KvgcavH3WFDCqqkKk7HCGfmHyG68o9fddPycnTvinVGsSMaKDyy9MvlbKCITJ1xyPlswec54KRw0vHyR7jxkpzS4PsMHQ3OeuQH8nc5S+7oOSJU8+Rgz/2KddFPIc3cE/PPQIIIIAAAv1egBaT/f4UcgAIIIBA+ATaw1eljWpk17Rhr+NGFeYJAgggEEIBP4mPVe3uWdfIPfrPAoo/O+UWmTTmUFldu8y1jozrrNOWnnrrdvnL4xfJpNEHyPdOvFbGV+4u++10lLz47pNy1UPf1m7hpTJuyIMub1GsXIaXx6RBu4W/+O5DWtYSaWiqE5vRPM4buDPiBgEEEEAAgYEgwO+NA+EscgwIIIBAHwukf5jY8/RlfVzF1O6tXv6aNqx1TFWWBwgggEA/EGhqqZNV1UulvGioq+262pWSmxORqI4naSknK1uadNbuJevedcHHvEhMWz5W6+Myt37RmvlSUTwiMS5l9SIp1RaY1hX8mseulqMmny6XnXaXHLLryToRTqMry23EDQIIIIAAAggMCAGuyQbEaeQgEEAAgb4RsA+R3I4Ot3O7z0s+/lb1evlSTZVbbnn8cltg+YL//AdRcJk99il9eXBdcP/+sa23/XVVrgUlJ7c0y2/WrvK7SOVNLeABAggggEC3BXJzo9p1u1LW1yXeV0vyy6VNZ9VuaW+R9va4KyeuE+VYsNIne17XXKXL8qSydJSsrV3uxpUsL6x03b13GTnFtZb8zj+PlsvuOktK8wfLqfv/jy6rdUUwQ7eX5B4BBBBAAIH+LUBX7v59/qg9Aggg0GcCFvizIF97Vparg923JWuzZ3OTLM9NfMRYnuZkHtumLfk4mdXdWTAxfbkvP325386vt/0GH9t6X4/0/dlzSyfU60yv7R2u/p3tO5GLWwQQQACBzQnY5DeWhpTE5NP7ftMFHq1rtqWX33tUzj70J1Ko3bMtVRQNl2hunrTEm9zzEWUjXddsm9TmrEO/KsvXL5SKwmFy8G5jZe7SF12ryW8dc5EU5w9y3bijuTGXxza2MSbb4ht+wHIFcoMAAggggAAC/VKAwGS/PG1UGgEEEOhbAR8ILNeWMN+orpIpGoh8OxqVP5dVyNLsbFmfkyODdBCwH65fK3tq68T7CwrlhuJSFwg8orHBtaZs0oDibUUl8qCus+Djzq0t8lVtZVkej8sjuuxmXWdBw0/XJ1rHTNJy8vX5f/IL5dH8AreNtXw8pqFerigbJEPa2+UH69fI8LY2t73f32fqEtsfpvu9o6hYty+QA5oa5Te6jSUfWO1bUfaOAAII9D8B66Ld2t4qd794q2sdaUHJ5rYmufbxH7mWjfOWz5L8aLE7MBtfcuna93TMyVJtKVkrj75+q9Q1rZfH5twkZRp8PEQntlnw4avy+4f+KSurFstrHzwjN/z3L/LxXY5328/TSXDunX2dztpdzBiT/e+lQo0RQAABBBDoUoDAZJc0rEAAAQQQ6EzAByXt/k+rV0qlBhIvK6+Q71Stk2tXLpdjh4+SlTm58s269XJjcYk8ooHAS9etEQtEvhjLl7+sXiM/L0+0oLlm9Qo5vXKEvJoXk1t02yc1rwUlv69lFWug8bqSMjmnplomaNDySg0k7tLSIpdoWW+MGC1LtbwLNF9Mg5XWdfuWFctkfiQqdxYWy0VVa2WUBih/rvU6WQObH9dApAUk5+l+LABq27ygdSEhgAACCGybQIe+j+bq7NpV9avklhd/5wrJy83XcSBbxSbFKS2okGfn3+ce5+cWujwRHXOyQGft9ttY/oh277bt73vlr9KkQc3mlno3wY0tf+SNG+WZuXe6FpK1OgmObR/JiYrtm4QAAggggAACA0OAwOTAOI8cBQIIINDrAgdqsG8PbbH4iZFjXStJC/o9umyRHKTLI3rR+KwG/i4eNMTVa5AGGc+oq5GFGjjM62iVquwcubuwSN7T5y/pdt/VAOOHGsy8vHywrNYWl2M1qPh1bT35Nw1M1mdby8piuaq0XEZpOfctXyyTdR9LNYC5r7bUPGvocDlJg4/D4m3yqf/P3nfAyVWW67+zU7f3Te+QQAIkAQICUiQISBMURVCBixfxonLFrliw67Xg5SKoXBW5FEEQ4Q8ICEiRFkxIgTQIgbRNdjfbd2en7Oz/eb5zvtmzk5nNZrMkW953fzvnnO989Tn1e85bxk+UJtRdBk3Oq+Hn8lelZYYQfbCgSP6jepzpy1da22V5OCztIDYtybrPwdMGFQFFQBEYJQjk4U5KspHS3dMtYfiM9PkihjyMwPyaQiLR5uG6LcN1+orkPls2UtC3DNMTiW4hucm8SkoaSPVHEVAEFAFFQBEYNQgoMTlqDqUORBFQBBSBfYvApGRC3goEDSnJlrdjwrgd5GIlNCgpr4XCZsmfVVj/IEyqSUJ+F1qMP2ysN/+PgFxk2iQQkdNR3+/rtonfVYRZjjKVICJjMBVc6dZFM/G1IDNp1h1HeyQhWf5UmHNTw/L3dduN9iQ1IlegDKaxpg9rYWZu5V0gNf8Is3IVRUARUAQUgaFBwJKFJBwpdtsuvWkmQ5Y8mWVtGb/PL364B2Fd3vpsPbpUBBQBRUARUAQUgZGNgBKTI/v4ae8VAUVAEdhvCLSCFJwALUX6mSRBOB6TRq4z6M0hIA7n4d8KicQGTCxngHxcASJx7pQZZv2h2i3G7LsRkQxIJF4Is24KfUfOgdl2E8hHP+r1yv3QtDwfwWtOhM/IB7BOSSDfJpCk542fZLbZ9lyUJ1lKIVFJoRl3KQjM52DWraIIKAKKgCIw/BFQMnL4HyPtoSKgCCgCioAisDcIOJ8196YGLasIKAKKgCIwJhF4IRIxhOQvGuoMkfhT+IukOTY1GPN7Usav43/CnPojMOG+pK1FboAp9qxEQu6FL8hzQSxSw5EaljtAWN6FQDcHgTRkfpqC3wTflQviXSbADYlEmoZT+NC6Dz4kGeCGZOd9LjHJJUlRW/5/0KczOttNefrAtOU/DK1N+qGkubiKIqAIKAKKgCKgCIxNBJTwHpvHXUetCCgCwxMB1ZgcnsdFe6UIKAKKwLBFIIWekdajluSn4Lfxa4i8/eOd9fI2NBa/XVFl+r08FJG6soAJVnMatCSvAynJ6NsUmnJ/Ev4jKSQ37wEpSX+P34F/SRKYp8Es+6n8Xv+U1JBc65pyk2CMIe/NJaUm6M4bIBkp67G8onq8CcDD8vQh+S3XvyWD6Viz8i3Q5nzaoy3JsagoAqMJAfrgG4ior76BoKR5FAFFYCQiwPtbHlwA9Cf+PGca3J1K9pdN9ykCioAioAjsAwSUmNwHIGsTioAioAiMNgQsOUlC8N8QfCYAwjDpEiJcZ7CaTCGZyXKMtM2gNnkZZRgMh/82H8tznUFv7DpJSabdkuEjkmnPItjOszDlzlWe/bLlvHlM5fqjCIwSBKgFRH98uSbbfnxQgKc+SUHDWMnJUXLQdRiKgCKQRsDe17oRGZ73u2zCPLnukdnya5oioAgoAorAO4sA52YqioAioAgoAorAHiNAkpFkHx8kJCW5tAQl18PuPqyadC5tHpZlGW955qd46+U6y/Cf6xSbZsvaNG5717lt87K87aO3LlNAfxSBUYKA1QCKJx3/rsG83qBPdojcR1KSedWU0aKiS0VAERgtCPC+Vl5UI+PLpom9FxZEHH/Udoz23jejZp65F9p0XSoCioAioAjsHwQ4P1NRBBQBRUARUAQGhYBXS5IV2G2uU7uRYklBkoTm3yUkDXGIdUseMj/TSFCm3HRTQY6fzDyWeEzXizqyPeTYnooiMJoQyHO1gqgBtPjQC+SYA880w2vurDfLAJSGEt1Rsz6pfKacufAyKSmoMNuWzDQb+qMIKAKKwAhGwN4LE4mYXHLCN+RTi39oRtPS4dwLqUUZ7+4SEpJfOedmOXLmYqM5qffBEXzQteuKgCIwKhBQU+5RcRh1EIqAIqAI7D8ELNno7YEl/+wycx9JRa/YfCQXM7092X3Z8nvTuM68mXV782Sry7tf1xWBkYiA1YAkMdnZ1S5Xve86OeqA98pz6x4ww0l2i4wrnW4IyY8c93l5bs0D0tReJ5zEp3qwU0URUAQUgVGAQA8C7/G+1h5rkVc3vyBfO+/rMmv8fGlo24Z7o0hhqFiuPuMGWTD9RDPa//3Ht0fBqHUIioAioAiMfAR8k6fPoqshCCeJjhlcn2GZ5Bz7+mTUDUVAEVAEFAFFoK/ZtRePTBNqajZSSEZSSzKBJYPbBJHGYDiZ+U1m/ORK537vPtZJysWrxck8KorAaESAGj/WZ9q1598hpy44SjZs75KAa87dFW+XCRUlICRTcvWt75XtzW9LKBBOmzqORkyG85hoaloQLJJuEMN55s41nHurfRtqBFL4jOZHcJbORLv5SDDU9Y/l+uy9kPe375x/pxw/9zDZ3ND7WbIwkicl+SK/evR6+fOL1xtTbnvvHMu46dgVAUVAEdifCHAOp6IIKAKKgCKgCOw1AnygWGLQrrNSu85pgV1n+hdamsw/12+vq5WD4zH5UHubfLfRMbnKzG/LZqazPPd5hds/Qj3nd7SZZJKUmXm8+XVdERjpCHBizYk45d6XbpC361JSWhBJD6u0oMSs/23FH5WUTKOiK4qAIjDaEOC9kOQk/Us+/tpdUtfcd4RJmGWs2bJD/vbKH80OV0OnbybdUgQUAUVAEdinCOg8bZ/CrY0pAoqAIjA6EeDDhIQh/yl23ZvuXWeecd1J88/1WYm4FII8rERQjvLuXtPS3dVjH2LedlkfZQJmH+Pcuui/knlsfpNBfxSBUYZAEhNyyqrNz8vyt57eZXS1ja3yiDsZ78a1pqIIKAKKwGhG4KX1j8i6bSsRDMd5+idTcSkpFHkShCXNvUlg0hWGiiKgCCgCisD+RUDnaPsXf21dEVAEFIERj4AJNoNRFIFY/EbTTnly22a5Z8c2OSrWZcjAGcmE/AEakQ/WbpE73fTMQXf6nMdRS16eVGGS8ANoOz6M/FyyXpKKh0Gj0tbDJbctIXl5a7PJzzJndHak0ztBSFIubWuRX+ysk1J3AqIPPwOL/owyBDjBtlqTD7/yB+noSkk44JztVJ78x5p7pa51i5oujrLjPhyG43PvtUPRl8y6kqmE8N+b7l0fija1jtGFgNUgJ/lIrcm467y6MBSRzfWtaW1J9bE7uo67jkYRUARGLgI6Nxu5x057rggoAorAfkeADxHrw5Em2B+E6fRXK6ulHs7n79hRZ3xH/qKhzvTz09XjpAuT1+vc7ahnIkvfkpQOEJQLYjGJYnlDabmc19GeNu3+8U7HxPuScROlLJWSX7r1fKytVb4FQvS3JWXyaEGh/KZ+uxzfFZXaQMDUc0q0U77X2CDPRAqkCf0aCQ8+9lH/FYPBnAPUhAz4fUZrct22fwkJSZKT9a1daW1Jv3sdDKZ+LZP9vCTmY5Es45j5T1+ZlIFgwDz0sci/zPyZdTFPoCQkofER04bNvyftmY6Nph+9CLNfhB5czHnkfoh8ds1fZd3WdULfkrwfPrz8FqMtySA5PT68e3jK6fpoulB0LIqAIjCSENCo3CPpaGlfRyUC5n3IJWVG5QB1UEOGgCUAh6zCIagoj9qMmGROBlH4HhCA3ymvkiXhiKyoCsuF7a1Sgv2/KKuQRmhCJjAJ2BAMybx4XGzgm8wulGEisSoUlu+XV7q7auRakIrlSL+2oiqdfWMwaAhM1nMZtCF/A1Lyr4VFZv/bgaDQdJvE51XwY1mEKJ1XVI+Xh0Fa8nqjWE1LZ2v4/Q73/g0/xLRHaQRcc25u/+mF62TOxNulujRP7n7xFqMtyXT6XlMZWgRS3c7HFd5jxtL124N7cLKrw4Bpxx3ML5JEtF0kFELwpaAhH+120B9y9rnws0wgUgjM8IcPSlaYnhfJl/Zos/jPC0jdgi1S+eXxCFpSsUt7LD8WhGQb8R5TJ9ggDyz9Rnb3OGqSvN/9ZcmN8u0P/bds3LHDrLNaNeHODW76XMudRfcoAoqAIjCkCCgxOaRwamWKwJ4jwJdvEjsqisBIRmAifERSG/FNEIYURti+pbjUrJ8Lk+tLodXY6HdowXaQlH6zp+8PtSkpJBatbIHWI6VQfDIX9fwniMa1IDfpO7IjzyfFIB0Z2OZVkJkUrluC8urmRqlI+QwpeiD6x1rMZNfkHP4/VjPITESHf3e1h8MIAZ47Pmgdr936sry+/RWYwc6TR1feanpILSGdkA/twfJeq7zHjBUxZCI+GvmPK5DGo7dLpLZQCv9eKj3t+GB1tl+C6wOS3JgAEx43eVLhbkk82S7+OQXSemKDgank6SpJruuQ0NQSSRyQkryYX1rnNUigLYy6/FJWUy0bFqyShrJamf7ugyX5Mky6Tw5L84J6CbQHpPyR8RJH9HkSnqP6XonHZ0/K0e6LzYlKT7BHfAl9d9zdteaLOxg9FbhHLt7xdXmm6T7pmgp3L/lj6UrdHUrOfp5TeR15EtoYMeeakpMDw01zKQKKwNAgoMTk0OCotSgCg0aAVE0Bv4BD8PquogjsggBpOp4b1AIcrrINZGERtCbnYAK6EiQhI2x/pqXZmFbTzPqD4ycZTUr6f6QGZOZYSGRGcB1weQR8U1o5Gho0OwJ+OQhpNMe+CGbcz0KLhj4laeZNMpR1zTHEo1Pqpvodcm9RsTRj3/fLC2U1+nPv9q3yAspRm9Nqedo2htPSTgSmQ+P0hosOko643hWG0/EZSX3p6SkAOdkp+bFN8JGwSX79MWoc92odj6SxjIS+FoaC8rNH3pan1jcbU/qkq0E5Evo+mD7yXpWKRg0Bufz0F+Tgfy6Q5gPrzf+kGw+Q+oVbRRYiyNl3xxvNyX9d/KTMfWqRFE8tlyVX/UMOXHGwaXbpVc/KEdcfL92SlKWfeEr8dX45YM0h8tqpS2TWhHlS8RDKu0JiM3Vat6w46zmZ/+Bxpo03rn5VFl13isQ3tUqgCFrzSed9ypYZLcseP4hIfGhLFXRL41U7pHsuTOdbMLri0TLCd24cFZ0zpLFgo9y+9tfy9riXZMd/blGtUy/cnIjwXMK35MArQRn31cni68pzzNxH5+XkHb2uKwKKwDBBQInJYXIgtBtjDwG+B/B77QEgVH4NIsVqi409JHTEu0OgFITfS5GIfL6yZtiZIltt3y3Qgvx7QYF8CVqK1FqkeXWj3w9SMCQNWL4fvifng1y8sL1NJiAaN31AUvKpAQKhqTbLUbifgWqoOXkFCMjvwqx7AzQx29DG6Z3tJoI3NTCnIqgOA+BcD1+UP9vZaK6hBWhjAdL+q7wCfii7EewmZcjIf4KUvAHX2WkTJ6f9TA5nfYl8kLHzD68weEihow3qbOivIrCHCHQ87BQonLqHBTX7gBHogGk8rtOpL9eaIgHcq5LQ6h7NQh+PJAJfPutxQzh235GUKdNmy4s/elSqj5kk4x6cJss+/ZRMKjpAeialpCfQY7Qp6y+GSXZ7lRTfWil5uM9VzqqXbRe8KRPvmim+dp8s+H/Hy46HN8sRb5wkSz/6lJT+okQm/XOmhBaGTXr463ASCAn9I18mvXCAacvi7APkY4FHyWv3S3cLNFW3ZrM9sGjo0iLQIpuk2jdB/izfE9khUl03QRp7HN/XNo8uBR8HukFIDt8P4HqMFAFFYHQjoMTk6D6+OroRgAC1xBwz0xHQWe3ifkMgFhueL4sk9yzJ/l34l3wr0CKLox3yZH6B/Kq0zJCA11RUy8dBVObjXP82/EQeDvJwEkjF+wuLpcqdvF8HcnEjNBsZlftryF8JUpEk43/BP+WfikoM7l9H+gXwW0m5uqrG+LScmUgY020GzzkDpGUTSNAPQDtzI0jNv6D+7a4p+JfgY/KjIDmr0R61LIe7RJOYYddHpa2rWx545S1ZXdsBx/36yB7ux037NzYR+OSJE6WqPA4N5+H8uWPojo3VlgzA/JpCTUn5tkibNElgc1D8HQHxr4dvyaRPkrMTEpvTKZPeniGp9m5pHddkytR+eaNZ8qfs9WpJTQLRtjMgeSDb6G6AJt0sT/+RHUWtEi+MyZTINAndUyJdl3bKkv/5uwR2BGX+Y8dJqg4k6RjxM5kGDdptxTeWS8E/i2CWPBbo2PTIB71Sk5hsyvbADKVanPVBVzaKCuZFfdL57nZp/prjXmEUDU2HoggoAiMIAZ3ljKCDpV0dnQhYTUlqgzGAB7XEaBKL93GVMYwAlEuEvhipacio0jtAuA1XseQkTapvxjnMfyskLRl0hv9WaIqdKbbMFpCTNAXPJvQdaf1Hcj/Nsils488w3ea/FZvGbQbIoUbnT0ByUiyRajb2w8+A2y8ISgTmoH98foes2d65H3qqTSoCisBAECAxKaWhgWQdPXmgDU/pCfVI9SuTJPRCvvRUpqTs8GrHT2TbTpm5bq60nFQvb9esdwhEasqHe6RkU4VU3jpR8grypGt+hyEye5oR0bvbefGBh1RTty8ZZEgcsx7qgF/JZIuUwc0FtSsn7TxA4sdEjfn3othi6X6uUxh0Z8wI4A9sCwq1J/MQZ0hFEdgbBIJNeMccY7ewvcFLyyoCisDQI6DE5NBjqjUqAoNCINTjl3sRLIQEiooiYBGYBs1CEpP0MzmcxZKT9N/I6OE8i60vRxKDNqI4zbXpR9Lm55i869y25ZjOstZc3NbNPN56uG3bsO3aPnCfd5118n9/ih2vdzz99Sc/5NwTCsN5Eo3t797311PdpwiMHQTy/NAGxIcDXpdGYk4E4P4QoKYhZaQHaWH/GW2bQWcmbZxhfD3SrJpaj2vevVyOuON4iSY6pPKpCbLsB0+Jb5NP/CuD0trTKjUvTZHVJ70sFZXjYTiakpWnL5GF9x4LctIvyRrHp243Issbf5JlcTxL8iTYHpKtMzbKu2aeJvUnbZG3pqyVI755sgQb8RGLcc3GqKQKnedBTwRLl9Qdo1DosAeLAH2Xwp9kEh8MVBQBRUAR2J8IKDG5P9HXthWBDAQqQEJRY6wIL/2d7gQmI4tujhEEaJpMDUSa+o8UMVMk9NmdpqfJSBKLNo1j4jr/md+mc4x22xKJ3GcJTbO/n3q8bfQpw4IQW7dt10ndP7+WRGWfuU7x9jlXr7oZ+AA7LbmRK5+mKwKKwDuPQDcvRgivy4EII96Opgh39j405ZbZUn/+Fll6zZPii+XJYY8cLb6lPqksGi8BmHPPuW++5NcWS7I1LgXhYgncF5S5skiWfeopA9uBKw4R//MB6ZnWI7OXHib+aECKwqXGpHvO0/Px1QnPwRWFEjwiJG3HNUn1PZOl9mNvy9LvOe0t+Mu7TXt5WTTxB3JcRnIev3sO+uJ4srnrI3k82vf9gIAS2vsBdG1SEVAEsiGgxGQ2VDRNEdhPCFhX+dQZ4Duml7TZT13SZvcDAjz29lzYD83vVZO55kbe9GzrNi1zmdkZu5/p3vXBbGfW/U5vW1K0HGTkRfB3+Tj8cL7mmq1bzdCB0NAjXdvqncZZ61cE9gUClpjbbVvug9yXcLUlod1GDaWRLmmtSUTDLr2hShaNP0VSnXBD09AuKYwx6A9JN3zlFv62ACaifqNhScwS3XEJ3+mXI/5+soGA+ZOhhATeDkrhLWWSyuuWkvwKSb2dMttQoTeamQt/fIIhKePwMzz3F0dJoAZm3mwPhGcqL4X3JUQRHkEf8ob6+BPbsTz+ocZzLNRnzpkxES5qLBxNHaMiMPIRUGJy5B9DHcEoRiCTeBnFQ9Wh7QYBx8CtN5Od1vZ3jtg8vaWctcGUYUktl4nknuPJY1IPdw01iDz+SO0WubW4RG4qq0y7cAggA+PeqCgCisDIRoCTfh+IMriMNtJ1WKd0LAaJd1uVBEBM5vmcV3ASaiNZ6NeREbrjICgFfidtEBqSZGZsHk1GppGw7IkEDYHJcTO/JdUY9MaKKetCQ7PxZApPQZhtsz2Sm/FN8FcJse3ZcrpUBBQBRUARUAQUgZGHgBKTI++YaY8VAUVgDCJgfUz2Rw5mwrIneW3ZwZRhWS1nEey7zIULycgzOjvk4rZWOa+jXe5DYB9DUI5wkqLv6HVLERi7CJCEowZ07OCotJ/eItFzOqTwTzBlrh9dr94cp9+HACxFRQhe4xxvplmykfu4bcWuewPV2Px+cYhJm8dbloQmhfvMen5vpA5b3pazbQ1kafvZX95sebKl9VeH3be7ctyfTZyzKdseTVMEFAFFQBFQBEY+AqPr7WjkHw8dgSKgCCgCWRFYgMAKd+7YJl+vrJZt/oCUYHLWigkMfTZmEwaHKejJTot1+vIGVa4N5XL5QqRf1GCO9gZbrgXaM9lGQCWagn7aG0y5BMZGv6652itNZVdjZLn2HMeA5tnFWTAJIOIsg1z9qahEPtPSJMVQqSJBeUF7VG4pLpRflZZJexd6ok/obKe2pikCwxOBcO8FG09Ag3BWl7Se3yRdCzpFKkX8a/1SejtWXInFEY06gYA51DKERmA2cbQEc0R36a9cV0e26kwafTHm0tJMDrJcIpo7LHQujUZqWaYYpTuHsJyXaLTrjNKdivZfLluVplyu9vrD0mhqDuIYDKJcf6SldQWQbWyapggoAoqAIqAIjHQEet+iRvpItP+KgCKgCIxiBMI9CXl3V0L+sn0r4if4ZAJMgW8oLZeflFWYUZOsI6lmlx9qb5Nrm5qlEf65gq4PIZarQKCG75eXggArTZfjiiXkPgXfh19sbpRakJ+2HPcXp/Lki5UV8ldo9tk27JL7v9bUYMi1zHIkSK+oHi/Pmsmw044N/sLlTxvq5L3RWJ9+sj7Kx2omGB+M3vwkRkkS3li/QxaBrG2DbzErbGs7+n3x+EmG+MssNxEE4G9B7k5HkCkvocuxrYIPtMtqxksTyNDMcgck4nLbjloEpUrtUu5ZmCR+CuNjfZnlDo/H5Df12233zNIeu9+UlMktOH7nQFtyqulPEJHGE3IF8L8IPtSWFM0RWbFDgjOc49unEt1QBBSB4YeAG5U7WZ2UwsuLZNMRG2B3jGBVTfD914X78FthSUyJiwmCg97XFE0xYwg1hI0PRWPijHuYFZKS/hkB6S7M/vEpVzkScP45BSiX/WNK3iZEv4Zfxsz22O6gyiE4jRyO6Ni5ZD0++MA/hZcMZR/zAvjwlKMcI3TL1hzlilBubvb2WI6+Kb1tsVvEMlASGlS50PiIxKv27BiwvYGUiwRDxqTfEpIkXxOT4tJduWuEd19+SkIrCsSXxPmESMoqioAioAgoAorAaEJAicl36Ghywp6HFwxGXaXY9d4ptEl29nn2M8Gb11uPN90UzPjJltfWxyX7kq19k4c/ELZBsXm9dTK9vz7sSV7WpaIIKAIDRyDmc4irqu7eyWZJDi0+1poPEo1E14Te7OnGSq3Ts3RK7wp9H1JIfPaVbkQIz3UHEalwQ9TuWk7Qj9yTqPFoJ1c/e72N9e0Jt6YmnXLhjPGF0FaQuEAj0QrrsaMhKUkNxWK70yy7ZVIydx8ZGd2OK7PcuO7edvpUiY0StOM9Xt79k9D/etyT6/x+Q0x697F/R61bh6Tp8KWWu1/eMrquCCgC+xeBtroueeOSWtk+aVOakGSPekK4httEuo7qlK7F0J50pUFqcXMUmXfLUSYYTE8RTJPtjYpkX3tcGs9skA2nvQZ7cLdQF5YRZ/2IX54ksglEp6ccCS5qE+64YLtsPW6jSIubn+V480I/Dv8xyi3rWw57jDBSdvdBuH8in2nHlsP3lUU/XizS0LecIfwiIXnliqelZ6ozznQ5fPvyveWTo39wqiQ3tRtTb8F91vYxMLVEln32KaNNKnZcXFaDIF2O4Dg/OFlSrd3ixz2ShJ0t55tWIMu+inLEIaNc8OmQzP/xu/Gu6yEnXSx75gRk2VdQjpJRLvLXApn73/PFD/+VVjOT0cB5DLrmd8vyK//pRFTPKDfnzvkmuI/3GNhybcdF5bVLlzjHzpZj2+4x774jKYFQpaR63IPORwkesa0fbpToh6HxymPgFRy/is+Pk4IXivB88+7QdUVAEVAEFAFFYOQjoMTkO3QMOX23pCSb8K57m3TfQ/rst3kz92Wme+sxbXjasXlNOl5Urdg67bZdWrrBW477hmIctg1djk4E7PuxPYeyjdLm4b7+8mUrmy3N1rcndQ2mTLa291faJkySri8dl24+iInaOpifZYrF5GlEfP48tP8SnuufeVluRbhX24T5LTbcfwfMi5eHIlnLvVBQyCxZj+EfSkrlSbSZvT13Jm1K994Peb/5BTQ+x4OkyyzHrJsDziPK3pfskqbh366oknKQtN5yHFsHCMl6aE1SbH6bpxntfbGyRgpB/Nk05mO5Jkx+aeJOseXskv34bFUv9iYTflhuO/bZumx+u1wRjmQtV4T2l0QiRlvyyBhnrCRvnfBGmwJBuQnalEsPHC+PzR8nwdbMsEcmu/4oAorAMEOgGBp5FH+dX7ondYMwBFGHy9sXh4YbyMm8ZmjHbYanwLBzl67w1cjO4E4JtrNcxhcWUxO4t9pCyXsjJJWJSjfFWTT21EleDO30Se3dKNpekrVcU1dDb6Ysa9M3HyRvyVph34zE8P4Y7pHmtp1ZcvcmTdw6XeJR517mLddRl8muOT4ibcnquokgT4GTFbTXuHWHjG+a6pCHNj1j6d/q7+0j97nlprYemJET+LsgdUdBcm7YtdzO+gaZFt21nK3I3xGQvDd3PQY763dKoK33WWrz2yWPa7ZjZ495GL43s0lge1DyVqNsm3Ou+GKINo5zpgda/Xkd3qd1ttKjK41kNCVNFmcZnjcP1/vLm6W4JikCioAioAgMEwR8k6fPcv0p8+bveTmwHTTJOfbZPLrcIwT4WmHJg90V3JO8mXXlKpsrfaDlM/Pp9uAQsMdhNsxEn9i2Ge/VQXn/+HHGdJUaZl5T08G18M6X4hgytWwzWx1Inswyu9tmnZSBXkfMa/tB0mhPyrHs/hBrFvwVmFXTD+E/YQp94ThM4jKE48ocT7a0jGIGj6Eql1l3tu3MPmVuZyvDtMx8mdvDpVxmPwbSz/tglm+Jyddh0ndnUbHcg3+ak0+vCsuz3zlKEm1xOf/G12QZNI4iQb90wXedSm4EAn6Y1IOcToL8TebQNrV56Acwz83/TuLKybIfJ8RA+8W+UwF5byfY3nFmXuu5EOR5G8J51h9+ucqOtXRLgvC6fOGahVI1IV8+cf2r8uiGnVL0yRJ54+BXDUEpdPcI7jGypEDKfg91QFemlx9k1lKd0O9r72vqzB1G6w9my3kFPCq7yqDLNaLmDNNqW3teTXayjPtTOcoRB1919j7actSU3EXwsS2vop9ydbve6wwmMAHPVY6YSPuubQ2k3D49Bu4xZ3CfzkS7NLXXpeHpLgGpDTI4U3pCKQluhTl6UbfUfXerJI9JSPXnxkn4JUeD0tczCkk59/TIOTbPfuLV43NxG+gNLxPkMbZt7mHEDHh1nNAmTT+pE2od11w7SXxdAJf4KpZj7KzQ4SoC+w8B1ZgcYuztPfyiUEBODSCYAl4UKAW48a/AJOl/uuImeIT7LDX3+1x5r4sl5BjMZi6HQ3XWwzpeSKbkN3HH7MNbB9s4By9rH8AXVZv3tni3vBvlp2PixbQOkF0/7IyaSa/tpyU/DszzydVh52u/7SvbPwV1fsyt047jLYzjZxgHAz6wPIV+33Ll/RHykmSzbZoC+jPiEbDH02qHcUA2zQ7ObveXx+YdyDJd30Aye/Kky+E8pNhtT5Zhv2pDI3jNojltyxaMhu+RvDZzTTEHW46agbneUftrL1s5W89gyvH4kRDPNb5c7bEctRxzyWDK9YdltvZ4HHnvvBy+JElKkpC8tbhE7ofvThKSVvJx71XZcwRIRiZddwfZrnNOxLx5UrvJv+c96FvCklfggdL9smnenOyrt1/cly2ft0x/65njHEhdzJPC9WFJ2oGU6a8PY3FfccRvJvQd17dL1aSJ0vHeVoke3S7ds7qNKXfPbQ65RGyaW+vxXgeNuxyBV+gnMdmQO6jMYMv1F/wmvqk152HLVY4EeqKfcrmC35AcpYl3LslWjpgMtlwyjgA2MH3PJbnaoz9OmrBnlf6O3SDK8Zrzt+7+3u/rdt5lsvZpFCSm7z3ui4LRoMm8oXu2XQ2bXv0az75RAIcOQRFQBBSBMYGAEpNDfJitD8aF0NhYTHNJaD5YX2eLYK74ZwR52IIXD06OOQmmXAgCc4HHtJJpk6HJQWKQhjGLg5jKuv7SDsxLyi1Iz9Sm4zP4oyBDj3XJRbb7czhiJylp+sFKIY/iRfBxfilH+16y6GRMgs+GnyArb3U6JjmHgtj0ljf7Mem7F3WsgkoHX584Mad8IBhA3t46mLYJESdJYtI9Umab3K8yMhEgmURC7CgQK+/vaJMoTGBvB7myEWaodp9dVuNcvKitRabBt999hcV9gqDs6ej5jspz/bPQIGzBNeEN4GKJLm+d9t2U+87o7JDD0V9GPPYGOPHmHwnr9r6Rbbze/vP4WHdl3vTdrY+Echw77197Oj6Wy7x37g4P7h+qcjwfeS8shw/Mg6Ep/TOYsf8OZts2qjdJZ0t0RnGPVdkzBDiZrSwMSHVRUGpBCjR3Jnch90iiUBuVxC/zBPBRriiSJ2/vjBtSLj0h3rOmc+Zme9RcnFweMm3WtyekAf+ZwnOsrCAgE2AOzGO/pQkfMUGaDqY/tkwVcJhaEZZ1OzqlI8YWcostQ+2/GZVhsf2099DcJXVPNgQKw3nSAe22sluqpPCpYuk8pl3azm+WtiuapPx7NTAv9kk4VCgBuHvIqk3oVhoogjZcDqGJci6t2nei3GD7mascSca8fsaXqxy1DAdTzgT7oT/OXJJNqxN5B1suQFcrWdytsHkeO0Yl92d8XjPHExdd1uA2CHhjtNhy9X+UpNt7UU8kJa3nNZlRFT1U5hC29obkLhPTY9J+WouE1uRLaFNIOk5qk4JniyS0AdeVzTtKcNFhKAKKgCIw2hHgbVtlCBGwZB+1EylRkDJREJIkCvMxaTooZPWenMkuJ6iTSDqC7GM+m3enG9RiKci/JxKYxLj1TMUkanYWTZpZSD8EJGKCmiLIyzIkDv8CrUlu23RqUFrhmtW2mg//arYN9uF2EIqUTo7DbZvpph6Mg4QlBbWbOrg1O6MOlmt0x8G8KqMHAfs9fz6IvovbWk0k4Q8jCjTF7rPLxZ3tJsozo0SfGO11/M+8JC9Jxth/bmcKzy2mF7n7SOpfCqKT7XqF+Ww9XDpnaG+OU6Idpp/VrjaV7V9vDl1TBPYdAj8qr5L/RlRuq3nOc5ykqb0n77uejPyWOJGlcFJ/xqHl8tiPj5avnj4lnea9F5D8u+OTh8i9n54nM6sicstlc+XJLy6Q0nznjmAfkayT5WzdpjL3x+7LTMvMS0KSUpYfkBsuOkge++YR8rMPzRSSVhS732zg55cXzJLHvrZQfnfJwYbIZHpmf3L1ydbB/WF87KR8aFG13P+F+TJnXIHZ9vbPjsHJ2VtmLsyR2YfLjx9vyujP4BDoTsGsNugQy4zGXXpnpYy7agp8FcJMHlGX+bWDQU9IUNHMOKeQLMvxn4uUNHXlKMO6BlsuZx+5o5/2hrqc6f8g2tvX5frDpN9jgNPBl4B5fOZ/3F6t/SI6anb6MN7o0R3SdlWzdC1w3h0tYWuXJCU7/r3NXFPxqbDk+nSLRI+i7wQPuQvYeC3af+/LoU3z3htt2u7yjRqgdSCKgCKgCAwTBMbWU24/gB7A5IaEZAITpiCIO0vo2a7MhTZkNYlJNx/zW+1IS9LQfJti9qGOY+1MxVaC5cGoo8QNFMHytsyyeELqQcQEWS/k3WiPB52TX2vSSI22+W6d+Sj7CgjNjfhPC9LsOEwatme79dk8JEanur5dOF47jvw8Vcq1GI3GpdXe49hIOvLcIrliSRYnPcqFEW9+5uF5yPz2n9v2vGcBe4NiutUqIxnOICXUmLTCc5lnrK2HS27bc5z5okhTUQT2JwI8J3nWUmO3Hucv13m+G+1P9/z0TpD2Z19HUtuc5FuS79WtmMDCWuC0wyqFGoMU40fSJQmPmlEsUxZWS21zQlZu7ZDNjUlZva0LH916n3msy+feU2zdtn6LS4/nfmLvRCxj120+LqmROakCfYE25wlzytJEIffZ/AePL5DFc8tFSkMyoSxotCu5n34pvf1hL9lOZn/MuYR+cz/9Q1LKYFbM+sJB24pDhrIsx8VcXmxYxuSdWAyiVp/dxGNvhMQShUQHhf4BqUHJ4CYqisCeImDJuD0tN9LyG9KWtyzcoIoeQWh3SGy+Q0xS05jXE68t+tqMHQzrrlq4y0Kk8oIlhVL9mXFS+LhTxpi7u/V4SV7nxmeqTZO/bNM+e21e5mOa+XdJYm8+pwb9VQQUAUVAERgqBHrfVoeqRq1nFwRotJXEQ49yoEumWIKGWo4CspHEJfNZApF5rUbX85gwtWKiYfcd42pDMI8z/RA53tWi5OtuPbQln3TNALegvRdhDmbITrQxE83Nc0lI+2o8H1qc1MTETMXkY1kSQZniHccRmNhQK83mIzFKUpN1mHFkFtbtUYmAJf4aSLrHY+lAHjYG82Sct0dAq5L7KTY/13nuUGOYJtbUgOSSWpFM542J/zy/+T8PdVPjkqbjrInEY8AN1sV83Oby+K6ofAyalLYum45dKorAsEDA3rMtAc/z3aYNiw6O8E4wSNATL9ZJ1fRiOXyaYwZLP5L8p5y3cCK8/MfknmV1xlT6yttXy1nXrzCmzpyAkp+kCTWPib0POb4fe8lATk7N5NnNw7zc5tKWw6qph0tKNI7266MSLA7JafNAQEJYL4lBykkHl2F2jacy8sSQ7jXlt/2hpiVNrdmGKWtKOpNnm8Yky7E2d+EzTkdSYgnudbQv7Vi4TYLSu800k7exQ1qie+oogaVVMhEwRAYJSnsyIcNYMMfNxEG3FYE9QYDBbiiRpYUib+G+NDcq3WW0PsO91o1qn5gXleTMhAQRwZxayUbgn9PHSPJWkJ/l6EqBwV26DgPByWuRt0QsuW3T7D09dnDUpNGUnGn8p8l4DL5ibZolMW0zulQEFAFFQBHYewT0k/jeY9hvDSQTN2GWEBWfzEFOmjtTQ5HaMhRjQo1lM9K24n8B/UliSbHkJU2yX4bW42JqRGK5KKMOkjvHkphkOexbCZPr11OO5gZr+ifKnO3WSa1NalyyThKIFGPejXTWTVNtS2o6e51fQ3iiDtNH9IPm51NRD9uhHE6yE2kkRTPH4dSgv6MZgYcLCo1p9akgF5fQZ5YrJ3W0y4TupAnu4TW95nlJEvH6hh1ShXPOCgnMq6rGGT+UTCP5/aPGekNK2jyrQmFDaDb6Q+n3S0Y2/2VDnSFHbb5af0C+UFWTrsum61IRGA4I2I86w6Evo6EPJOPsfPPJtU2y+IwZcjK0Ex97rcnMQTlGmnGfOAdmzSD//rZqpxn2j86bLqUFBXL1XWvTQV9OBXF41eKpMrM6ZEjCF9+Iyk8eeUPeaojJMbNK5MaPz5bfPr1NbvrHNlP3SbPL5Ifnz5Jn1jbKV/+y0aRRW/OuK+bJ46t3yk1P10p+yCcNIAlLQToed2CFRB7fZtqzhOmZh1ZLW2OXNEdTMr6k99WMgWhsf+ZOjKBMSlZB0/MnD28ykdotucix0Xz9hIMqYDqeJw+80pA+rFZjkiQkNTO/8r4pMn9asYRBTHrrYgGTFwH3VGMyDd/QrPChR8FJmjPCsJNDfxUBRcBFIFAfkMjyAuk6nQRiVAqfKRZf0iEeo9SWRJB7aktSOo/qkKbv1UnZj6ocTUtccyQkmz5VJz0TMFeh63y8ngaXhaTy5xOEdTdf1iDJKQkZ94XJQnIzATcLjVftMMGqqr44QSIrHTcYbZc1S+c8vM9+Ypr4Ga1aRRFQBBQBRWDIEdC765BDumuF9LP4CshCCs2dZyNIDIXaYcYvI9ZJ8G3mF0KXsOR+vsdarRpjmu2SiyXIc4zHVyXNwUkSGkGex1zTb6ud9ncEn6HGJc3FSV5ajUtqk5H4ofajITWx/TK0JS3Z6FTo/mIfydW17BTqqAaBRC1JK6YObDTirdvk8eyzeXQ5+hCw5PnyUESWI4DTOSAieVZYs+sz4V+SBOHL4Xwz+PwenkB4l8Q59Ie6ekNKXlE9Xg6fMkM+X1ljtn9Tv11mIFAO5VtNDYaUfDy/QM6cMFmYl0Qnycw2nJP2Gvl1/Q5DSn6zokoWT5wiX6uoNvlYF4l7Sj7OdRVFQBEYnQhQq8VqHz7zeoskNjTJOQur0ubcHDXNuIunFMnzG1oNych7FYm8s+YXS5Hr9/HiY2rkd1cdIvOn5MuSN1ulsS0pZ51SI/d95lDjG7K2JWa0Mc8/vMZoL7Le0w8plymzS/q0d+KcUpn9rvFCrcX2WLeUwqx6a2NCHn21XebPKRH6cqTwHkaycP6sInl6Xaesr22H2xdn4s39HzyiSn53pdOfu5fUmT4du7DS+I4kSUqykaTkbf8+Tz56IT9/iiEbP3rMOPnoidAOdd8HmH741CJ57AuHyeIja2TF220m37HvGif3f/YQIbmqsg8QwAG3mln7oDVtQhEYkQjwGrFaiQUgI0kops25QQx2lyDKPf1ObsOuf0Gr0iNWo5Kaj41f3GH2lH+/RmquniSF9xZL4hjMiT7rfJjKfwllcZukf0pKAsvuGuedMQaNTIrRuDywXQpeKxJ/szN/02vYQKM/ioAioAgMKQK9zNKQVquVZSLwBolB/OdD29CYbyPDHGg5Wr+Ma6DuYQPmZJblNrUY0+QiSD9rus19R1Fb0iUC6U+S5KIVHmBqZz7NyYmb5zAsaWJLOQRlZ1JbkoJ0qy1pCVFnh/NLYpLjMP1A3lkuGUqSyQTwQTYSsP2Nw1ufro8eBJpwDj1QUGTIwCNhbk3hOfZowiHDAABAAElEQVRuaEX+HdpIb1IT2COXtTaDFE8YMpLaljxH/1xULF+qrJZilDsuGjWk+QXtUdmESN//VjNBVkJTknlJTlIiLtF4PqKCHwiNSZZllO71wZDchgjhJDpZ12nQ4lRRBBSB0Y+A1T6kZiMJwOKDKtPm3By9MePG8qEVjjYhicwoSMM2kIfNMF0mwXft+2dIW12XLPzOUrn0D+tk8c+Xy413vWHIyIuPHW8IzfWrmmT2+EiazDxkcokxmS5GRO0DxzmE4yJoJNJk/Kk1zQZ4ko0d8Pn8+BpMlDG3tebc3GnMuOEL8r5XMMumhPzS3pUyH3m+cfZ0Qy6+/39eNdqY7NPnfrvG+I685swZJvs58ytk/vET5MH7N8sJP1kmF/x6tXz85rXShqjjcFKZNuX+7rmzjLn4x/97lRkb833ip8tFSoJy6XHjTF3W7Nts6I8ioAgoAvsJgR7Xb31kVb7kwVy7a0HcaDSyO0mQjsm5CYksKTC+W9NdxNTGF3Omtm3n4N6L23DNt0FIgtxkpO7y39RI/l8LpfNd7aaufPilpCZlHPVRaLJtBLEcuw92FEpIVpK8DC51I7rrzNnBSH8VAUVAERhiBPT2OsSA5qpuAzQiSRpSDgAJQ5kDYs/4ZcT6MtqhZRGa+5EkpBYjzbmNgGyh6bY9eO+y2pLYSX+SVuOR2mx5LnnzCKNsoxw+1Rttx8NdjcsjUZYamJRWkIqWmHSpSpNuf/Lh04/jqHV9v8x3tTqoAUoNSsoraKPFFtDlmEEghPPqb0WYnEPeD6KQQjNuyiMgLC1VHkXQGspB8BlJeQpEI8VG3F7mmoFPh8bkfOQhefk3Nw+1eykrQFBSC9MSk/RtSeGSvir/s6VJLgfxuSDuEKT0S6miCCgCox8BPkVtUBhD8oEYtGQk/TPSjDuxvVMeBrFIsUQm16l5SI3KILQXaQYdhQn19Kqw0bj86yvQroEZNs2tKTTPlullhoSkyTZNvte/6d73ZjuBF6iJ2fBWm6xBe4zKnUD9hXjuPr2uRRpqo3L2wpp0X6l92ba5XZZsbJOqYscVRhLP2gXQcKSvzNthNk7fmRRqEd27tEFIjtK0m2TqmfOrROpg3g1zc46DY31qfbPRwGTAnWg8ZcZBTc0V61rl5bdb02Nb9na7bH670wTl4d2ZeVUUAUVAERguCOS1+yV/SVhSB8QlPst53+uktiRIx3zXjDvdVzsxQkJyAixvcKumOXfLhTul+dIGaXt/k/jKoZGOsrFDo4aspNZlfIZTL8nI4OshQ3hGp3UYn5JGcxK7Iyscs27r/zLdpq4oAoqAIqAIDAkCvY6MhqQ6rSQXAm+DsKPvRU5rDnIfnCayNUlBEI6Mnn26a+KdWQcpP363o4n2YlfxjMFqGAm7GdqRi6gxSdIRQn+SFJKZxocZJjGUZ+NxqY8gAjgJRLRJn5APoKw162bay/APSeKxP+E41qONOXDAfyAiy5IsMhqgHAf20XflbPZHZUwhQGKSgZZIGJ4EbUfKcdCWpDwXyZdDXPLQJOBnHM4h+pNsdc9P6+/UmobT5LvEPad3uKS3JTe5tPlYX4VL6jPgDdgDJpnzkq4KqG35Nv5VFAFFYGwhQMKNxCDNtK+83SeLppUYM+4HH6+ThnbnjpNJwc2qcbQdP3xUjfC/j+BtKT/oPE+fWt8iV4L0JHFYDBPt4oqIfPOvG+ULp02TOSA2SVZOmVQgD77QaKpgVG76hqwoCpi2H125Uz56znQ5sDrfBLmZPbtYHny2UZo7k04bcfp7BplYjHtXYVhW1zr3NZKSjMjNp/TmxqjR2lwwGeRlYcj4p6SWpVdWbm2Ss8QZxyET8REI7xAkM9d+/yhDlNq8DMiTaIujf3qvtJjoUhHYHwhY82U1FQb6vJ1xvoQlCciOS9uMZiN9SjIat2+9z/ifzHacGLnbmHRDybH99F51iZ5Aj/gRIMe/HEFyOp3JGP1IMriOCYQDH5OFj0MLE/4m6dcyNrvLaE76N/glsNXVmMzWoKYpAoqAIqAI7DUCSkzuNYS7ryA/LyC13THje3EBstPs+UCQitNdjcNNIAO3kdjbjdBEm2bURsMRZA0JyTqUY0AbkoLUyHwG/iRJMpIaJJlpn+tNIBGpTXl20GmHPiFpaktykflZnsSnzW9JIG+XqDFJIvT1IHOJTMAYSELaAD5R1LEe+6EG4i2m62MAAevP9IHCIrkC2oofaW+Vd8Wi8k+QkjxbrHajhaIF59zsRJ4UgICM+fzpZbVLrL8FMrGV5yWEJCaFekTUGeKS5Wzc+ijOQ8olrrk3XQuQ8OQUey4I0W0w7aZEkTbahYjRPJVaUyqKwFhEgFqQvA5IPhoCEH4XTzyw1PiBJB5pc+l+wKEZOEm9MpCOFBPdGsuOLse0b01tp9FwPBrajNPKw4YUfAIm22cfVmmCynxoET5B4u3KmG2bGvr+3L8CxCT6ZUy4uQvBZrL1i6SnV8Iwy6YwIE5+2G/IxVa3T958+fhw2BFLpfufjvANgnTjJicieebYWH4ntEKnVrjRbb0V6roioAjsEwQsIWk1v/VZ7sAeXh8xZCL9SnYsbhUGrCl4Cj4fQTJa8tJ7gHwJ533P1+6TcV+cKv42+KUsTpllsjIpqclxCaxztNOpCdl1VKd0ntgmqYK4RN4sl7wteG/cjnfO97VIbFpUCp4vEluntx1dVwQUAUVAERg6BJy33KGrT2vKgUAnSBH6Z6SUgXA5C9qRk0FYUlZAM8LZYzZ3+SEtwwOVac59KiYpp3lIQBKP1FqjeDXKdjHnRj9Ijv57fljKXK7G65vS5jcVZfwkac7taqgx4vgpaH+K6wdmHQgkaqmpjF0EHoPZdcwXlM83N8G/Y548BDNuijXDtsgsh8k2zbSt/0cS5xRrBr4W5tqr8U9hQB1qANuAOidEO03wm2b3XF+GwDuUo10NTfqr5Hl4bnub3Lt9qxzmpjMP+2avjWzkO/OMROFVrxOZkXjktM9DjQCfpSEQc5RHXoXJ9rY2+Y+TJ8ppIA2pQfnM+lazL9vPhjpoeUNDkaQkI27/6G+bzT/XLZHHctRsZKCaExD1mwF2GNmaaYwGXgWi8uPHTDB+KpciwAwlU5PxZfSjbe1Ok8/khRn3c284Wj3RhPNRIQirho31cEMBzcxjZoHohJCQ5D9NtQ+dVCgt8I1JE++GjrgU10Sk2tV4tBqh1N6k5OM5/eo2aF2CV2XezLExD8dnSRFuq+w7BPLMG96+a09bGn4IWE3JCO5dfJ6TkOQ/n+v22e7rHrvv1z4EvGEQHAamsRqQhfQPCenxez7EOhbZJp1ajz1Te6S7KiEszyjcXLZ9oEnqEXk7VejMvML0YdkcMn4n8zpD4n8zIqFtYQmCnCQR2lPUIwWIDE7hcdL7pIFCfxQBRUARGHIEHBZryKvVCr0IUNOQjz9jJg1SkJpc54OYtIFvVrgaYQUuwecty/UUHoRWI81G3KavyBMQSOcMTsBcwtOacZME8hKdLE8x5txuWyRHPxQKmL5w30rUYX1TMr8tw31Wwm49a5A34dbDcdjgOUvxEkUpdPPZcrocvQjY89ISjyQTl0P7h5Gzd+DUfC7fMY20+21U7ttLyqQN5+BPd9Ybn5CngGz8QWO9XNzWarQsl4C4JBH5G+RjXX/esU3OBUFJ/5E/21lnAC1zz/u/ImjO69CK/FbTTvkG/mnSzeWPUB/NxV+IOMQlTb5Jhto+O9TFyD82nLRYLUle9zQjtROZkT86HYEisOcIJN17A30prt/UIcceXC5VMJu++6Udhtiz14clA9gC00gOkjD8+rkzTJRqkgS8nm75tzly5WXzZFJZrzYhtSGD8B1JQnC5S0C+urVTEgiiM2VagYmezSA8XmGgHZKKJBzox3LKuIjJy3VqOHpfyALQBCfpuBlE6lnHV8ip88pNH9mnb545zQT24XgoJphPRaFce+5001+m/cd7JsriBfA92RKX/FCe0SClf0lG4eY+1kP/lF973xT5+pWHyQIG6/FIC8ahsm8Q4KfpXH/99SBXGab3J7nK9VeG+7RcdoQGg0vmMfK5/rd577oC1yevd4qXoOxDwGXvyuhL5ans3hhNoBoYhSWPw3vcmyEJvua8X/YZNGCzUbmLHygTgTeN+m9tM74lO05ok/prtknnxe0SXp2fDpoTrIVPSZppz4ZFDpb+ZucjTXAT0g5A8yAtA2uctmxAnj5t6oYioAgoAorAkCCgptxDAuPuK+FzdQX8SLbmh4wp9lRMgkguklR81dVA7K8Wq91FU+3WcNDUQYKFWosUajz+3TXjtnltffa5Tq20J2Cu/RFGSEb+Eksgog+W8GQ/mZ8aatnISXxvlE3oby3Mz6diYjOVjXAckFwBfMxO/RlVCNhzrBnnFLUQG10/kCQT74E594JYUmjWbf071mE/icg6+KCkULP3Uphe/xjE5BebHT9sTH88v0C+XDXOaDxy+8dlFUIyk4Qlo32zrQcKC6Uc52+X+yLPNj9VPU6+09hgzMhZjkIz8q8jUrfVxlwbCslh8aB0un2wY3Byj7xfS65w4kIhgXL58ePNOjW9VEYmAqqNsffHzWoakexjoJrZh2K2invSo685QW9sC8SaJtE0mWaAGmoa0lfkLz9ygPzfFw41QWHGl+ADHjQPGfGa15V9RlIbkiRkcGK5vLDB0YxcjaA21GKsAkn4ErQivcKI3TFcq9SE5FP2yXXN8tHFk40Zt9HsdDMbP5YFQaFfygb4rrj2/jfl1x+fLb/70gKj8RnGu0PxlCJ5/olNctPTtabU3f/aKcegf2edMk6WwLyc/iw5poammAmeE3ZduHzp7tfljoq58vVL5sgnT0SYWQiD66x/cbt85Z4NZrskgns0tEZLgYfK4BHw5znabrYGvublurZD7vPT5vUuc5UjqR5yLQ28+e26fS7Ybbt8J8rl6iPb3NftOc/F7J8dB9vP/soNtj3vMQ/mhSTPl8K9KM98oCBuv/vkXHlieYPc8twOE8iKx3OsB10JbgpL4VPF0hlvl8InSoRBcbwSiOEj7Upg2eTcu8IgE6v/a5w0XdgoLZ9w3zOhOF5wa5GU3+xoodsbOiNu+6ZBCYRL1ww88q9CEwmcgXeMyTga4zFwvPx6W9Z1RUARUAQUgaFAQN88hwLFAdRBEnEnyJg3QagsgKYjI2DTVyQJxfWMmI31TjfadbbqbHRuEjovo8xi1GG1FoNIezGeFJqwmimPJRyzVPQofEB+xE2PclKGMplm3NkISRaJIT/1RWgm+3qqG6Qkon2C1DSRxdEnalJSOpBPZXQjYM8Rko+MrG2D2HDU9xQWyxMw4Waac0aIrIZG43GTpkqnSybyPKVW5PsmTJY5ibiU4tzZgnN6oxuohvspPO+vqaiW/4Xm5GRcMxuhkclrgBqYjp9J52P6etR/4biJMg8+JSfgXKzFRO815KXYQFC/Qx23FpcI/VtS7BjMxgj6oXZkAGOgSSeFhCR92tEkdMrsEvn4D18x6dTM6k6NXdMvA8II/CGhQUKN5rcqe4/Azc9ul63NMelAtOmVMLmmkGiwQuKPJF47MKcw4jVNqD98ZLUcMrlE1te2y//78wZ5aKVDavL6ox/LTdCG/BLSC6GNuHwLvd86ptZfQdosRNH+88v1Jo0/rPtzt64z2+3QmqRQO/Nzv19jyr+IaNwU9uAnj7wt40uCUt/mBOh5DGTqmb9cJecurJTjDkSk77YuefLht+XeZY6WJYkR3guuvmstCNJ6E6Gbmpl3LKmTzTtjsmhGkby+wwlExgjh592wSi5cVJPWkPyt21dr/k2T7x/euFJe2uCYvPfwfUKf6eb47PYH1gJWeA1nink/y0zEdkccJvs5JOgP4r3OPhF7M3X34OMcPnbnksGWC/t7tYJt3SQXd9feYMr58T4Q9Id2IWzZXqI7Ll34kJ5N+ivXhfeJbuODeteSxMQPn9bZCOKuZP/HIFe5wRw7akt2eI5dLN6R1oxkr+lq4fzDa2QxPh7QXcQz+IhhCcr0qEb6l9X0QAaw4p4GJAzL/lglJXdWit8lJXmuiHsZhJYVyrirYZYdda4X7gu/VCQ10KyMz4yJLx9a6TuCQhNvI54LsujhMin4B8hOtyz3F6BsBGbevmTve1S2c8epTH8VAUVAEVAE9haB3reova1Jy+dEIAotQ5IoTXghWosHLAPgmNiXIBdeBylJQnEgwmkqjauc6NzOk9rUA1LnEZKbEBKg/fl5XMro3AknOneSkw20TVLTmnGbSvr5MZNlaEuuwMRssSffOnSnlrM9vAioKbcHmFG6yrOPZy3PtXq+GLrbXJJMzJbG859i3wVJGLL8SpdANDvxY4lEbtt1EpaWtGQ6yzFoDoV9sflIRr5mUp0fm842jY/KjD54so6YVWpOJEG+Wg3JsxfWGJNQKQ3JjXe9YbQrOJhsE+MRM0jtqNS2wmZNZdAI8DrhdU/C7dYXHPcPtjLv5JLEnxVOZLmPJtT8zxSSgEZzCflSyEcS04qZIGPD1OfWae91JA69eZnO69ObZtvO1h8Simv+1imSoQnNeuw42QbHmTlWlqXY/tG8PJtGNeuiEC8SIxTTf74nqAwMAWjlkqjmeTK5PNTHt2gztGt5rLLJxFLHF3O2fTSpj+N+7yUnSWxR4666aFcS0dbRiEBGJBP3tNxOHP9MYT27a6++PdanLZ5ve1Mugo+NubR2LSaZZCHbG1fi+ALMHAO3c5Ujnnt6DGz9e1qObbHf1aXeY1cktc3OdUpNaV6j/EDxu6mFxl3E4nfVGIKSvml/8vAmWVqX20+u7ddoXJp7GHxE+l0O2d4zOVazD6euP+G8F6bHj5sYNSsZebuPmJubk5JZNl0vXi6tVmY6rU8luqEIKAKKgCIwlAgoMTmUaKIuBo7po4kF4i8fPvKsvAISkRqL+Xhpo6zxqG6kfUzmICpt0A6abF/jmnOTWKxPJIz/SDiak919RPWac+e7Ew7rm9KSOKZjmT9oJ+xqRHKXCYCDbaMtiX3rQXga4sdbjuPAC7XK6ETAkpMkw3lucpvC972BpFktYFPI/eG1w3QrXGd93oBMzGO3bd5sdbEOu9/21V6ftq+2nZGwtNPFPoTkJPdluxN766MmevBJs8sQ/KMXw5EwNu1jXwTiCIAytRL+raAxFATJYU1x++bSrd0hYK97b77Ma58TTh+f28hEUtLcb1wC0pbLTLPEJtMp1CrMlkby0grz2nxsy7bL/Tad6950luc2rb+9pFZmf+w4vfU4Jqb4cAMyzKaznB9jY5rFIbOuPu2zQyoDR6ArJVefNlUuOXaicRFAzVW6CuDyM7evF5LExNtiDwMWoYLiNWeWyJwJItF47/mSH/LJ1saEfO0vUdnW0iWRQMScYzw+iWTCkJI/+kC+TKoI7lJuXa3Il+9plATIaj8ITJ6bPB+aOqMyc2KFfO/ciFQUw+Ilo70X34jK9x5MoH/0d8qe4qOfW+6Yg2vkS6d7yTSzG/5LfcJy37i/Pd1H7uE524r2Tl0wTj71HtzLMoTlHlrRDQKuWcphYWHPb1vuwuMnyMXH9h0bq2C5W59PyP8+W+uWcyq2/fzMeyqgNQzMPWOzTf/6H3G5b/mOPuUsnleeVCTvOiA/a7mfPhKTx9fU9emnxejKk4K7lGMfG9uScAvRJau2NabLsa0U3okZnCvzmEdj88y50tielEt/v9p84Hh+TZPxj5toihuC8lhoTd+GoFcMtvXDgm55qGuTHdqYWJp7LM4r+tpkIKAeKElYydzHi4xpuLtLD6wQdhF7EWJHZtl0vTna2qUuTVAEFAFFQBEYEgSUmBwSGHsrsaTkr6IxuZdvnZAuPBzbXBPWB2IJWeUhI7eAVCShSPlGe5f8HF/cKU2uebfZcH/4HMVz0mhYntuBF1W85FBYPwlH7rNEjNnh+fE8g+WHeFm81dWwZJb17CdfmNz6mGbX7+6KyfNuf9kO/Usy76Mof3JbZ7oP2z39/a/OrnT9LMOI5N46zYb+jAoEeF5laugONI0A5DpfveCwPns+2vTMbabvrq5s9dj6RsqSQSu+fsZU2BhBV5pmbiAkEyAZSF5RGLQDdt4jZTjaz/4Q8JgxTixzJvY2qEt/xXRfXwR43VuyjeuZQlLSK8xD4o5XkTXbJrFniRNvXrtuJrbuhm3Pm2bzsS3bmjNpdvZ489r+2L5yHx/Ru+uPaRfV2avf9pdjt/X3GZvbqcyxmbyeMrbvuhwYAgyyVDXdfbXm+xzNu90ARKzBnlP2OFErkKQkfX0KtBzhIQf3dvwXBqQ00inF4b4BlFgHpRiuOuZOjBj/p5nlRNqMtiHNjI1VjVPEKZfvl9nQxKOGfWa5+YbMczT3PEUkkZdEez4TqMmks3929oDxTQGBmk1YrrI4r7ecNxPKVb7RV5PZ7jblCvMcTNx3YruPeFauaDZ9Sqd5VioL4yhXgxcTdrKvVBYnc5abUhHo255njMXheM5y86dGsh67Khzz4vxdcaGZedZjzq5ibONBXlv/siS07fPc+LMF6PQve6gd1q7V2z2jd4mbmC+Xi5os+8z9zN50+0MlS1mSmznb6q8u3acIKAKKgCIwKATsq8WgCmuhXRHAc8xMDGieXe8hIEnm8UWUWoVeYpKkJNNZjr7zttgy1DZ0hfus2HXH9Lrv09bus3mzLVkrScwm2w4zuX3zlud6f3lJRvXpA/pre7zL2NkGxFu/k6K/ioAiMFAEOMGk37cnVjfJ4rkI5kFyMu58/LB1cPKiMnoQYNRnlb1HgJPTvk/L3jpzPZeYToLSSAZ5aUvnKmuJQJuPy2x5B5pmy++uP9nGudu+ZBlbtjLeseh6DgTwUej2J7YIgxlVQiOxDYGQ6L+UyzcbHPtT++rFY083sjQv/u4DXcgfl3iGll9brEe2NENbDr4RvcJtpn/h7g4Qhn2JxBC09Xa2pUy9zGePJdvNh3n0tuaEXPOnXU2BbTlvO1xnuRJ/gbyyOSbX3NKcuVtYbvPO7l36yHKFeRE8s/or5/TJYmLbY7mHV0Zl/fbsz7M36hKm7sxyHN9fl4ss3bxzFyxZd7ZyTCdO//NkUqasyF6OYycG3vZYjkJtysrnspcj1uyTLcdjwbbsMfeSzttbt6TPFZpyHz61yHnO4+OjeQ4wGBaCa133p9flmddb5KWvbAc77fRBfxUBRUARUAQUgdGAgM563oGjyBdOS9LZ6pmWLZ37mU7JVsbZs+vvnuT1lt5dH3aXd6jH4W1P1xUBRaB/BOj37tI/rDOTlstPmCZnzS+WYDE0X2jKDaLy2tvWyW3wM1eBgDhJj5lT/7Xq3uGGQBdMuedOyJf7v7LQkM/bQEJQGPSI/kVVFAFFYBgiAC1HRlt/av2uBB5769Vetb0naUUz4VxSGM7vE7CF5BZ9FNLv5O7K9X4udsxVGWiGviDvW569fyEEoGMQm2zldrR27racJUE5Fq7T/PyN+naYM2f3l8v2rIm6Hb8ttw5+FFdty05M5irH8f3r7SZ5fkP2ciQJs7XH8e6uXGaQHovRM683ShyB+bIJj122ct5jx7G0Jlol0dXXp+1ViyeJQPuWWq0NcNPiDVLVE7GzhmytapoioAgoAoqAIjAyEVBi8h06brleG3Klsxv97cvs5p7k3ZuyudrJlb6n48jsm24rAopA/wjwowQJyv+47TW5+Zki4QSGkTuDmBR/eNEEE/zCRtjtvybdO5wRaCTZDKGpfizR3x13OI9C+6YIjCEEYD5MDUlKIUytO10NSK8P02xolERyB78hUecl/Fie2yTGdlcusy1bjj4drRYf89Cvo93ObIv7mUaCjf+5JDPQzkDL5WqPBGJkD2corGt35bK1x76+E+XYVrb2vMeO2FOaQEzS9ySDWNFP9OIja6QBwW5ISN75Up00d/aSnz2BXPrfTl36qwgoAoqAIqAIjEQE9vCxPxKHqH1WBBQBRWB0IUBH/zTr3EWD8pgKufiYGkNOMo+dbI6u0Y/+0WSbzI7+UesIFYHRg0A3/OD1wJ8gZXc0UjZSbyBI7Ml9gtqapi8gy6z/UW4znRp8FKsFaDYyfnbXFqN283mTmc9u22jUrNamZTTRZ3MgefoUcDdGUjliIim/pHpAOsLFEklJyumHlMuND74lNz1dmyYk+TxP5KXEl3COoztcXSgCioAioAgoAqMGASUmR82h1IEoAorAWEGApCSnvJysUKwG5V1LyuSYWcWYYCJ+gvWPZ3Loz0hBwBIII6W/2k9FQBHYOwT6IwT3pmYbOZp1dCURCAf+DdlWW6xDrDl0KzT16OsyHIDZ8CCF7XTE4QsR9dPM3BKt1nTdkpKJ7jj2pYy5eGZT3r5m7uO2rYvrzJvoTqCtPKPFOVgyknVlyu76kZl/KLbzfL1TMWra/uyxLWKtHuwHRvM8d7Urh6JNrUMRUAQUAUVAERhuCPQ+DYdbz7Q/ioAioAiMYQSyRR7PhMOSj5agpG8z/nM7HSgjs9A7sM1JozVJy1V9Zl9tPqbnKs99nIsxkq1XrGaOHbd33562Y/N769B1RUARUAT2FQJ7SoYN/L7nNx+oeH8tDEWMRiPv0/9+/AR5q8HxUXnKwTVy6twe+b8XEKBnZzTtz9LekzPvj5lt814cgrYfNSYp3CY52fs84L3b0aaMwMejFdZr23DSsmtc9s3jaHdWF4XllLllJrAOfVjaem1fM/u4a1tOi/Y5wq3eMs44mEZN0r5jccZH4jVb+mAJUmpMplKOtmRHDCQv/m1/7JjYHxVFQBFQBBQBRWA0I6DE5Gg+ujq2EYeAfSUuMCZg+nl8xB3AIeww47C2Y0IZhOnd7oSTF54tEddH1b6czHDiyAlZcjcxWezZnNk3pqdylM9VhnhwX2ZdTKdwUpe5j2kkazP7adp3iumvIqAIKALDGgGSmE2dUdPHjpizLC8sNj4SmdgR75Kmjjazn8FX+E9b8p+fXy1/eC4qf1+9SRYfVCx3v+x87PnBefnyZn1c3trZKc2JNqkMlRnCkNqNrV1xU95qQXKZWT8DyvjzQnLjR4vlhw/F5MWNW2VyebVsaao3feAPt2tb6uVjR0+HRn9KvnxvvfGPyTZqW1rSfc30mclnC6Wpsx1kXdT0JZGXlJkY0+XHhwy5+vwGRLPOrzHRr+kDk4Sozc+yHD/rJZnYmoFbVVFp2m+mLWPwQjlqlJLMJTnZ0t6M+HKpdF0kYbsSu/bdPgvZ7p6KLdvfM293dQ6WGN1dvbp/9CJgzpm+331H72B1ZIqAIjDsEVBictgfIu3gWEKgMUA6Ci/W0EBQGdsIxNzhtyES80CEpt30UcUJjg22MJBye5PHTqaqEAV8akVYGLDlhANL5fW6LnlhQ6t88IgqTO7y5OFVTWnTNOb90KJq0+zfVu3E5DImZQUBmVkVSZfviKfkoZVNaZ9b06vC8r5DK/uU4XiJzHlog7L07TbJh03iuu2dhpS07dS1xuX+5TvTROXB4wvk3IWVsrU5JncsqTfprIf1qSgCioAiMFAELBGUTO2buwdJSZJi82dVy7bmhCycMk4qi/Pk8dVRE22b5s0TS4vgZ7haKgtx310ZlZVbauW986bIcQcEQFgKyk2Q3/2zW96oi8sFR403wXqeWCty6OQCDLtAVmxpN9p740oK5ICaMtxXOw0JR61EkpKZ9S/bXifnLKyQ+fNK5IzN7SA4q0y+9y+YJkdMC8r67Ulo8XfIhNJqOeOwsBw1wy+PrfYJo1kz4Mxlx8+Q4rDPjGFbC7QfkUax2NLU/FiM9/gDQUQ2dstdS7bDFD0ltRg/x37xMYea5b1L2wyJSPJxemUZNConmHpe2hBDdO9GkzZ/cpG0Rbtl7mRHc/OxV9vN2BKpuBw6sUKOnhWW1YgEzjwURganeTrxm17lN/sYvduakLPv0yv88uzrcUQCr8c4Cs3z1/bdVDLAH1tmT8+kbu/rAdZ9PcoyDRByzQYEeny7//CtQCkCioAisK8QUGJyXyGt7SgCA0DgsK6oxCL5MiGZkC5XW2AAxTTLKESAmpJ1IKprunujcQ5kmJzg7KtXTRKgbIuk5G2XH2wmi9FEj1QUBaSx3en3zOqQiRZ+1vUr5PCpRXLPlfMwweuChotPPnniRDnvhlVmWL+77CCzXA9icdH0Yjn7sGa59A/rTITS3182J13m48dMkE/8fo2sQb7f/9scmT+tWLY2JuQbZwelsS0pi3++3LTD+pjOvnx4UY189OY1ctikQrnhY3Nkc2NUzl5YI596zxQ545crTICB4UxOhoPO7DMCzGgWqaIIKAL7HwF/Xo/Ekj1SFH7nr0l+BErgvYBmzN8+JyL5oXxzf+P9dTFunZ+81SElf3NxsQEmGuuWDxxeLFff5TekGhhNmT0uCLLRJxcsioCYdD6CSkFQjp6RlNk1SZk/NSIf+U1UmqCdeAE+Hp18cJ584MY2o1VIzUFqEF5zZgn6kJQoNAgvObZMrvlL0JBz0pWSBVNSIADDICDLsC8sz72RlIuODskdLwUMSTq1ktG9fYawXPp2RP7r/AqZA/6Q9+2Ljy2R7z4QksfX1AmjhoNiM5qPJE8/f0rYPFs+cHhYjphSLTc+lZB8YP7p9wRkXa0YsvPoGUH59B3bDIl508eKZGO982nv4mOL5NP/J4bM/PH5+RJFpHQ+m+ZOjMgpB4VMmZNm1wg1R0l2nnVoUCaUFcjNz8ah/dkmv7poqpw4x9Eqvfx4pgfkpuc2y3XnlAIvPHNQ1yXHFssfnw/JTx7ZavqeqZW/L89UJZr2JdraliKgCCgCisBQIqDE5FCiqXUpAoNAwJrqhnsS8rOddYOoQYuMZgRCPc6k1w8ScLgKibPikpD83/Pb5Ud/2ywPXjXfTPwO/+5Sowl5/xfmY3IclhnVEXkUWir/cdtrQo3GV759hNGEvBXlqsrDcvvT2+Srf9loIov/4CMHwjT9DWjDBOTuJXUmnXU8+80jZe6kApmCCfAJc8rk/BtfM8F/7vrUXDkUxCPlu+fOkhXQoCSxyXae+coCueioapk7oVDGlwTkvT9fK52YoN740bkyAf1u7twz8ndfH4faFmeSPdz7ua9x0fYUgeGAQPq6DO+bV+qy/Dxjfn3hzbVy3oJx8oMPFIIQjIEQzAdh6ZOL/7cVmovNcuflE+TLpwXl325pBfEXlAdX9Rji7wfnTZOXNqaMliIJxLte7pIdLd1yFgjLI6YVIE+7ISVXbOqSutZGmTdxgry2rV6oBXnc4fnynTta5A/PrpbvvP9QCaG9u17uMEQkNTHpp7Ky0A/CMim3vrBKvn/eQkNO3vRUi/z5X2H50JEi1z2+w2h1UnvypJ/WG7PvOy6fI186PSwvvJlvtBhplk2CkqTk0+s65er7auXDh02Sq0/LNxqXPO4kJS+6eZ3Ruvz2WQUyp6ZECtAfPmNoLk7Nyfs/U240IalRWVUYkOdqQZbe/Kb85ykz5fPvzTcaoJ8BwblySw9Iyjpo/FfI9ZfwORKX986dKmfNL5ar7myX+5a9asZCE/KXNtSY9D8+H5Nv3f+maZ+akxT6rbSWBCbhHf7J63BVJvdU1fId7pdWP/IQMBHf980tbOSBoz1WBBSBfYKA3oL2CczaiCKQGwGvrkXxPjIJy90b3TP8EHBmHOFhSEwyKA39Nobh2KuhKSZ3vuwQ6w1tXfLMui5D+L3Z0CVtMKeeUBqWvyzbCc2cfLkFmo7UeKG2TkdXEtqTfpPn7n85fsle3dpptosQoZQm3bZMVbFj5tfW1S0ng5R8+a02Q0rymN2NtqdUTDMEKLWIqJF508fmYZk05ookJVn/CQdVyD+/dri8+EZU7ntlm9G8ZPlhOa9LOr2ieXxFQadUFQclDo1UFUVAERg+CIRwrwnjXgj1yX3SqRjuuXe/nILJcR00HytgLt0FTcig0Vh8aIXI600NEo8l5K8rekDsOWbL1BRsi/UYX40sT2mJwmwZ91J+pFmyaaNs3lFotBl3tFTIlPKgfPGuDuNXkfnox5Jm3c8tixiy8Nz58+SJtSmhOTQl4dZJIvOx1cXQuKTm5JFGI7IFbdDHo5V40tHQpPYktSZFKoTalCRVqRFKk+5uRBE/clq5uXczME88mpBHXmuS+5Y7ZteIIy6Pr43D7LxNVm+JYxxh+Jr0Q0uzGWOolpsvngpNVkYKd0ybS/MD0tCRhOZmzCkDk21uL5wSlgp8/LrhH45vzsfXJOW51c5zZkolnlHQNKWG6QWLjjT18QMchaQktUGPmTkLZKpDztIvJX1cZvo3NgWG+odw4nHZdjb8X57YJj0BfS4MNcRjqT5fEtcJPeyA7A/Ge4NUjSUMdKyKgCKw/xFQYnL/HwPtwRhFwBIhb8J30wfHT1LT7TF6Hgxk2BGQks2ur0l73gyk3L7OQx+PFJKONCWklBU4aTGY/n319Mny8WPHy48fftv4oZwNf4+UZMqZVJVEnEeSNV3mvmvPngofZlXyzb9ulJ0w+bvuogPMZJX7bBtcpy9LTmytPL56pyzd1G7yPrm2STbtjMumxpgxA180o0hOPqhcfnfpHPnELevkMUx4swXMsXXtj6XFkhNrao+qKAKKwDBGIN5LvO2LXlJTMQ++qEnGZUowFYC+X8L4biQJSVLOig3uwm2bTi3DFFyG/PlfSWg0Mm++bG5KGB+LJnAMHjr0tcj81z/eLuNKAyaS92dPLjK+LKkxSSHBSe1KmkVTA5HBdugb8sz5vVG77T27vNBp466XY8ZHJMvT1yRJ0LA/DBLVqdMSnuw3/VwunFrKrOl7v8UgAq19+oa8anG1ae/W5xPGJ+S3z0mY/N4fluGYrZC0tcJ2aKpuJYH+kACNIw8xf2KtQ8RyzPQtace3YEq+XHl70vi5pB/Qd5Kc7AH52U0SCWbwsRMRAKnc9laXisBeINCEsjiXYlujhujmFdLj7xFfqvda2YvatagioAgoArtFoPdtZbdZNYMioAgMNQI0wmHk5SVh5wv9UNev9Y0uBHi+DFdi0mgMeeA2GpHuNieNJBtPmVspq7Z2wMSvzviOrIIvSUogz4dJJ0fXV4oieUbDccmbrXLv0gY5dV652DIvw1T7lxfPQZTXWnl9R9T4i2TpTQimwyizC+B7kmblNP++45OHyLUwufviqZNlfGnImHgz8M3GXxwrs6DBKSQmQfwm4UdtuEiUjspAdpiJOSbHVvNnuPRP+6EIKAK9CPA6DcLP4r4Qe69NpboNGVdRnC872hKyfHMAfiUDMK0uQzCcfEMy0tx5R2snPtqUGOKP/bPlud5734UJN4LoXH58qVxyUkR+8VC7ie49udx5N6ltaoT58gy57LigXHFrG0yb18ufrjgSGoM9aA/EJUhLkn0Ty4JSXBORP9zVaCKAf/bkmVIaCaWJugnYz0jeL21MICBPPrQwm6Suq1muO28CtDLz5fYX4w7hikAya2qjMOsukI8f44dpNvxonlBqtBS/cLdDWrL/xMAr9IvJMf/3428a0/MpcPsh/2r1ZkmXKY34oXGaAMnpl0+82w/Nxwq58KgymT27WNr+1SKbd3ab++7OtlTalJt+NFdv88uvPl4kX70nClPulbKz4xBjFl6aH4W2Z5cJUMRARXkmPFufpvdqw9ftEER5cZ8UP1AkySUJ8cV2fW7uVSNaeEwj0BNOSWB7MH1e2XNuTIOig1cEFIF9hoASk/sMam1IEdgVATuN0VfLXbHRlF0RsOfLrnv2TwrNuCkxONZi4AAr1IqJJpzHSzsm6zTla4bZ3I1PbZFffuQAeeXaI2F+2CnrEa37w4smyPbWRDpYgakP2pXNUfx3dsuv/7EZPtRm9ilz5UmT5YLfvCY3PrLJaD0yr6OJ4zfE7Zfufl3ugM9JtsNJOMlQakXSbJFakkynrNjQLne+5JifxxHRfDiIjc66pSkuC7+zdDh0SfugCCgCA0SgHRGjKTHXDcMAi+1RNt7vqMFHzT8Kg8eQFPztMy0gCkvkriscrULek3/wUCfuxQjkAtcV1HB8q6HGfLhhOWon8t5MTUdqCtIv5cotJSAMuw1JSfNtK1x/aUOXnDvfZ/w2bm89QsryfXLNfUljer1iQ758C0F5SNY9tywq/3tJMbQuZ0NT3SHTrnxPmdEwLEZwv+svHC9fuLsRQXeC8tSXqtEHmnOLKcu+OsFvxAS/uea+AmhgFsBP8FQQnH754d+iJqI4PmcZDGz/OA7Kr/8Rl2vfXyBLvzXH4LL+zTZD0O5sC5tgQTY/x2zLfO6uTmHQoL99rtqUaQAhSp+Rv392I0y2D5Cff7gQYzsy3T4jcL/4RrU7xgXAIU9+8feowY99p7bkUJOSpt84tei/Urrg0/l+VZO0x1KX7wwCxleqa83yzrSgtSoCioAi0BcB3+Tps9wQrnx56DVnSGczyTn2pTPpiiKgCCgCisBYRYBm0OGAz0xwSaxF4DOS0gWyjy+3nDRHMWHnlP1gmG+XIQjBCxtajfn0gdX5sqmpC0EDfDDpTrmTOpqD58EfmjPJ95Zh3eNhSkiflRPLQgiM0CIN7Qn52vummEjbx/7QIfOY710ziqUVPiyXwaTbSllBAFFci42vxmfWN5s+DWdNVNtvXSoCisDIQGCgwU/Ki2rgZrfI+F8cKJHFuunHkMJI2X6fP73dEe8yZtCHTnZcZKzY0g6Na/pZDBotvsm4X25pjjuF8ctALd666B+SQWgoDCozubw6renIdrvg95Fm1kfPLDTal69sjhlS0ls/g9/QlJlBdHa0JGXVtkYThKYY9/N1da0m2Azrpx9JCv1I8vlA/5XsfyQQEftxhm22drUbovLgCfmyDUQryVOal3v7bTHgeNhHBsGhuTnrZNq0ir7jJm7sI4Uk4hkIcEPtyFc2tci4kgJDUtKsnVqXNSUVMrMy3/jw9I6XuLLv44rzjNYlx0ZsBnrs2TafiOx7ZwLaqe3OBzKmD0j0a/aAYNJMg0TAefUaZGEtpggoAorA4BBQYnJwuGkpRUARUAQUgSwI9DcxGwgBmJknsz7rC/Kk2WXyf5+eJw++3AytnFa58uRJ8rk/vWFMvm0eb/dYD8VOeu2+zPpt+nBY2j4Ph75oHxQBRWD3CGTeX/orMRhikvUlUwmjLUlSyxtUxm53xOB3EEItSKaxTyTBLElpdnp+mE4y76pTiqAtGZB//2ObUCuQ2n8k8UiaWhKN7dn6aZLN6NkUprMeknPMyzwMBkOikWQhJXOd/YomO0AO9u2ryez+8B6Y6I4brU9bH9uiCTc1Ru2YvdtsjwF2OH5K5rhtGe5jPxko57DJPgRnSxrTdLohobk6TeDp15KEKevzjpd9t34wbb/25NizbYvpoIhJVqCiCCgCioAioAiMIgSUmBxFB1OHoggoAorA/kLAS/BZQs1O1Lz7SDwymjc1VZjuwwSP0oP1/8/emQDGdVV3/0ga7ZIl2ZL3xIlD7OwJWUnIRkhCWEICpYUCpQEK/aBQKNBCoaU0LRS+sn7QppBSlrIXKA2UBAjZ943szuYkdrzElmxL1r5/539nrvw81sibLL/x/E4y87a7/u7zjN5/zrk3ptfxVHnkLaP8Jx7cYO84e4mS2w/vWms3uAdkNOVXOoWbJ3/8j/UrnbxpknXGvGwhAAEI7GsCeypMJj8b1cbksfajJT/bkueT1/UjjoS3hU0N9u5zK31F7TK76cnN23kuxvTaxnL02Zr8/IznVWfcV/rkcf6+rqt+WbKscCLxpvImqy+/f/E4WX+imLAb0+hAdUev0z84pTGElj+1cdTnzOwNHp31VTUT1/Prj/m1nartul7IECYLkeE8BCAAAQiUIgGEyVIcdfoMAQhAoMgJ6OEz+ZCp7kh0TIqQRd5Fmg8BCBygBPT51Vzfttuh3NONI4pj8krs6OkKXoYKlc7/bM2vV/l2Nfw8P29ajmPf5YGpMPZomk8zipKxj4X6W+h8LGuqbawfj8mpKHENAhCAAARKhQCL35TKSNNPCEAAAgcQAT04R28bdUuramtOSwwCEIBA2gnsTPibqfZLeFNbFJKtOSVl8kbfmUXBbmfp0nxdfZAoqdDu2PfY3hjCHo8L9bfQ+ZiPLQQgAAEIQAACu0YAYXLXOJEKAhCAAARSRiD5AD3ic6FhEIAABIqBwFThxvuj/RInNdfj3ngA7o92722dEhbV9yGPx9a++i9DcNxbsuSHAAQgAAEI7B4BhMnd40VqCEAAAhCAAAQgAAEI7DGBtHhM5negVAW52O+4zefCMQQgAAEIQAAC+5aApuTCIAABCEAAAhCAAAQgAIEZIJA2j8kZ6DJVQAACEIAABCAAgYIEECYLouECBCAAAQhAAAIQgAAEppdAWj0mp7eXlAYBCEAAAhCAAAR2jQDC5K5xIhUEIAABCEAAAhCAAAT2mgAek3uNkAIgAAEIQAACEDiACCBMHkCDSVcgAAEIQAACEIAABNJNAI/JdI8PrYMABCAAAQhAYGYJIEzOLG9qgwAEIAABCEAAAhAoYQJ4TJbw4NN1CEAAAhCAAAR2IMCq3Dsg4QQEIAABCEAAAhCAAAT2DQF5TJaXZf8E10rQCJX7hnOaSy0fxzckzeND2yAAAQhAYGYJIEzOLG9qgwAEIAABCEAAAhAocQJj4yMmgXLM/7PxEodRot2vsIoS7TndhgAEIAABCGxPAGFyex4cQQACEIAABCAAAQhAYJ8S2Nq32XrLu2x0bNQqyhGo9insFBYex11bDAIQgAAEIFDqBBAmS/0OoP8QgAAEIAABCEAAAjNKYHRsxEXJkVBn3M5oA6hsvxNg3Pf7ENAACEAAAhBICQEmOEnJQNAMCEAAAhCAAAQgAAEIQAACEIAABCAAAQiUEgGEyVIabfoKAQhAAAIQgAAEIAABCEAAAhCAAAQgAIGUEECYTMlA0AwIQAACEIAABCAAAQhAAAIQgAAEIAABCJQSAYTJUhpt+goBCEAAAhCAAAQgAAEIQAACEIAABCAAgZQQQJhMyUDQDAhAAAIQgAAEIAABCEAAAhCAAAQgAAEIlBIBhMlSGm36CgEIQAACEIAABCAAAQhAAAIQgAAEIACBlBBAmEzJQNAMCEAAAhCAAAQgAAEIQAACEIAABCAAAQiUEgGEyVIabfoKAQhAAAIQgAAEIAABCEAAAhCAAAQgAIGUEECYTMlA0AwIQAACEIAABCAAAQhAAAIQgAAEIAABCJQSAYTJUhpt+goBCEAAAhCAAAQgAAEIQAACEIAABCAAgZQQQJhMyUDQDAhAAAIQgAAEIAABCEAAAhCAAAQgAAEIlBIBhMlSGm36CgEIQAACEIAABCAAAQhAAAIQgAAEIACBlBBAmEzJQNAMCEAAAhCAAAQgAAEIQAACEIAABCAAAQiUEgGEyVIabfoKAQhAAAIQgAAEIAABCEAAAhCAAAQgAIGUEECYTMlA0AwIQAACEIAABCAAAQhAAAIQgAAEIAABCJQSAYTJUhpt+goBCEAAAhCAAAQgAAEIQAACEIAABCAAgZQQQJhMyUDQDAhAAAIQgAAEIAABCEAAAhCAAAQgAAEIlBIBhMlSGm36CgEIQAACEIAABCAAAQhAAAIQgAAEIACBlBBAmEzJQNAMCEAAAhCAAAQgAAEIQAACEIAABCAAAQiUEgGEyVIabfoKAQhAAAIQgAAEIAABCEAAAhCAAAQgAIGUEECYTMlA0AwIQAACEIAABCAAAQhAAAIQgAAEIAABCJQSAYTJUhpt+goBCEAAAhCAAAQgAAEIQAACEIAABCAAgZQQQJhMyUDQDAhAAAIQgAAEIAABCEAAAhCAAAQgAAEIlBIBhMlSGm36CgEIQAACEIAABCAAAQhAAAIQgAAEIACBlBBAmEzJQNAMCEAAAhCAAAQgAAEIQAACEIAABCAAAQiUEgGEyVIabfoKAQhAAAIQgAAEIAABCEAAAhCAAAQgAIGUEECYTMlA0AwIQAACEIAABCAAAQhAAAIQgAAEIAABCJQSAYTJUhpt+goBCEAAAhCAAAQgAAEIQAACEIAABCAAgZQQQJhMyUDQDAhAAAIQgAAEIAABCEAAAhCAAAQgAAEIlBIBhMlSGm36CgEIQAACEIAABCAAAQhAAAIQgAAEIACBlBBAmEzJQNAMCEAAAhCAAAQgAAEIQAACEIAABCAAAQiUEgGEyVIabfoKAQhAAAIQgAAEIAABCEAAAhCAAAQgAIGUEECYTMlA0AwIQAACEIAABCAAAQhAAAIQgAAEIAABCJQSAYTJUhpt+goBCEAAAhCAAAQgAAEIQAACEIAABCAAgZQQQJhMyUDQDAhAAAIQgAAEIAABCEAAAhCAAAQgAAEIlBIBhMlSGm36CgEIQAACEIAABCAAAQhAAAIQgAAEIACBlBBAmEzJQNAMCEAAAhCAAAQgAAEIQAACEIAABCAAAQiUEgGEyVIabfoKAQhAAAIQgAAEIAABCEAAAhCAAAQgAIGUEECYTMlA0AwIQAACEIAABCAAAQhAAAIQgAAEIAABCJQSAYTJUhpt+goBCEAAAhCAAAQgAAEIQAACEIAABCAAgZQQQJhMyUDQDAhAAAIQgAAEIAABCEAAAhCAAAQgAAEIlBIBhMlSGm36CgEIQAACEIAABCAAAQhAAAIQgAAEIACBlBBAmEzJQNAMCEAAAhCAAAQgAAEIQAACEIAABCAAAQiUEgGEyVIabfoKAQhAAAIQgAAEIAABCEAAAhCAAAQgAIGUEECYTMlA0AwIQAACEIAABCAAAQhAAAIQgAAEIAABCJQSAYTJUhpt+goBCEAAAhCAAAQgAAEIQAACEIAABCAAgZQQQJhMyUDQDAhAAAIQgAAEIAABCEAAAhCAAAQgAAEIlBIBhMlSGm36CgEIQAACEIAABCAAAQhAAAIQgAAEIACBlBBAmEzJQNAMCEAAAhCAAAQgAAEIQAACEIAABCAAAQiUEgGEyVIabfoKAQhAAAIQgAAEIAABCEAAAhCAAAQgAIGUEECYTMlA0AwIQAACEIAABCAAAQhAAAIQgAAEIAABCJQSAYTJUhpt+goBCEAAAhCAAAQgAAEIQAACEIAABCAAgZQQQJhMyUDQDAhAAAIQgAAEIAABCEAAAhCAAAQgAAEIlBIBhMlSGm36CgEIQAACEIAABCAAAQhAAAIQgAAEIACBlBBAmEzJQNAMCEAAAhCAAAQgAAEIQAACEIAABCAAAQiUEgGEyVIabfoKAQhAAAIQgAAEIAABCEAAAhCAAAQgAIGUEECYTMlA0AwIQAACEIAABCAAAQhAAAIQgAAEIAABCJQSAYTJUhpt+goBCEAAAhCAAAQgAAEIQAACEIAABCAAgZQQQJhMyUDQDAhAAAIQgAAEIAABCEAAAhCAAAQgAAEIlBIBhMlSGm36CgEIQAACEIAABCAAAQhAAAIQgAAEIACBlBBAmEzJQNAMCEAAAhCAAAQgAAEIQAACEIAABCAAAQiUEgGEyVIabfoKAQhAAAIQgAAEIAABCEAAAhCAAAQgAIGUEECYTMlA0AwIQAACEIAABCAAAQhAAAIQgAAEIAABCJQSAYTJUhpt+goBCEAAAhCAAAQgAAEIQAACEIAABCAAgZQQQJhMyUDQDAhAAAIQgAAEIAABCEAAAhCAAAQgAAEIlBIBhMlSGm36CgEIQAACEIAABCAAAQhAAAIQgAAEIACBlBBAmEzJQNAMCEAAAhCAAAQgAAEIQAACEIAABCAAAQiUEgGEyVIabfoKAQhAAAIQgAAEIAABCEAAAhCAAAQgAIGUEECYTMlA0AwIQAACEIAABCAAAQhAAAIQgAAEIAABCJQSAYTJUhpt+goBCEAAAhCAAAQgAAEIQAACEIAABCAAgZQQQJhMyUDQDAhAAAIQgAAEIAABCEAAAhCA9p2mCAAAQABJREFUAAQgAAEIlBIBhMlSGm36CgEIQAACEIAABCAAAQhAAAIQgAAEIACBlBBAmEzJQNAMCEAAAhCAAAQgAAEIQAACEIAABCAAAQiUEgGEyVIabfoKAQhAAAIQgAAEIAABCEAAAhCAAAQgAIGUEECYTMlA0AwIQAACEIAABCAAAQhAAAIQgAAEIAABCJQSAYTJUhpt+goBCEAAAhCAAAQgAAEIQAACEIAABCAAgZQQQJhMyUDQDAhAAAIQgAAEIAABCEAAAhCAAAQgAAEIlBIBhMlSGm36CgEIQAACEIAABCAAAQhAAAIQgAAEIACBlBBAmEzJQNAMCEAAAhCAAAQgAAEIQAACEIAABCAAAQiUEgGEyVIabfoKAQhAAAIQgAAEIAABCEAAAhCAAAQgAIGUEECYTMlA0AwIQAACEIAABCAAAQhAAAIQgAAEIAABCJQSAYTJUhpt+goBCEAAAhCAAAQgAAEIQAACEIAABCAAgZQQQJhMyUDQDAhAAAIQgAAEIAABCEAAAhCAAAQgAAEIlBIBhMlSGm36CgEIQAACEIAABCAAAQhAAAIQgAAEIACBlBBAmEzJQNAMCEAAAhCAAAQgAAEIQAACEIAABCAAAQiUEgGEyVIabfoKAQhAAAIQgAAEIAABCEAAAhCAAAQgAIGUEECYTMlA0AwIQAACEIAABCAAAQhAAAIQgAAEIAABCJQSAYTJUhpt+goBCEAAAhCAAAQgAAEIQAACEIAABCAAgZQQQJhMyUDQDAhAAAIQgAAEIAABCEAAAhCAAAQgAAEIlBIBhMlSGm36CgEIQAACEIAABCAAAQhAAAIQgAAEIACBlBBAmEzJQNAMCEAAAhCAAAQgAAEIQAACEIAABCAAAQiUEgGEyVIabfoKAQhAAAIQgAAEIAABCEAAAhCAAAQgAIGUEECYTMlA0AwIQAACEIAABCAAAQhAAAIQgAAEIAABCJQSAYTJUhpt+goBCEAAAhCAAAQgAAEIQAACEIAABCAAgZQQQJhMyUDQDAhAAAIQgAAEIAABCEAAAhCAAAQgAAEIlBIBhMlSGm36CgEIQAACEIAABCAAAQhAAAIQgAAEIACBlBBAmEzJQNAMCEAAAhCAAAQgAAEIQAACEIAABCAAAQiUEgGEyVIabfoKAQhAAAIQgAAEIAABCEAAAhCAAAQgAIGUEECYTMlA0AwIQAACEIAABCAAAQhAAAIQgAAEIAABCJQSAYTJUhpt+goBCEAAAhCAAAQgAAEIQAACEIAABCAAgZQQQJhMyUDQDAhAAAIQgAAEIAABCEAAAhCAAAQgAAEIlBIBhMlSGm36CgEIQAACEIAABCAAAQhAAAIQgAAEIACBlBBAmEzJQNAMCEAAAhCAAAQgAAEIQAACEIAABCAAAQiUEgGEyVIabfoKAQhAAAIQgAAEIAABCEAAAhCAAAQgAIGUEECYTMlA0AwIQAACEIAABCAAAQhAAAIQgAAEIAABCJQSAYTJUhpt+goBCEAAAhCAAAQgAAEIQAACEIAABCAAgZQQQJhMyUDQDAhAAAIQgAAEIAABCEAAAhCAAAQgAAEIlBIBhMlSGm36CgEIQAACEIAABCAAAQhAAAIQgAAEIACBlBBAmEzJQNAMCEAAAhCAAAQgAAEIQAACEIAABCAAAQiUEgGEyVIabfoKAQhAAAIQgAAEIAABCEAAAhCAAAQgAIGUEECYTMlA0AwIQAACEIAABCAAAQhAAAIQgAAEIAABCJQSAYTJUhpt+goBCEAAAhCAAAQgAAEIQAACEIAABCAAgZQQQJhMyUDQDAhAAAIQgAAEIAABCEAAAhCAAAQgAAEIlBIBhMlSGm36CgEIQAACEIAABCAAAQhAAAIQgAAEIACBlBBAmEzJQNAMCEAAAhCAAAQgAAEIQAACEIAABCAAAQiUEgGEyVIabfoKAQhAAAIQgAAEIAABCEAAAhCAAAQgAIGUEECYTMlA0AwIQAACEIAABCAAAQhAAAIQgAAEIAABCJQSAYTJUhpt+goBCEAAAhCAAAQgAAEIQAACEIAABCAAgZQQQJhMyUDQDAhAAAIQgAAEIAABCEAAAhCAAAQgAAEIlBIBhMlSGm36CgEIQAACEIAABCAAAQhAAAIQgAAEIACBlBBAmEzJQNAMCEAAAhCAAAQgAAEIQAACEIAABCAAAQiUEgGEyVIabfoKAQhAAAIQgAAEIAABCEAAAhCAAAQgAIGUEECYTMlA0AwIQAACEIAABCAAAQhAAAIQgAAEIAABCJQSAYTJUhpt+goBCEAAAhCAAAQgAAEIQAACEIAABCAAgZQQQJhMyUDQDAhAAAIHCoHM+LjplVbTF1+a25dWbrQLAhCAAAQgAAEIQAACEIDAdBPITHeBlAcBCEAAAqVLQKLfSFlZagGofWN65doYj1PbYBoGAQhAAAIQgAAEIAABCEDgACagZzIMAhCAAAQgsEcE9CVSnfOQjCLf4rExO3Rk2HQsz8TkF008pzzJ86o8elomz2s/5ilUVky/s/xKJ1FS6ZYND4WtjjEIQAACEIAABCAAAQhAAAIQ2D8E4vPc/qmdWiEAAQhAoGgJSOCTsDfo3ofykqzzY9llXVvsvf7Steg9GUXFck+jc8oji19Cuq7zyfS6HoXDeC0e65pM53VOQmcyjcqTxfQxnc6dPjhgf7+5Q7vBYhviMVsIQAACEIAABCAAAQhAAAIQmBkCPI/NDGdqgQAEIHBAEdCXh8Q+mbwPG1wI7Mkdzx4btf7cvrwnJQ5GYVDb6FGp83pFUVLiYjK96tA5pdG2zctKfmnpvOrVNQmduqb8MtWjcvPz69pFfT32dGVlSKM82Ry6gkEAAhCAAAQgAAEIQAACEIDATBJgjsmZpE1dEIAABA4AAlHMO25o0D69qT30qMZFwP9obLLvNM6yDRUZe1lfr/14wzpbMDJiGysq7L1zF9ia8nL7cOdme3VvTxASV2Uy9ret88L5y7q77B1bu0JZyfR/6ekPc+Gz2QXHjI3bg1XV9tnm2balvMJe4XX8ked707yFdn5/X/CClEA54K/3t861Jyqr7IOe/whv57LhYftyU7P9oGGWvXBw0D4xu/UAGAm6AAEIQAACEIAABCAAAQhAoLgJJJ1PirsntB4CEIAABPY5gShKylPxivYN9lhVlb1qwWL7n/oG+8SWzuCxuNkFyMNdTPyOi4CX+rUmFxU/5gKmPCvf4yHe72qbZxf6+Vb3rDzZBUWdf3dXp32yZY69eNHB9rwLm//QsSH05SQPu5bo+HcuJH67ocle46Lm4S4yyt6xtdPWu7i50Mv/500bQ/7zFh5kv6uuts/5sewQT6v8V8zKipKnenmyR13gxCAAAQhAAAIQgAAEIAABCEBg/xJAmNy//KkdAhCAQFESeKELfHXjY/YPLiYqFPrLTS3uKWl2podJa67JX9Q12M9crGx3kVIejhIYZd1+/PEtm+xV7u34kdltIc0f9HRbpXtDzh0dCV6Q/eVlQUxsceGy09N/270w5Sn5k4bGIFqePtAfylrugubX3UtTdbaOjob8l7pwKTvBvSIleG6uKLf/8nzy5JRd0tsdhMsYdh5O8gYBCEAAAhCAAAQgAAEIQAAC+4UAwuR+wU6lEIAABIqbQKN7KfaVlVuXh1TLJE5KBMxk15wxiYvRJEZKeFRo9YWLltjjPr+jQrT/y0O9z3KRsdYFTpm8LM/v7w3zU0rMHPbyZRvdg1KmVNfV1nlo9pAp9PvZTKU94oLlPBclVYfynz3QF9J+xYXSLZ6v1kXSON+lLij8/NaaupAmen+GA94gAAEIQAACEIAABCAAAQhAYMYJMMfkjCOnQghAAALFT+ApFxfnjZq92IXFm2tqg+B3mIdNP+hh1C/x0Gm95PGouSBf416Kj7koqTBqeSx+zD0lZd93YVLXVvi19S4ixvMSK8/x/PJq1NyVSbvKvTA1r+UFWwbtM81ZL8h1OeEy5pf4+PqerbbJxcraMc+f+wlO9Vf44d3eXgwCEIAABCAAAQhAAAIQgAAE9j8BhMn9Pwa0AAIQgEDREZD34w8bau3/+VyQP6lvDAva3FldE0KuJUoqtPpKn4Oy28XFswaG7bXz59lm93B8fU+/LRxZbys9/xHu4fhTz6tQa80d+cv1a0KYtdJ8uakxMEkKk1phWyHdG3wxnWNdfLy2rj6k+W8XK1/vAud1656z22tqQh1qmzwsm7VCeHn2q+5CDx/XnJgKL8cgAAEIQAACEIAABCAAAQhAYP8TKFt8yGHjHmHnprC77T1TQvPC6QLXQgLeIAABCECglAgkQ6A1p+Mpg/12f1WNSSAccSHyaBcNZVqk5hjfl5ejBEXZoSPD9qburSF8+/raervWQ7Nl8q58nc81eYhfv8bnp5QXpkxeju0uRD7jombGhUmVr7kjFb59q6fJBoFbuPZWD+9WfoVq/zInWip/r+dRyLc8KRXyrbIwCEAAAhCAAAQgAAEIQAACENj/BBAm9/8Y0AIIQAACRUcgKU4mGx/Fw+Q57ev8mAuEUUhMXp8sT376WF/cJvMXOqc0sb5kHZOlT5bHPgQgAAEIQAACEIAABCAAAQjMDAFCuWeGM7VAAAIQOKAISPCTwFeZmANy2IVHeTRKBMwuibOty4N+XpZ/rVCemF7h2z6VZSg3CoqxjJhmsrbEa8n8yidTGzEIQAACEIAABCAAAQhAAAIQ2P8EECb3/xjQAghAAAJFSUCCYBQAkx2Q8DeSPJHYj9eiSKgyJB5KoAwCo+8nhcNk+boui2Vkj7Lv+W2J5SfzJ8tN5mUfAhCAAAQgAAEIQAACEIAABPYPAYTJ/cOdWiEAAQiULAF5PkaRUPtJ8VDh3ntr+eVHQXNvyyU/BCAAgf1GwD/YysbLbDzn+b3f2kHFEIAABCAAAQhAYJoJ6PkNgwAEIAABCOw1AX2hyPsxeivGAnWcPC+hUAvYaDEa7WuBmraxMVvsL+2rHOXZWTmx/JhedchUpspWHdqP17XFIAABCBQjAUTJYhw12gwBCEAAAhCAwK4Q4DltVyiRBgIQgAAEpiQgEVEioLwf5Q2pL5coCOo4eV4F/YGvwP0XnZu1a5/e1G7HuyB5el+v/ZWfUznKo1cUJ7WdrJz4JRavhQL97V1dnfYaXzFcpnkwdT2KlOEkbxCAAASmk4B/GI1X+o8j8UNJ27jvu2X+GTTxwah689PnzsU0+WVNeErmytT17dIoPwYBCEAAAhCAAASKkEDiT6YibD1NhgAEIACB/U5AXyQS/rSVx2P0VIwCY8vYqJ010G+HjgwHcTC/wdHTUdthv9jgW5WjbSxX21iOPCujyKitXvKQVJ5oNeNjEwvzSBRVHpWntBgEIACB6SIwITj6h0vZsIuP+pDRh6G2uQ8cpQnCYjyXu55MH8qJ1307cU0N9eOOD6+3wSP7w74ESV2fSKPyMAhAAAIQgAAEIFCkBJhjskgHjmZDAAIQSAOB6MkoMfKLHRutxsU/CYi/rKu3j81us1e4F+QnN7fb+oqMLRgdsZ/UN9o/tswJTR8oyz5NxzkmN1dU2BFezo+eXztRzp+3zrOba2rtDT1b7QOdW2xDpsIWj4zYDxpm2WeaZ4cQ8W9uXG+HDUvSNHukqsrePneBqezu8mz53/Drjd6uy/y8LKcJhH3eIAABCOwpgQnB0R0lhw/xqSnmDVvlI7VW3lNho80jNtY8apXPVmdFSf/gGV4wZOXdFVax1a/PGrURFxrL11RZ5doqc/9HG2kbsfJ+9+6uHbfRpQOWWVEb0qrsgVP7rHJ1lVX7OQmSEimVvuZBT9OZyXpkekcmPCv3tFPkgwAEIAABCEAAAjNMAGFyhoFTHQQgAIEDhYAEPnkyyv5+c4eN+u55Cw4KYuT/69hk/z5r2C72cOp/ndVsV/rrUt//7KbN9mkXFCUayqsxWpULh0NeVuvoaBA0JWxe0b4hlHv+woPsZS5wXjmrKZTzvq4tdll3VxAm3+/7EjMvXHiwNbgg+lMXNX/Pw8TXZjLW6F6SH/bQ8GUuWr5+wWLr8fKjkBrrZQsBCEBgTwmMl7ki6f93/eEm67moy8r7ym28qsJaP9VmY/VjtumDz1vrpxcEMXFweb+1/806m/dXBwURc/P7NlnZ0KiN1bk39zVN1vT9Odbzyk7rO6vfKtpdxDxoKIiSbR9fbL3ndvucFGZ9Z3dbzf11NnBCX6ivYkvGOt/ebi3/Ntfqbm8Iv7q4HyXi5J4OKPkgAAEIQAACENgvBLLuJPulaiqFAAQgAIFiJlDuYqJMYdIHuxfj1xubw/E1Liqeu3ixPedekh+d0xpEyL/Zssne7F6P3eVj7r24TZAMGfxNomSLi5J3unekREnZF5pbbL57WS708t/bNj+ck9AokbLPPSIVmn1Of1/wnmx3ofOZTKWd5yLmtXV1Vut1/OnWTnuPC5d/N7vV1vh1hYpHITUUVqRv8tLiVRwMivQWo9m7QiDnej1wXJ91v67T2i5faAvedYjV3Vxrm9+7MXg3SjjsP603lCZRsfK5KqvoqjCJko1XNYT0rf8617pf3RnEyrJB95ZsG7LZLjQuumxpEC17z++y5m+2WtmWMpvl4mXGvSu739oZhMz57/cfZFzUHFqem8bCP1qDWLor7ScNBCAAAQhAAAIQSAkBPCZTMhA048AloGeXKOAcuL2kZ3tDYMyFph2lur0pcWbz1rl4KNvkodjRet2NSOHTV7rXY50Li79ysVEh2Qe79+JwLoQ7pk1uswHZ2870eNrZPjflP+Q8H7/c1Gy/q662Fw4O+hySYyHke0OiXpWtMmaPjtlDVdWma+/r2mw3eN0KGT8QPCYJ1dx2f7AHgf1FYLzC53kc85Dqo33eR9cF+87qCa/hRUM24iHd4+7hWHtnvQ0c3xeaOHikz5vrIqI8Icfqhmz44CHrvKzDxhpH3XPSyzliwMarx63m1roQ/q1MmfWV4Zz2y0a8QDeFgVffWGudf9QRwrlr7q23uruyP+YwT0VAxBsEIAABCEAAAkVGAGGyyAaM5hYfAQlOEp4wCByoBFa5p2KXeyS+prc7iI8XuUfjJzy0+589ZPs0X/TmlR5G/aCLhG/u3mqz/UE+muajlMmTUaHcvV7GmZ5eC9kovVbuVki20p3vnpGxnCUuUmq+yq7yCnu8ssou8RDxbzY2Bc/Nn69bbZ9qnmP95WVBDP1SU4s9tXq1fcTzaG7LuJhOMQvBkR9bCEBg/xOQmFg2UmYVW7I/zFRsqbWqp6stsylj1T7f5MCJ7lF5yZbQ0NrbGoJnpFW5wNiRCaHfyqf96sdqbGT+cDhXqFdhsRu/KA9KCZsDJ/falndttIGT6m3OF9yrXB9sOU/OQmVw/sAgEOY31VQCGARmggB/NM0EZeqAQEkTQJgs6eGn8zNBIHpMIk7OBO3iq0PetMXqMal26/6WJ+JXXACUGKmFZo4eGrKr6hvsJw2N9loXKzVX5BOVldbqc0AqlPsPfX7IPs8zkBPsJWrKFM49WFZpn97UHoROzR2pxW/uqa6x+91LMpbT7B6YjWPl9kYXOj85p81+uH6N/XjDOveSHLXHXKhUvacP9oc5JlXuZ5pn2V94SLfaJMGzGC0bul1uY87wmHPfYm1LjrORwawnVjH250Bvc6a6zh675Ye2fuXdVlGesdGxrFfxgd7vUuxfpYuQ4y8bt7rrZwVvxl4P2R44xueEdKt5sM66Ozut6yObrf6bjeH6+HpXJYd8ykhfFEfzQg4dNmA9f9xlZddWuHfkWAjfjhzHq3xJHD8nG6txT8smXzDHF7zp8LkqW/9xYcgvb8v+UwdtvGbMygZ8jsucJ2csg+2BRyCIkv63g+Y3xSAAAQhAAAIHAgGEyQNhFOlD6gjEcFGtTvypTR223AUWhZTK82s0J8akrtE0aEYJVPi9IGFunotp8vrTXIxb3AMw3jsz2pg9rCw650hW1LyQK3xF7PPdW/K77r14bW1dKPXdbfOCR2Ovh1hLGNS/hSYXFh9zgfDGXJq/dHFxnXtG+rqyYW5KhW7L01JzQz7hbGRvm7vQLvU5Ktt93kqVc/LgQPC01NyRr1qwKNTR6fx0Te36N19sp8/Tyr7u+w+4uLnZPTtlxf7Dv0TJI8+41IYHhqyyJssndIy3VBAY6PYFShobbfVDvw3tKdNUAwiTqRib6WxE+YiLgP5fw82z3GOx1zZ8Yd3EojVNP5o98UFT66HWgyf2W60Wp3HLtGes6Qezbcv/cU/Hl/da/5LesKCNzssqOrdNiVHVU21lg9kfboLI6Z6Xlat8FW8XNTd+ao1VPeFelouHfL7KpiBKKn+ZViHDDlwCfjuMj/mdV+lzJvu0AUGIZswP3PHezz3T/SWrWlmzn1tC9RCAwIFOoGzxIYfp7yo3/SEzyU9v4XSBawc6HfoHgT0koNBUeZG1uQBz49pVE55be1gc2Q5wAlqh+pxFS0wLuMR7p5i6rMdmeX7mLyyzKyKr8k4lFKqMqTxKJ6sjeS65L6Y7q09p0mhJj8nTLvmgLT/tdbb+qbts/dP3prG5JdumTKbGlr7wIqttnG23/OjvbdXD11umstpGhgd3ZKKbUTbVP4BsCt7TSiDxgTJ4Wo8NeSh2zT31Vrl22w8G8mQcmTNimY2VplDs6O0mT8nBY/qt8pnq4FmpLsobsswnya3ozIqUyeOxhlEb9vksKz08vLynwuSZOdYyEsTJ6hW1WUKJ9qQVGe3aOwISJHUfaS5Tec6Ozhq18oGq4FGrKQUwCEwHgfFMdoqKOLftwrcfNB3FUgYEIACBggTwmCyIhgsQ2HMCo4msz7vXVuPYkH27cZat8AdUrRaMQaDfPQiPdLHiLR6OrHskWvLeiefSvtUdLfFQomq0YT+WUClhMPr/qG/aT/ZRaZRP6WWViTJ0LIFfVqic/DqS9SqfrutZXeWqXh2n2XZVV2hwL9PNNz9pD9/w7TR3pyTbdvBx51l1XVPBvkuYGst42K2LC7IoVBXMwIX0EtCHX+4fbfWdDTYxUYSfKxvPfdZ4eHUUKjXWwfy6PJC280Lyc9FrMtwTPn9gPFYdEiNVR7T6mxrjbnbraRC5t0dyQB+5QDlW5zdgmw97u88N4CYxCYPAXhPIfZaEqSQasvfWXpdJARCAAAR2QmDb0/BOEnIZAhDYdQISX+KMYlGsuaauISwMsuulkPJAJ3CWhytLmIz3iPqbvHeKrf9RREy2W0Jg/Leg88n9mC6ZL7kfr4d8U5STX0dMH/NLOyhUbkyTlq3aGoVa7U9lmdx8meUewo7tfwKa/1PekYUsCpJSyKMoKa+nqnWF8xQqi/MpIqB/qP4gH0Me1bIQ5h1/ZMldU4i1QnBl7jdpY5Xb/oWH8Gs/lDdcMPeaVBBT8I5TmG6ijhiqnawv5s9m5r0kCMj71ldqH/cpPVq+OteqVldtdw+WBAM6uU8ISJAs31oRFtfqesNmfvDYJ5QpFAIQyCeAMJlPhGMI7CMCUXyS55dMHmZY6RFQyLNMYlq8J0qPAj2ejICcFGRRRN1VgXLcvbDL3ANXWyylBCRO+X9RkFQYrx746m5unPCmS2nLadauEPB/emVj277Tc3MkZXPmXdPJcf8eiPdCsvj8c9sd55WTrC9ZBvslRsCn/qtaWc3nSIkN+0x0d9SnoLB6r6l3JmqjDghAoNQJIEyW+h1A/2ecAILkjCNPVYWMf6qGIzWNkSgpWfENvsCPFsn6pi8gFAVK/ZihRbMKCY8SOcbHkwHyqelWyTRkIkR3kh6XVfiiS7k5JgeP7Lfe87da37k9Vt5ZZTVfzi4SNeEpN0l+TkEAAhCIBLRKe9mwe8lH71q/oHlMZRMetuGINwjsGYHxKr/HfAqKsfrsfbVnpZALAhCAwO4RQJjcPV6khsC0EOCrflowFm0h0TNuqg7ENFPdKzHNZOXsSb6p8qiOQvVNla9QHpVHPlHIcpAnrUTr+3z18N+ue87+oKfbvuarif/MVxmXd618sSoc5gj6Y2BWTG/DA74ointIdr+60/pPdtcTLW7qWuXsL82xCg+Xk23nGRfO8AYBCEBgRwJBlPTT5Zu3PcLF8H5C+nfkxZk9IMAq73sAjSwQgMDeEtj2rba3JZEfAhCAAAT2mMCIJhRzi4vATCXaxUp2JU1Mm9zOZL6ZrEt9LNb6JD7KnqisCgtlae7RL3dssHdu7bSvNLXYL+vqESUDoeJ606rK9e9osDVHrzTTWiUKifO1BOQtOXzooI0s1GSCGAQgAIFdIyCPyfItGRvx+WnHM/75MeCekhXZvx92rQRSQQACEIAABNJHAGEyfWNCiyAAgRIkUO8+cVu8302+gEafzxfoDlUmySKG8+YjkSdi/grWMY2c6qLQFc/FbXJ163gubtOUT/MrRgaxfXEr8baQADnVvJ2F8k3FUnXuab7dHTv1t8f7dkXzHHt9T7/PQTpsxw4N2lfbn7f7q6vtysVL7Cp3mSyrkMsdllYCmYoq27ppjT3/6tvt+ZNW2eyaQ822emu7/ZVzIR6rG7Ku9/uiAjoudDOntYO0CwIQ2L8E9Lkx6K9N/uK3jf07FtQOAQhAAALTQgBhclowUggEIACB3SdQ5eKbbJ4rgj/18F0JYBIbta3zhUyur62zD8yZu13BEhYlOp7X32ef2tQeruXnk3fdx2a3bad5xHyv6e2xj3Zu8meZsgnvTNXpa3uGeQ2/5N55Ma0Kj/tv7e6yd7v33mT5Ptc0277TOGsibTLfRzo32+/1dmfF1lzfoqD6idmtwRMw1qF8Uaf5p83t9hLvYxBpE/nU179onWt3echzzBfz6PjfXMQ7wcW8ZD6xXF+Rsfd7PnkkxvRxKzH4yvYNdtjw0A75ns1U2jvnLrD28vId8i0cG7OvbVhnC0ZHdsh3v6+Y/X/a5gdhOdYT23uMt++LHRutJYrQuf6pnXdU19q72ubZlbMa7D1dWzx/ZRAoTxgctM8//Yy9pTpjj7SvtjW+EiuWTgIjo0PW2DjbFj97ka275Vmz872dcQEBiZB+Q5QNlVnF7/gTLJ0jSKsgkG4CCtnWfJIjba5K6hctDAIQgAAEIFDkBPiruMgHkOZDAALFT0CecQvkrphnh7tQVsgaXBSTIDaZLRzZ8bxmstPZZhfDWkcnqcyvzS1QnuqY53kK5ZvjZcpiHeEg97bI25LNt2Ods3L5kunj/sFT5ivsYrakQD61QYvKyOJ8jrGujIu0EiUna6c8MKtjwrxtnfOSR2PWtu/fsuHCbixNPnbbxnb7fEtGsvlWZSb/ej5toN+af/cT+8YFb89rDYdpIlBd12R9N661OSvn28Bv+6z64lobPKY/O7+kN7Ssr9LmfG5eWElXC+doASMMAhCAwM4IhAVuhv2HRQ/lbr98g421DVmcY3JnebkOAQhAAAIQSCuByZ980tpa2gUBCMwoAXl6yQrLQFkPt2yqqdPFNDvb7kqdk5URvdImu5b2cx0VFfavvtBJZ3mF1bvX3IALFRLR1ri3Xr7FVb3vcW/Kv3avSNmIT0+YcV1DW+Vb6V6B+SZPQ9mNyueh4rKYT/sZ95h81L38ZLGO5P5VvgjLGhfLRsIyLCFZeFO+u917URbr0H4s4xuzmuzOmpqJfMk676ypVdKJtGE/nDH7N+fxC/f8FIvYt7h9LFdfrCPenzr+bPPsILAm84lJr/f5uZzYF/PlqrKtnu/vW1qDaJufT2PSmWMX08dtu4+bPFrjmMX2qb6N7qEZJcdk+5T3Mef8l3PaduhXHHN5Vr5za1eoRqK1TJ6Tv22db/9Qk7HFF/6FnThvcTjPW3oJ1DW1hsbVPFhneg2e1mNbfUXuoWUDNnbUkPW8qtNavjoXUTK9Q0jLIAABCEAAAhCAAARmgADC5AxApgoIFCOBKBDKu8xcmIniSrIvSpPvfZa8PlP7sR2F2jlT7djdeoZygpfCjr/R2BRCtHdWhsZB/V3jocUKny5kSpMcs5hPocx6FbJC+R50MU2vQlYon0Ku9Spk+fmUTueudQF1Kpssn/qoMPapLJkvMtFckFr9eiqbLN8WFy3/q0ErmuyaxfoUFv6DhsJj9/u+Inf0qJQg+ZvaapPAe1d1dtwWjfpqB3tp5d72chdPJ7Nx9y4dHdvR63aytJwrTGBkKDtOlTUNppW5q+9ssDZ/DRzXZ90Xd1rv2d1Wf+0sq1rp/z50g7mVjWd/QMge8Q4BCEAgS2C8zP8W05eIFrpxj0kMAhCAAAQgcCARmPyp5EDqYZH1Rc8mQQjKa7c8fPT3SNIKpdX8c5NdK7QYRn7aWFf++WTdcV+hm/IKKlR2TMe2uAho7OP9Fr3Lkudib5QmXte5ydLEtLuyzc+ffzxZGTFNbEc8nixtms/NdwF4jf/bbfBtDAIu9G9L3NXPOFdjfr/2RT558enf+2Q2VX1T5ZOHZbzPkuXq3J7kUxm7m29nLFXmZO3cWb6pmBQaO9Wj+S41B6hMoqcEzCjsZirKfGVufyjdS1Po8JjXo1chk3ApmypNobz787z6VpGpsjEPs09L28dHs/+iYwhm9KCUMDkyd8SFSYHOUht3D2QMAhCAwA4E4keDzy+JQQACEIAABA40AgiTKRrRKKhEgSW/afG6zsf9Qmn1jFPoWrLcQuUUOp/Mq/3oU6N52CZ7eM9Pz3H6CcSxb/N58N7oC54ovPRq90KTt1y8luzFm7u32iIXAR53Lzx5nSmNLPecnT3YxXfludQXZ2nz8r7tHoTyZJuszlhcvHa0z/P3qr5e+5ELOc94+HM8H9MVwzbOVCgfq10R+sWq0KrPU/V3T/OpTfHf+1Tl518rhnx7ymQ688V79vy+PtPCOV/wkPTooaprYVGk8fhTUD7l3TvWfIby4quqqbfRSebCHBnqtZHh7B1ZTPMfxramte1l8nLywRx3jyft19/k3rYa3Dj4uzeMpIYABCBQMgT0w468RcuG/ANTX755Fn5wq/Yf21y4DYsDybPULXzu5qXlEAIQgAAE0kcAYTJFY6Lv2cUuBp1ds32YZc/YuF03PGI9OZFGTVZaCUcXTJL2FyOjvqLvuL26etv8dBu9jGv9fNLis1B+OatGx+xWfx1eXmanZAr5SJmpXWu9nse9XLVNFstM1sN+cRI41BcD+ZCvqCw7xMULrRSs+05jLNP+Mk+j1ZNlD7mYEsNhY7qkR5/uvskEN3m4KdBXPkUS2t7cs9W0wMePXWQcLMvef6pzsrJ0TnlOGRwIKxirDRImi9nU4z0RAIu5z7R923PWPT4fZzI8PP7oE0X6vWUlT0h5Eh56wgV23EveZmO+2I5EytGRQfc0rA7b3i3r7Im7fmYr77s6zH+oBz5ZXKBFZYz7XKjxWNeih2X+eV2TqYyy3NymU3kyTlVOFB6T5SXri4Jr66Ijbeum1dbbuSHUO1k7J2tDsvzJ+hg6srdv/uFYNra9QLm3Re6v/PG+2F/1U2/xEkj+myzeXtDymSAQP5eDwBhD2Cd52NA9VTYQ/0LNfc56A2P+mWgrdUAAAhCAwJ4TQJjcc3bTmjN+x55YVWmfqfcFIeKquf4wN+xftr/fO273ulgYw7zlDflaFyX/JqbVg6PPW7bVV6S9uavHvRfL7WMuTM7SYg8uYG7115l+XnOibfvaznYhljPsdVb6Yg6f7xsIwuSrKjP2gTqXjNQWle/tkHgUZZ8Ybvq0P2j9x9CQfW/IQ+f8euzLtAKisP1K4CQX/g51ASN4I/p9INM9eE5/30S7uvz+iyaxUSJkvkdfPK90Sq37Wel6YkbfdvuxFoOJFuewnKysmEYLlsjinI3xPFsIFBMB/ZuIwnpSkFQfplsEqqpptLmHHGnP/O63tm7lvVbpor6sxleTXvCCU8NLcySuevh6rzv7bzv3z2y7EGkJeC45TsxJqeNyT5ico7KiXEskjU/ki+JjUhzcWTnqv9qhNqi+sfFsKHqsL5YvUfLl7/qa3fWLL9jDN3w75Bn3tPl15tcX+eanC1D2xVtCoAxfnPuiDsqEAAQgUMQEoqio7dASXzSsdswqn6uy8h7/3vFz2wnc/jU1dGh2Xt/MhkobbfWl+norLNPOo24R3wI0HQIQKCECfFqnfbBduJFYuLyiPAiTyfDs46N441/OEi+jYFjvD22aq+7GkTG7WCPs1yRQnlVVZVe5d2MUeiQiyk7PZB86lV/iZL5nZUikN68v1qHDShc7ZctdQ5KYOq9swL4wGOXKcIm3A4CARMIFHlr94v5+e6YxewfE+/DVfT0uPlaaVg6O90YUG9X1U13QXOLelr0uWt7tKzBr0Y/s3Zb1EFM58tg93tNJeLzZ0wzkRJCILnpZyjvzBV6WxMd7q6uDyF7h9zYGgQOFQPxhR/3JF+L3RR+HB4YmPCOT5R924svtvD/+nC096ZVBmEwKiEon8U6eihIK86/FY6XRvrZRpIwPkpOliediO+Kx8sj0ACqBMd9iOomfsuGRAatp3LYgkdqpa7ENMX/MF9sZH3BjHTovi+livmnfxi/iaS943xcYme37mqjhQCQQPw8OxL7Rp+khEBb88T/z9FmjBcP6Xtdjzf/Uag3XNFm8Fr0hBpf3W/tn1lnlo1XW/K1Wa//SOqu+sdbaPrkw2xj98emft+G+00JCssTnb/K7Jntx2w+C+Z91k6WNedhCAAIQgMCeEUCY3DNu+zaXCzVR3hvxL2P3n7QXuqDzPd/G71B5nh3vYqU/NQVRUukkFA4qvcKvPcz6Gg//vriyYsLL8Sw/L2FSYlAUJxU6fpw83XJekTe58LNCId+5h0F1NHhJern3Dw6almSodeFTplDvNhetgijq5bzXPTT/q38wrBac+/4P6XgrbgJ3VNeaPCZf6SKkVoHW/aP7UELhCX5P/KKuwV40OObiZPbulJCo++qL7c+HkOzY+26/zz46u20i3Fvn37G10z6+JbvQh47vd8FxtnsGD/s9lsndZ1oM5nIPF9dKxdEklv59S+tEWZnc35hVnhaDQDETiJ/xM9GHSve6r6jKrpieqcx6TGp+xrWP32lbnl9pjXMWh2a0LjnWXvjSP7GHb/yOzTv0hXbwcefZ3f/zOVu/8m6rb55nR5z++zb/sJND2q0dq23F7f9lHaseCqKkhL3Zi5bb8ee/w1rmLvXFe4ase9Mae+DaK23z2scnREOFkx/3kstCOWqT0jx2yw9DHSq4pn62nf66j1r7qgetu+M5O+rMN1ile3cm0y055iV2/IV/ahufXWHLTrnUGmYfZPf/6gob6N1sja0H2dFnv8XmLDw89Hnjsw/ZE3f+OLRB5cc+KoRdaZX/9p/+U6gfAUWEsqb7RPeIxv3US/7SamobbaB/22dzTMcWAoUI6J559JYfhB89JvvRoFA+zpcegbJx94os97/r/Iux5p5663tLj/Wf1GsNv27KPhDpYSNn/af1mi0wq/5prVU9U211dzRY5cPbT40lEXPcn48m1hiL+b38fPFRxU52bqrzuaawgQAEIACBPSCAMLkH0PZ5lpxQGDzQcgLhEf7lqdC+6EVzqIuSC1wY9G/NrKea0kWBMdfA24eGbbU/eB6cEzDPcGEyhtLG72KFjk+Ii57/1+5lGT3UYj9jO740lPWmjO2Qp9tXGmrtDA/57vf9WvfK1PyYCumOwmcsg23xEni2stL6/V6TMCjBcY3uM7eX+2Izsp/7gjfnDGwL6dY99s85UfKzvoCHFs6Rp+MnXVz8cscGW+f3iVYZfoXnlyi52ueE/GTLnFCW5rQ82EPGn/SFdKJFUVLz7n3TF8RZ7tMG/NPmLduVpUBRDAIQ2H0Cox6uLYsLxmi/oXWR1TW2muaalDW5QHnI8RdY07ylNsv3e7vag2eiRKqXvu1LNm/JcfbsA79x0XHYDj3ugvD6zdf/PIh6EvnOe8tnfR7Lenvmgd+GkHGlmXvwcfbbb38wCJgSHV/61s/bwsNPtTUrbra+7g47aPmLw+vWH18e5rqsbWh2UXF5OKc2ta9+0Pp9DslDj31pOP+rK99tQ/09lqnY9tmhdIN9W4LQeMFbv2RzFh8R2ml9XXbsOW+yxctfZLf+6PLQTvVRIezqY7ULJ5pvEytMoKq6PoxhfVNbSJT0Ui2ciyulTqBnU7tV1zfZyvuvCSjK/EdGn+i21LHQ/wIEgjCY9YWwmodqreKeChs8pt+GDx60ymerJxYS08I4Ayf436Gr3XniTo8b87kmZ3983rZS9Wdr4le/sYZRKxv0qUGSc1bG1Il04VRe3olz2slPGy7yBgEIQAACe0IAYXJPqO3rPC7+SAzc6gJPp+stB5eN2VL/400C45P6pc9Ni9IoxFuh1+v9XJt/ccdQ2n55PLp4pLDZ23z/YBcO5RF5sItLR3q+h9wjLYbinijR0tNV+nXNT3m38hawfm9PNIlPKv9KFyElTNbmBNR5uW1Mx7b4CWj+xl+6V6SEyXN9xWx5Tcou8X2JigrRbvR71mfzCefP9YVrzvTXtz3dl5pawrknXGiUl+NPnl9rb/DFbSRMvqdrS7j25nkLJubVe9DLumHNGmtxL6tNfn/JK1P1SpT8wJy5Ib1WKn7cpyX43/VrvA3doaxYN3NMBkS8QWCXCCiUu+2QE01zSVa78CeRsnZWmy098RXWMKfN7vv1rRPlDPZ2BbHut9/8gK159OYQGn3aJR8MouR13/pgEA+VeMFhp3gY+D/bCRf8SRD85MXYMv8wS6ZZ7fNWvvSyz9viw08PwuTRZ78xiJI3fv9j9sQd/x3qlAfjBS56HnHG60PZQ4O9YaGejHtT3uJiZUynNpz0ine5qHhyOHfv1V+2C9/xL3b7f386zDGpwk5+5fused6h9usr/yx4aemc2qV0Lzjl4tBOMRge7g8C6h0/+4yteug6G/MpLGSFvGbCxRJ9kwg9PNBjIy7iPnLzd22wf2uJkqDbu0NAny2tVct3JwtpIRAIaF7J2jsbrOfPumzwiIEgTEY0g0f228hSn1Lo8SqrXlFrI20j1vHX66z27npr+r7/8C0B0R93ul6/yXrP77OxuiFf3bvM6m5rsKbvzglzVnZe1mF9Z/XbnM+2hjJUts71XNBlLV+da/U3ZacI6T272zrf3m5zPjffah6sM4miEwJnbBBbCEAAAhDYbQIIk7uNbIYyuBjU6YLjky7QyDNSc0Qe6UKNjmXLcgJgpwtCD4yO20Uesj2Z3exC4xs8TTAXhs5wITIIk35CIbJnujecwsEVun23C5NR+JysrCg+6ppq4zfuySgdOOfigjI1fp9cV1sX5pL8PRcCJUxKMDzcX1+d1RwExGSvjx4aDIfXuJgp032mVdvvcTFS4qTyydv2WE93pwuRWuwjLvQhb8y7qzN2vF/TXXu8h4rLav3fwqUuhLa5UKCQcAmhshfmrkdP4nCSNwhAYJcIjHpI7mG+Ore8B6PpXH/vFrvzZ1+0x279YTwdvJwkQGkxHJlCrxcte7Ft8NBqhX7LezJTVW/PP32Ph1I/ELwP5QnZv7Xd01bZ0hMuckfFDutYuyKU8b2/e6n/XjYU8i068kzbtOYxW/3QjaFclb/5uUfde/IWO/zki4PH40DPliCern/qrglRUumeX3mfC2RDVteQ9dyT12TSWtwDcqGHmT/36E1BUFW7ZWsfvy14Zy48/EWhzl730mxonm8P3fjdCZE1ziOWLI/97QlIKH7MQ/e1AjoGgZ0ROOiIF1uFf1ZgENhlAvpzL+e1WHNfnfVs6bKhMwas7FfN2bmm/PLAie4t6V8BdV/Pfr6P14/ayDH+48mGoYlqNv/ZBut7o3vV315pdTc32eDR/dZ7WbeNLxoP3pWZ5ytt7Liu4HkZxc3ghbnMPe+P75sQJvtP77HxBeNWsXXy566JCtmBAAQgAIHdIoAwuVu4Zj6xRMfjysdCuPVh8m7MeTSeVJH1TlvrAo3ExIvLfChzYk2yldf5PJOr3UMyhnOf5x6TX3UvR9ly31+qL3sXjiRMKoxbFsO9w0HiLXpMDnvabEqz18ob0y3MQ+nbDSoLO6AIVPqYarxvrqm0830VbomIcTXuqzyMW2H7slG/L2RLPBRbttkFRFn2KOyGuSPr/X5tyXkitecWmNDVGP7fmTi3MJfuAp+7VK+hslGrGq9wcXIsiJyrXNTEIACBPSMggeCpe39uqx++yapqsw90EvZ6up4P8zjGBWDkTSjr3LByoqLGOYus3P/91brQ96o//9bEee0obFumkPCV911tK277WQi5Puios22rzx25ad3j9vS9/xsESgmHCgtWnsnKUd0NTfOtv2ujr/ZdvsN8hmqvxNRo6oeOM5ns3Jk1DXN8yuUxn+fySLvkgz8KbVbaMf+camhZELwkq3Lt1fnN6x7VJsyPqYVzsJ0TqK5vDsJkXH195zlIUUoEyjyawpeuCl0uZ4qEUhr6ae9r9RM1VvlAlfUd3WONvkp3COeuGcuGcfvMI5qHcsISU98OntZjfRf3WO2P6m3OF+ZPJNn8XhcrX9tj9UfOslr3nuxc32FDS7PfJ6Otw+556X/Brtdq34PBM1IZB49yz/r7qkLd4cerwoFmE/WwAwEIQAACOyeAMLlzRvstRa3/IbfSRcW1LkLKF+T4nBipMFeFdsse8+emIAZKBMoTJqOn2kQ4t18/xsVNeaspDPtk31c4uPJt9VcM457UG9LFpzf5fJSnejqfcjqYxNETXJicWBE8UUYMFc8lZVPEBGpzD+cK55YwqdBqzQ+5viJjCqvWfSaLK2RvzgmL9bnzdZ5/sKzCmvy+nT1WZivdu7c9d/825zyAlT/eM8lzm3Jl/WNLk4eGN9lCv8d6cw84C93DVyK5zNcIDtsDdfGbKBDt8xWCA0XeSoWAPBk73DNRi9jkmx64yv3fePKeiwvlKG15xh/MXNDb2r7a1j52W8he4VM2jLpH9IivjC2TmCi7/lsfssc8xHvhstNsrodoy4PxyDMutWu/8Ze2/ql7QprBnk57+nfXuDdVdo7IZDlaiEfemBIYd2b5HpNKX1lZa+3rH7TnHrvV54/MTkWRLL9/a4fPnXlwKLqqJhuup37jMbkz2ttfH/NV0wl7354JR9mVjbkvuBP2hkBcBEdzR8prcvjMIRtwL0YJk4PLBmzkqGHTCtyVa7PfH/7HYahO4dqy/iP9O8k/2mvurQ9h3hIdKzoqrerJGuur8QV1fOGc5m/WWuapyiA8Ks+QlytPzbr7G4IQOtrsn2/uiSlvyZpr6pTExjJjhHEHErxBAAIQ2HsCCJN7z3CflVDtD4abXNx5zlelO8Fr0erZ8lY7ysOvZ+W80X7nQs3O7FcxnNvzKt/pLjBqdW55T0Yx826fY7JQGHf0hry4ym+XXL0TdXq+SolDfv4H7tEWy9h5qyZKYKdICNzui9is78zYn/vckAvck1Fh3LLKnFgQPSbv85Bt2YUuXmouyS05cfH8PnlbDvvK2w3hnOan1FyUyQV1DnUvplMGRya8LR/0Vbplx+VCu+PCOzr+1sb19oOGWfYZX2An2oE2x2QQh1zUHWVxgDjEbKeRgEKgo9ioEOdxnzdQprkVJcyN++d7IevpWOsh1Jr3cdDuv/Zr2yXT/I1a9EbhvYed+HJr1OrYniYKoFql+4K3fdmWHHWuPXP/b0zzR8omK6dl/uFhVW2FhctjclctiqMDPZtClh5vy8M3fHu77Gqb5tSM4mvS83K7hBxAAAIQgMB+IyBhezzjczn6j9u1d9Vb97pO6/OQ6sb/aQkh2RId627O/qg00UgPqCkbyQqToy0eKdZutuVd2R/LJtJox8+H676rOSN73thlw4cMZuexXFVl9f/rq4G/qMc0j+V4nT/deLk192eFye3K4QACEIAABPaKwK7/lb9X1ZB5TwgoSHWjfxk/mRMf21yQVEi2vB6DQOgPjY+7R2UhiyG0d+TCuRWurXxa8EZebqGcXOYYxr1LN4TaE19eprwtJUr+jb9ku1RGrl426SWguSVltbmtRMFbamuDKKnzv3ahUpbJLXpTl7tPb/L5KB9yT8o/3dppf+Orbp/l4uNl3V32+U0bwzyV380Jml/MLYzzQ1/ERh6Y8sT8l/YNQbxUufLslUfmtV6eril/LEsL37T6/X+bz1Epi3NOHggek1EK0px9ZS7ERFGyvnlemI9P/cWTSxSw6SQw5iHTWplbryjUhRVzE5XEFbzlwTvQu9nWPH6HHfrCl9ox574l3Js6L7Hvle+9Miygo6xaXOelb/srW/ai10yUNDzY5+mzni1aQGWDe2wuXn6ynXD+O03hwCpH4qbK0eI00eQxOeJ58y2Gmut8DEmPq0V3bnzGnnv8Vjvi9NeFtqls1aH2XPqhL9uCpSdtV9zQQCL+b7srHEAAAhCAwP4iUDaaFRmrVtZY3SMNNnz4kA0dNpCdX/LpXRAL/TfzxquareWKudb8rdbwCvv/2mr1v8160teu8ET+FdB7breNLPDFdNwDs+oBFyFdvNQ8k/LSLH/azz2T/dE8tml/MaFeCEAAAgcSATwmUzyaGQmJblqsJgiBLgxpNe7jc2Gw7S7cPOyejwrJLmSaL1ILjyTDuRWCfZ6HYEevy3YXeGIYt+b5i8JILDPO4vdzn5tSImkM5e7yBAojV/tCG70etaSwVBpLZFsMBOLiN8l5HBXOfZGLiA+4YKiXbMTDqBXWHdPpfnt/61z7zKb2IE5KoJQ96ULER3yl3+j1qJW2NYfkhzo321fbnw9pJEJu8FdrIsT7r1rn2f/t2BDESQmUMtX3US/r5pww2e7Hg2WVYWGckKCI38ora6zcPSQlEMkkSB5+8iUhxPXeq79SxD2j6XtLYDrnPNQcjLPacmFv3rAgQhbwzNUCJ0obvStjiPdD1/27zVl4uJ3+mo+4kHhe6N68Q46355960G7+7kfD8eO3ft9Dt0+yM1/3cV9o56Jwru3g48Lcjk/c9bNw/PCN37HZC5bZKRe/3xYdccZEORufXWG3/ujycFxZW2+19S1WUxe/gcLpIERqBfEYAt69ZZ3PhflMWKlb4dnXfuP9ds//fsla5i61c974qbDKt3IuPPxUe+y2W+yOqz4bCpKgWdPYaDGUG/E/y5d3CEAAAqkg4A8XcQXsynv9u8tDybresNmGl/riZzc0ZBejST6EuHeGvCxlWthGXpXVj9QGr8jYH3lGbn3NFsusyz7pVDxdY5nnKsPq3GN1Pg/xNU2m8PG6lQ3Wf7JPJNQwHurSOR54IkW2EIAABKaHAMLk9HDcp6U8NjRs/bVVVuvC5CUuTC72rUxh0xOrEee81Qo1JBnOrfkp/7wmNzek798RBMfsl7fm+ZM4uYP5+a97O+4t4KGpFinfiKfDiptAFJYfdSHx9IMOtc7EmGp17gsXLQnzPMZ7r8s9kF658KAgUKrnuhee8Ly/N3+RHeMh14t9Lkitxi0hU3myd29WwP6Se01qAZ3Dhodtq9/XCv3WdAWz/LXJj5VW86G+de4C02rfS7wsrcr9O08nAVTX1d6r3XvzHm9be66tsQ9+qehsyENjZRIkDz3hZcHzrHXhcrv6ineG88mQ23CCt5IiEAXrve30midvt1997fIwx6TKUvh2vsVzG1c/HNK2P/NASKLz8jxUqPYN3/lwuE/leSgB875rrrCV9189sXjOlg1P2w3f+2sX118VxEcV8MQ9v7BVD/w6hHZLAFQ51//nX7t35KuCB6PKeeC3X7en7/ulKb9Mq3Lf8uPLTXNRJq1jzaN20/cvt+ef+V04vWXdE3b7T//Jlhx/ofVsfs4yvrBOd8dz9ptvvM+F0Zf7auEnmTws7/75F+3Je/4n1K2Mm59/KpSz7sk7QznMiRcw8AaB9BBI/vGQnlbRkv1AQIvc9FzUZYMn9ofQ6rob88K489oUwr/bO23z+zbZnM+WWYU8DMEAAEAASURBVOVzVTZ80JBt+lCHr8Q9NOExmdmUsWr3mux9Q3fWM/LJ7A/wFSsyNn5C9tmoWh6UbuMV2dDyvKo4hAAEIACBPSSAMLmH4GYqW40/tD3pQsxqn2dyuVcqj8loK3IiYV1OjInnk9soFN6cWJ1bAQuzyl1AlADpguYt7jEpi6txx7/9wsnEW0uuHoWB9/l+FDDVIi1CEutKZGG3SAnoHtB4rsmNebwnJPhFj0ed07FeEg+j6TjeSwrF1iuazkv8VpqY4xmfa1KvaBIvo8Coc7GsR7wcvaLF/NoqT7KtKr+YTO3v95dMc/MpjHXpia+w5tYlVl3f5GLPv07Mz6fQVwwCe0ogLurSseoh00smcTCGbyfLjWkl7MX5GSVIxrRRnNS1eD3mj+lU9ua1j9ud/tI5WcyvfQmAOq/Q8MnKiZ6Luu+fuOO/lSW0V/miqBnr1rHOay7LOJ+l0qt89UFzWN5/rc5sM12TJ2qyj7GcbanY258ENB6a1iJ53yTbE8ew2MXk2E/dj1P1JdnfkrhX/Us+iEC5BU0mfpFM3gTslwQBhU7rng8h1r5Ct7wYM7dWmlbr3s4q/fnGtcrxqqyYqPDvZg/Z7nx3h7V/Zp2Vt1fZWNtQyNL8t63BizJ6Y1atqLXehm6r8PDtzIbs36bytOyu8R/FNrnXpV+XEcYdMPAGAQhAYNoIIExOG8rpL2jEH7BioN0aD7Fb7msPh4Vm/Lz/hW73FfBezG+JhB0JH79xcfLtHiY6LCHSz2lF7nb3VLvJF0DwJzcvXWG5OzfNXRmEHy9T213Js/NSSZEmAlE4rPT7RLJ1FJ0lAu7KOaXXfZdvsRydj3XEdLr/ktMIRAFTeVRvFMKVVxavaz+2SwJ5uDd1sshsduthdsixZ9qyUy61hpYFofWD/d2ml1YQXuCrGtc1tQZvryLrGs2dZgJ1zdn7Y0+LjaKexJ6diSD5aZPikPaTIklsj+ZwjHOjKr/SKG0ybzJfLEf5k2lUTnKl52QepU22LeaN4k6yHO0n26S0SleeWFgq5tsZD+XFZo6AxkWmMdS+xjzfkmOdf213jnV/yaarvF2pO1mn+jbuK5vHPk+WX9eS7ZuMx2T5ivJcQpDUoidjDaM22uQLLvq8f4XuhaLsJ43edQL+B954uX8G+P+zfjTbau9osMr1lSHcWoWE1bv9okK32/52npV1bHvMVVh2lXtA9p/aa8MHD1nm5lpfMKfBJFqGvLk5LGt91e/Me7J5y3uynwkSPls/lP3ezbTnyizWPzZDb3mDAAQgkD4C2z6x09e20m2R/vD2Pz7j4jUC8cDouL3Uxch+f2nuyRHfrvCXrC/+oe7b/txCJOFC7k0Cjuw3Ph/l2z2PBE9Zpe/f4eVGDziJOjuYp1E79Jthf6wnl4jv5B1oHVAnNL4StJO2q+eUJylCJstI7qu8eH9OJXAn0yXzx/3J2hWvpXkbF+vpfO0/2qkveZXVNbbaqIdyBzHStxWZrIfo0We/0Y47761p7gptm0ECfd0dNtC9d4u0ZAWNqT2zYpemShsFoyiwKE8UJWN+pUle1/mkuBKPJTYk0+WXM5lomN+2eBzFnexxtk3JslVWsvyYL6aPbS/VbRqEn/w27MuxUV359+RMjP1kdU7Vz0LX8lnNRNv3VR1hLDJjVuYekhIk9ctj75nd1v3aLWE15OZvttp4WVac2ldtoNwUE9AffH5PSKDWSxbvf/370L75HJDVdzaEa+FNv157PomQUYjcdtH3cte1lRiZzBvL04rdGAQgAAEI7DsCCJP7ju2el+yejDKFXMfw6bC4jHs1ap5JWad7Oq70OSZlIZQ7d37Bdj5n4fLE2z0uTGqhG63uHS2GcWtevyhCqXaJRGGJAS83pq7Vlz0GAQhMG4Gh3L+pWQ//p204ZJHNO/SFQZwccQ/JKEqqsu7O7OJA01YxBRU1gUxF9KXfu24UEjkmK3WqtLomT6+pbDIBJj/9zsop1Ib88/nHsZ6dtaFQvpi/FLbJB3wJuZOJwTPBQXVrvDKV1b6Q0Xts0bIX28M3/2cI5w9CgTdC46WpL85+wz/YqoevC1MB7GmbVZbm763wf1tD/V0zIlKqrVW1TTY6OmSaqqBl3lI74/c/bls7VtsdP/u/4VzkELdaTf6Ys/4osBj1uVKPPveP7baffDJMyxDTzMT47LM6/E/ccf/bVqJkFCR7XtEZVmBWaK7dn62Z+f322QgUR8E5cTI2VvdMtInP8ezjUhAkJ0J0lEh5oyXT6JxfC5+BEr5zxyov/1z2Iu8QgAAEIDCdBBAmp5PmNJQlL8iv9w2EkrTqtRa+cRcSe8C3n/fzcT1ShXHH79a7XHBM5omLlcTHxPj9LeHxEwPDduJw9orKv3rAF9rwP45jWlUcPSflYWm5tuj8Km+bLJk2nOANAhDYKwK1jz9mv+v+WxtvmW/HnvcntuToc6y6tjF4TpZnMr568A/DA3lN/ezwELtXlZG5qAmMDPbaaa/5qM1/wXFF3Q8anz4CUZSMC2zFhZYkeO1rgTKKjaIiISCu/K4V3A857mU2q3WxL6B0iT197y9N7cq2ycN6q+vCCuvPr7xnO6CTtVl1xLkq4776Fc+d9Ir32eLlL/KFxv4kLIqUTBMLj6JH8lporzOS5XOK6aIonmyXRMlXvPvfrf25h+3mH3zcero2hjKOOP119tTdP99unlTlV14xmLP4COtuX2ONbYu9vSdbZSYXiuoRM7E+tUOWP12DypDF9mh/snP55Shd7Lv2p90kEKnJuT9Y5SHZc7ELkst9qiF1Tw7i/iobzP5Azvx+zqPULXuLF6aQfz13rHs7eNwqZ34aPxXu8206Zyh/snPhAm8QgAAEIDBtBBAmpw3l3hWk70b9XaaVtj8xmAjidlFS57W4yBeS53PpfWO3ukip14T5l67yJENpY/lXudio14T5H6mF0u5QrmfKTztRDjsQgMBeEaj1h/F2X534jp9+0h6/9fu2/MV/GATKhub5vprwRUGY1AIhGATGR7M/XkECAtNJICtijdr46LCdfPGHrP3Z+2zlfVdvJ2JNb31ZoTBfzJNQFleEX7jstPAjzaY1j9mchctNQqUWNvKcE00Z7NXPrFmLglv04A0ihH+2yiQuxPPJff+TKVilL642a85iGxroDcfJNNkU2fdYZixLZ2O9u5NuZKg3zCe8ZePTIZu8JuX5ucTnGpb3vPqpcuP8qLMPOiowWPfkXda++kHb8Mx9tvqhG4OHpwrw3m3Xx3Au58kcmHpZyXZOdi40RGUlWMVzSbFS16fVcn+kTiZI1l5fbyMLh234+OxiJZPVu53YlJcgzDtYoL1pyjeZSBa7EtsZ+lLhsOJCQDEB210mEO7dab59d7lyEkIAAhCAQEECCJMF0cz8hSgeJhf5iAt8SBCc7LxambwW06usfJuq/L1Jm5+XYwhAYM8JaFqFLRue3k6gPOyEC0whfFqVWKGN8hjSgwpWWgSiZ1dp9frA6G0x/HuVQBg/Xzave9TO++PP2VL9KHLXz+y5R28KolYUDDMVcZKX3R+fpIdeUtxTWHZD0/wguElAk+fmkmPOCyLcc4/daqe+6i9syfEXbudJmKy9dcmxduTpvx9ObXn+KXv8jp9uFw49e9Fy9zj0uXx98aj+7i3bCa/6fG1ZuMx6u9o9dPx9tuqBX9vGZ37nHuxvsy3PP2ndW9bZ0We9ydY9cXsQa9W2Q/1zed4hLwz1Kfx79cM3TbQtCEn+Wa7w7KUnvsJmzT3ERgb7JvKrr0e9+A+CV3yji6EnnP9Oe+SW77kweb31bHqXLTrijHAssbJM0/v4AoiLDz/dGua02YPXfSN8B2hBtDkHHWnP3P+r4OEpZmJ76AkXWtshJ5qEVnGI19Xm5S96bWjvY7f+MJQRz2Xc61L1qz7ZkmNeYi3zDw993+xlaNX6pFiZHMOQYQ/fgleu/xEbBEmFbJ+YEx999eOaW+us8armsApyx4fX23Dl5MJkZK0FUSYzCbYTaRIJJs7tZj4VMZW4Vai+neXT9Yk26SBhsb5Qts+fKCsbym4TydiFAAQgAAEIFC0BhMmUDZ3Ew7gYSLJphc4rzVTXkmXsy7T59XA8NQH9Oalxw0qPwM4eJeTPrIcTiVBRoHzq3qtsvnvQ6GEwhjEmPV9Kj2Lp9Vj3BFacBIL4UiRNj23VjyBLjjrXDjrqbFvwglNt/VN3BYFy3VPuxefi1ZBPKbA7Fj/TlCf52SUhVF6QEhyPOuN1QQCVp6Bs4QtOCVMW3PZf/zeIjEe46KhQa01pkfQe12JQEjCXueg2nPN2PPYlb7SDjnixXf+ffx3SSsQ774//OZTbufHZ4Hl44sveavf+8gq771dftUXLX2zNrUtMZS1z8VLCbMfaFXbiRe+yrZvWhHxLjj3SfvW1p8L+ma//hB15xqW28dkVLnJuCuUdfdab7ZYfXx5+QJKQpDrPfuMnQxj6hlUPWlV1valdN33/ctv03IoQoq7C6pvm2tIXXmQr7786CIBiLe6ti44MQmf8zJdY2bOp3VavuDG0Qd6kp136/pCn173tJTK+6NK/CnVsWvN0WEhN9S075VK7/tsfCt8nEklb3fN07YpbwrHqOPHCdwXBc4MLsWKvck56+XtDHd2bjg5tefKen4fwcnlqqj1xDKNAme/1GjJP8ab5MWV9p/dY9yVbsoKktO51Lkj6IiMNVzeFbUjkb+OZAuqhrjnr8Rqf3qhq8jTlQ/7ZmRPzYnna7jRfv39bewDTZGLhlPXl8iXrivtaWXx8kj8CyvwPwvI+nzIhMVdizKP6R+tHQj6lE4uKrRkbbd0WXaU5NzEIQAACEIBAMRNAmCzm0aPtRUsAUbJoh26vG66xn+S5ZKLcsPiUHrQ8BC8+9HWsemhicQMljA+FE5nYgQAEUkVgxIUXecXVN8+z6vpmGx/ZJiKkqqGTNKYsU2mDvZ3uqfiIzT3k+ODVJ3FSLwlTd1/9FRvNCYCTZJ/0VBCBEgskiY288iSUzVtynNfXFURJeWdGO9iva/X5NU/eHjz5JJxp/sVFy08LXosxnbYNLQvsvl9fYStu+p6VV9UEr0cJj+ufep3df+3X7IgzXx+SX/3VP7XNax8PnqFnuWh43Hlvd0Hw13b9tz5kL/njz9rCw062n3/pTUG009h1bngmlP3Mg7+xW390efDmVLslSj50/ffC3JAqWP15xbu+HuaAlKgrce/El/9ZCEP/9ZV/FjwhVd65b/6Mnf2HH7f//NhL7Bdf/iO79AM/tHU+P+aN//nhMK+mylr16A12+GmvNAmPUaSNYdzir/bLBvu3BqEyHPjb0We+MYiSd/7si/a7X10RvifkCXrOH37STrjo3aGPT9/3y8Bb3qP64UvzVA72++SN7qEo70vV1zhnUejzIzd/19Rv2eIjzwzsJbCqjChs7sl30agLm3ZCtbW/fJ3VnzHfhkc3WPlzVb7idpXVXzsreEiGSuMX5RR/MI1XZhfK6T3XV+12gVNWNpjNOF49ZuNVFe512WCN/9OS/eKNZSmJ7/e8rMu6X91j5d3bhD3lk836/hyrv6nRxnIrhIeTuXxdb9hsfWf1h3xKrzpjvpYr5mZF1VzakC/31vnWDhs4YWiHfGUuZs7+l7nZFaNz+aIgqvo3/9lGG1o2skO+sRr/KZOZPZKI2YcABCAAgSIlgDBZpANHs4uPQJWLTbLK3Lb4ekCLp5OAFqOK90ShcuNDn+YYUwhXPC6UfibPR9FUdWq+t9i+ydqqtFrMYnzU5zhzcUIiRaH8sQ/JPKMexhhND2vlZe5Z4v9Fi1yUJ9mWeD2WpTDUmDZeYwuBfUFgeLjfQ3/f7ELRZfui+H1eZrl7bI8MD4VXRaY6eBKqUnk3vuJPv2adHaus3AVMCbA7syiwSKyTF+TSk15pB7mHYnV9k0nouv2/Pz0hdMWyJPQtPPxFQazUDzOy1R7mfPjJF9vBx750QpiU4FvX2GrPPX5rWJVb6Ubdo/Oh6/49eFfKy1DCpKy6rslafZ7G7k1rg9B5yw8/4Yvp/K/15xadUai1+trf0xnShzwNzbZp3eMTq2Tr3Nb2VcHr8am7fxHSqX+y0REX3HImT0TNFSmPTIVny+TV+PAN37Khvq6waM9Wr1f1yfS5pM9I2fqn7gmemItcDHzw+m+Gti45yhdEc14r778mpIlvOjfUnw2/ltflmsfvmRAllUYiqbxB5/q4ydN03ZN3hqzN8w4LW4WiK3xbbW9zgVgmRiq347lHggj6m/94XxBeJcjKM/X013zEBi90IdmZi9+GZx4IXqlxnEMhU7zpnllwii/udli/1Uuvd+fb8q5xq7uxcTtRMqy8PbprnuISBUcPiyJdYh71Rv/OqcsKjcmVvOP+aItfXzpkY67Nbme+4M54Lt9253MHoy3+XfICzzcxvanXqUV6/J/DWP2O9U2U0ebXla/Dz8hDVItRNvq2278XC3h8mntDjiwY9nb6S9NMh1kUPJ/YKbq9eH7z8MZiEIAABCAAgckJIExOzoWzEJh2At2+gJFMghQGARGI98TOaERhblcf/HZW3nRczxf41La4SIPKlxgYHrZz25he5+WqEo+Vbywn1k+VR6GCCm+XTcYjWbfSxONYZqwvnlcaDALTRUBie75J7EmKVfnXi+FYwlnsQ2VNfWhyz5b11u8iW5XPn7gzi//+NP/jKS9/TxA2lV/eeKsevdE61z0RQoNVTvgMyVSF4wUvONlDnNusx+d2PO2SD4ZqNDfkoIt6WgRHwqXmPZR3p2zrxmfDVqHhMomAvZ63vmVh+CySgCYxVN6Dx73kbUFsXOvC2jP3/yYIcyGTv6mvFZXZMnVOAu3WjtUhjYRVLQwkT0OFsh999httrver3BnNajvYautbQp3KJ0/E4YEhF/ce1WHw0NQPMxIpo1ApD8rINiTKvalfax6/w449500T4dzz3ZNza8eaIFom02p/eGQgeOaqfeXe/pde9nnLuNeoTCLgbBdJ5yxeag2ti4LnvcqZveDw4NWpeTXXrbw3pF1y9Dnh3OyFR4W6JDjK9JmpNj18w7dNc1M2ex7Ndykh9Mw/+DtTaPx9V/9L8Lbclc9XiZ4bv9VjbV0LreqPvILl3s5jhq3jr9e71+S2MO6ysdzfStmP/dCW/Le4OnfNPfVW/o8ZK8tbFEYelVWrq0K2mFYHcb/+hkarfLp68nwrs/dSTBvyjWd/hNPclzX31u+QT2mqnsqyT+bTeVn9990j9Nq67fJFr8/M2mw7symzoeba11ySzf/RaqPNoyGf0md8dfKh+cO29bVbbLx+x8+eWAZbCEAAAhCAQLEQQJgslpGinUVPYJF7drSMVVnz2JgNB3Gm6LtEB/aQQKV7x3S6UK17YndsMvFjd/JPZ9ooOKhMPRAHr5vxkfAArnNxXrQoCMpbR6vQxjnsYn71SflH/EFfaeN5lZGfJy6UERfoiDyUJ4qVE21xL8tkWRIBJFbEdGkSedXXvbEoxuxNGeTdewISnspyi8JUVtZ6qO83w8IjtT6H4NiIXJuKx4bde3DZKZeEeRvVaomEWhjmmRW/sYe9XxLmXvaOKyYEsEI9i6tn17tXo0LBK1w4lKedRMnoCam8ErQUgq3PEd3Pmt9SolqFn1u07MXBO1N19ndvDmHG8t6TUFbuQqZs1L07o8UFeuKxPBElBipEW6HjEhPnLz0xhGM//9SDE/MvKn30YIx5k1uJkvr8Ut1n/P7fBiFS80FuWvekl39dmMtRIqWsqkZucNtM90bSy1tXRoe3//xXu+Nn2/onbjOFomt17oGe7ByW4hbEWP8xJ372bashuzfm3ykDLt5mvK3RVj1yoz11z1UhPF/nNno4eMvcpcF7VfNbavV1sdbcmvJonbPw8JBG83jGzxb9nKTPTvVf46b7uWXRMmued2jwDH3sth+G6uJCPeFgijfNMVm9otYqL2+wllPn2uD5fdZ3Qo8NXNpnA8f1Wa0LjfW/nZUNiXYHxLKRAj/o6przqHRRT69CFj7vk/M3xnzPVlulvwpZfj5x17mqlTXZsOsCGfPzxWTqc/WKeLTjdtJ83lbNu5lvmeaREIY+XjM0IbTmp+EYAhCAAAQgUCwEECaLZaRoZ9ET+HDnZtMLg0AxEwgPTv5wNu/QE+0Fp1xsfR6OqJDD1Q9eZ3097WGONfUvetBIEDz1kr/0ecsWmx5Gn7znf0J4ofJrwYvx0QEPHTw2hDfe+6t/DaGDhfKo7qPP+aMQTigvJq2EK+8lhSsm88ib6+EbvxM8eLQqruZXU/3D/sB+/2/+fWLettiXYh2PkaFs6GgUe4u1HwdSuxVGLJPHmkSk4Lnn92MxmgS8hub5wXvu0dt+bFqEa4sv2iKBSh6Lu2KaukG29vHb7Oor3hn+zWsBm1e/99vW4SHS+txY9dC14d9xZCePPImYEuJu//GnbHR0yCoq3JPSf9hYtPwMO+eNnwoL20iYjHNdNrYuDvXE6Rr0o4a8JeU1KdNci5vXP2X3+vyY+vGiyr0/tZjOif7ZoM8vfY7szOK/M4Wiyzvyt9/8wIT3Y6jDF5mJprGvrKmy2lkeu+smwU5zK0rUXHbqpabPOoWUFzJ5K0o0VSh6jZeh+0lenzJ5jscfaWL+IZ/zszzz/9s7E3ithjeOT6s2SYVQaVPWbPn/SUQkZS+VVELa90iypLRJSkj7nvaohDatkiV/S4lEIaHNVlJp8X9+z21e55573ved99737r/n87n3vOecOTNzvjNnzplnnnlGLBt/+SHk99KewyI8sOA8+GeCD0ZYimJq93nV7hYF4xFRQn6uika4H0DeCgk3KFoh9p7xG20pWNkFdKCoxqI4mGKP8oUcdVTAQ+EMgSIafhwLfFjQ5LukoNlfY6859N8D5kADUUJX2R9SUEZb/AaOm8MtAAPLxaBFZVS5m4bX6Q1HSC/nEZRrGOvH49fpveSV2QOymM8xsaCkkECqEMBiSj7r41RJh5GSAAmQgIcAFZMeGPxJAqlBoIBMQYUUF4sJCgkEEbB1JOhcRjtmO8Xo6GLFV6yYu1H8pl1xR3ez7/cdZt38weaC6k3MxTUfVAXgpTe1M7nFimyZ+ClDJ/vyOp3Mj5sSOrGwCPp48QRVYl5Zt4e56IYWukADFJm4ZsmotqL8vMVcUrON2bZhlShDL1Kfff9b+JIqOWs0G2w2vTdHFZNV6z6mlkJIRxUOsvDEsgldzQXX3Wfy5T/RLBz+oFggtdIFKZaMba8dYlhU+jv4GY13pPwUEGsnKAtyHZ9iGyksz6UNgTy580ndhRLtYMiaEIqwY7IP5RQs5zKyII9QRl0m066hHNywaqoqJK11I54ZCJ5PF7EWZogTC6vgzyq44K/w8ls7ywI096sSctuGZaKkXG5KiJUgpvti366+be3/tm1cqdOwC59SVpWjsKLE4i2wLITSz06TRrtxaplzzer3Zh+/nw5i8blL2wEow/D30+YPVDHpvQ9MrbZWmDgOP5tegQUh7v3A/t/Mnu0J07Rx/oJr71XrwR++WK3Bf93xjflj53YdRIEvStwH6gGUgSXPvdqsfa2/N1r9DYtxWJiCMcL/uPldUQKKEvTEYqrEtVOrrRU6LsKiQahzuJ8dWz82ZcX/JhSRdtEcsMbK4AckPkxbh+wWpSf2Vfkr+YXCEtfv3b3NYMo9Vja3viih4EW7C2UsFgaCn04olD9eNEJXB7cL8SDe5Az0qIXo0UOqaCvwXiGT/5MC5sAlfyUoKKsnKCgPXvyXWExKfRM/kP+cEEZxJ59ZoanfyIyrZKDr/Ba1iW7Bm0/rd9OjOLJKWfWdKXWIQgIkQAIkQAKZjQAVk5mtxJjfTEHgsFh2QfbKttUpJUxhmb6997iPyUxxA8xkmhGwdQN1BWLrTpplIMaE4OvRCix67MIS51RtaHbI6rLoEOfNX0g66s10Kvanb48xhU4qYTCd9cSTz9RL856Q4Ktu13df6iIVsCrb+ski8T93vp7/dNFwk69QMfWJhimkUBbAPxpW6d3+5RpVRCIgFsGA1SQ63+hQY+os4t7324/m/DMay/nqer6wLKKBKYqwrMTf0b8PaDreDr4eyCT/cuTKp6vxYnEQ/FEyJgEoJyGYAqwuBDyLOGXEHEMhBqs+KNAwNRoWjlbBhfziPKZF47k54pkqHO1eoJy0Ck1cC+tE/MFfIRbTgeV02YuuNxVkmvX2L99RS0dYYkPRBtH8yDOLtKHgRDtzbdPOOtV887r5Os0c4a64s4da/OF3mYtqipJzjfnq/dewa758Z4ZMv37E3PjgMPH7uEHaqJNM6fOuMb/t2BJSwqEtOem0kjJFfbhZt2CILuoC34y//pgw9zY0zXrr/3TV7OsfeMH8Jj4yCxcvbYqcWsbs/WW7KSVxwifmBzJA89ny8boCd522Y83uHz438OdYslIVHcxBm4f7glIVysTcEtf7rz+nVrY4fkwUhds+X20q/fcuecZLmzUzR6iyEhxtu3VC/sKmULFTtL3FPW6QASJYQtZuM9p8K0pdLOaDe8QAxvtzB6jyEeH+kMV79klez65SxXyxdlfoOKakn1O1mtm0dk1o5e+La7XRKeW/bN9qtokS85t1C3Rldq8lpbdsEX8soop6vFLEIhACS0BVUMpU7r/f3m/237zf/HXFnzINXhTEopjMIb4VKUkJgBvE72MzaUgeIYHoBGx9yrn/+IMZ/RKGIAESIIEUE6BiMsUIGQEJJCVgv7Ox0M2HJyRMWUoaikdIIDEBfAL+q/ZLfC4j7h06sFezhQ77MVEeWj9vduEFTMEsXaG6ueDqpjrFEL7P0BG3Amsnv581nMN0wYoyLfK3XVu1c41waol2QgHz24+b7eV6DjuFTzlLpySeXKKCriyLDvnmj94w+3ZvN998+LpYrx0yF93YSqZfFjXfrV8sK+UO0859cix8QolnkB+58+TNIDlhNiwBv5WdPR7PrUvddQnjzZNVeEGR+tmyMaFppV7Fk1052nudy28btzcurxUlVtEue3Etg2f4t13bzK8/faFuIhA3BhJwvR0U+Xb9UlPg9VN1AAK+Dje+84oqOgsUOkXdS6C9WL98nLpzgCUgBPtHZJEYTEMuU7mWDnb8JApOKPOs1d8X784Sq9Z86mMRbdhhad9g0Y28QKy1KxSqucVKsXTlGmqp+YcoWZdP6qZhLhVLbSg9wR5TzQ/s3W3KXXyTKiXhSuLtCd1CAyvIGxSgsKL0KnrBH7JHFKLrl08Qy9CSMmU6YQVwy0DPy6rZyB9WCdd98f24dHwHWQ2+sTml1AXqlxP3uGnNTFUwI08QsMS0cLST33+2RI/hH6bq58l7gliSvqfHEP7PX39QRSos0631qr3AW5b2WKzbkE9KefFpfc2ZYBEJBdsJHxQyJ6wrZApeLlO8oaCs/qc5VjjB4tiuqh1relkyvIx/7JNFcHLtyR3eojRL3jhvKjUJYBDgcGkZENgvqWSmD9PUhMK4SYAEUpUAFZOpipeRZ2cC9j3O8cbsXAvc7x31xdYZ96syZkj4D4Oi8sRiZ+oKuOtXjNfOOCwbS4rSEYoDWERiyqt3BVx0zuG77sLr7jMfzh9ktny8UC0hrxWfcn/+sUM70lhwwQoskHaKhSY65vCvhpV+oWTA9EOsmIvVaiv85zZdaAO+5TDVEyvWbvl0iS7gYKel2/gy8hZWZ3ba+aeLR5iNqyerX7iMnOfsnDdMB7Y+/Vz97rnwUuWN1oUwU1o9kVh/dfYaz6kkP20YbK01XDwUT/6ErIIS6eD5g+AYLAihyAsSe42dFo5n/J0ZPUNBYZ1oZeOaaWqhau8B6UAQB+KHUvGEgkV0QMSraMO9wi/k+6/1s1Hp1u4jHli9IhzihqU40oLvS288C4c31+sse7Rh+IMVpFWSIgDiQxjvKt32OOLHeYS3Fun2nI0X+95r7X1aNkjPn7dw19q4MV3/Hfmz+wjvLxOkk9BuHlOmGjhO/zR/Uq2VjSgoc2AFbFmwxiooT6j27wIwQStexykbmScaWZ37WAFRHMnY91+3igLezbtC5rk/5jT9CWCMJMHwP/3zwhyQAAlkeQJUTGb5IuYNpjeBrKJsSm+OTD9jELDKPKw6C99nVvKI77FcHuu9/CeeoqvAHtj3iykvFkMID59yWDQCviaxEE7O3P/2pHAtfEFCmQNfcLAywsIRuKawLFxzeoUqOo0Q/tKuvvtpTbb4GZXMru82qLUUpnhXa9hbpiHO1PSwOu76FRPNubLAReXrHjCfyGITZ1S8Uv2j/bnnR73ea31k7yMzbKEI8SpDMkOes2seVckiCh6v+I/ZfWytQEljj+MYfuPZg4INCz3Bj+rG1dOSTO+F4gxhsM2VN7/6toRCzcZt40Wcqgg6Hrf3OM4hvFUIYj/egvSsot17b9HSsXn2h0McOBek/ENYex5KvyOexYjscdyr/e2PG/s2XW84pJVg25gwzR3tiZcZ4rPX2nx5j+lJ3z+bjt16Twcds+ftOXsP3rzZYzZs0NZeb8/591GfbHvpvUcbPp5bTRuPDPCJ7toqKLFIDkTvx7vCth7Nfv9y7M9l8suiQccKyGI44VYtz35YeMckQAIkQAKZlAAVk5m04JhtEiABEkgPArZzisURME0RgpVwP1syyuzft0f3sbjCZ6J4hJ+41TOeFOvFe02hoqXMBwsGm5NEyQiF448SBspCrCYL+f6LVeL7baMqFt6Z+pguWuO/Zve29Wb1tMd1+uTObz8xuWVqt5V3Z/U2513T2Jx13rVml1j9bJJFL9A5X7dgqChx7lJF577fd5kVk7upMsels27jzmhb5J2S8QlAweJX8CDX9pitg3bfbu2d2X2rbLSKPFhjYtoz6jjEqyiyvzGd+MZWw8U34VNqRWzjQnj7+994ExSn9rjNF8KmhSBde2/eum3zE5QHG86GsVvvcXsM19vf9ryN0x63Yex5e9y/b8Nha8/ht+Vuj+F6fxwIZ4/htxXvNfaYd4vzQdchjP8cwtn4bByu1wbFZ+Ow92f302Kr+ZaqKSQT7jOH7MhIb7j7SYs8ZYQ0rB/J3Ltzm2LPl8gIWWIeSIAESIAESCDFBKiYTDFCRkACJEAC2YeA7fhiyiD+rHLDroabK2fu0OIWoOKfHmlX98U5LIABQRw4DrUmOtU47p2qaa+5+IaWukDOiimP6GI6xcRiEspNCDrOmHbonXqIeGFZ6J0OibD+zjyOZSbJ7h3zzFRWNq+2zsEf65mVquqKznYBFCzM9ONXa7VOY6EoyBkV/6urRmPxGdRtXHfWhTXECjKfOfTn7+oOwcaNhZ/OOq+67sL/Ip5LLPxUUBY9KVu5pvnj5y06DRmrNSPe33du0dWv7XRnHC99wTViqbxbF4uBQt/m16aRVlvXuh0uXLjjNv+xno8UPuic6zGbH2yDrnE9H3Rt0DFvfPZ3ULigYzZ8em41Xwn68/TMRoZLG88phQTSgkBGbRvS4t6ZBgmQQNoQSHDwkzZpMRUSIAESIIEsQAAfqFD6QQlpLWnwG8esHzYoUiA4ZsPa33aLa9CxQhw2jI3b7mNr49ry6UKNs06HSea6ewfp1G74b7Pp2DzYrTdeb3z8wFZk/JeGBHKJlSMkd96C5vJbu5oS5S7V/XyFTtbVpOH3ED5Qb+k4yVxQvYkpevrZpkazQab8pbU13JX1HjeX1GorSs2rzGW1O+jq87A2hlKxpqzonEcsJAvLytDX3jNAj2EhmDx58ptTRWmZU5SZF1x7r7mybg8Nd/61zQzig1S84k5zVYMEf41wm3DDfYPVHyKeESo9FBH/kUCGJYDnlH9kkBZ1IMM+BMwYCZBAliFAi8ksU5S8ERIgARJIOwJWIWlThELSCs7Z83Zrz4XbesN5fyM89qFYhPXl0vGd1Mfeof2/hxbpsMrNoLj9cQWF4TESSEsCWPzpiLg6sGL9D2J/757tZqW4K8CxK+o+ri4IEBarLK+c9phaFkOZeEnNNnp53vyFzJfvzFCrYCwcVafNOFPgpOK6X+HyW82aOX013EU1HjDvzxuoC7GoMrP5i6rYL3rGebKI0mGDBWSwYMr51e4Rf7AFE/lq1Aj4jwRIgARIgARIgARIgARSiQAVk6kEltGSAAmQAAnEj4BVTsLHJabAQmAZCf9jVD7GjzNjSj8CuXPnkxXmvw0pBXd/97HJf+H1Ms36OrP7h8/N7z9t1sz9/M1H5pyqv+qqy5gCXqL8paZ261Gq7Mx9fAEqXZVZFoDKI35YMT38yOG/ZXr39QmKzqOHzS8/fWWg1NywfKwpdsbZ5q4eC8wf4kLh81WvhJ6vWEnYhbFivY7hSYAESIAESIAESIAEsjcBKiazd/nz7kmABEgg0xCwyslcuWUKuSy447XSzDQ3wYySgBD4+8CfygGKQ6xOf/RwwvrOWE3eCvxJ5s6Vx/x14A9Zmb60+efo0dA1NgymZJ98RkWDBaOOiMIRLg5gYfmP/D565JD56/fdJmfxvOIOIa/Z+r83za87vlFFZbFS5+piVVhIZ+3sp00OycPZVW7R6eOLx3VQy0ybhuuWAwSupLJXOEwzpZAACZAACZAACZBAJAJUTEaiw3MkQAIkQAIZigCUH1SAZKgiYWYcCECRDsFiTEdFcXhOtYbm4J+/mMvEb+TJJcqbXHnymCNHDprTylykfiWxgM0FVzc1P25+13zx7iydon1xrda6EjeuKVL8LL2mUJHTzAGxIMaCUZjifdpZlQ2mdOf4Jo/JJUrOCpffYja9O9Ps+32HKV7qfINFqk6vUEX8WdYw33662Fx6UzuTr8BJ6iJhW77CpsJlt5o8YrkZi0C5CbG+YGO5lmFJgARIgARIgARIgARIgIpJ1gESIAESIAESIAESSEUC1toX289XTjLnVbvbVK3fU6ZUfy3Kxjkhi0msjH1GxSsNFqj5bde/U6s/WTpCLBpv18Vsftu1zRyU1bex+M2nS8eay29/yNzcfqLZ88MGs2HVVHOKKCe/WfeG+UrihQLyq/dfM2tf7Wf+e+tD5rauM/QuN62dqVO2v1m3wFxau50eh8J04+ppZue3H8dE4sAfuzS8XeU7posZOFsROCZWvBQSIAESIAESIAES8BPIUbJMebjoEskhfwHTLfRwmHP+2LhPAiRAAiRAAiRAAiQQkQB8QGJFbizohMWbMN31strtdTVuLPB08mnlzB+7v1frYHu+oFhHwjoR13glX8Gistp2wdBxhPtLlIWIE+cOH9irbg9g0YiVuzG9G5abVnC8iEwHx4JSNm6bpg1jtwgLBSSsMmve/4IpdPLp5t05T5s/ftkes6WljZPb7EMASnBYBa+ROrP5/blqZUuFdvYpf94pCZAACZAACYQjQIvJcGR4nARIgARIgARIgARSgQBW3barcVsffLnznmDyyrRqCKZmQ6AgtGIXfbL72OI8lIxeRaM3nD2OVe2hAMIUcSs4hsWkcHzP9xvs4ZCiNHQgzA/4xoRUubmL+rA8JnFBcubIqdtI/xAW4ewWYf2/cSxSGP812IfYeOw24Wjk/7GEDRcT4rDiZ+CN34az94Zr/OFtPOG23vgQxu7buHHMG7/dxzaS+OOxcXjz5w3jPe6P1xsO5xAWizBRSIAESIAESIAESMBPgIpJPxHukwAJkAAJkAAJkEAqEYAyEStYewVTvOFLMs8Jb+hhKA0h1p9quGsQxobFbyt26jj28du7j2NQSOIY4vVfj+MucuzIYXP48AFdZMcb/l/1nPdo0t82nN0ihPe3d9973PvbGwa/rdgwdmuPR9rGEjZSPDgXFJf/mHff+zta3Pa8/5pY9208/q03Hvvbbm1Yu2+39rh/6z2P31iQCYszUUiABEiABEiABEjAS4BTub00+JsESIAESIAESIAE0pgAFITWcjKNk44pOZtPKDPz5j9JF+CxK4rHFBEDZ1sCWOgJbgNgqWvrU7aFwRsnARIgARIgARJQArSYZEUgARIgARIgARIggXQkkBmUksBj8wmrSjtNPB2xMelMTsDWp0x+G8w+CZAACZAACZBACgkknkuUwsh4OQmQAAmQAAmQAAmQAAmQAAmQAAmQAAmQAAmQAAm4EKBi0oUSw5AACZAACZAACZAACZAACZAACZAACZAACZAACcSVABWTccXJyEiABEiABEiABEiABEiABEiABEiABEiABEiABFwIUDHpQolhSIAESIAESIAESIAESIAESIAESIAESIAESIAE4kqAism44mRkJEACJEACJEACJEACJEACJEACJEACJEACJEACLgSomHShxDAkQAIkQAIkQAIkQAIkQAIkQAIkQAIkQAIkQAJxJUDFZFxxMjISIAESIAESIAESIAESIAESIAESIAESIAESIAEXAlRMulBiGBIgARIgARIgARIgARIgARIgARIgARIgARIggbgSoGIyrjgZGQmQAAmQAAmQAAmQAAmQAAmQAAmQAAmQAAmQgAsBKiZdKDEMCZAACZAACZAACZAACZAACZAACZAACZAACZBAXAlQMRlXnIyMBEiABEiABEiABEiABEiABEiABEiABEiABEjAhQAVky6UGIYESIAESIAESIAESIAESIAESIAESIAESIAESCCuBKiYjCtORkYCJEACJEACJEACJEACJEACJEACJEACJEACJOBCgIpJF0oMQwIkQAIkQAIkQAIkQAIkQAIkQAIkQAIkQAIkEFcCVEzGFScjIwESIAESIAESIAESIAESIAESIAESIAESIAEScCFAxaQLJYYhARIgARIgARIgARIgARIgARIgARIgARIgARKIKwEqJuOKk5GRAAmQAAmQAAmQAAmQAAmQAAmQAAmQAAmQAAm4EKBi0oUSw5AACZAACZAACZAACZAACZAACZAACZAACZAACcSVABWTccXJyEiABEiABEiABEiABEiABEiABEiABEiABEiABFwIUDHpQolhSIAESIAESIAESIAESIAESIAESIAESIAESIAE4kqAism44mRkJEACJEACJEACJEACJEACJEACJEACJEACJEACLgSomHShxDAkQAIkQAIkQAIkQAIkQAIkQAIkQAIkQAIkQAJxJUDFZFxxMjISIAESIAESIAESIAESIAESIAESIAESIAESIAEXAlRMulBiGBIgARIgARIgARIgARIgARIgARIgARIgARIggbgSoGIyrjgZGQmQAAmQAAmQAAmQAAmQAAmQAAmQAAmQAAmQgAsBKiZdKDEMCZAACZAACZAACZAACZAACZAACZAACZAACZBAXAlQMRlXnIyMBEiABEiABEiABEiABEiABEiABEiABEiABEjAhQAVky6UGIYESIAESIAESIAESIAESIAESIAESIAESIAESCCuBDKtYvK0U081TZvcY3LmzGny5Mljrq52lcGx1JDKlS80tW+qlRpRp3reUyXTjpGWKFHCXHD+eY6hkwbLlSuXufiiyuakkwonPZkJjvjrZZXLLjUVK56dLjn35yVdMsFEMzWBU04pru1svnz54nIfrs/DhRecn6J2JC6ZTUYkuL8B/Z42d9x2q0FbRokfgXjXxZTmzPs9ktK4eH3GIJCe78yzSpc2V17x34wBIpm5yIztdkZrV5KJPs0vS89nJc1vlgkmIZDcZ/3sCuXNfy6vkiS+9DqQmn39aPeUkrTx/DVt3Mig/coOkhXej9mhnJJ7jxlSMblg3qsGf5HkkW5dTYvm95vrrq1uzjj9dNOvTy/TsMFdkS5J9rn+EneP7g+nuHMJ5eZzzw5IlI/Uzvvt0ilevWKpGTzomUTp+ndeeP45DXdznZtUEYhrZs+c6g+WaL9s2TJ6zaTxY0LH0QFHWSxb8paZNX2KGT7sBbNq+RIza8YrBi8hF0GHfu6cGWb50oXmxaGDtS68vfhN81DXTi6XJytM+XLlzPODnzUVz66QrOuDLvKX7cABfc0Tjz0aFDSux4LuxZ+XuCYokeXNm1frwhvzIz+3De6qq+HAAoLwK5ctNpGUXRh8QPmjPkCGSF1G/fT/oc6hnkdTZKf0es1EBvvXoV0b06lDu1TN1Z133K7P9llnlY5LOq7PQ5+nnxIFX5+4pJlWkdx2681myHMDTdUrrzBdOncwpUqVTKuk0zWdoLYnpRkKqtvxrovePKL9iPX95/0e8caVHr9vvaWO5h/bICly0kl6/qmejwedzpbHguptar8zI4Fu1bK5se/ISOEy8rnM2G7Hu10JqlcZucxc8hZ0T6n9rNjvS/83H74d570606DfktkkiGNmuwebX5dnHX1ffzl1f+Rh88zxvoCNK15b+50fbYBnzKjh+j6sVKmiiVdfPzn3kJK0b659k2nx4AOp3gdIzn0FlXty4vFekxXej9774e/EBDKkYjJXrujZGj5itFm4eIl5d+17ie8oFfaGvviymTxlqjl69GiKYr/yiv/o6FBaWs9YllD2nX56icD8Y/ThkosvCp3744+95pstW9QC9dxzzgkd9//o2L6tHho3YZJuYSE579VZalX1++9/mPkL3jCTX5kmcW01JU47zYwdPcLUrnWjP5pE++3atNIO/cknn2w+/uRTM2bseLNy1Wplf/utt6iyM9EFcdqBsuWySy8x5517bpxiTL9o0vNeChcubOqL8jFIoGBs/sD9eipHjhy6XfDGW2r1jEGGcHLH7beq4nPVO2sSrpV4ICtWrg79ffrZenP4yBFzeZXLzMRxoyMOIuRI4fWaeAb7V+O66qbmDTUyWK6yb3bqihL32LFj5oZaN5s76jU03333fbaAkRptT1rX7eS8/9LyeyRaRYL1RCTJlTu3ns51vB2MFDa7nEuNeptd2PE+wxPIivUqPe/p199+C33zrXn3PbPth+2maNGipnu3h5IovcKXSsY4k54c04MALCNrXHdtmiU9cvRYTatNqxZh04SFYSWZxbZ79x7z1VebTbz6+mETjHAiJWm/tWixWfr2MmP74hGSSfNTaV3uaX6DTDDuBBK+UOMebepHuGXrVjPgmUEpSgiKEnQeo8nby5ZHC5Lm513zbjMGRRCs9dp16GwPhbaP9egW+m1/jBw1Vq0727drHXhNwYIFVZm5b98+s/q4wmioWBzC2mTe/NfNkKEv2ajM2HETzJ133GZat3xQlY2hE74fV/z3P2r1+ueff5q2kk9vZ75AgQKicBplNny+0XdVwm6sPAIjcTgYlE7QMYeoEgVxjcM1XKLIU7CTnPQeFOXj7DmvJUm12b1NTP78iacBT5g0Rcv8lptrm5deHpHkGhxock8j888//5hhL49MdP6p3omt6JBXWKldesnF5sEH7jOjxoxLFN6/k9zr/Uz8+/50sI/BiEgDGy5xBMUbyzHXNFzDuaadnPhcronGNCh/LvEGXYdjQdcGHUNYtINoxw4fPmx+k86UX8Jd5w+HfX9Y/37QNbEcixZftPOxpIWw8Y7PNf1Y0k3O+y/c90gs6breS2qGS838xjNu17hcw8WLaXLTc73ONZzr/cQzPte4XMO53EM843JJLyhMeuTBNU3XcEH3ldrHYs3b119/Y/zfbXCPNHrEMPNQl07mzbcWBWY5KJ2gY96LXb4vosXhjS85v13jj3c4l7y6pukSVyxhXNPdLHXl5593mDJlzjJnnnmG+fHHn5Ik065Naz0GAxpIpL6+a7oaUTL+hUvbpR7+/fffpk+/Z5KRamyXuDJwDYfUXcO6hovtjhg6IxLItIrJuxvWN/c3u9fce1/zsFzvb9bU3N2wgVn30UfmiZ69NRzM5/vK1EBYD6Ki7//rLzNr1hwDBUk4wZSastK4NWjU1NSvV9c8KNZdzzw7yLQV675TTzlFlSabN39tOnZ52Bw8eDAwmmlTJpoSJU7Tc28tmKfbLg91M/v3/6W/MVVh5PAXxQdhRZNblBgYGez2SA/z9TdbQvElJ++hi+UH/ICULVvGfPvtd7KXIHipB1lFfrjuI/Pb77+rbzdM/fr9jz/sJbpt1aK58pvz6lzdxzT6M8443axfvyGRUtJeNHfe6wZ/kaTXU08oS79SEtf8JeUE/n65t2lj07B+PXPiiSfqtb/88qt54aWXzarV72hQvJDGjRlppk6dbq655mpTvlxZVRL9+uuvpsvD3VX5iSlt1a+upuE7tG9j2rRuaWbNnqOjT5jOjrL9TCzyGjaob4oXL2aq10iw+oyWtj+v/n0od/v37a2MYeWCl8v/Pv7EPPbEUyElVqT0/fFhP9y9vL1shQZ3qWcu+QpK2x6D8vE+efYmep4pvFwbN2pog4S2uOf3P1hnql11pakj0xHeWpj4w/LCCy9Q5ps2fWV++eWX0HVBPzDI0K37Y+pG4HIZnY2mmPTHEXR9/75Pmwrly5q+A56VUfmu5nSxCn5uyAuaz1o33mDat21jChc+UaOCAmrAwOfMBx+u0/1ixYqpC4jKcg+Yqo57xfPx7OChZseOHRqma+eOptaNNVVhe0Qssrdv/1Gf+527dul5m/7sOXMN6hsUXgj3lnyAPzdkqIFl8fSpk0x+iR+y+K0F5uChg+b2O+vrfrQ2w7Zn7Tt2Nl3lwx7PB+pgj8d76vVB/xBnn15PmtPEChoCi+gOnbrqM2rDY5QUVgzFihXVduKvAwfMHFFWjx0/0QZJskX78ewz/UzJM880GEjZs+cXM3zk6CThHnm4q1plKwuxkv1BrCbwzMPCOkiqy3P/wH336nTq3GIthnLe9NVX5qFuPaT93R90SaidD+ISiWm08nAt7+TUN1uWLu8mKO8f7f6wvr/wHsQA04yZs80UaSetRMurDWe34doeO4ofa3sZjSXSdamL0Z5Tm3/vNtb3n/d7xD67kdKFW5KaN1xvmjZ7QK01bNpTJo2T95hJ9F0D/5WTJo41K1asMgMHDbZB476NVD54b8yfO9usk++Cnr3+HRDCDIjOnTqYwc8PNUuWLgvlCd9Yl8ksjXr1G2m7EInF1eIfHIOm9p0bikR+YOpfx/btZObFVDN12gzj8m7KTO9MvPef6d9HfWnjN57DRYuXehGEfkdiiEBwoXNOpUqquAFPfG+iHd2xY6dp36lLonqG8NGeb8sR762rql6p77AD0o4Pfv6FRGXt2m67pBntfYc4rOCZa3LP3aFvvz3yffDsoCHmhBNO0Po0Y9ZsM2HiZBtct2gv4F5oydtvm8HyHg8nJxYqlPA9fvbZBu8MDDL17tM/9G6310Uqk3DtIb7pH+/RXd9t819fYKPSPF8l30F339PUwGrbysxpUwy439e8pR6KVm4IFOkdhfMu38UI55dw95SW35f+POH7HDPn0I5g9teRo0f0mx8GEeeeU8nA4AEDhJi54NJ+RPu+iAfbcBztuzJaGdtnM6hf4ueD/MLABN+haGMgO3bu1D4x2EFsfPF81jVi+QeXIvhOhmBWGr5Rv9y0yXTu+q9BDPxwNxdjAvt9u0z6K/0GDNRr7L9oTGw473b8xEn6rGF2X/ceT3hPaT/wmmuqaZ/dPofevr4NHCld9C0LitHM3Y3vtcH1HmZOf0X7oN7Byrp33m5atXhQ3+HLV6wMhbc//GlHq4f2OmxR70ePfNmMGTfeoE8erTzxrKT2Oxf9k0jlHqnttPcWy/vRXsNt5icQfc50Br1HfKxDAYIP5iCB8vB+6Yz+sfcP83TfARoESo7xY0dKh/pU886ad9Wyb698ACAcGoFwcrr4sISSAYKPMKTbq+cTJt8J+QwamF2iRDhHXoBTJ08IF4VY+n1u9snHDeTzjRt1f/eePaHwaLzPrlDBfCKda1gFnlykiIHvC7ugT3LzbhPAiwCCDyKvPP7oI7prz3vPTZ8xSz9s27RJ+CDynrupVk1VkNiRJjtF+/GevbzBnH/j5Vkgf3798PNaSkaKAD4hYRl37Ng/OlIdXOD1AABAAElEQVS6ctU7pkiRk0yf3j3N9TWu00sLn1hY44X/DSiXoXTBvWL6B6b84kWIl/O2bT9o+J9+/lnL5qvjL2yUO3yUtG/XRjsNr82dr+Fc0o6Ud9Sh12ZPV6tTKN1efW2eQZpI65VJ40OXhks/FMD3I9K9IGi0euaaL1+yod2tW7/V3+gwQBlppU3rFvqsBtWzl14ersHua9bEBg9t27dtpb+HjRgVOhbpB6wSYV2JupQc8V9fsuSZqoCDNTA+apcsfdt88umnpqUo5vEs5cmbxyyUaRT4y5+/gBk0sL9+ICPtF54fpK4bNn7xpZbvtzKdt4pMNf/vfy7XrI2V5xvT1KEknzd/gVkrH9elS5VURSPqJQTpw0UCPiyhnMeo6qFDhwx8GOLj9tixo+ZzaS+Q76OicEM787HUcYhLm2Hbs5dfGqr+Vd//4ENj67hGEvAPClpYMC9fuUpHpOE7FspRK+gwwq/MyScXUWtqWDEc/vuwKlb97Y+9Bkoo1PvSpUqZjRu/0DygM9jziR6msAw6WMFHIqxr0YHHM/PJp5+pwhH1LZxcW/1qHYha8+5aM146qrgGLhvgvzachOMSjWmk8nAtbyh8k1PfbJ6jvZvwgTx0yCBR+Bc3YILyQRuKNvKqqlcoEpe8+tlFanuS015GYmnTjlYXXZ5TG5d/G8v7z/89Ei3dDRs+1zaqwV31QsniHYgORhlxKwIrDysNZOAN7dm6j/5nD8V9G6180GFFu1PtqqqJ0m7QoJ5+DzWon9i/d1VRZB2SQVq0WdFYrH3vfW1H68t9+qWZDMbky3eCDAShfc1670y0m3A/snv3Hn0H4Bvgrnp3JlkQIhpDcEO7Ubx4MW3XcufJbV4XVzpoz6GgnDF1srR554Twujzf+PZABxZ+3PFNBuVPHvneRof2husT3Ia4tttI2CXNaO87ewNQ5raVAWQoXvHuXbV6jSkq7xD4q1u/YYPWpyCf8/gOQT1avDhY+euNv1zZsmbZ8pWqhEU/41kZNIOPbCvRyiRce/jR/z7WOn2nvPu9ApcVUHJgANxKpUoV9d31w/btesiFYbR3FCJy+S62efBuw92TDZPa35c2Hf/2wIGDeugk+f6394YZWqinsJxDP8Wl/Yj2fREvtpE4upRxLP0CKKHhqgv9ykmTXzGLl7ytA5IjREFvJd7Puo0XWwyM4LsUgm86/Ub1DCLDEAd+uA8cPKDftwfknQGlFRYOtOLCxIb1bnGvGBTHN7ffjz0G4pD2InEJZ8Xb18exaOnuFAUvvrvwDWzlnrsb6vv6huN9UHscyle8y957/317KNHWm3a0epjoQtnB9zjqdxHRG0CilWdavHMjlXu0tlNvQv65vh9teG6zBoFMazEZCT+s+RpLRxWjQk3ufUAtlRC+f5/e+iHTum0HfVnZOPDRVqd2LbGwGptopNKeD9pCsWmtMHEeSq5yYm0EnxX4yPQLLKmeFiuja6tfYx559PGQRRw6IpC9e/fJiF6D0HFYe0Jhihc9rIxSmvc33lxoSktaWNwFH6hffLlJR+nLli0jae8V/xTLk1hOzpr9qmkpndWa8nIf+OxgtTRCXhMaWChlV4XyCwtUKAu8I70I6ypVj3eI310b3Gj747mx5vU6+oYp/c1btAnlDQqdWTJaBYXG2vfeC10G5U9dsd6wU/fxUQsFyi0311FLjJ07d4my+XHz6qvzzDzPKDYiwIj58y+8FLL4jDXtUCY8P3o/9aS8SPKr71KvFZn1lQNfLHZUzZ++J5okP9GZDroX13oWS76SJC4HoGyHdS0ssvBh+LIoFPFRX/fOO1Rh2H/AIAOrIK9gugUUmnh+8CEOXy8QvFxhAQLLufXrN3gvCfyNdJ58/FF9xsNZzwVeePxguOvR+UF8D4sFMwTPOKw/0Vm/+dY7Q88A3BcsenO+TCnqqAMfcAiPZ6vLQwnKf1yL+olnBJZAsFZGR7RFqwRfrTgPX7CYjv5w187myaf+/TDDNA3vVA8sBFT1iitM76f7ab6wWBRGF20eEZdLm4FwkEOH/pbn4261LEg4Ev4/FCTedDCNCgMzpUqW1I9AlDssPBo0ahJqDwYNfl58zA7XD8733v8gVLdtKnj2UM8xnd/rBgDlCcsyK5deerH+bNG6XcjaER+c9rm24bxbsPOfxwdnBfmYjDZNxs8Fi7KhPkR6h4CNvzxiKe/k1jd7z5HeTUeOHJVR7NZadxvec2/IChnlg2cWneZY8mrTxDZc2+PaXtrOpY0Tz0kQS3se20h1EZbDLs+pNz7v71jef97rXNoHvIse7d7NVBelOdpISJMmjULR3NvkntCAKsLAStq+D0KBovzA4CzecX7JI8+ZV1zLZ6X49IVSGxZIUHihvYTyBs8WOmbYT7C4uUI7fFDquLBAfV29eo2BYgaKMOxD8M7CoAwGs2CNDsVQVnpnQsmFGTd4t3ith66R2RuwOLXiyhDh0XbgXfqg552C5xoDEejs4ngsz/cRsUi/p+n9IQt/fD/CVzhc8+B95Npux5Im7iPc+w7n8G2ERcW+37bN3PdAy9D7F+9WDBCg3VixYqW+N1C3rSUv3o9ggW/Bz2XwK5IcPXrM3HlXw9AsAFjko01Hh3qWWP67lAks9IK+xZDuth9+MBh8sO8flDnef3iWkOfRx93QWEXoK2It7Mowlvd+tO9iP6NwbXxafV/684P9SvLNiLYD7DBIW0lmnUHAs9kDLUIuoVzaj2jfF/FkG1Q3XMvY3p+3X6I3HfAPrrauv7FO6DlBEMzYgWslDIrYAa94Pev+LCB+/GHhInzver8dbVhYYb++4E27a5YsXKB5w4FYmIQi8Px4/fU39D3Y/P5moXctTteTdxnqzMjRifsj9lKXdKdNn6mDdRiYsxaeUIYjXrQ3GMjD4C+ec/gU/f77bfJtnKBEt+kEbaPVw6Br/MeilWdavHODyt2l7cQ3gOv70X/f3M/8BDKtxWQ49Fg8BUpJKDsaywcVPpQhGNnFhwsa5HyiEKpc+cLQH0YPMJ3t2urVw0Wb5Lh3yhtOvvHWQg3jtyhIcmGYA3gQvT7oZopSEIKRrnjl/cWXEizTejzaTeOGEgzi9QepB47/Q+MKh7p4wXtHn20H6uURI0PB0QijE59cwdQZyO8yfdxFsNo4pEvXR/QlYK/BR+kYmcKBD3SvQgNKVNyPlanTZ+hPTC2IJojTOw091rSD4r+ocmXtbEIR4K2LdjGnW0RxZcWfvj2enG2keob4YslXuPTRqYDVYr26d2hntXPH9tpRhUWrnebov3bEqDF6qKNYplppJ5a6KMdXpk23hxJtX37xeWP/5syaZpYuesNg2i7cIOCDLZrYa7GNdj2m11vBhwfyhXbj/PPPC5UflHPoLMEaF8oyDFBgMaDJE8fpAAPaGJQlpM5NtXQLqxZv+f99+LBOLUEHygqUEl6lJI5/JopajJBCGRAksbYZmDJ9WNJ2EXyMeWXu/AW6W61aVQNLatwnnkF7rziJZ6/rQwnW2hgE8gsU0HCr4VVKIkx/8SOMumQFHQ/IzGmTtZOIkWK4z7DtvA3n3aKs9KNUyhkKSVhUw3od+Yy2YqOXS6xMvXmIpbxxXXLqm00v0rsJ5YP2HFPGvK4RUD5oiyCx5tWmG24bj/YyXNyR6qLrcxou7ljef944XNLFc/uFKEewKBwssSEYaPhOOi74g8UhBN8sUF65DMzoBZ5/sL5CW+T/KyyuWbziWj72nQnlJATtO56toS8M0y2UVRCsbAyBMsWFBdpK+y3xwP3/Tolr1bK5xvOyLHQIieXdlBnemdVlkBri95kHRYL3PenKUCNDfE/3tT91C8Un6hQG/iCxPN/bxS+bdTuCa2F9BqsnWPVCXNvtWNKM9r6DQgHS9eHuib6ZUebIH+SlYSP0vQF3T1bQL0DbZ7+t7fGgLdwKwNrXCgbdsVAfnlsoFGMtExuP3cJKHe8ftMcQuCPCfeM7E887Ou8QWHrhvYjBWheGsb6jUvJdrBn0/Uvt78sLxB2V/W7Du/ztxW+aMTKFFeX6vLRD3m98DJ58J5a+Vlzaj0jfF2nB1qWM7f3E0sZdX+NaM3jQMzqogK21HvR+i8XrWbf5c92izLxKSVyHNgvPGtyIxcIkKE0YfiCN22TxVCvop+PbHLNnvM+5PY+tS7oY4IBFJgbrIBgYwbOL5xjPM2Y7QKDkxLtywZtv6X60f5HqYbRr7flo5Zle71zXttP1/Wjvl9usQyDx0Hkmvy8oovAhDxk5ekyijjb8K0IwAj/shSH62/+vvPiSc5W/jvuGtOFhtgzBCzI54vdNicYSjWlOGWmJV94x5aX5A83UEgFWpTDxhwIXlhiYPhQk6JjfJH6kYHmB0VJYW+LDCVMRvJahP/ywXUeEguJwOQbFC9LACJ71DxnpujPFfB7KCL/vS1wDiyz4FIH12ddfb9Fo8PLwCl7qUHjg4zCaeDsJCOua9mefbQgbNUz68aIKN530tOP+SBGBP/2wkTqciFTPcHks+QqXHBQey5av0I/37t266lQwjN5F8o8Gv4zq01SeUzzDf/65X62LUcbhphafe965oSz8I88KLCvxYQyrO6+SPxTI98P1eijsvIovWDpCYP2MvyA5++wKpmWbdjIdpY85X/LZ7aEupov4YkNHoG//Z7QdwnU4HiTedgT35he7oEquXMH117XNOCoWdJAvvvjSn0TYfXSUvILpLBDkGRY1EDyDfsGzCo7wY+kX1Lvvt/3gP6zleEAUj1aefe55aRf/0Q4dpm/DIg4WVfAfhGfaL/gAnz1jqtYp1EEorUvJdHn7YQ7ftJHEy8WVaVB8eO9AXMo7ufXNphvp3WSnc6LTFk5iyWu4OLzHXdtLf+fEG0e435HqolXERHtON2xImGYWlIbr+897rWv7AMsrDEpA0fep+DDGQMMCsRqR14K6DrlABj3g+gEyU/xgxyqw8oIyxS+wRIf1l5VYygfv/IskzxC4VAB/zDBoLVNksY98wpcZ3lloo1xZoAxgTYMVUpE/DFBeIW5NYNFllbKxvJsywzvz1FNP0c5rULv1008/h9z4uDJEmeCbJmiRh+0yFRjKRMxsieX59r73ED8E31JWme7abseSZrT3Hb5b0ZZ7vz8Tcvbvf7xroDRAm122bIJfdbhNgbIAltDRBDOK/GLd0Fwn7/zSxxWz0doWfxx2H980WC0YM3YWLlpizpXvatTzaTNmqsK/caO7xTLzVVWeWItPF4au7yh8v0NS8l1s78W7Te3vS7i08H63wb0ElO5DxOLOX2Zbv/3OmzWnb9uHxUd5uO+LtGDrUsb2plzbOLjpgAEG2gZ8I58hbYA1yIAFupV4Pes2PtftMc/As73m119/059wlRQLE3u9d4v7wvco/OTC5dhCmboNy2cI3pHhxDVdxH29WHGjbW10dwONDoNy+P64UN6F6GNCAYz+PFw2uUis37lBcUYrT7Sf6fHOdX2fub4fg+6dxzI3geRp0TLoPUOhAV8sWKDiyScekw7r5tBoL0ZGIPhoC6cg8Y6uZaRbjGfe+8siHpjWg9FjCJQkkQQfzRi9QQOLBS2wqAlk2PCRiS7DYgFly5aR6UIdwlpgJrrAt4ORbnxsogGH9dz+/ft9IRLvYpEQdOowquZvgO1iPjCbTw2JR9qwOsBHAUb9gwSL+KSHxCtfeLFeK76prNUqLOGgbLcKoaB7w+Ib+FjHH55TKLr80+q919W44V+rUu9x19/JvR4dCHyI4ANnofg+CxIotKAcbdu+k/p/gUUEprNjmhYUT7CsxMjq0+L/do/H16yNKyXWx4jDtc3AdB4IPpriIfCnCatVPIP+DjKeVfwF1W24soBf3SDJK9bY8FEJQT6ffW6ILvyDRYPubnCX+oscNXxYIgfkNh4seoP3wpix4xMt7AIfRuH8XdprbXp235WpDe/dpqS8XetbDXneooktHygov/V13Oy1KcmrjcO7jUd76Y3P9bcrt0jxub7/vHG4pov2Ae88tJEYvEDHEe0dBqzatW1t7hHlROnSJbW9CFL0e9NMye9YygcDTnYAEYtUYR+C/KH+WV9eULpCXFkg7AgZBMW3ScsWD5gt32xRK/vp8k6wEq93k40vXtvk5gvPHyxsMNsE7wSvFC9eLLQbC0PUHbR3fmXnqZIOZNeu3XF997i22/FsUxLqa1FV5EeaFvnisOFqTYdB6vFiIQ4flCtXrXYatMS0S/8zB//HkB9/+kkHxF2+AfAuDBJ8s6L8K1WqqAP/+NbBohVQFuDvOpmabAfN7YwRF4bbf/xRk4vWz4E/u/SQ5D4rNq/oZ2CBQxfxf9O4pB3p+wLuYyCpydaljF3u3YaBiw0oITHwg8VZvQP2mFodi7g+67HE6RI2HkxgrADFJPqv68XfJQZpoCuI1Od3TXeaKCHRFsBf9HUy63LX7t06GwU+0DHjsVbNG2TA/mxdJNLfzoe7/0j10LvQTrjrXY+nxzvX9X3m+n50vVeGyzwEgs1tMk/+E+UUjUzTZs1F2TZQP2ph4m8X4Ni3b5/6e4OjWljmwELB/m2SaRJbtn4baH2XKIE47dgPDtfo4pl3mMh/s2WLJo0RYDhEjiYvSqMOgcUXOlCwiAM7r2BqID6GMS3MTg3znoclFXznQTERTkaKQhIfaOPEhxE+rv0Cv3vwuQlZeXzVbSz04BWwtQum2JUCveej/c6RU8xVokg80v5y01d6rxj9t/XQbvHha52dR8lKxNMu9+KPIF75wsj5zOOdSvyG5VE0gSWD7ajDZws66qPC+H+JFldqnrcWDJh6acvMblF2+I0PQEz5gkAhO0FWKG/S7H7dh8UROkgQKCrttXaLOKx1hgZy/IdOqZV4thk2TpftIrH+gGCxHn87B39kkBXH7113jv+DQ3Q883ZhIHsOH5JoE6zAlxXixYcbLMDhQwp+PLHAQ5DAOhKy+p0Ev3U2jJ2OavddtilhmpLydq1vLvcAZ/CQ1i1bhN6N9jprIZCSvNq4vG1PPNpLb922aUTbxouby/vPm5dY0sUzf1bpUjroh9Xt0XGxSov//qeK+m3Fgm2pKbGUj50630d8IKJMrNuA6eLeAfu9xY82xFp4xsIC3yawkNROngw44F3gde0Qr3dTJJbeehspnPdccvNl3XPAJ7FXoEyAv14rsTDENX6rbFjyIE60k3gvxeP5tnlzbbfjmeYymeED6ft0L93af/jWx2CfFUx/xowgKAfwPoIMHznGno64xYCXV/DOgcUlvkk+/PCjkN/KaN8ANo6gejVf3Lhg8Y2OHdrqcw9fdBAo+zFIh4E3fFNb5YkLw5S8o2xeXbdB9xTt2uQ+K9HidTnvknak74vUYuvl6FLGLvdqw1QoX15/YlDVq5TEGgaxiuuzHine5LzH48EEFuhbpY+PtrDf8XZj3PhJkbLq3E5+LYNoqBt1at+k37BYIBMClxx4h3XqJK6s5Bt27rz5EdPznoxUD73hUvo7rd653nJ3fZ+5vh9TyoDXZzwC//b4MljeChYqqKvOBmXL+kr0n4OPLHRYMTX54osq64cEpsq269BZg8I6CavmTp86yUyZMs38LP4mEQ7+H+Bz7I66CWbY/njjtY+pBZj60aP7w/KRuM+MFiseV4ln3hEXFuvp3ae/U/L4wMNCQlCiQab6fMzhGJRPD7Ropas/4kO7/l136gfcXmmw8WEIzpDrrr1GV4XTHd8/WFmUKVNGp4TNnTNTHOyv0xXcMLqFaV34WNuxs4pOT8Po8o1iaVLtqivVb9zc+a/rioaNGzfScG8tXKSWAdZ60pdUkl2rCILfLKxs9pE4aw6ntHVN2zoET5KYHOgnlquoh+hEwFk3Op/lypYRpe4tmn7DRk0Dp3DD1+c9Mn0Vi57gpRIkQfeC+uYiyc1XUNzwMwgrwbGy9X4UBYXFMYRZKlP6Md3ipJPyKJNolrPh4krN48gT3Bpg2sbUKRMMLD3hLB8rGsN3DfyEYgrlwAF99bnBb3wYWaX6V5s3q08d+LyBbxq0SYsWL1WLDljyYarDM7LYFOqwq2BaD1aahjVT4cInivP88WqNmdbtHabQTZ4yVVfgnv/abPUPum+ftK1Sr+GDEx3FqTLC7JdJcg2ecTDDNDdMw7u6WlVxan9tKCj8SU4YN0o7cW+8uVDCbJS25WKd7gYrkyBZvXqNjpRjhfQZMs0UH4o3SYfPTicJuibSseS2w5imnNzydqlvXp+UkfKP6bVYmRyWpPNfm6V+ANH5xQqxKJ9e0q6kJK9BbY9rexku30F1O1xY7/F4cXN5/yU3XSjw4HIEHZf5Yi1pBT6rYekFscpA/IbyBavX//Tzz+ahbo/iUIollvLB841vAfjGhKILVg0Q63uwUKFCalGEjhok1jLAvbYXP8NwFwMlOr7nrCT33dS/b29ToXw5c1/zVmH9iQXV29R+Z65Yudp0aNdWO7T45sAChOUln2jDoQCznblYGWIBIUzfhB/DkiXPNE3lmwhxwQcfJCXPty0Lu3Vpt+OdJvy33ShWSHD7M37sSLE0nGcKFSxg8O0H1xz1GzYO+c8dN2GiriKO70Ao+Lz+Mu09BG3hT3DWjFfkXTVTT2N1ePikg5IEzwAk2jcA2uSgemW/K1EOnTq00xV8YQloBVbCqANw7QAf71Zcyy257yibTrRt0D2l9rMSLU8u56O1H/c1b2nGjxkZ8fsinmyDOLqWscv9IswqUY5hTQF8q8IyG88AFhrFYkuxiuuzHi5e9BHhnqR+vbrm0N+HkviVDHddvJiMHD1WF1DDFGtYz0JPEEliSXeNfPOj3wKxg3L4DV/wsFjFdye+8V0kOd+5LvGGC5Ma71xvWkHl7tJ2ur4fYfQ0eNBAdX0x5ZVp3qT5O5MSyLCKSYwkYuQ8SGA6jQ83K/bj9dg//37EDhn6ojlPrPvgFwSjQ7BYwssfK2ljMY5WLZvby3WUvmfvvqH9JD88aSU5d/wAGh5IJAUMRkzqiaIGzl+Rf3SmV65OsJzy5v14lIk2yc27l5ONEC+nljItAcoSV5kwcYoqVGHNgY5MkOB+GohC7YnHuuvqh3bqC/KAziVWGUYnL5JgmiZe2JjOC6Uj/iBIFx/aWD3WShuZJgvFCxp+u5APfAihrCdI59tFLB8oTNbLSwTTw1Ff4CfLu5qyPy6XtIPq5THJHwQKgmb3PagvyttuvVmV6DiORhyrtIbzH6OLIUknBk6Vwykmg+7luSFDEb2JVs+Smy+N3PcP99+hU5eQQ3rf6cDdEbLQARRH6EhhKlaQ2DILOudyLKXXIw24Gzgsz3xdWfDBWqggXnTQsfAOfOTgwwauCVo0T7CURN3ElBos6AJp1aa9eaZ/H31WrKUgmGFEcfGSyB8xUIRCbNM0ctRYtUjGavNoi5YtW5n89k5jTvrP1t0gH2De0HA2Dt+46Fy1k8XIIGCDqXFof71i40S7cP8DLc2Il19Qf7fweYv7gNIXytpcuXKrUgGDUpjqWf+uuvqHeDG17/GevbzRhn5jun2VKpdqmws2EPjFgw8g+KiMVVzbYfip8ktKyjtaffOn5d33v5smSvuI56uprPxsmdjygY9WSHLzGtT2oB11aS+9efb+Dqrbtt5Eq4sp4ebNQ7T3H/h5xTVd+NbFuw2KSbzfrMyXlUSxejp8qMGq0go6LZj1UbToyfZQXLaxlM8SURjeK4qad9asTZT22vc+UAtw/4CKKwtENkemv7Vq+aDy8FvZJ/fddOEFF6glC6bVwso6SILqbWq/M2EdW69BIzNy+Iu6yjRWmkY9+lxmsUD5BQWjFVeGeMc8L9+++Ma1fuRwDO9SO+0ecSb3+ca1eEfZ586l3cY1kJSk6X/fte/YxfTr00sXL3v0kYc0ftwnBsW8i3rhXdq1i7hTEbc5mNUTTWy7AgVUl07tjbVmRbnAUrOPHLfiUiZB9cp+V6KvAGsr+FX1Dj6gnuP7D9P87YJTNk0Xhq7vKBtn0NbfnnnDBN1Taj8r3vST+zta+4F+UbTvi3iyDeKIuuFSxq4MMFsHg9wPP9Q55P8Qzwl8K6KNiCbJfdaD4p0mg/kYEO3Qvo0OauH7WOuZ790ZdG08mMCvNgZhMTMnnN/60Af18Uy4pjtNBjCgmESfGmlYwSwwtMOYlRlJN6Dhj3NAmUWrhzZ+u43WrwuF87Td9lhqvHNt3NgGlbtL2+n6fixVqpSWKYw8qJj0ks+8v3OULFP+H6Pf1DnkLhJ/XOtt6eEw5zLvfavfN/jZWi+KAnQM0kpg8QBlKT5IMBKeHEHnJD3yHmtey5crZwrISPZGsX7CCy5WgYN13OfXouyxo9RBcWB6OKx9YMGBj4uUCKY8wSG43z9euDjjkTamCcGidOvW6O4E0CmdMXWyk/I11nvx32Ms+fJfm532MQW2eLGi6nw9qJ6jHFCXvQoGP59K4msKi5akZAo/2oVzJB6M0vo/gtKjzUD9gaUSnhE4pg9i4+eAfVgaF5R2w+/M3hsWnTZMlccUJZf2G3nBip4///xzxEUTvGlE+50Spikp72j1LVq+vedd2ujk5DVc24O6kJy2OlLd9t5PpN/x5BYpHf+5eKeLev/7b79HfCf68+C6n9zycY0/XixieTdhgAQK+MZN74/avoart673F0u+vHHCQg+LgvmnXHrD2N/hGI4VFziwBrK+k1FP8ojCG9+akSQ5z3dQfC7ttr0uXmnie/p8scIK9+2H80sWLtBBxJvq3GaTd96iXM4SVwuwcvS/U72RhCsTGyal9crG4926MEzJO8qbVtDvlN5Tcp+VoLzEeixa2i7fF/FiG4mjSxm73nvZsmXUdUC09sAlvliedW98cLVwSvHiEb/tvOGDfseTSVD84Y6lR7ou9TBcfuN9PNozEym9SOUere1EvNHej9CpoL8QqY2OlD+ey1gEsq1iMmMVA3NDAm4E+opvr4sqi5uCeg3YCLshYygSIAESIIFsSmDeqzPVh3i8pr5nVIx+xWRGzWda5AuzkjBt9PLLL1N/nQNklgKs5ykkQAIkQAIkQAIZl0CGncqdcZExZySQfgQGDHxOzdY5MpR+ZcCUSYAESIAEMgeBzjI90nUGROa4o+Bcwm/a4TSc/ROci4xxFH7j1bebTFvF9H0qJTNGuTAXJEACJEACJBCJAC0mI9HhORIgARIgARIgARIgARIggUxDIK+4jXBx85FpbogZJQESIAESIIEsTiBnFr8/3h4JkAAJkAAJkAAJkAAJkEA2IUClZDYpaN4mCZAACZBAliFAxWSWKUreCAmQAAmQAAmQAAmQAAmQAAmQAAmQAAmQAAlkHgJUTGaesmJOSYAESIAESIAESIAESIAESIAESIAESIAESCDLEKBiMssUJW+EBEiABEiABEiABEiABEiABEiABEiABEiABDIPASomM09ZMackQAIkQAIkQAIkQAIkQAIkQAIkQAIkQAIkkGUIUDGZZYqSN0ICJEACJEACJEACJEACJEACJEACJEACJEACmYcAFZOZp6yYUxIgARIgARIgARIgARIgARIgARIgARIgARLIMgSomMwyRckbIQESIAESIAESIAESIAESIAESIAESIAESIIHMQ4CKycxTVswpCZAACZAACZAACZAACZAACZAACZAACZAACWQZAlRMZpmi5I2QAAmQAAmQAAmQAAmQAAmQAAmQAAmQAAmQQOYhQMVk5ikr5pQESIAESIAESIAESIAESIAESIAESIAESIAEsgwBKiazTFHyRkiABEiABEiABEiABEiABEiABEiABEiABEgg8xCgYjLzlBVzSgIkQAIkQAIkQAIkQAIkQAIkQAIkQAIkQAJZhgAVk1mmKHkjJEACJEACJEACJEACJEACJEACJEACJEACJJB5CFAxmXnKijklARIgARIgARIgARIgARIgARIgARIgARIggSxDgIrJLFOUvBESIAESIAESIAESIAESIAESIAESIAESIAESyDwEqJjMPGXFnJIACZAACZAACZAACZAACZAACZAACZAACZBAliFAxWSWKUreCAmQAAmQAAmQAAmQAAmQAAmQAAmQAAmQAAlkHgJUTGaesmJOSYAESIAESIAESIAESIAESIAESIAESIAESCDLEKBiMssUJW+EBEiABEiABEiABEiABEiABEiABEiABEiABDIPASomM09ZMackQAIkQAIkQAIkQAIkQAIkQAIkQAIkQAIkkGUIUDGZZYqSN0ICJEACJEACJEACJEACJEACJEACJEACJEACmYcAFZOZp6yYUxIgARIgARIgARIgARIgARIgARIgARIgARLIMgSomMwyRckbIQESIAESIAESIAESIAESIAESIAESIAESIIHMQ4CKycxTVswpCZAACZAACZAACZAACZAACZAACZAACZAACWQZAlRMZpmi5I2QAAmQAAmQAAmQAAmQAAmQAAmQAAmQAAmQQOYhQMVk5ikr5pQESIAESIAESIAESIAESIAESIAESIAESIAEsgwBKiazTFHyRkiABEiABEiABEiABEiABEiABEiABEiABEgg8xCgYjLzlBVzSgIkQAIkQAIkQAIkQAIkQAIkQAIkQAIkQAJZhgAVk1mmKHkjJEACJEACJEACJEACJEACJEACJEACJEACJJB5CFAxmXnKijklARIgARIgARIgARIgARIgARIgARIgARIggSxDgIrJLFOUvBESIAESIAESIAESIAESIAESIAESIAESIAESyDwEqJjMPGXFnJIACZAACZAACZAACZAACZAACZAACZAACZBAliFAxWSWKUreCAmQAAmQAAmQAAmQAAmQAAmQAAmQAAmQAAlkHgJUTGaesmJOSYAESIAESIAESIAESIAESIAESIAESIAESCDLEMhVuEjRXgl3kyP4pvRwmHPBV2T7owULFjQXXnC++eXXX83Ro0fjxqPKZZeaQicWMr/88mvc4owUUa5cucxFlS80Bw4eMIcOHYoUNEOey5Mnj7mq6pXm0MFDZv/+/SY1+fnTSimQU04pbi679BKza9duc+TIkbDRoa5d8d//aJ04fPhw2HAZ7cSZZ55hunbuYCpVqmi+2bIlU9avjMbUm5/UrOvedOzvzN5W2PvICNub69xk8uXLJ8/+royQHeYhTgRc2/Q4JcdoSIAESIAESIAESIAESCDTEMiQFpNvzH/VLJj3aoohIp5Vy5cYdAjCyRlnnK5hbHpDBj1jVq9Yaq684r/hLtHjY0YN13BQrFhp2riRWfTW62bhG/PM0CGDzNuL3zRvLZhrate60QZx2pYvV848P/hZU/HsConCDxzQ1zzx2KOJjqXGDpQac+fMMMuXLjQvDh2sZYF7eahrp9RILhTnc88OMOiUx0vOOP10069PL9OwwV0aZWry86eV0nu4847bNe9nnVU6YlRXVb1Cw1W/5uqI4TLSySInnWSmvzLJ1LjuWtPknrtN7ZtqZaTspWpeOrRrYzp1aBe3NLJrWxE3gAERoT6iLYqH4B20ctliVTSGiy9nzpz6rkB7W6BAAdO920OmT68nwwVP1ePh6lOqJppNIndt07MJDt4mCZAACZAACZAACZAACYQIZEjFJDpq8RDEkyNHDvN4j+5ho8M5hLEycvRY/dmmVQt7KMkWis5KFc82u3fvMV99tdkgnZHDXzQtHnzAIKYVK1ebMWPHm48/+VQ7mj0e7RYxD/4EoIyCtdx5557rP5Xq++3atDJDnhtoTj75ZM0/7mPlqtVq+Xn7rbeYWdOnpFoe/nN5FVVWpVoCjDhDELinUUPNR7fuj5nb6zYwM2bOzhD5SotM1Liuuql5Q424JZVd24q4AQyI6Mor/mPQFsEKNKWy4I239P3Qovn9YaO64/ZbTd68ec2qd9aYv/76y7wybbp5cdiIsOFT80R61qfUvC/GTQIkQAIkQAIkQAIkQAIkkHEJ5M64WYtfzi695GJTqmRJ88P27YkihXUIplx7ZfPX35iff95hypQ5y2C66Y8//uQ9rb/btWmt28mvTNNtt4e6qBLx62+2mHYdOpuDBw/q8SlTp5uKosB8SawO33v/Az2W1v+gND127JhTspgSDOvCP//807SV+/juu+9D18GSZ+K4UWbD5xtDx7w/YknHe12sv4PSCToWj3iD4ohHWt54ofyIdbq/ax5SM27vPeB3UJ6CjiFsiRKnYWP+9/EnYe893LV6oedfULigY55LYvrpEpdLmFgSjXd8rmnHkm5Gaitc8h0UJuhYvFlNmDRF29Rbbq5tXno5WNnY5J5G5p9//jHDXh6pyY8eMz5sNlKS57CRpvOJlNxTtGtjbQNjDR8JXbS8RbqW50iABEiABEiABEiABEggOxHI8IpJKAfHjRlppoqS7xqZrlq+XFm1ZPlV/Dd2ebh7IuVZpIJ7/LFHTOu2HRMFeazHI4n27c74iZPUwrFj+7ame48n7GHdouNyzTXVVPk4//UF5qzSpU2d2rXMfrF0adm6XRJFy+bNX5tadW5LFEeknad6Pm6qX11Ng3Ro38a0ad3SzJo9x4ybMCl0WY/uD5trq19j8ufPr/lAhxeWOVbgd7B/397mgvPPM/B9+Pfff6sS6LEnnkqSP3sNtr2eekI7yH6lJM7BkqdBo6b4mUjubdrYNKxfz5x44ol6LfxfvvDSy2bV6nc0nEv53XpLHdO+bRsND0vRxW8tMF9u2mQ6d+1mZs+casDws8/WSwe/vilevJipXiNhany0tBNlNGDHhVOk9AOiVMsnWM9WrFjR5Ja68utvv5luj/QwUFpbQZk89eRj5vIql2kZQnG8Zeu3pk+/ARHrc8sWzU29O++Qa/JpmUJJvPTt5TZa3UIJ31bqTDl5TnLnzq1K5reXLTfDho/SaxIFlh0w6NihrblG6lxBUT5D9u3bJxa/E8w8qd/hJBKXrp07mlo31tR8HhEfq9u3/6gMdorPvGlTJoYUk28tmKfRd3mom/niy03ybJczfZ9+ypx+eglVdOKZmjVrjoFyB1K/Xl3zoFiete/Y2XTt0knbAig3ezzeU+8jUp13qYeaiPyDRXS/p3uZChXKK0MMNHzw4TrzdN8BxvrxjJZXG5fdwgJ5+tRJJr/4DoSgjh88dNDcfmd93YeFHqbwFitWVO/9rwMHzJw5r5mx4yfq+aB/2bGtsBwildGpp56i74yx4yaYc8+ppD5YUW531GsYtZ5Eqp8u7YXNn92i7X3/g3Wm2lVXynviJvPWwkX2lG4vvPACbdM2bfpK/MT+osfmzJqmlviPP9lL9yOli/fR/Lmzzbp1H5mevfpoePyD+5DOnTqYwc8PNUuWLgsdx/N1mbjqqFe/kbbpoRPyI1x9wmAdXIjMmDXbTJg42XuJPrPDh71glrz9tpk6baaZNH6MmfzKVFO2TBlTrVpVU0DeUWAwQ55jlIdXat14g7b7hQufqId/k7ZywMDn9FnzhvP+dmmvihUrZvCOrCxs4asT6a9fv8E8O3io2bFjhze60O+76t1p7qp7p7Y9OIj3GCxXX5s7X9qajmLlfL2pffPtofD4AbcjHdu3Mx06dTFgBEH7+6ikfeopp+hzjLYUFuEYpLSCtgNT9U87LWGA5pstWyWOrqHygO/dChUqmLbtU9d1is0PtyRAAiRAAiRAAiRAAiSQ3gTiM2c6Fe+i8ImFtXODadJlxYoRiggorYoWLSoWfKPNSScVjpj63r17VXmHadFen41Q2p0tigcoAKAA8criJW/r8f/+5/IkvsGgDIPCadHiJXoJOieYCj5MlIOxWr5507S/oYTbtu0H3f3p55/FQvFz85Ucs3JW6VKq9PlBlD1r3l2rihNYbEK5B4HS6rXZ080lF19k0Nl99bV5ej18Zr4yKbwlDjpL6ERCAeO1lLTpBm3hB/PBB+4Ti8x/zJtvLZIp3++YIkVOMn169zTX17hOL3Epvx07dup94gJYa+KeMQ0egk4m8t5efPOhk4eOIsQlbQ0Y5p8rp3Dph4lWy+Fs6VR+IvmH4vDkIkUM/JGeduqpegmUkq/NnqGKwJ2ysA3u55NPPzMVypcz40aPCHWM/fH3fKKH+mP8x/yjyo13pOyxMNHDHr+fUFI8Jz5SoZRc/c675o03F2rdvv22W1X54Y8T+7DqQad7185dZqYoD2aLMix37jzaGcfzEU7CcRkr94qpqRg4mDd/gVm79j1TulRJVcrhWUXZ7pMyhny+caPu796zx0BBM37sSOmsn2reWfOuXPu62fvHXnP/ffeaRx7uquHhDxbl9vJLQ/VZfv+DD5WfS1m61EMkAkvpmdOmmHNEofX5xi80ftRP+PB8SBQUEJe8akDPv2PHjprPpT6gjTgqimit49KWQe5uWF99Gp58chEptzX6LB3++7BBWxPJDUV2bCvAK1oZ2bJu3fJBc8P1NVRpBOt2l3oSrn66XIu8BclLLw/Xw/c1a5LkdPu2rfTYsBGjQufwbrNKq2jpQumGhcmqXVU1dD1+NGhQT++3Qf0E/7r2ZFVdDOxgSAlmj2Mbrj6tfe99kydvnpCvXu81bVq30HQWL15qTpDp6Mjv/c2aqrsCtIEY3EC7fW+Te8wz/f9VnGKQBXUb8S5ctFj/8ucvYAYN7G+urnaVN4lEv13aqxeeH6RT8Td+8aW+/74Vy/8qMgiE93mQQJmIQciT5N2FAb7lK1aqArv5/c00eAlRINpBG+/1RWWwAfdbqFAhPVz3ztvVt3Tx4sX13Yx3It6N+HaBL2Ar3bt1VRcvy1eu0tkZaGcxaGGlZs0bdFAxkm9sG5ZbEiABEiABEiABEiABEsgKBDK8xaSFDEVHXbHysNOSYRWGDv0tN9cRS40ZNliSrcyQU+svWB8+9ugj5r7mLTUMrBogw6VDiA6sX15//Q2NH52Tlz2dxnrS+UAeRo4ep5dASQGBX8l4yPQZs8xOURL1EsvJV1+dl8RqDVP+mjZrHpqWjinqU6dMMLeJ/0d0qno/9aR0lvKbyVOmJrK2gjUWlKhYcAQdL79UPd5xenft+/5Tgfs31rxe/WBu2brVNG/RJlQuUD7Nmv6KgSJt7Xvvha6NVn7rPvqfLiYEJezDYmHoFVj+Pf/CS2buvNf1cKxpe+Oyv2Ph5E/fxhG03bt3n1hmNQgpqdFJh3INimNYv8FSEoxgRTN85OhQFOgcY8Gkl18cKvX87tBx/IBCDopeKNnxDEAZAYFyEJaLVmAdBqX5h2I91evpvvawpveHKPmCBEqDmrVuDuUXYaBQRJ2qV/cO88yzg4Mu02N+LqhfcF2AMmzRqm3oOiymBL+lD3ftbJ586mnztFgLweL3kUcfD6U7fswoVfC3btshZH2ECGZMnawWyaPGjA3Fd+jQ38ro8OHDeuzZZ/pFrfNwzwCJVg8HP/uMKvuRNyg+rcC6FXUU0r9P76h59fPGPuo1FpWCctrWcZQh2p8DMkDSoFETY68bNPh5M3b0cBmEuEHdQAQ9s9m1rYhWRueec46WE+pnswdahAZaXOoJLPaC6qfLtUFlhIyg7m0Vi2gMGGCxNPglhqDsz6lUyezZ84ta9OlB3z+XdmqlvHugFMP0etRZ+KssV7astslQemEfbQaUY2gfli1f6UslYTdSfVoh7wwMYKDttRaYqMdot/BMQYmP2QMQpNeqTQcdQMT+kOdfNJMnjjNVr7xC3aMgL43Fzyy2N996Z6gNGDL0JbPozfk6AIDBiSBxaa+wEBnayi4PPRKKAm2ufbZCB4//QFsEGSHt8esL3jx+1OgsgNBOlB+wiG7ftrXeU8N77g1Zv+I5BqOP/vexOf/8BLcxaEfs849oR48YpgMh1t1Mm3YdDRYI2717T5RUeZoESIAESIAESIAESIAEsgaBDG8xaTEvX7EqpPzCsanTE5SRmPobTWa/+pr57ffftWNYWazMoGQoXaqUdh68HRFvPFAiQQEJhZ8VWKUULlxYLdwwtRmSP18+ncJs/UrasKm1RSfX6ysTv9Hhwv1ALqpc2WD6LDpCuFf7965YrkFuEeVRkJx43Orjd+HkIrDCg3Tp+kiickFexsiUPViRoiNrJSXlhzitUhLxxZq2zYN3Gwsnf/reePy/0aH2Ws7OnP2qBoEFK+TyKlXUKtSrlMRxWIjCGrh48WJqTYNjVq67trrynCTKZquUxDlM/VzuUTJ8KRayqLOo3y88/5x2iBEO+Y8kmLKMKZ5jxWITq7DDHx7qEKyMIomfS53jq2u/vuCNUL1D/ftbFIh4PtBBDxJ06qE4wDTLfKJUt3UWW1hrwUrq2urVQ5eCnVVK4mAsZRmpHiIfsFLasOHzREpJpGGVkrHmFddGkptq1dT7wzPjLSeUY9eHuuulcBWRHMmKbYVLGVlWUNJ5rb9jqSc2DrtNybWIY8SoMRpVR7H8ttKuTUt9rjFlOJy4pGvfhVBOQjCggPZ36AvDdHvnHQmuRLAqNOSVCAN5GiDg30vDRuh77v5m94bONr7nblXi2zbOnoDlJWY1eGXAM4N095Y6tdWKFfnDs32+zFywzzuslL/ftk1nQ2AKdjiJ1l5BoYf3NJShGBBC++F9tvzxWiVo547tdUANA0EQKEFdBc8xFOFwuWKn5ONaPMd4F3tl2vSZ3l0zVwaCINWqJVi9os5+Kq5LKCRAAiRAAiRAAiRAAiSQXQhkGotJTLn2CjoasB5Ep8NFnhs81PTr08v0eORhkyt3Lr0kkjUYFEBYsOaqqleqv66FMnUb088g8KFo5aOPP05QeIrlZFp0Jg4fOWKTDm0x/blo0ZN1P1++E7QzCgVTkJx2fOER/zn4IYQFKpRa1j+kP4x3/0zpvIHR73/84T2sv8ENU+NgKff11wm+FVNSfvBN6BXXtD/7bIP3skS/Y+HkTz9RRL4dv4IaCmx0TnOKpRIEU/+sPzLfpWajWB1B0Q7LJ6+ULVNGdz///AvvYf29efNmtWLCDhSibdp1Mn2e7qlT+aEMRd2YMHGKgXI+SBrd3cDYFejhDzNXzlPNBbIgFCyrTsh7QtAloWN+LiVKlNBzcC0QJOi4B4ldgArXD3thSFAQU758WXP0yFE998UXXyYKE0tZRqqHVnkM669w4prXcNf7j58jFnSQoMWx8GzhGYNf3eRIVmwrXMrIstr67Xf2p25jqSeJLpSdlFyLuOAiA4NjeLaghP/zz/1qNYzyte4p/Gli3yVdKOLwB9cOEAwswD0JplG3lqnW2IebBvhcxDMLX46xCuoingvU/7Jly5hvhS1cNmAAY9bxwRcb53ffb7M/Q1urqET79qO4KIHAUtFaK4YCHv9x9tkVdIDAf9ylvWrZpp0Z0K+POf+8cw3aoi7iaxMDEn37P+OPTvcx6ADLRlg8Yuo//nbs3Ck+f58JzENQJOede44e9lpZB4XDMb/rmJ2SFiRc+6gn+Y8ESIAESIAESIAESIAEsjCBYE1BFrxhWEXAuhDTpSCwSkBnMZJgURkoJu+T6bjrxTdembNKaxxeK5wl4o+ywV31TLeHu5jGTe+PFF2anIMiClO5u8rCQEECp/5BAmXZEVF6wjoL1j379+8PChY6hgVNYOlipwmGTsgPO5Xy+4AOqjdccn/HI+3kckpunu11UIzBKjJIypYto4e/EmUjrIKsfPLpp6p8hG8928G350qK/0av4PxdDe7R6d/w63aj+CuDGwNYImGKt19aNL9fLYPuaXpfIqsiLKiRM4eb0t/GiTRgcfh03wEyPTXpNERMwQ4S+NiE/PjjT2bgoGCFOp65Zvc20XBQ9HrFpSwLFSrkvSTw92frExTZZcuWCTyPg655DRuB7wT84MF/JZ4Z3L9X8GzhL9wz6w2bnN8u3ILiTc+2wqWMbJ6TU0/stf5tcll544H7BgwC4A9lDUVUpAWmcK1rusuWrwgNLJU880yZrr1Ck4bCu4ZYXFt/ybPEh2xy5cVhw82YkS/roNN4sQyEj8WVq1YnshBH3CXET6xf7Ht3j1h5r5fn7PrrrjUY7Fu4cLE/qO77Bx9sIJf2CoOWWDimgCzm1bB+PZnmfoe2n7CyDte+wA0K/i6+qLJpKu0mBuheksG962+sowOgSB/x2ZkS2M8tU9mt2OcYCkoobSkkQAIkQAIkQAIkQAIkQALuBGLTPLjHmyFD9u03MJSv3n36h36H+/HTTz+rbzCsEoxVeiHjxv/rpB776KRjCi46Xr16PpHEghOrVQ+RBUnKli0joWOTHDlzxHaBhMZ0XnR4sQoxLDi9fz/+9FOiaeD+yEeKQhLXYhEWWPX4BT4C7SI7K4+vuo179gosWO2CDm8vS+gce89H+40pftEkHmmnhFO0/EU6/6WsPo0Ofe3j055tWCyOAyX4gQMHkyio7Mrb9x1XzNlrsNhNLVE8WgF76+cNdRcWwS++NFxPX331VTZYaIvrUd4/iXsA71THC8WyCj7OYhUoKSDwQ+etd/iNuudXqtr4MWUSPuEwhfL7bT8kunaT+OPDiuVBlrn2+niVJaZgIi9YIRvPj1esNWhK84o4vXV80aIlmkz7dq2TtB3wMwtZcZyr7oT5l13aCpcyCoMo5rbRa40fjzoGy0IM/sDFBRalgcX/qOO+ilOaZzs9uI+4ZED9mjI1YXr4dJk2jP3e4tcVAstJFwmqT/CNCfcAsFpFfYUMH5kwRd0bJ6xC4T/TK106tdddWBRaH5VVr7gi0bNu2wlsve4wbDyu7RUGcCBQIk6YNMU0aZYwYGgtSm18dmvdM2AfaT/U7VF13YDyx1RzlD2kkcwo8AraaytYMA/SumULg3x6xbYd3mP8TQIkQAIkQAIkQAIkQAIk8C+BbGMxiVuGYgTT0TB9Dou2uMjI0WMNFj7AwgWwXlm+YmWSy9CRmTp5giwsU12mL19i3hXfWbCawNQ5WKpgkYAm4o8LU8MaNrjL3COO/3s/3S+08rQ/QqvAga+wIkWKmI9kqhlWeHaRfgOeNVjhE1PYKlWsqErTcmXLiF/GWzSuho2a6nS+oLhgTVOmTBmd+jd3zkzxs7dOVw+GpegVsjI2VpjesbOKWpbMeXWuuVE62NWuutJgJea5sooyVi5t3LiRhntr4SK10rPWk0Hp+Y9hGjRWS69fr6459PehRAsReMO6pm2VdN5r7e+UcLJxJGeLRWlmyuJAPWTxJdQNrMKMBSpQL9AR7tNvQJJoUV8x3RBWPK9MHm+wSAWsYps1bZJo1fhHxGq3Tu2btK5gav4/siJskyaNNL516/6XJF50/jG9tJIsWIMVcqE0uOiiC8UPae1EyrMkF4Y5AH+t8MmKqehYXXfR4qWqhMUCLlgUB4pS1IsggZUlrkHdnTJlmvlZ/E3CegkL6mAV7zvqNgi6TI+5lGXYi30nHn3sSfOSTCefIivYvyp1HEoJKHVh4QXlQ78BA9UiNLl5xVTa8849V63bChc+0YweM14XqsIK3PNfmy3+/6aLclTuV55X+NyDIijS4l7Zsa2IVkbhpka71BOUD6aAY4oxnlEsZjV67Hgp9+S3q7aK4XlbKs9l7Vo3ysBPHm2bo1mmu6YLxT2mH2MFaSj5rdUeBs7w3oLFMKw0oViPJNHq07gJE80Tjz2qFr6wYoZfWL9AETr9lYmqHMU05dtuuVmt66FUtj6d0YZhWjYW2YIl6dGjx3RxHvhxhj/kx554yh+tKiujtVdXyntq4IC+ygIWkBigsYNpsEQPkpEvvyiroJ+qAwDvybv7jDPO0GnxUBxvkucf3B6QBczwbsOK22ibUIbewQtMjx8/cbKGm//aLPXjicGeO2W6O57jXvK+dxWsXo7vjUaNmwUqaF3jYTgSIAESIAESIAESIAESyCwEMqRiEh0CV4kUNujcU737iNVKgq86lzSgrEEHAxaE4Tq8mDLYpNkDplOHdqrUQ6fFCjqFQ4a+aN58K0EhA2sTKPgayBQzLHgSJFBG5lSDRQAAB1lJREFUrJfpbpgqjVWdoeDECqO4n2PSuY0k6CA1u+9BVabeduvN6gcM4aH0w+rifr+A/riefW6IKnAx3RBKR/xBoBzDPcAXl5U2Ml0OChr4DcOq3xD4HIOVygTppLmIt4ymSWcVHUBMPUbn2nZig+JxSdtO5Tz2z79Tfy2/lHLy5+nI0SN6yJuWPwz2UZful5XhhwwaqIpsKLMh8DuGzrj1UWbz/s/xactQfnft0lEUVreGWGM1XywE065NK41jlCi5YLkLKx/rCxGrPc8TpTEUoEHSuWs3WQn8eV39GQpElAfC4vpcuWJvHlq1aW/QscZCN1C8QnAvsJJavGSp7h/1TcXGQUwzf6Jnb4MFKFq1bK7h8A8r/vbs3Te0H/TDpSyLFi0adGnomK2HGADo8XhPUdQ+ospiGwDuA7CwBSQleR05aqyuUN62dUu1nlu2bKWu1g4fpPDxassS+cE0XDCJJNmxrYhWRmhfg8SlnuC6ufPmm3oy/Re+BlEO8N+IBWZS0q7a/IwYMdrcdGNNVfxjanQ0cc0z4oFbESi431mzNlG0a9/7QK2Yww0KeAOHq082DJ7jrl1kmrQMjNjnwZ6z2/my+NVFF15oMO3aCpSYHTp3tbvqLgQ+UOvKwjzWJy1YQ5H6/AsvhcL5f0Rrr/Bs4r0BlyQ2fbyTsKBV/2cSFuDxx4nBoCcf76GDDxiAgMDfLqxZ8d6DQhXPISyYMVACgUsO8MRAkJWJ8t6DUhZTwfF8Q+xzDFcyGCCE2DZddwL+YXAOi/dgUBJpU0iABEiABEiABEiABEggqxPIUbJM+X+M6gFzyL0GKAT1cJhzWZ1OMu8PfvbKnHWWgT80dGy8gumqM6ZOdlLewZIOHSC/7zlvfJF+wwIPVmdbt0aeChsujoIFC4p11zmygM03EafSwg8erEKgTPT63wwXb6TjYHeKWKV8IVOeXSQeaaeUk0s+g8JA2V3x7LOj8vVei9Vq0XH9avPXYa2fMJUQ0xZhXWQtp7xxBP3G1MtSJc8066UDb5WiQeFiOVapUkXz1/6/IroPCIoPvtxQ75AX//MTFN57LJ5laZ9jKML8ixrZNJOTV1yDRW/QPninrCLvFcqXU7+SqP+xlEN2bCtQBi5lZMvKu41WT/AMQTn/9TdbkvjbjXatN514/k7LdMPVJ3BZsnCBgVLxpjq3Jbo9WKhPmTTOwKIdSle0zRhU2/jFF+qiIlFgzw6mOhcvVlTbfNc679Je4R7wDsP0bBfBc4ky/2bL1kCFIO79PFlQB/5zocCNJOXLlTMFChbQBc1c78nGh6nlhcUFDHz2UkiABEiABEiABEiABEggOxCgYjKNS7mv+AC7qHJlc0e9BomUEmmcDSZHAiRAAiRAAk4EYD2KAZHLL79MrbIHiPUhFq/xil8x6T3H3yRAAiRAAiRAAiRAAiRAAiQQjkDsczXDxcTjTgQGDHxOp4V7LaWcLmQgEiABEiABEkgHApjCDJcdmBa9cNHiJEpJZOmQzA6AdeDBQwfTIYdMkgRIgARIgARIgARIgARIILMSoMVkZi055psESIAESIAE0ogApmbH6lohjbLGZEiABEiABEiABEiABEiABDIxgZyZOO/MOgmQAAmQAAmQQBoQoFIyDSAzCRIgARIgARIgARIgARLIhgSomMyGhc5bJgESIAESIAESIAESIAESIAESIAESIAESIIH0JkDFZHqXANMnARIgARIgARIgARIgARIgARIgARIgARIggWxIgIrJbFjovGUSIAESIAESIAESIAESIAESIAESIAESIAESSG8CVEymdwkwfRIgARIgARIgARIgARIgARIgARIgARIgARLIhgSomMyGhc5bJgESIAESIAESIAESIAESIAESIAESIAESIIH0JkDFZHqXANMnARIgARIgARIgARIgARIgARIgARIgARIggWxIgIrJbFjovGUSIAESIAESIAESIAESIAESIAESIAESIAESSG8CVEymdwkwfRIgARIgARIgARIgARIgARIgARIgARIgARLIhgSomMyGhc5bJgESIAESIAESIAESIAESIAESIAESIAESIIH0JkDFZHqXANMnARIgARIgARIgARIgARIgARIgARIgARIggWxIgIrJbFjovGUSIAESIAESIAESIAESIAESIAESIAESIAESSG8CVEymdwkwfRIgARIgARIgARIgARIgARIgARIgARIgARLIhgSomMyGhc5bJgESIAESIAESIAESIAESIAESIAESIAESIIH0JkDFZHqXANMnARIgARIgARIgARIgARIgARIgARIgARIggWxIgIrJbFjovGUSIAESIAESIAESIAESIAESIAESIAESIAESSG8CVEymdwkwfRIgARIgARIgARIgARIgARIgARIgARIgARLIhgSomMyGhc5bJgESIAESIAESIAESIAESIAESIAESIAESIIH0JkDFZHqXANMnARIgARIgARIgARIgARIgARIgARIgARIggWxI4P8TcAfpWGZGBAAAAABJRU5ErkJggg==;" vertex="1" parent="1">
          <mxGeometry x="1160" y="60.000000000000014" width="1010" height="575.7" as="geometry" />
        </mxCell>
        <mxCell id="6u9O3axTfM24tShvITcC-14" style="edgeStyle=orthogonalEdgeStyle;rounded=0;orthogonalLoop=1;jettySize=auto;html=1;exitX=1;exitY=0.25;exitDx=0;exitDy=0;entryX=0;entryY=0.25;entryDx=0;entryDy=0;fillColor=#dae8fc;strokeColor=#6c8ebf;dashed=1;" edge="1" parent="1" source="6u9O3axTfM24tShvITcC-15" target="6u9O3axTfM24tShvITcC-19">
          <mxGeometry relative="1" as="geometry" />
        </mxCell>
        <mxCell id="6u9O3axTfM24tShvITcC-36" value="callback" style="edgeLabel;html=1;align=center;verticalAlign=middle;resizable=0;points=[];" vertex="1" connectable="0" parent="6u9O3axTfM24tShvITcC-14">
          <mxGeometry x="-0.2444" y="-3" relative="1" as="geometry">
            <mxPoint as="offset" />
          </mxGeometry>
        </mxCell>
        <mxCell id="6u9O3axTfM24tShvITcC-15" value="PersonLoader" style="rounded=0;whiteSpace=wrap;html=1;fillColor=#dae8fc;strokeColor=#6c8ebf;" vertex="1" parent="1">
          <mxGeometry x="93" y="416" width="120" height="40" as="geometry" />
        </mxCell>
        <mxCell id="6u9O3axTfM24tShvITcC-16" value="Model" style="text;html=1;align=center;verticalAlign=middle;resizable=0;points=[];autosize=1;strokeColor=none;fillColor=none;" vertex="1" parent="1">
          <mxGeometry x="123" y="386" width="60" height="30" as="geometry" />
        </mxCell>
        <mxCell id="6u9O3axTfM24tShvITcC-17" style="edgeStyle=orthogonalEdgeStyle;rounded=0;orthogonalLoop=1;jettySize=auto;html=1;exitX=0;exitY=0.75;exitDx=0;exitDy=0;entryX=1;entryY=0.75;entryDx=0;entryDy=0;fillColor=#e1d5e7;strokeColor=#9673a6;" edge="1" parent="1" source="6u9O3axTfM24tShvITcC-19" target="6u9O3axTfM24tShvITcC-15">
          <mxGeometry relative="1" as="geometry" />
        </mxCell>
        <mxCell id="6u9O3axTfM24tShvITcC-37" value="manage" style="edgeLabel;html=1;align=center;verticalAlign=middle;resizable=0;points=[];" vertex="1" connectable="0" parent="6u9O3axTfM24tShvITcC-17">
          <mxGeometry x="0.1056" y="-1" relative="1" as="geometry">
            <mxPoint as="offset" />
          </mxGeometry>
        </mxCell>
        <mxCell id="6u9O3axTfM24tShvITcC-18" style="edgeStyle=orthogonalEdgeStyle;rounded=0;orthogonalLoop=1;jettySize=auto;html=1;exitX=1;exitY=0.75;exitDx=0;exitDy=0;entryX=0;entryY=0.75;entryDx=0;entryDy=0;fillColor=#e1d5e7;strokeColor=#9673a6;" edge="1" parent="1" source="6u9O3axTfM24tShvITcC-19" target="6u9O3axTfM24tShvITcC-22">
          <mxGeometry relative="1" as="geometry" />
        </mxCell>
        <mxCell id="6u9O3axTfM24tShvITcC-38" value="notify state changes" style="edgeLabel;html=1;align=center;verticalAlign=middle;resizable=0;points=[];" vertex="1" connectable="0" parent="6u9O3axTfM24tShvITcC-18">
          <mxGeometry x="0.1306" y="2" relative="1" as="geometry">
            <mxPoint as="offset" />
          </mxGeometry>
        </mxCell>
        <mxCell id="6u9O3axTfM24tShvITcC-19" value="PersonViewModel" style="rounded=0;whiteSpace=wrap;html=1;fillColor=#e1d5e7;strokeColor=#9673a6;" vertex="1" parent="1">
          <mxGeometry x="333" y="416" width="160" height="40" as="geometry" />
        </mxCell>
        <mxCell id="6u9O3axTfM24tShvITcC-20" value="ViewModel" style="text;html=1;align=center;verticalAlign=middle;resizable=0;points=[];autosize=1;strokeColor=none;fillColor=none;" vertex="1" parent="1">
          <mxGeometry x="373" y="386" width="80" height="30" as="geometry" />
        </mxCell>
        <mxCell id="6u9O3axTfM24tShvITcC-21" value="action" style="edgeStyle=orthogonalEdgeStyle;rounded=0;orthogonalLoop=1;jettySize=auto;html=1;exitX=0;exitY=0.25;exitDx=0;exitDy=0;entryX=1;entryY=0.25;entryDx=0;entryDy=0;fillColor=#fff2cc;strokeColor=#d6b656;dashed=1;" edge="1" parent="1" source="6u9O3axTfM24tShvITcC-22" target="6u9O3axTfM24tShvITcC-19">
          <mxGeometry relative="1" as="geometry" />
        </mxCell>
        <mxCell id="6u9O3axTfM24tShvITcC-22" value="UITableView" style="rounded=0;whiteSpace=wrap;html=1;fillColor=#fff2cc;strokeColor=#d6b656;" vertex="1" parent="1">
          <mxGeometry x="643" y="416" width="160" height="40" as="geometry" />
        </mxCell>
        <mxCell id="6u9O3axTfM24tShvITcC-23" value="View" style="text;html=1;align=center;verticalAlign=middle;resizable=0;points=[];autosize=1;strokeColor=none;fillColor=none;" vertex="1" parent="1">
          <mxGeometry x="698" y="386" width="50" height="30" as="geometry" />
        </mxCell>
        <mxCell id="6u9O3axTfM24tShvITcC-27" style="edgeStyle=orthogonalEdgeStyle;rounded=0;orthogonalLoop=1;jettySize=auto;html=1;exitX=0.5;exitY=1;exitDx=0;exitDy=0;entryX=0.75;entryY=0;entryDx=0;entryDy=0;fillColor=#d5e8d4;strokeColor=#82b366;" edge="1" parent="1" source="6u9O3axTfM24tShvITcC-25" target="6u9O3axTfM24tShvITcC-19">
          <mxGeometry relative="1" as="geometry">
            <Array as="points">
              <mxPoint x="553" y="396" />
              <mxPoint x="453" y="396" />
            </Array>
          </mxGeometry>
        </mxCell>
        <mxCell id="6u9O3axTfM24tShvITcC-28" style="edgeStyle=orthogonalEdgeStyle;rounded=0;orthogonalLoop=1;jettySize=auto;html=1;exitX=0.5;exitY=1;exitDx=0;exitDy=0;entryX=0.25;entryY=0;entryDx=0;entryDy=0;fillColor=#d5e8d4;strokeColor=#82b366;" edge="1" parent="1" source="6u9O3axTfM24tShvITcC-25" target="6u9O3axTfM24tShvITcC-22">
          <mxGeometry relative="1" as="geometry">
            <Array as="points">
              <mxPoint x="553" y="396" />
              <mxPoint x="683" y="396" />
            </Array>
          </mxGeometry>
        </mxCell>
        <mxCell id="6u9O3axTfM24tShvITcC-25" value="Binder" style="rounded=0;whiteSpace=wrap;html=1;fillColor=#d5e8d4;strokeColor=#82b366;" vertex="1" parent="1">
          <mxGeometry x="473" y="346" width="160" height="40" as="geometry" />
        </mxCell>
        <mxCell id="6u9O3axTfM24tShvITcC-29" value="Binder" style="text;html=1;align=center;verticalAlign=middle;resizable=0;points=[];autosize=1;strokeColor=none;fillColor=none;" vertex="1" parent="1">
          <mxGeometry x="523" y="388" width="60" height="30" as="geometry" />
        </mxCell>
        <mxCell id="6u9O3axTfM24tShvITcC-56" style="edgeStyle=orthogonalEdgeStyle;rounded=0;orthogonalLoop=1;jettySize=auto;html=1;exitX=1;exitY=0.25;exitDx=0;exitDy=0;entryX=0;entryY=0.25;entryDx=0;entryDy=0;fillColor=#dae8fc;strokeColor=#6c8ebf;dashed=1;" edge="1" parent="1" source="6u9O3axTfM24tShvITcC-58" target="6u9O3axTfM24tShvITcC-64">
          <mxGeometry relative="1" as="geometry" />
        </mxCell>
        <mxCell id="6u9O3axTfM24tShvITcC-57" value="callback" style="edgeLabel;html=1;align=center;verticalAlign=middle;resizable=0;points=[];" vertex="1" connectable="0" parent="6u9O3axTfM24tShvITcC-56">
          <mxGeometry x="-0.0222" y="2" relative="1" as="geometry">
            <mxPoint as="offset" />
          </mxGeometry>
        </mxCell>
        <mxCell id="6u9O3axTfM24tShvITcC-58" value="PersonLoader" style="rounded=0;whiteSpace=wrap;html=1;fillColor=#dae8fc;strokeColor=#6c8ebf;" vertex="1" parent="1">
          <mxGeometry x="5" y="647" width="120" height="40" as="geometry" />
        </mxCell>
        <mxCell id="6u9O3axTfM24tShvITcC-59" value="Model" style="text;html=1;align=center;verticalAlign=middle;resizable=0;points=[];autosize=1;strokeColor=none;fillColor=none;" vertex="1" parent="1">
          <mxGeometry x="35" y="617" width="60" height="30" as="geometry" />
        </mxCell>
        <mxCell id="6u9O3axTfM24tShvITcC-60" style="edgeStyle=orthogonalEdgeStyle;rounded=0;orthogonalLoop=1;jettySize=auto;html=1;exitX=0;exitY=0.75;exitDx=0;exitDy=0;entryX=1;entryY=0.75;entryDx=0;entryDy=0;fillColor=#f8cecc;strokeColor=#b85450;" edge="1" parent="1" source="6u9O3axTfM24tShvITcC-64" target="6u9O3axTfM24tShvITcC-58">
          <mxGeometry relative="1" as="geometry" />
        </mxCell>
        <mxCell id="6u9O3axTfM24tShvITcC-61" value="manage" style="edgeLabel;html=1;align=center;verticalAlign=middle;resizable=0;points=[];" vertex="1" connectable="0" parent="6u9O3axTfM24tShvITcC-60">
          <mxGeometry x="0.0917" y="-1" relative="1" as="geometry">
            <mxPoint as="offset" />
          </mxGeometry>
        </mxCell>
        <mxCell id="6u9O3axTfM24tShvITcC-71" style="edgeStyle=orthogonalEdgeStyle;rounded=0;orthogonalLoop=1;jettySize=auto;html=1;exitX=1;exitY=0.75;exitDx=0;exitDy=0;entryX=0;entryY=0.25;entryDx=0;entryDy=0;fillColor=#f8cecc;strokeColor=#b85450;" edge="1" parent="1" source="6u9O3axTfM24tShvITcC-64" target="6u9O3axTfM24tShvITcC-70">
          <mxGeometry relative="1" as="geometry" />
        </mxCell>
        <mxCell id="6u9O3axTfM24tShvITcC-73" value="update" style="edgeLabel;html=1;align=center;verticalAlign=middle;resizable=0;points=[];" vertex="1" connectable="0" parent="6u9O3axTfM24tShvITcC-71">
          <mxGeometry x="-0.174" relative="1" as="geometry">
            <mxPoint as="offset" />
          </mxGeometry>
        </mxCell>
        <mxCell id="6u9O3axTfM24tShvITcC-64" value="PersonPresenter" style="rounded=0;whiteSpace=wrap;html=1;fillColor=#f8cecc;strokeColor=#b85450;" vertex="1" parent="1">
          <mxGeometry x="245" y="647" width="160" height="40" as="geometry" />
        </mxCell>
        <mxCell id="6u9O3axTfM24tShvITcC-65" value="Controller" style="text;html=1;align=center;verticalAlign=middle;resizable=0;points=[];autosize=1;strokeColor=none;fillColor=none;" vertex="1" parent="1">
          <mxGeometry x="285" y="617" width="80" height="30" as="geometry" />
        </mxCell>
        <mxCell id="6u9O3axTfM24tShvITcC-66" style="edgeStyle=orthogonalEdgeStyle;rounded=0;orthogonalLoop=1;jettySize=auto;html=1;exitX=0;exitY=0.25;exitDx=0;exitDy=0;entryX=1;entryY=0.25;entryDx=0;entryDy=0;fillColor=#fff2cc;strokeColor=#d6b656;" edge="1" parent="1" source="6u9O3axTfM24tShvITcC-68" target="6u9O3axTfM24tShvITcC-64">
          <mxGeometry relative="1" as="geometry" />
        </mxCell>
        <mxCell id="6u9O3axTfM24tShvITcC-67" value="action" style="edgeLabel;html=1;align=center;verticalAlign=middle;resizable=0;points=[];" vertex="1" connectable="0" parent="6u9O3axTfM24tShvITcC-66">
          <mxGeometry x="0.1194" y="-1" relative="1" as="geometry">
            <mxPoint as="offset" />
          </mxGeometry>
        </mxCell>
        <mxCell id="6u9O3axTfM24tShvITcC-72" style="edgeStyle=orthogonalEdgeStyle;rounded=0;orthogonalLoop=1;jettySize=auto;html=1;exitX=0;exitY=0.75;exitDx=0;exitDy=0;entryX=1;entryY=0.25;entryDx=0;entryDy=0;fillColor=#fff2cc;strokeColor=#d6b656;dashed=1;endArrow=block;endFill=0;" edge="1" parent="1" source="6u9O3axTfM24tShvITcC-68" target="6u9O3axTfM24tShvITcC-70">
          <mxGeometry relative="1" as="geometry" />
        </mxCell>
        <mxCell id="6u9O3axTfM24tShvITcC-68" value="UITableView" style="rounded=0;whiteSpace=wrap;html=1;fillColor=#fff2cc;strokeColor=#d6b656;" vertex="1" parent="1">
          <mxGeometry x="685" y="647" width="160" height="40" as="geometry" />
        </mxCell>
        <mxCell id="6u9O3axTfM24tShvITcC-69" value="View" style="text;html=1;align=center;verticalAlign=middle;resizable=0;points=[];autosize=1;strokeColor=none;fillColor=none;" vertex="1" parent="1">
          <mxGeometry x="740" y="617" width="50" height="30" as="geometry" />
        </mxCell>
        <mxCell id="6u9O3axTfM24tShvITcC-70" value="&amp;lt;PersonViewDelegate&amp;gt;" style="rounded=0;whiteSpace=wrap;html=1;fillColor=#f8cecc;strokeColor=#b85450;" vertex="1" parent="1">
          <mxGeometry x="475" y="667" width="140" height="40" as="geometry" />
        </mxCell>
        <mxCell id="6u9O3axTfM24tShvITcC-74" value="&amp;lt;AbstractView&amp;gt;" style="text;html=1;align=center;verticalAlign=middle;resizable=0;points=[];autosize=1;strokeColor=none;fillColor=none;" vertex="1" parent="1">
          <mxGeometry x="485" y="707" width="110" height="30" as="geometry" />
        </mxCell>
        <mxCell id="6u9O3axTfM24tShvITcC-75" value="MVC" style="text;html=1;strokeColor=none;fillColor=none;align=center;verticalAlign=middle;whiteSpace=wrap;rounded=0;fontStyle=1;fontSize=20;" vertex="1" parent="1">
          <mxGeometry x="93" y="56" width="60" height="30" as="geometry" />
        </mxCell>
        <mxCell id="6u9O3axTfM24tShvITcC-76" value="MVVM" style="text;html=1;strokeColor=none;fillColor=none;align=center;verticalAlign=middle;whiteSpace=wrap;rounded=0;fontStyle=1;fontSize=20;" vertex="1" parent="1">
          <mxGeometry x="93" y="351" width="60" height="30" as="geometry" />
        </mxCell>
        <mxCell id="6u9O3axTfM24tShvITcC-78" value="MVP" style="text;html=1;strokeColor=none;fillColor=none;align=center;verticalAlign=middle;whiteSpace=wrap;rounded=0;fontStyle=1;fontSize=20;" vertex="1" parent="1">
          <mxGeometry x="5" y="582" width="60" height="30" as="geometry" />
        </mxCell>
      </root>
    </mxGraphModel>
  </diagram>
</mxfile>
